<svg width="37" height="37" viewBox="0 0 37 37" fill="none" xmlns="http://www.w3.org/2000/svg">
<path d="M28.0526 27.6667H9.81579L6.34211 2H2" stroke="#D0CECE" stroke-width="2.65" stroke-linecap="round" stroke-linejoin="round"/>
<path d="M6.83813 5.66663H34.9998L29.7893 22.1666H9.07121" stroke="#D0CECE" stroke-width="2.65" stroke-linecap="round" stroke-linejoin="round"/>
<path d="M14.158 35C16.0765 35 17.6317 33.3584 17.6317 31.3333C17.6317 29.3082 16.0765 27.6666 14.158 27.6666C12.2395 27.6666 10.6843 29.3082 10.6843 31.3333C10.6843 33.3584 12.2395 35 14.158 35Z" stroke="#D0CECE" stroke-width="2.65" stroke-linecap="round" stroke-linejoin="round"/>
<path d="M28.0525 35C29.9711 35 31.5262 33.3584 31.5262 31.3333C31.5262 29.3082 29.9711 27.6666 28.0525 27.6666C26.134 27.6666 24.5789 29.3082 24.5789 31.3333C24.5789 33.3584 26.134 35 28.0525 35Z" stroke="#D0CECE" stroke-width="2.65" stroke-linecap="round" stroke-linejoin="round"/>
</svg>
