<svg width="32" height="33" viewBox="0 0 32 33" fill="none" xmlns="http://www.w3.org/2000/svg">
<path fill-rule="evenodd" clip-rule="evenodd" d="M15.3789 0C23.8587 0 30.7562 6.89584 30.7562 15.3736C30.7562 19.3733 29.2209 23.0213 26.7084 25.7592L31.6522 30.6914C32.1149 31.154 32.1165 31.9023 31.6538 32.3648C31.4232 32.5985 31.1185 32.7137 30.8153 32.7137C30.5137 32.7137 30.2105 32.5985 29.9783 32.368L24.9749 27.3797C22.3429 29.4871 19.0056 30.7487 15.3789 30.7487C6.89911 30.7487 0 23.8513 0 15.3736C0 6.89584 6.89911 0 15.3789 0ZM15.3789 2.36808C8.20503 2.36808 2.36866 8.20144 2.36866 15.3736C2.36866 22.5457 8.20503 28.3806 15.3789 28.3806C22.5512 28.3806 28.3876 22.5457 28.3876 15.3736C28.3876 8.20144 22.5512 2.36808 15.3789 2.36808Z" fill="#D0CECE"/>
</svg>
