<svg width="375" height="238" viewBox="0 0 375 238" fill="none" xmlns="http://www.w3.org/2000/svg">
<path d="M121.62 174.59L104.82 212.6" stroke="#0E0E0E" stroke-width="1.66" stroke-miterlimit="10" stroke-linecap="round"/>
<path d="M134.59 174.59L151.38 212.6" stroke="#0E0E0E" stroke-width="1.66" stroke-miterlimit="10" stroke-linecap="round"/>
<path d="M128.55 169.98V208.76" stroke="#0E0E0E" stroke-width="1.66" stroke-miterlimit="10" stroke-linecap="round"/>
<path d="M88.22 174.59C88.22 178.29 106.28 181.29 128.55 181.29C150.82 181.29 168.88 178.29 168.88 174.59C168.88 170.89 150.82 167.89 128.55 167.89C106.28 167.89 88.22 170.89 88.22 174.59Z" fill="#71626B"/>
<path d="M168.88 169.98H88.22V174.59H168.88V169.98Z" fill="#71626B"/>
<path d="M88.22 169.98C88.22 173.68 106.28 176.68 128.55 176.68C150.82 176.68 168.88 173.68 168.88 169.98C168.88 166.28 150.82 163.28 128.55 163.28C106.28 163.28 88.22 166.28 88.22 169.98Z" fill="#E4CBC7"/>
<path d="M137.21 123.26C130.94 131.86 127.88 143.38 125.05 153.43" stroke="#2B6C71" stroke-width="0.83" stroke-miterlimit="10"/>
<path d="M164.33 143.37C164.33 143.37 162.59 133.38 149.59 123.5C136.59 113.62 136.31 124.21 136.31 124.21C136.31 124.21 130.76 126.9 143.02 142.58L144.47 135.47L146.92 144.14L153.89 146.86V141.8L157.23 146.96C157.23 146.96 164.1 144.98 164.33 143.35V143.37Z" fill="#124847"/>
<path d="M164.33 143.37C164.33 143.37 144.94 118.12 136.31 124.21" stroke="#2B6C71" stroke-width="0.83" stroke-miterlimit="10" stroke-linecap="round"/>
<path d="M116.53 111.18C121.77 125.71 120.44 136.34 121.43 155.44" stroke="#2B6C71" stroke-width="0.83" stroke-miterlimit="10"/>
<path d="M85.4001 94.3899C85.4001 94.3899 95.0201 89.9699 110.32 97.6099C125.63 105.26 116.52 112.22 116.52 112.22C116.52 112.22 117.02 119.84 97.0301 116.62L102.5 110.6L93.6601 113.44L87.7 107.72L92.1201 104.56L85.8901 104.23C85.8901 104.23 84.0901 95.6599 85.3901 94.3899H85.4001Z" fill="#124847"/>
<path d="M85.4001 94.3899C85.4001 94.3899 117.41 99.1799 116.53 112.22" stroke="#2B6C71" stroke-width="0.83" stroke-miterlimit="10" stroke-linecap="round"/>
<path d="M113.48 144.52H132.71L127.41 169.41H117.57L113.48 144.52Z" fill="#8D95B9"/>
<path d="M241.37 137.4H277.76C283.26 137.4 288.1 141.04 289.63 146.33L308.93 212.6" stroke="#0E0E0E" stroke-width="1.66" stroke-miterlimit="10" stroke-linecap="round"/>
<path d="M187.57 157.53V212.6" stroke="#0E0E0E" stroke-width="1.66" stroke-miterlimit="10" stroke-linecap="round"/>
<path d="M168.2 70.2599H226.09L241.11 138.08L264.76 156.93L297.7 166.15H214.54L181.49 146.13L170.47 84.8199L168.2 70.2599Z" fill="#B6BFD8"/>
<path d="M233.93 76.5499L248.06 136.83C249.63 143.53 255.61 148.27 262.49 148.27H297.7C302.64 148.27 306.64 152.27 306.64 157.21C306.64 162.15 302.64 166.16 297.7 166.16H249.96C243.08 166.16 237.1 161.42 235.53 154.73L218.06 80.2799C217.07 76.0799 219.54 71.8299 223.68 70.6099C228.17 69.2799 232.86 71.9999 233.93 76.5599V76.5499Z" fill="#B6BFD8"/>
<path d="M174.28 76.5499L188.41 136.83C189.98 143.53 195.96 148.27 202.84 148.27H238.05C242.99 148.27 246.99 152.27 246.99 157.21C246.99 162.15 242.99 166.16 238.05 166.16H190.31C183.43 166.16 177.45 161.42 175.88 154.73L158.41 80.2799C157.42 76.0799 159.89 71.8299 164.03 70.6099C168.52 69.2799 173.21 71.9999 174.28 76.5599V76.5499Z" fill="#8D95B9"/>
<path d="M282.66 114.6C283.44 114.11 278.58 113.77 278.58 113.77C283.83 112.48 283.67 112.72 283.83 112.48C284.25 111.85 278.08 112.36 278.08 112.36C278.08 112.36 282.08 111.6 282.29 110.89C282.49 110.18 274.74 110.8 274.74 110.8C274.74 110.8 276.03 109.53 275.94 107.87C275.92 107.45 275.45 107.14 275.14 107.1C274.54 109.17 269.76 111.34 269.76 111.34C269.76 111.34 269.16 111.4 268.14 111.5C267.6 111.55 267.07 111.61 266.53 111.66C264.83 111.83 262.61 112.04 260.2 112.27C252.69 112.94 244.5 113.36 234.56 112.63C231.77 116.25 228.81 119.74 225.78 123.16C232.4 123.95 242.49 123.66 257.44 120.32L260.22 119.71C262.49 119.32 264.91 118.84 267.5 118.22L270.69 117.31C270.69 117.31 280.54 116.63 281.19 116.27C281.84 115.91 278.09 115.6 278.09 115.6C278.09 115.6 281.7 115.21 282.67 114.6H282.66Z" fill="#FBC8C8"/>
<path d="M242.92 120.93L234.21 88.8099L219.77 93.0299L227.9 121.31C232.91 121.22 237.92 121.08 242.92 120.93Z" fill="#FBC8C8"/>
<path d="M216.89 92.63L220.38 112.78C220.38 112.78 240.27 108.77 240.62 108.21C240.79 107.94 238.98 94.1 237.98 88.66C236.8 82.29 228.6 77.61 222.43 79.6L224.13 80.39C218.97 82.06 215.87 87.31 216.89 92.63Z" fill="#FAAF3A"/>
<path d="M228.78 85.2399H199.33C199.33 85.2399 195.42 44.6899 213.4 44.6899C232.97 44.6899 228.79 85.2399 228.79 85.2399H228.78Z" fill="#A92F4B"/>
<path d="M219.2 70.2399L220.13 86.8699L208.19 86.6699L209.04 72.9599L219.2 70.2399Z" fill="#FBC8C8"/>
<path d="M219.57 76.9899C213.36 78.6199 209.03 72.9599 209.03 72.9599L219.19 70.2399L219.56 76.9899H219.57Z" fill="#F96B80"/>
<path d="M202.62 59.3999C202.62 67.7299 207.31 74.5799 214.1 74.5799C220.89 74.5799 225.58 67.7399 225.58 59.3999C225.58 51.0599 222.71 47.5199 214.1 47.5199C205.49 47.5199 202.62 51.0699 202.62 59.3999Z" fill="#FBC8C8"/>
<mask id="mask0_283_11" style="mask-type:luminance" maskUnits="userSpaceOnUse" x="202" y="47" width="24" height="28">
<path d="M202.62 59.3999C202.62 67.7299 207.31 74.5799 214.1 74.5799C220.89 74.5799 225.58 67.7399 225.58 59.3999C225.58 51.0599 222.71 47.5199 214.1 47.5199C205.49 47.5199 202.62 51.0699 202.62 59.3999Z" fill="white"/>
</mask>
<g mask="url(#mask0_283_11)">
<path d="M220.64 66.8899C220.64 68.3999 222 69.6199 223.67 69.6199C225.34 69.6199 226.7 68.3999 226.7 66.8899C226.7 65.3799 225.34 64.1599 223.67 64.1599C222 64.1599 220.64 65.3799 220.64 66.8899Z" fill="#FFA1AF"/>
<path d="M201.66 66.7499C201.66 68.2599 203.02 69.4799 204.69 69.4799C206.36 69.4799 207.72 68.2599 207.72 66.7499C207.72 65.2399 206.36 64.0199 204.69 64.0199C203.02 64.0199 201.66 65.2399 201.66 66.7499Z" fill="#FFA1AF"/>
</g>
<path d="M201.1 65.4599C202.519 65.4599 203.67 64.3093 203.67 62.8899C203.67 61.4706 202.519 60.3199 201.1 60.3199C199.681 60.3199 198.53 61.4706 198.53 62.8899C198.53 64.3093 199.681 65.4599 201.1 65.4599Z" fill="#FBC8C8"/>
<path d="M199.98 62.46C199.98 62.46 200.81 61.87 201.66 63.15" stroke="#0F1B3C" stroke-width="0.38" stroke-miterlimit="10" stroke-linecap="round"/>
<path d="M226.7 65.4599C228.119 65.4599 229.27 64.3093 229.27 62.8899C229.27 61.4706 228.119 60.3199 226.7 60.3199C225.281 60.3199 224.13 61.4706 224.13 62.8899C224.13 64.3093 225.281 65.4599 226.7 65.4599Z" fill="#FBC8C8"/>
<path d="M227.82 62.46C227.82 62.46 226.99 61.87 226.14 63.15" stroke="#0F1B3C" stroke-width="0.38" stroke-miterlimit="10" stroke-linecap="round"/>
<path d="M219.42 62.5199C219.768 62.5199 220.05 62.1931 220.05 61.7899C220.05 61.3868 219.768 61.0599 219.42 61.0599C219.072 61.0599 218.79 61.3868 218.79 61.7899C218.79 62.1931 219.072 62.5199 219.42 62.5199Z" fill="#0F1B3C"/>
<path d="M208.8 62.5199C209.148 62.5199 209.43 62.1931 209.43 61.7899C209.43 61.3868 209.148 61.0599 208.8 61.0599C208.452 61.0599 208.17 61.3868 208.17 61.7899C208.17 62.1931 208.452 62.5199 208.8 62.5199Z" fill="#0F1B3C"/>
<path d="M214.57 65.07L215.56 64.07C214.83 63.34 214.27 62.58 214.27 62.58" stroke="#0F1B3C" stroke-width="0.38" stroke-miterlimit="10" stroke-linecap="round"/>
<path d="M215.85 66.81C215.85 66.81 213.5 69.28 211.41 65.46" stroke="#0F1B3C" stroke-width="0.38" stroke-miterlimit="10" stroke-linecap="round"/>
<path d="M231.31 82.04C230.82 79.19 225.2 78.06 219.57 78.52C214.87 84.71 208.59 80.56 208.56 80.54C204.11 81.96 197.94 84.5 196.5 85.9C194.23 88.1 196.2 95.88 196.2 95.88L207.59 130.97L233.05 121.85C231.92 108.26 231.31 82.05 231.31 82.05V82.04Z" fill="#FAAF3A"/>
<path d="M213.53 45.4599C201.1 45.4599 202.19 60.32 202.19 60.32C210.67 59.9399 217.3 54.96 216.94 53.25C216.83 52.7 216.85 52.96 216.94 53.25C218.93 61.16 226.15 59.88 226.15 59.88L226.22 59.5999C226.22 59.5999 226.53 45.45 213.53 45.45V45.4599Z" fill="#A92F4B"/>
<path d="M231.33 97.72L233.06 121.84" stroke="#161613" stroke-width="0.97" stroke-miterlimit="10" stroke-linecap="round"/>
<path d="M229.32 122.58H254.21V119.77H229.32C228.54 119.77 227.92 120.4 227.92 121.17C227.92 121.95 228.55 122.57 229.32 122.57V122.58Z" fill="#564752"/>
<path d="M250.93 122.58H286.66C288.56 122.58 290.23 121.31 290.74 119.48L297.17 96.3799C297.74 94.3399 296.2 92.3199 294.08 92.3199H261.04C259.77 92.3199 258.66 93.1699 258.34 94.3999L250.93 122.58Z" fill="#564752"/>
<path d="M275.51 111.87C277.233 111.87 278.63 110.473 278.63 108.75C278.63 107.027 277.233 105.63 275.51 105.63C273.787 105.63 272.39 107.027 272.39 108.75C272.39 110.473 273.787 111.87 275.51 111.87Z" fill="white"/>
<path d="M284.15 190.04L283.11 206.5L274.74 206.17L275.2 189.51L284.15 190.04Z" fill="#084FC7"/>
<path d="M282.88 204.67L296.7 210.97C297.61 211.42 298.08 212.44 297.85 213.43H273.48L274.39 204.57L282.89 204.67H282.88Z" fill="#161613"/>
<path d="M214.54 129.73C214.54 129.73 206.47 148.04 228.72 148.48L270.28 147.64L269.9 190.43L289.29 190.87L292.75 136.46C292.9 128.81 288.44 122.5 280.79 122.41L244.79 122L214.55 129.74L214.54 129.73Z" fill="#5E515A"/>
<path d="M272.42 190.04L271.39 206.5L263.01 206.17L263.48 189.51L272.42 190.04Z" fill="#084FC7"/>
<path d="M271.16 204.67L284.98 210.97C285.89 211.42 286.36 212.44 286.13 213.43H261.76L262.67 204.57L271.17 204.67H271.16Z" fill="#161613"/>
<path d="M202.82 129.58C202.82 129.58 194.75 147.89 217 148.33L258.56 147.49L258.18 190.28L277.57 190.72L281.03 136.31C281.18 128.66 276.72 122.35 269.07 122.26L233.07 121.85L202.83 129.59L202.82 129.58Z" fill="#71626B"/>
<path d="M202.44 99.4798C203.24 107.46 204.32 115.63 206.12 121.31C218.48 115.54 227.04 109.63 234.52 103.95C236.44 102.48 238.21 101.11 239.56 100.07C239.99 99.7398 240.42 99.4098 240.84 99.0798C241.65 98.4498 242.13 98.0798 242.13 98.0798C242.13 98.0798 245.03 93.6998 244.43 91.6298C244.71 91.4898 245.27 91.5098 245.52 91.8498C246.48 93.2098 246.06 94.9698 246.06 94.9698C246.06 94.9698 252.29 90.3198 252.5 91.0298C252.7 91.7398 249.72 94.5098 249.72 94.5098C249.72 94.5098 254.68 90.7998 254.66 91.5598C254.66 91.8498 254.66 91.5598 250.9 95.4398C250.9 95.4398 255.2 93.1498 254.8 93.9698C254.3 95.0098 251.45 97.2498 251.45 97.2498C251.45 97.2498 254.79 95.5198 254.43 96.1698C254.07 96.8198 246.09 102.63 246.09 102.63L243.88 105.09C242.02 106.99 240.23 108.69 238.51 110.22L236.48 112.21C212.67 135.8 200.76 134.66 199.52 133.96C197 133.45 192.46 118.04 189.01 101.6C188.34 98.3898 190.05 95.1398 193.1 93.9398C193.16 93.9198 193.23 93.8898 193.29 93.8698C197.44 92.2398 202.01 95.0198 202.46 99.4598L202.44 99.4798Z" fill="#FBC8C8"/>
<path d="M207.08 81.2198C207.08 81.2198 187.92 85.4198 188.12 98.8098C188.23 106.34 192.05 122.26 192.05 122.26L209.9 118.73L207.08 81.2299V81.2198Z" fill="#FAAF3A"/>
<path d="M207.48 111.85L209.02 118.59" stroke="#161613" stroke-width="0.97" stroke-miterlimit="10" stroke-linecap="round"/>
<path d="M219.58 78.5199C219.58 78.5199 215.93 84.5899 208.57 80.5399" stroke="#161613" stroke-width="0.97" stroke-miterlimit="10" stroke-linecap="round"/>
<path d="M179.44 137.4H215.83C221.33 137.4 226.17 141.04 227.7 146.33L247 212.6" stroke="#0E0E0E" stroke-width="1.66" stroke-miterlimit="10" stroke-linecap="round"/>
</svg>
