<svg width="14" height="15" viewBox="0 0 14 15" fill="none" xmlns="http://www.w3.org/2000/svg">
<path fill-rule="evenodd" clip-rule="evenodd" d="M9.85397 0C12.2326 0 13.8305 1.57994 13.8305 3.93114V10.6795C13.8305 13.0512 12.2818 14.5937 9.88499 14.6084L4.06469 14.6106C1.68604 14.6106 0.0874023 13.0307 0.0874023 10.6795V3.93114C0.0874023 1.55866 1.6361 0.0168782 4.03292 0.00293533L9.85322 0H9.85397ZM9.85397 1.10075L4.0367 1.10368C2.2754 1.11396 1.22226 2.17068 1.22226 3.93114V10.6795C1.22226 12.4517 2.28524 13.5099 4.06394 13.5099L9.88121 13.5077C11.6425 13.4974 12.6957 12.4392 12.6957 10.6795V3.93114C12.6957 2.15894 11.6334 1.10075 9.85397 1.10075ZM9.70803 9.88745C10.0213 9.88745 10.2755 10.134 10.2755 10.4378C10.2755 10.7416 10.0213 10.9882 9.70803 10.9882H4.24559C3.93237 10.9882 3.67816 10.7416 3.67816 10.4378C3.67816 10.134 3.93237 9.88745 4.24559 9.88745H9.70803ZM9.70803 6.81525C10.0213 6.81525 10.2755 7.06182 10.2755 7.36563C10.2755 7.66944 10.0213 7.916 9.70803 7.916H4.24559C3.93237 7.916 3.67816 7.66944 3.67816 7.36563C3.67816 7.06182 3.93237 6.81525 4.24559 6.81525H9.70803ZM6.32972 3.75018C6.64294 3.75018 6.89714 3.99675 6.89714 4.30056C6.89714 4.60436 6.64294 4.85093 6.32972 4.85093H4.24536C3.93214 4.85093 3.67794 4.60436 3.67794 4.30056C3.67794 3.99675 3.93214 3.75018 4.24536 3.75018H6.32972Z" fill="#21B573"/>
</svg>
