<svg width="40" height="58" viewBox="0 0 40 58" fill="none" xmlns="http://www.w3.org/2000/svg">
<path d="M29.0838 22.0817C35.5631 25.2228 40 31.6222 40 39.0061C40 49.4957 31.0451 57.9999 19.9994 57.9999C8.95363 57.9999 0 49.4957 0 39.0061C0 31.7956 4.23066 25.5235 10.4645 22.3062C13.298 20.8447 16.5462 20.0135 19.9994 20.0135C23.27 20.0135 26.3582 20.7591 29.0838 22.0817Z" fill="#FFCF68"/>
<path d="M19.9995 57.2224C14.876 57.2224 10.0594 55.3277 6.43666 51.887C2.81392 48.4465 0.818848 43.8719 0.818848 39.0063C0.818848 32.3218 4.66472 26.1845 10.8556 22.9894C13.644 21.5513 16.8059 20.7909 19.9995 20.7909C23.0685 20.7909 25.9996 21.4582 28.7114 22.7741C31.8125 24.2775 34.4289 26.5566 36.2775 29.3652C38.1773 32.2512 39.1813 35.585 39.1813 39.0063C39.1813 43.8719 37.1862 48.4465 33.563 51.887C29.9399 55.3277 25.1231 57.2224 19.9995 57.2224Z" fill="#FDC77B"/>
<path d="M19.9999 55.0011C15.5012 55.0011 11.2718 53.3372 8.09096 50.3162C4.91004 47.2953 3.1582 43.2785 3.1582 39.0063C3.1582 33.1369 6.53496 27.7483 11.9709 24.9428C14.4193 23.6798 17.1957 23.0122 19.9999 23.0122C22.6945 23.0122 25.2682 23.598 27.6494 24.7536C30.3724 26.0736 32.6696 28.0748 34.2928 30.541C35.9608 33.0749 36.8425 36.0021 36.8425 39.0063C36.8425 43.2785 35.0905 47.2951 31.9093 50.3162C28.728 53.3372 24.4986 55.0011 19.9999 55.0011Z" stroke="#CA9C5A" stroke-width="2.61099" stroke-miterlimit="10"/>
<path d="M19.9991 49.8521C16.9486 49.8521 14.0808 48.724 11.9238 46.6757C9.76703 44.6269 8.5791 41.9034 8.5791 39.0063C8.5791 35.0267 10.8689 31.3725 14.5548 29.4702C16.2151 28.6137 18.0976 28.1613 19.9991 28.1613C21.8263 28.1613 23.5715 28.5584 25.186 29.3418C27.0325 30.2372 28.5902 31.594 29.6908 33.2661C30.8218 34.9844 31.42 36.9695 31.42 39.0063C31.42 41.9034 30.2319 44.6269 28.0749 46.6757C25.9176 48.724 23.0497 49.8521 19.9991 49.8521V49.8521Z" stroke="#FDC77B" stroke-width="1.865" stroke-miterlimit="10"/>
<path d="M19.9995 52.2129C16.285 52.2129 12.7929 50.8392 10.1665 48.3447C7.5401 45.8502 6.09375 42.534 6.09375 39.0062C6.09375 34.1601 8.8819 29.7108 13.3702 27.3942C15.3918 26.3515 17.6842 25.8004 19.9995 25.8004C22.2245 25.8004 24.3495 26.2843 26.3154 27.238C28.5637 28.3282 30.4606 29.9807 31.8009 32.0166C33.178 34.109 33.9061 36.5259 33.9061 39.0062C33.9061 42.5337 32.4596 45.8502 29.8329 48.3447C27.2062 50.8392 23.7142 52.2129 19.9995 52.2129V52.2129Z" stroke="#CA9C5A" stroke-width="2.61099" stroke-miterlimit="10"/>
<path d="M26.1057 19.1897V18.4877C26.1057 18.2845 25.9322 18.1197 25.7183 18.1197H13.5628C13.3487 18.1197 13.1751 18.2845 13.1751 18.4877V19.1897C13.1751 19.3939 13.3487 19.5587 13.5628 19.5587H25.7183C25.9322 19.5587 26.1057 19.3939 26.1057 19.1897ZM28.1103 18.6644C28.6195 19.7427 28.9022 20.9038 28.9472 22.0818C26.2219 20.7593 23.1337 20.0137 19.863 20.0137C16.4098 20.0137 13.1617 20.8449 10.3281 22.3064C10.3428 21.0514 10.63 19.8114 11.1708 18.6644L11.4232 18.1303C11.7049 17.5323 12.2907 17.114 12.9745 17.0231L13.7193 16.9236C17.6469 16.4015 21.6341 16.4015 25.5629 16.9236L26.3065 17.0231C26.9904 17.114 27.5762 17.5323 27.8577 18.1303L28.1103 18.6644Z" fill="#FDC77B"/>
<path d="M32.3361 -3.8147e-05L25.4015 18.3904H21.5483L28.4627 0.0149708V-3.8147e-05H32.3361Z" fill="#FF6E77"/>
<path d="M28.4632 -3.8147e-05V0.0149708L21.5488 18.3904H17.7441L24.6584 0.0149708V-3.8147e-05H28.4632Z" fill="#77DFE1"/>
<path d="M24.6577 -3.8147e-05V0.0149708L17.7435 18.3904H13.8564L20.791 -3.8147e-05H24.6577Z" fill="#AC748C"/>
<path d="M38.6692 39.0068C38.6692 44.9965 33.5563 49.8521 27.2491 49.8521C20.9417 49.8521 15.8286 44.9965 15.8286 39.0068C15.8286 33.0168 20.9417 28.1613 27.2491 28.1613C33.5563 28.1613 38.6692 33.0168 38.6692 39.0068Z" fill="#6A4000"/>
<path d="M6.92139 -3.8147e-05L13.8561 18.3904H17.7093L10.7949 0.0149708V-3.8147e-05H6.92139Z" fill="#AC748C"/>
<path d="M10.7944 -3.8147e-05V0.0149708L17.7088 18.3904H21.5135L14.5992 0.0149708V-3.8147e-05H10.7944Z" fill="#77DFE1"/>
<path d="M14.5991 -3.8147e-05V0.0149708L21.5134 18.3904H25.4005L18.4658 -3.8147e-05H14.5991Z" fill="#FF6E77"/>
<path d="M37.926 39.0067C37.926 44.6062 33.1458 49.1458 27.2495 49.1458C21.3529 49.1458 16.5728 44.6062 16.5728 39.0067C16.5728 33.4069 21.3529 28.8673 27.2495 28.8673C33.1458 28.8673 37.926 33.4069 37.926 39.0067Z" fill="#FFCF68"/>
<path d="M35.3789 39.0068C35.3789 43.2707 31.7391 46.7273 27.2492 46.7273C22.759 46.7273 19.1191 43.2707 19.1191 39.0068C19.1191 34.7426 22.759 31.286 27.2492 31.286C31.7391 31.286 35.3789 34.7426 35.3789 39.0068Z" fill="#CA9C5A"/>
<path d="M30.7032 43.934H23.7949V42.2179H25.9771V37.0235H23.7949V35.4197C24.1285 35.4197 24.4481 35.4008 24.7539 35.3636C25.0597 35.3261 25.3146 35.2613 25.5185 35.1688C25.7594 35.059 25.9399 34.9159 26.0605 34.7397C26.1811 34.5638 26.2504 34.3437 26.2692 34.0797H28.5696V42.2179H30.7032V43.934Z" fill="#FFCF68"/>
<path d="M17.6545 35.6295C17.6544 35.6303 17.6548 35.6309 17.6547 35.6317C17.654 35.6787 17.6512 36.3529 17.8287 36.8006C18.013 37.265 17.8563 37.9858 17.8563 37.9858C17.8563 37.9858 17.3554 37.4436 17.32 37.0471C17.2765 36.5699 17.6426 35.6578 17.6545 35.6295Z" fill="#CA9C5A"/>
<path d="M17.7744 36.023C17.9162 36.3167 18.0619 36.5521 18.1841 36.9026C18.2556 37.1071 18.15 37.631 17.9889 37.8477C17.9365 37.9469 17.857 37.9858 17.857 37.9858C17.857 37.9858 18.0136 37.265 17.8294 36.8006C17.6518 36.3529 17.6547 35.6787 17.6554 35.6317C17.6606 35.6573 17.7008 35.8696 17.7744 36.023Z" fill="#6A4000"/>
<path d="M19.3263 36.2817C19.3258 36.2823 19.3258 36.2828 19.3251 36.2834C19.2919 36.3181 18.8211 36.8228 18.6431 37.2705C18.4585 37.7346 17.8398 38.1779 17.8398 38.1779C17.8398 38.1779 17.8404 37.4567 18.0896 37.1365C18.3887 36.7508 19.2978 36.2953 19.3263 36.2817Z" fill="#CA9C5A"/>
<path d="M19.1424 36.6518C19.0446 36.9614 18.9905 37.2293 18.8386 37.5694C18.7501 37.7678 18.3067 38.0949 18.0349 38.1569C17.9266 38.1983 17.8398 38.1778 17.8398 38.1778C17.8398 38.1778 18.4585 37.7345 18.6431 37.2704C18.8211 36.8227 19.2919 36.318 19.3251 36.2833C19.3111 36.3058 19.1936 36.4903 19.1424 36.6518Z" fill="#6A4000"/>
<path d="M17.213 37.281C17.2131 37.2816 17.2135 37.2821 17.2136 37.2827C17.2201 37.3294 17.3213 37.9966 17.5659 38.4151C17.8197 38.849 17.776 39.5837 17.776 39.5837C17.776 39.5837 17.1968 39.1171 17.1008 38.7297C16.9841 38.2637 17.2057 37.3105 17.213 37.281Z" fill="#CA9C5A"/>
<path d="M17.3915 37.6534C17.577 37.9244 17.7574 38.137 17.9323 38.4666C18.0346 38.6591 18.0108 39.1919 17.8849 39.4287C17.8483 39.534 17.7758 39.5837 17.7758 39.5837C17.7758 39.5837 17.8195 38.849 17.5657 38.4151C17.3211 37.9966 17.2199 37.3294 17.2134 37.2827C17.2225 37.3077 17.2949 37.5122 17.3915 37.6534Z" fill="#6A4000"/>
<path d="M18.9668 37.6937C18.9663 37.6942 18.9664 37.6948 18.9658 37.6953C18.9385 37.7345 18.5505 38.2989 18.4433 38.7666C18.3324 39.2516 17.7888 39.776 17.7888 39.776C17.7888 39.776 17.6781 39.0626 17.8752 38.7113C18.1117 38.2881 18.9407 37.7112 18.9668 37.6937Z" fill="#CA9C5A"/>
<path d="M18.8417 38.0856C18.7928 38.4051 18.7806 38.678 18.6827 39.0354C18.6258 39.2439 18.2374 39.6293 17.9781 39.7283C17.8775 39.7844 17.7886 39.7761 17.7886 39.7761C17.7886 39.7761 18.3322 39.2516 18.4431 38.7667C18.5503 38.299 18.9383 37.7346 18.9656 37.6954C18.9553 37.7198 18.8676 37.9188 18.8417 38.0856Z" fill="#6A4000"/>
<path d="M17.0303 39.0737C17.0305 39.0742 17.0309 39.0745 17.0312 39.0754C17.049 39.1193 17.3101 39.7459 17.6502 40.0994C18.0028 40.4654 18.1395 41.1899 18.1395 41.1899C18.1395 41.1899 17.4624 40.8634 17.2743 40.5077C17.0472 40.08 17.0303 39.104 17.0303 39.0737Z" fill="#CA9C5A"/>
<path d="M17.2955 39.3966C17.542 39.6195 17.7694 39.7865 18.02 40.0689C18.1664 40.2334 18.2733 40.757 18.2085 41.0151C18.1985 41.1257 18.1401 41.1899 18.1401 41.1899C18.1401 41.1899 18.0034 40.4654 17.6508 40.0994C17.3106 39.7459 17.0496 39.1193 17.0317 39.0754C17.0468 39.0973 17.167 39.2804 17.2955 39.3966Z" fill="#6A4000"/>
<path d="M18.8366 39.0893C18.8362 39.0901 18.8365 39.0907 18.8361 39.0912C18.819 39.1354 18.5792 39.7699 18.589 40.2484C18.5994 40.7445 18.1985 41.3745 18.1985 41.3745C18.1985 41.3745 17.9168 40.7045 18.0229 40.3196C18.1497 39.8558 18.8154 39.1124 18.8366 39.0893Z" fill="#CA9C5A"/>
<path d="M18.8114 39.4981C18.8418 39.8199 18.8963 40.0878 18.8883 40.4571C18.8837 40.6725 18.6001 41.1327 18.3719 41.2861C18.2877 41.3628 18.1992 41.3745 18.1992 41.3745C18.1992 41.3745 18.6001 40.7445 18.5897 40.2484C18.58 39.7699 18.8197 39.1354 18.8368 39.0912C18.8327 39.1174 18.7958 39.3302 18.8114 39.4981Z" fill="#6A4000"/>
<path d="M17.2437 40.7548C17.244 40.7556 17.2446 40.7557 17.2449 40.7565C17.2676 40.7982 17.5996 41.394 17.9785 41.7097C18.3713 42.0368 18.591 42.7427 18.591 42.7427C18.591 42.7427 17.8801 42.4887 17.6522 42.1549C17.3769 41.7533 17.2472 40.7851 17.2437 40.7548Z" fill="#CA9C5A"/>
<path d="M17.5439 41.0486C17.8147 41.2442 18.0599 41.3865 18.3417 41.6408C18.5063 41.7892 18.6731 42.2986 18.6385 42.562C18.6414 42.6726 18.5908 42.7427 18.5908 42.7427C18.5908 42.7427 18.371 42.0368 17.9782 41.7097C17.5993 41.394 17.2673 40.7982 17.2446 40.7565C17.262 40.7768 17.4027 40.9463 17.5439 41.0486Z" fill="#6A4000"/>
<path d="M19.0412 40.582C19.0408 40.5828 19.0412 40.5834 19.041 40.5842C19.029 40.6298 18.8641 41.2854 18.9292 41.76C18.9969 42.2519 18.6712 42.92 18.6712 42.92C18.6712 42.92 18.3137 42.2836 18.3747 41.8898C18.447 41.4157 19.0228 40.607 19.0412 40.582Z" fill="#CA9C5A"/>
<path d="M19.0619 40.9911C19.1292 41.3079 19.2145 41.5683 19.2493 41.9362C19.2696 42.1508 19.041 42.6379 18.8319 42.8141C18.7571 42.8992 18.6704 42.92 18.6704 42.92C18.6704 42.92 18.9961 42.2519 18.9284 41.76C18.8633 41.2854 19.0282 40.6298 19.0402 40.5842C19.039 40.6103 19.027 40.8257 19.0619 40.9911Z" fill="#6A4000"/>
<path d="M17.7144 42.4037C17.7148 42.4045 17.7155 42.4045 17.7159 42.4051C17.7463 42.4423 18.189 42.9692 18.6229 43.2126C19.0728 43.465 19.4265 44.1198 19.4265 44.1198C19.4265 44.1198 18.6783 43.9956 18.3891 43.7076C18.0402 43.3617 17.7238 42.4329 17.7144 42.4037Z" fill="#CA9C5A"/>
<path d="M18.0669 42.6394C18.3712 42.7842 18.6399 42.8806 18.9665 43.0813C19.1572 43.198 19.4204 43.669 19.438 43.9339C19.4625 44.0422 19.4264 44.1198 19.4264 44.1198C19.4264 44.1198 19.0727 43.465 18.6228 43.2126C18.1888 42.9692 17.7462 42.4423 17.7158 42.4051C17.7369 42.4221 17.9082 42.5638 18.0669 42.6394Z" fill="#6A4000"/>
<path d="M19.4464 41.9176C19.4462 41.9184 19.4467 41.9187 19.4466 41.9195C19.4437 41.9665 19.4097 42.6399 19.5663 43.0948C19.7288 43.5663 19.5392 44.2798 19.5392 44.2798C19.5392 44.2798 19.0637 43.7172 19.0467 43.3199C19.0253 42.8411 19.4332 41.9454 19.4464 41.9176Z" fill="#CA9C5A"/>
<path d="M19.5473 42.3155C19.6753 42.6149 19.81 42.8561 19.9159 43.2113C19.9779 43.4185 19.8482 43.9374 19.6771 44.1475C19.6201 44.2442 19.5391 44.2798 19.5391 44.2798C19.5391 44.2798 19.7287 43.5663 19.5661 43.0948C19.4096 42.6399 19.4436 41.9665 19.4465 41.9195C19.4505 41.9454 19.4807 42.1594 19.5473 42.3155Z" fill="#6A4000"/>
<path d="M18.4478 43.9156C18.4483 43.9161 18.4489 43.9161 18.4495 43.9168C18.4863 43.9482 19.0193 44.3936 19.4913 44.5609C19.9809 44.7346 20.4498 45.3204 20.4498 45.3204C20.4498 45.3204 19.6903 45.3227 19.3524 45.087C18.9451 44.8043 18.4624 43.9428 18.4478 43.9156Z" fill="#CA9C5A"/>
<path d="M18.8376 44.0891C19.1638 44.1808 19.4463 44.2313 19.8048 44.3741C20.014 44.4575 20.3601 44.8774 20.4263 45.1353C20.4703 45.2381 20.449 45.3204 20.449 45.3204C20.449 45.3204 19.9802 44.7346 19.4905 44.5609C19.0186 44.3936 18.4855 43.9482 18.4487 43.9168C18.4726 43.93 18.6674 44.041 18.8376 44.0891Z" fill="#6A4000"/>
<path d="M20.0636 43.1489C20.0636 43.1498 20.0641 43.1501 20.0641 43.1509C20.0699 43.1975 20.1607 43.8662 20.3988 44.2878C20.6458 44.7253 20.5907 45.4592 20.5907 45.4592C20.5907 45.4592 20.0188 44.9845 19.9287 44.596C19.8194 44.1283 20.0559 43.1784 20.0636 43.1489Z" fill="#CA9C5A"/>
<path d="M20.2364 43.5239C20.4176 43.7973 20.5947 44.0124 20.7645 44.3444C20.8637 44.5384 20.8317 45.0709 20.7022 45.306C20.6638 45.4108 20.5906 45.4592 20.5906 45.4592C20.5906 45.4592 20.6457 44.7253 20.3987 44.2878C20.1606 43.8662 20.0698 43.1975 20.064 43.1509C20.0728 43.1756 20.1419 43.3812 20.2364 43.5239Z" fill="#6A4000"/>
<path d="M19.647 45.4253C19.6476 45.4256 19.6482 45.4256 19.6489 45.4258C19.6927 45.4479 20.3239 45.7563 20.8247 45.8097C21.344 45.8647 21.9493 46.3244 21.9493 46.3244C21.9493 46.3244 21.2132 46.502 20.8251 46.3518C20.3575 46.1721 19.6681 45.4481 19.647 45.4253Z" fill="#CA9C5A"/>
<path d="M20.0708 45.5028C20.4107 45.5164 20.6977 45.5 21.082 45.5556C21.3064 45.5881 21.7498 45.9152 21.8801 46.1501C21.9491 46.2392 21.9498 46.3243 21.9498 46.3243C21.9498 46.3243 21.3445 45.8647 20.8252 45.8097C20.3244 45.7562 19.6932 45.4479 19.6494 45.4258C19.6761 45.4331 19.8934 45.4956 20.0708 45.5028Z" fill="#6A4000"/>
<path d="M21.0176 44.3075C21.0179 44.3081 21.0185 44.3084 21.0187 44.3092C21.0363 44.3531 21.2959 44.9806 21.6351 45.3344C21.9868 45.7015 22.1218 46.4263 22.1218 46.4263C22.1218 46.4263 21.4454 46.0981 21.2583 45.7421C21.0321 45.3139 21.0177 44.3378 21.0176 44.3075Z" fill="#CA9C5A"/>
<path d="M21.2809 44.6313C21.5269 44.8545 21.7539 45.0221 22.0038 45.305C22.1497 45.4698 22.2554 45.9935 22.19 46.2518C22.1797 46.3621 22.1212 46.4263 22.1212 46.4263C22.1212 46.4263 21.9862 45.7015 21.6344 45.3344C21.2953 44.9806 21.0357 44.3531 21.0181 44.3092C21.0329 44.3314 21.1527 44.5146 21.2809 44.6313Z" fill="#6A4000"/>
<path d="M20.9551 46.5064C20.9558 46.507 20.9563 46.5066 20.957 46.5072C21.0016 46.5275 21.6443 46.8141 22.1468 46.8499C22.6678 46.8868 23.2903 47.3254 23.2903 47.3254C23.2903 47.3254 22.5613 47.5285 22.1678 47.3918C21.6936 47.2281 20.977 46.5285 20.9551 46.5064Z" fill="#CA9C5A"/>
<path d="M21.3815 46.5696C21.7218 46.5712 22.0078 46.545 22.3941 46.5874C22.6195 46.612 23.0751 46.9236 23.2144 47.1537C23.287 47.2407 23.2908 47.3254 23.2908 47.3254C23.2908 47.3254 22.6684 46.8869 22.1473 46.85C21.6448 46.8141 21.0021 46.5275 20.9575 46.5073C20.9844 46.5134 21.2041 46.5684 21.3815 46.5696Z" fill="#6A4000"/>
<path d="M22.2822 45.3423C22.2825 45.3428 22.283 45.3431 22.2834 45.3439C22.3026 45.387 22.5861 46.0054 22.9384 46.3472C23.3042 46.7018 23.4669 47.4213 23.4669 47.4213C23.4669 47.4213 22.7783 47.117 22.5776 46.7677C22.3353 46.3474 22.2834 45.3726 22.2822 45.3423Z" fill="#CA9C5A"/>
<path d="M22.5581 45.6566C22.8127 45.8711 23.0456 46.0309 23.3064 46.305C23.4585 46.4648 23.5841 46.9845 23.5288 47.2445C23.5226 47.3554 23.4667 47.4213 23.4667 47.4213C23.4667 47.4213 23.304 46.7018 22.9382 46.3472C22.5859 46.0054 22.3024 45.387 22.2832 45.3439C22.2989 45.3653 22.4256 45.5445 22.5581 45.6566Z" fill="#6A4000"/>
<path d="M22.6372 47.5315C22.6381 47.5315 22.6384 47.5313 22.6393 47.5315C22.6881 47.5397 23.3881 47.6511 23.8824 47.5568C24.3945 47.459 25.1185 47.722 25.1185 47.722C25.1185 47.722 24.4744 48.1041 24.0565 48.0734C23.5535 48.0374 22.6647 47.5472 22.6372 47.5315Z" fill="#CA9C5A"/>
<path d="M23.0652 47.4829C23.3933 47.3977 23.6613 47.299 24.0453 47.2409C24.2694 47.2067 24.7968 47.3904 24.996 47.5763C25.0906 47.6414 25.1184 47.7219 25.1184 47.7219C25.1184 47.7219 24.3944 47.459 23.8823 47.5568C23.388 47.651 22.688 47.5396 22.6392 47.5315C22.667 47.5308 22.894 47.5274 23.0652 47.4829Z" fill="#6A4000"/>
<path d="M24.6108 48.1855C24.6117 48.1855 24.612 48.1853 24.6129 48.1853C24.6623 48.1855 25.3723 48.1839 25.8428 48.0127C26.3307 47.8348 27.0906 47.9789 27.0906 47.9789C27.0906 47.9789 26.5229 48.4581 26.1056 48.4941C25.6032 48.5385 24.6407 48.1964 24.6108 48.1855Z" fill="#CA9C5A"/>
<path d="M25.0242 48.0697C25.3327 47.9332 25.5794 47.7934 25.9478 47.6749C26.1626 47.6058 26.7148 47.7027 26.9442 47.8545C27.049 47.9037 27.0905 47.9788 27.0905 47.9788C27.0905 47.9788 26.3306 47.8347 25.8427 48.0127C25.3722 48.1839 24.6622 48.1855 24.6128 48.1853C24.64 48.18 24.8633 48.1408 25.0242 48.0697Z" fill="#6A4000"/>
<path d="M23.584 46.0704C23.5846 46.0712 23.5852 46.0712 23.5854 46.0718C23.6165 46.1085 24.0648 46.6312 24.5014 46.8702C24.9541 47.118 25.3152 47.7692 25.3152 47.7692C25.3152 47.7692 24.5658 47.6525 24.2731 47.3673C23.9205 47.025 23.5936 46.0996 23.584 46.0704Z" fill="#CA9C5A"/>
<path d="M23.9392 46.3025C24.2451 46.4441 24.5149 46.538 24.8438 46.735C25.0358 46.8501 25.3041 47.3184 25.3246 47.5833C25.3503 47.6913 25.3152 47.7692 25.3152 47.7692C25.3152 47.7692 24.9541 47.118 24.5014 46.8702C24.0648 46.6312 23.6165 46.1085 23.5854 46.0718C23.6068 46.0887 23.7798 46.2285 23.9392 46.3025Z" fill="#6A4000"/>
<path d="M25.2583 46.759C25.2589 46.7595 25.2595 46.7595 25.2601 46.7601C25.2925 46.787 25.7631 47.1727 26.1778 47.3156C26.6079 47.4637 27.0238 47.9729 27.0238 47.9729C27.0238 47.9729 26.3589 47.9806 26.061 47.7775C25.7019 47.5332 25.2715 46.7825 25.2583 46.759Z" fill="#CA9C5A"/>
<path d="M25.6025 46.9076C25.889 46.9855 26.1369 47.0272 26.4518 47.1497C26.6358 47.2208 26.9425 47.5858 27.0028 47.8112C27.0423 47.9006 27.0245 47.9729 27.0245 47.9729C27.0245 47.9729 26.6086 47.4638 26.1784 47.3156C25.7638 47.1727 25.2932 46.787 25.2607 46.7601C25.2818 46.7715 25.4533 46.8671 25.6025 46.9076Z" fill="#6A4000"/>
<path d="M25.9927 48.6107C25.993 48.6104 25.9933 48.6102 25.9936 48.6102C26.0167 48.5993 26.3444 48.4442 26.5209 48.2628C26.7035 48.0743 27.0898 47.9757 27.0898 47.9757C27.0898 47.9757 26.9429 48.3206 26.7585 48.4281C26.537 48.558 26.0091 48.6093 25.9927 48.6107Z" fill="#CA9C5A"/>
<path d="M26.157 48.4669C26.2668 48.3369 26.3473 48.2185 26.4892 48.0837C26.5717 48.0048 26.8506 47.9294 26.9931 47.9497C27.0534 47.9497 27.0908 47.9756 27.0908 47.9756C27.0908 47.9756 26.7046 48.0742 26.522 48.2627C26.3455 48.4441 26.0177 48.5992 25.9946 48.6101C26.006 48.6017 26.0997 48.5348 26.157 48.4669Z" fill="#6A4000"/>
<path d="M36.8434 35.6295C36.8437 35.6303 36.8431 35.6309 36.8431 35.6317C36.844 35.6787 36.8466 36.3529 36.6693 36.8006C36.4852 37.265 36.6415 37.9858 36.6415 37.9858C36.6415 37.9858 37.1425 37.4436 37.1779 37.0471C37.2215 36.5699 36.8554 35.6578 36.8434 35.6295Z" fill="#CA9C5A"/>
<path d="M36.7241 36.023C36.5821 36.3167 36.4364 36.5521 36.3144 36.9026C36.2427 37.1071 36.3483 37.631 36.5096 37.8477C36.5619 37.9469 36.6412 37.9858 36.6412 37.9858C36.6412 37.9858 36.485 37.265 36.669 36.8006C36.8464 36.3529 36.8437 35.6787 36.8429 35.6317C36.8376 35.6573 36.7978 35.8696 36.7241 36.023Z" fill="#6A4000"/>
<path d="M35.1724 36.2817C35.1729 36.2823 35.1729 36.2828 35.1735 36.2834C35.2069 36.3181 35.6777 36.8228 35.8557 37.2705C36.0403 37.7346 36.659 38.1779 36.659 38.1779C36.659 38.1779 36.6584 37.4567 36.409 37.1365C36.11 36.7508 35.201 36.2953 35.1724 36.2817Z" fill="#CA9C5A"/>
<path d="M35.3567 36.6518C35.4545 36.9614 35.5086 37.2293 35.6605 37.5694C35.7489 37.7678 36.1925 38.0949 36.4641 38.1569C36.5723 38.1983 36.6592 38.1778 36.6592 38.1778C36.6592 38.1778 36.0406 37.7345 35.856 37.2704C35.678 36.8227 35.2072 36.318 35.1738 36.2833C35.1879 36.3058 35.3055 36.4903 35.3567 36.6518Z" fill="#6A4000"/>
<path d="M37.2861 37.281C37.2861 37.2816 37.2855 37.2821 37.2855 37.2827C37.2791 37.3294 37.1778 37.9966 36.9332 38.4151C36.6795 38.849 36.7231 39.5837 36.7231 39.5837C36.7231 39.5837 37.3022 39.1171 37.3985 38.7297C37.5149 38.2637 37.2934 37.3105 37.2861 37.281Z" fill="#CA9C5A"/>
<path d="M37.1066 37.6534C36.9211 37.9244 36.7408 38.137 36.5658 38.4666C36.4637 38.6591 36.4874 39.1919 36.6132 39.4287C36.6498 39.534 36.7224 39.5837 36.7224 39.5837C36.7224 39.5837 36.6788 38.849 36.9325 38.4151C37.1771 37.9966 37.2784 37.3294 37.2848 37.2827C37.2757 37.3077 37.2032 37.5122 37.1066 37.6534Z" fill="#6A4000"/>
<path d="M35.5322 37.6937C35.5325 37.6942 35.5325 37.6948 35.5331 37.6953C35.5606 37.7345 35.9484 38.2989 36.0558 38.7666C36.1667 39.2516 36.7104 39.776 36.7104 39.776C36.7104 39.776 36.821 39.0626 36.6238 38.7113C36.3873 38.2881 35.5583 37.7112 35.5322 37.6937Z" fill="#CA9C5A"/>
<path d="M35.6565 38.0856C35.7057 38.4051 35.718 38.678 35.8157 39.0354C35.8728 39.2439 36.2608 39.6293 36.5204 39.7283C36.621 39.7844 36.71 39.7761 36.71 39.7761C36.71 39.7761 36.1663 39.2516 36.0554 38.7667C35.948 38.299 35.5602 37.7346 35.5327 37.6954C35.543 37.7198 35.6307 37.9188 35.6565 38.0856Z" fill="#6A4000"/>
<path d="M37.4673 39.0737C37.467 39.0742 37.4664 39.0745 37.4661 39.0754C37.4486 39.1193 37.1872 39.7459 36.8472 40.0994C36.4946 40.4654 36.3579 41.1899 36.3579 41.1899C36.3579 41.1899 37.0351 40.8634 37.2229 40.5077C37.4503 40.08 37.467 39.104 37.4673 39.0737Z" fill="#CA9C5A"/>
<path d="M37.2033 39.3966C36.9569 39.6195 36.7295 39.7865 36.479 40.0689C36.3324 40.2334 36.2256 40.757 36.2903 41.0151C36.3002 41.1257 36.3588 41.1899 36.3588 41.1899C36.3588 41.1899 36.4954 40.4654 36.848 40.0994C37.1881 39.7459 37.4494 39.1193 37.467 39.0754C37.4521 39.0973 37.3318 39.2804 37.2033 39.3966Z" fill="#6A4000"/>
<path d="M35.6616 39.0893C35.6619 39.0901 35.6616 39.0907 35.6619 39.0912C35.6792 39.1354 35.9188 39.7699 35.9089 40.2484C35.8987 40.7445 36.2996 41.3745 36.2996 41.3745C36.2996 41.3745 36.5814 40.7045 36.4751 40.3196C36.3484 39.8558 35.6827 39.1124 35.6616 39.0893Z" fill="#CA9C5A"/>
<path d="M35.6871 39.4981C35.6567 39.8199 35.6022 40.0878 35.6101 40.4571C35.6148 40.6725 35.8984 41.1327 36.1267 41.2861C36.2109 41.3628 36.2993 41.3745 36.2993 41.3745C36.2993 41.3745 35.8984 40.7445 35.9086 40.2484C35.9186 39.7699 35.6789 39.1354 35.6617 39.0912C35.6658 39.1174 35.7026 39.3302 35.6871 39.4981Z" fill="#6A4000"/>
<path d="M37.2543 40.7548C37.254 40.7556 37.2534 40.7557 37.2532 40.7565C37.2303 40.7982 36.8982 41.394 36.5195 41.7097C36.1265 42.0368 35.9067 42.7427 35.9067 42.7427C35.9067 42.7427 36.6178 42.4887 36.8458 42.1549C37.1209 41.7533 37.2505 40.7851 37.2543 40.7548Z" fill="#CA9C5A"/>
<path d="M36.9543 41.0486C36.6836 41.2442 36.4384 41.3865 36.1566 41.6408C35.9918 41.7892 35.825 42.2986 35.8596 42.562C35.8566 42.6726 35.9073 42.7427 35.9073 42.7427C35.9073 42.7427 36.127 42.0368 36.52 41.7097C36.8987 41.394 37.2309 40.7982 37.2537 40.7565C37.2361 40.7768 37.0954 40.9463 36.9543 41.0486Z" fill="#6A4000"/>
<path d="M35.4575 40.582C35.4578 40.5828 35.4575 40.5834 35.4578 40.5842C35.4695 40.6298 35.6346 41.2854 35.5693 41.76C35.5017 42.2519 35.8274 42.92 35.8274 42.92C35.8274 42.92 36.1847 42.2836 36.1239 41.8898C36.0516 41.4157 35.4757 40.607 35.4575 40.582Z" fill="#CA9C5A"/>
<path d="M35.4356 40.9911C35.3683 41.3079 35.2832 41.5683 35.2484 41.9362C35.2279 42.1508 35.4567 42.6379 35.6657 42.8141C35.7406 42.8992 35.8272 42.92 35.8272 42.92C35.8272 42.92 35.5015 42.2519 35.5691 41.76C35.6343 41.2854 35.4693 40.6298 35.4576 40.5842C35.4585 40.6103 35.4708 40.8257 35.4356 40.9911Z" fill="#6A4000"/>
<path d="M36.7837 42.4037C36.7834 42.4045 36.7828 42.4045 36.7822 42.4051C36.7518 42.4423 36.309 42.9692 35.8754 43.2126C35.4253 43.465 35.0718 44.1198 35.0718 44.1198C35.0718 44.1198 35.8198 43.9956 36.1089 43.7076C36.458 43.3617 36.7743 42.4329 36.7837 42.4037Z" fill="#CA9C5A"/>
<path d="M36.4318 42.6394C36.1277 42.7842 35.8588 42.8806 35.5322 43.0813C35.3417 43.198 35.0783 43.669 35.0608 43.9339C35.0362 44.0422 35.0725 44.1198 35.0725 44.1198C35.0725 44.1198 35.426 43.465 35.8761 43.2126C36.3098 42.9692 36.7525 42.4423 36.783 42.4051C36.7619 42.4221 36.5904 42.5638 36.4318 42.6394Z" fill="#6A4000"/>
<path d="M35.0519 41.9176C35.0519 41.9184 35.0516 41.9187 35.0516 41.9195C35.0546 41.9665 35.0885 42.6399 34.932 43.0948C34.7695 43.5663 34.9592 44.2798 34.9592 44.2798C34.9592 44.2798 35.4347 43.7172 35.4517 43.3199C35.473 42.8411 35.0651 41.9454 35.0519 41.9176Z" fill="#CA9C5A"/>
<path d="M34.9514 42.3155C34.8232 42.6149 34.6886 42.8561 34.5826 43.2113C34.5206 43.4185 34.6505 43.9374 34.8214 44.1475C34.8785 44.2442 34.9596 44.2798 34.9596 44.2798C34.9596 44.2798 34.7699 43.5663 34.9323 43.0948C35.0889 42.6399 35.055 41.9665 35.052 41.9195C35.0479 41.9454 35.0178 42.1594 34.9514 42.3155Z" fill="#6A4000"/>
<path d="M36.0506 43.9156C36.05 43.9161 36.0494 43.9161 36.0488 43.9168C36.0119 43.9482 35.4787 44.3936 35.0067 44.5609C34.5174 44.7346 34.0483 45.3204 34.0483 45.3204C34.0483 45.3204 34.8077 45.3227 35.1457 45.087C35.5531 44.8043 36.0359 43.9428 36.0506 43.9156Z" fill="#CA9C5A"/>
<path d="M35.6602 44.0891C35.3339 44.1808 35.0515 44.2313 34.693 44.3741C34.4838 44.4575 34.1376 44.8774 34.0714 45.1353C34.0273 45.2381 34.0486 45.3204 34.0486 45.3204C34.0486 45.3204 34.5177 44.7346 35.007 44.5609C35.479 44.3936 36.0122 43.9482 36.0491 43.9168C36.0251 43.93 35.8302 44.041 35.6602 44.0891Z" fill="#6A4000"/>
<path d="M34.4346 43.1489C34.4346 43.1498 34.4343 43.1501 34.434 43.1509C34.4285 43.1975 34.3377 43.8662 34.0995 44.2878C33.8526 44.7253 33.9076 45.4592 33.9076 45.4592C33.9076 45.4592 34.4794 44.9845 34.5695 44.596C34.679 44.1283 34.4425 43.1784 34.4346 43.1489Z" fill="#CA9C5A"/>
<path d="M34.2622 43.5239C34.0808 43.7973 33.9038 44.0124 33.734 44.3444C33.6348 44.5384 33.6667 45.0709 33.7964 45.306C33.8347 45.4108 33.9079 45.4592 33.9079 45.4592C33.9079 45.4592 33.8528 44.7253 34.0998 44.2878C34.338 43.8662 34.4288 43.1975 34.4343 43.1509C34.4255 43.1756 34.3565 43.3812 34.2622 43.5239Z" fill="#6A4000"/>
<path d="M34.851 45.4253C34.8504 45.4256 34.8498 45.4256 34.8489 45.4258C34.8053 45.4479 34.1741 45.7563 33.6731 45.8097C33.154 45.8647 32.5488 46.3244 32.5488 46.3244C32.5488 46.3244 33.2848 46.502 33.6728 46.3518C34.1405 46.1721 34.8299 45.4481 34.851 45.4253Z" fill="#CA9C5A"/>
<path d="M34.4278 45.5028C34.0878 45.5164 33.801 45.5 33.4165 45.5556C33.1923 45.5881 32.7487 45.9152 32.6185 46.1501C32.5494 46.2392 32.5488 46.3243 32.5488 46.3243C32.5488 46.3243 33.154 45.8647 33.6731 45.8097C34.1741 45.7562 34.8053 45.4479 34.8489 45.4258C34.8226 45.4331 34.6052 45.4956 34.4278 45.5028Z" fill="#6A4000"/>
<path d="M33.4806 44.3075C33.4803 44.3081 33.4797 44.3084 33.4797 44.3092C33.4618 44.3531 33.2023 44.9806 32.8631 45.3344C32.5114 45.7015 32.3765 46.4263 32.3765 46.4263C32.3765 46.4263 33.0527 46.0981 33.24 45.7421C33.4659 45.3139 33.4806 44.3378 33.4806 44.3075Z" fill="#CA9C5A"/>
<path d="M33.2164 44.6313C32.9706 44.8545 32.7435 45.0221 32.4936 45.305C32.3475 45.4698 32.2419 45.9935 32.3075 46.2518C32.3177 46.3621 32.3762 46.4263 32.3762 46.4263C32.3762 46.4263 32.5111 45.7015 32.8629 45.3344C33.202 44.9806 33.4616 44.3531 33.4795 44.3092C33.4642 44.3314 33.3446 44.5146 33.2164 44.6313Z" fill="#6A4000"/>
<path d="M33.5428 46.5064C33.5422 46.507 33.5416 46.5066 33.5407 46.5072C33.4962 46.5275 32.8536 46.8141 32.3511 46.8499C31.83 46.8868 31.2075 47.3254 31.2075 47.3254C31.2075 47.3254 31.9365 47.5285 32.3301 47.3918C32.8041 47.2281 33.5208 46.5285 33.5428 46.5064Z" fill="#CA9C5A"/>
<path d="M33.1167 46.5696C32.7766 46.5712 32.4904 46.545 32.1042 46.5874C31.8788 46.612 31.4232 46.9236 31.2839 47.1537C31.2113 47.2407 31.2075 47.3254 31.2075 47.3254C31.2075 47.3254 31.83 46.8869 32.3511 46.85C32.8536 46.8141 33.4962 46.5275 33.5407 46.5073C33.5141 46.5134 33.2943 46.5684 33.1167 46.5696Z" fill="#6A4000"/>
<path d="M32.2158 45.3423C32.2155 45.3428 32.2153 45.3431 32.215 45.3439C32.1956 45.387 31.9121 46.0054 31.5597 46.3472C31.194 46.7018 31.0312 47.4213 31.0312 47.4213C31.0312 47.4213 31.7198 47.117 31.9206 46.7677C32.1629 46.3474 32.2147 45.3726 32.2158 45.3423Z" fill="#CA9C5A"/>
<path d="M31.94 45.6566C31.6857 45.8711 31.4525 46.0309 31.1918 46.305C31.0396 46.4648 30.914 46.9845 30.9694 47.2445C30.9755 47.3554 31.0314 47.4213 31.0314 47.4213C31.0314 47.4213 31.1941 46.7018 31.5599 46.3472C31.9122 46.0054 32.1958 45.387 32.2151 45.3439C32.1993 45.3653 32.0726 45.5445 31.94 45.6566Z" fill="#6A4000"/>
<path d="M31.8607 47.5315C31.8598 47.5315 31.8595 47.5313 31.8586 47.5315C31.81 47.5397 31.1097 47.6511 30.6155 47.5568C30.1034 47.459 29.3794 47.722 29.3794 47.722C29.3794 47.722 30.0235 48.1041 30.4414 48.0734C30.9444 48.0374 31.8331 47.5472 31.8607 47.5315Z" fill="#CA9C5A"/>
<path d="M31.4325 47.4829C31.1045 47.3977 30.8364 47.299 30.4525 47.2409C30.2283 47.2067 29.701 47.3904 29.5017 47.5763C29.4072 47.6414 29.3794 47.7219 29.3794 47.7219C29.3794 47.7219 30.1034 47.459 30.6155 47.5568C31.1097 47.651 31.81 47.5396 31.8586 47.5315C31.8308 47.5308 31.6037 47.5274 31.4325 47.4829Z" fill="#6A4000"/>
<path d="M30.9145 46.0704C30.9139 46.0712 30.9134 46.0712 30.9131 46.0718C30.8821 46.1085 30.4337 46.6312 29.9971 46.8702C29.5444 47.118 29.1836 47.7692 29.1836 47.7692C29.1836 47.7692 29.933 47.6525 30.2254 47.3673C30.578 47.025 30.9049 46.0996 30.9145 46.0704Z" fill="#CA9C5A"/>
<path d="M30.5588 46.3025C30.253 46.4441 29.9832 46.538 29.6542 46.735C29.4626 46.8501 29.1939 47.3184 29.1734 47.5833C29.1477 47.6913 29.1831 47.7692 29.1831 47.7692C29.1831 47.7692 29.5439 47.118 29.9966 46.8702C30.4332 46.6312 30.8816 46.1085 30.9126 46.0718C30.8912 46.0887 30.7183 46.2285 30.5588 46.3025Z" fill="#6A4000"/>
<path d="M30.1556 48.182C30.1547 48.182 30.1544 48.1816 30.1535 48.1816C30.1041 48.1816 29.3941 48.1756 28.9248 48.001C28.4384 47.8201 27.6772 47.9591 27.6772 47.9591C27.6772 47.9591 28.2414 48.4421 28.6585 48.4807C29.1606 48.5285 30.1257 48.1928 30.1556 48.182Z" fill="#CA9C5A"/>
<path d="M29.743 48.0634C29.4354 47.9248 29.1896 47.7833 28.8223 47.6627C28.6078 47.5922 28.055 47.6855 27.8244 47.8356C27.7194 47.8842 27.6772 47.959 27.6772 47.959C27.6772 47.959 28.4384 47.82 28.9248 48.0009C29.3941 48.1754 30.1041 48.1815 30.1535 48.1815C30.1263 48.1763 29.9033 48.1354 29.743 48.0634Z" fill="#6A4000"/>
<path d="M29.2401 46.759C29.2395 46.7595 29.2389 46.7595 29.2383 46.7601C29.2061 46.787 28.7353 47.1727 28.3206 47.3156C27.8904 47.4637 27.4746 47.9729 27.4746 47.9729C27.4746 47.9729 28.1395 47.9806 28.4374 47.7775C28.7964 47.5332 29.2269 46.7825 29.2401 46.759Z" fill="#CA9C5A"/>
<path d="M28.8962 46.9076C28.6097 46.9855 28.3618 47.0272 28.0469 47.1497C27.8629 47.2208 27.5562 47.5858 27.4959 47.8112C27.4564 47.9006 27.4742 47.9729 27.4742 47.9729C27.4742 47.9729 27.8901 47.4638 28.3202 47.3156C28.7349 47.1727 29.2058 46.787 29.238 46.7601C29.2172 46.7715 29.0454 46.8671 28.8962 46.9076Z" fill="#6A4000"/>
<path d="M28.5048 48.6107C28.5045 48.6104 28.5042 48.6102 28.5039 48.6102C28.4811 48.5993 28.1531 48.4442 27.9766 48.2628C27.794 48.0743 27.4077 47.9757 27.4077 47.9757C27.4077 47.9757 27.5546 48.3206 27.739 48.4281C27.9608 48.558 28.4884 48.6093 28.5048 48.6107Z" fill="#CA9C5A"/>
<path d="M28.3415 48.4669C28.2318 48.3369 28.1513 48.2185 28.0097 48.0837C27.9269 48.0048 27.648 47.9294 27.5055 47.9497C27.4452 47.9497 27.4077 47.9756 27.4077 47.9756C27.4077 47.9756 27.794 48.0742 27.9766 48.2627C28.1531 48.4441 28.4811 48.5992 28.5039 48.6101C28.4925 48.6017 28.3989 48.5348 28.3415 48.4669Z" fill="#6A4000"/>
<path d="M22.4492 25.0034C17.1151 26.0269 13.067 29.0486 10.7781 32.7133C8.89269 35.7289 8.62522 38.1539 9.42254 41.0294C13.2737 55.5246 18.743 47.9048 26.0911 54.968C26.154 55.0298 26.144 55.1083 26.0922 55.155L25.5333 55.6536C25.4821 55.6994 25.3993 55.7026 25.3434 55.6481C20.8124 51.3395 17.2976 52.9793 13.6933 50.591C10.6333 48.5384 9.30891 44.2517 8.47422 40.6853C7.66067 37.1893 8.76478 34.0676 11.1083 31.1334C11.2484 30.9517 11.6908 30.4526 11.7641 30.3748C14.6391 27.4014 17.9963 25.4889 22.4492 25.0034Z" fill="#CA9C5A"/>
<path d="M6.69342 29.104C6.69298 29.1065 6.69389 29.1079 6.69342 29.1101C6.66851 29.2558 6.33324 31.3481 6.66749 32.8163C7.01464 34.3387 6.17972 36.5085 6.17972 36.5085C6.17972 36.5085 4.88651 34.6066 4.96859 33.3599C5.06449 31.8586 6.64314 29.1866 6.69342 29.104Z" fill="#CA9C5A"/>
<path d="M6.87393 30.3777C7.1718 31.3517 7.51029 32.146 7.72005 33.2879C7.84305 33.954 7.26155 35.5342 6.65627 36.1375C6.44536 36.4221 6.18018 36.5085 6.18018 36.5085C6.18018 36.5085 7.01509 34.3387 6.66794 32.8163C6.33369 31.3481 6.66897 29.2558 6.69387 29.1101C6.69764 29.1927 6.71915 29.8694 6.87393 30.3777Z" fill="#6A4000"/>
<path d="M10.0643 31.6316C10.0632 31.6339 10.0639 31.6353 10.0629 31.6378C10.0112 31.7767 9.29027 33.779 9.34479 35.2806C9.40182 36.8371 8.1746 38.8319 8.1746 38.8319C8.1746 38.8319 7.25748 36.7421 7.57127 35.529C7.94631 34.0678 9.99921 31.7042 10.0643 31.6316Z" fill="#CA9C5A"/>
<path d="M10.0029 32.9153C10.1141 33.9241 10.2988 34.7628 10.2918 35.922C10.2883 36.5981 9.42065 38.0554 8.71227 38.5471C8.4515 38.7913 8.17432 38.8319 8.17432 38.8319C8.17432 38.8319 9.40154 36.8371 9.34451 35.2805C9.28999 33.779 10.0109 31.7767 10.0626 31.6378C10.0511 31.7195 9.94579 32.3892 10.0029 32.9153Z" fill="#6A4000"/>
<path d="M3.34424 33.1002C3.34515 33.1022 3.34652 33.1027 3.34731 33.1047C3.40391 33.2181 4.23265 34.8374 5.21333 35.7131C6.23048 36.6205 6.74865 38.5236 6.74865 38.5236C6.74865 38.5236 4.87566 37.7841 4.29928 36.8728C3.60337 35.777 3.35097 33.1811 3.34424 33.1002Z" fill="#CA9C5A"/>
<path d="M4.11774 33.91C4.82167 34.4561 5.4626 34.8571 6.19009 35.5611C6.61497 35.9713 7.01094 37.3452 6.89356 38.0453C6.89034 38.3415 6.7485 38.5236 6.7485 38.5236C6.7485 38.5236 6.23033 36.6205 5.21319 35.7131C4.23251 34.8374 3.40376 33.2181 3.34717 33.1047C3.39177 33.1605 3.75092 33.6249 4.11774 33.91Z" fill="#6A4000"/>
<path d="M2.75879 37.7001C2.76014 37.7018 2.76174 37.702 2.76312 37.704C2.85091 37.8065 4.12789 39.2692 5.36404 39.9331C6.64613 40.6209 7.67952 42.4481 7.67952 42.4481C7.67952 42.4481 5.56452 42.1358 4.73338 41.3393C3.73098 40.3819 2.787 37.7815 2.75879 37.7001Z" fill="#CA9C5A"/>
<path d="M3.76607 38.346C4.63162 38.7378 5.39432 38.9965 6.32572 39.5446C6.8695 39.8642 7.63799 41.1778 7.70249 41.9234C7.77734 42.2275 7.68007 42.4481 7.68007 42.4481C7.68007 42.4481 6.64668 40.6209 5.36459 39.9331C4.12844 39.2692 2.85146 37.8065 2.76367 37.704C2.82413 37.7507 3.31488 38.1411 3.76607 38.346Z" fill="#6A4000"/>
<path d="M7.28043 35.8971C7.28052 35.8996 7.2819 35.901 7.2819 35.9035C7.29243 36.0558 7.46676 38.2429 8.16416 39.6516C8.88774 41.1123 8.57649 43.488 8.57649 43.488C8.57649 43.488 6.80443 41.8532 6.58177 40.5759C6.31073 39.0388 7.24991 35.9916 7.28043 35.8971Z" fill="#CA9C5A"/>
<path d="M7.7743 37.1435C8.31386 38.0614 8.85032 38.7887 9.3421 39.8953C9.62958 40.5409 9.42966 42.2653 8.96624 43.0081C8.82299 43.3421 8.57633 43.488 8.57633 43.488C8.57633 43.488 8.88758 41.1123 8.16401 39.6516C7.4666 38.2429 7.29227 36.0558 7.28174 35.9035C7.30588 35.9857 7.49346 36.6644 7.7743 37.1435Z" fill="#6A4000"/>
<path d="M2.95459 44.8773C2.95711 44.8784 2.95883 44.8775 2.96135 44.8787C3.11279 44.9299 5.29626 45.6443 6.93467 45.5946C8.63357 45.5423 10.8072 46.7551 10.8072 46.7551C10.8072 46.7551 8.52438 47.6525 7.20135 47.3407C5.60786 46.9677 3.03392 44.9415 2.95459 44.8773Z" fill="#CA9C5A"/>
<path d="M4.35505 44.9407C5.45621 44.8337 6.37184 44.6541 7.63658 44.6639C8.3747 44.6689 9.96269 45.5265 10.4973 46.2248C10.7633 46.4822 10.8068 46.7551 10.8068 46.7551C10.8068 46.7551 8.63315 45.5423 6.93426 45.5945C5.29585 45.6443 3.11238 44.9298 2.96094 44.8787C3.04999 44.8901 3.78064 44.9956 4.35505 44.9407Z" fill="#6A4000"/>
<path d="M7.62939 42.5931C7.63065 42.5953 7.6325 42.5959 7.63375 42.5981C7.71514 42.7298 8.90397 44.6102 10.1927 45.5722C11.5295 46.5694 12.3734 48.8254 12.3734 48.8254C12.3734 48.8254 10.0174 48.1189 9.21513 47.0724C8.2468 45.8143 7.64678 42.6906 7.62939 42.5931Z" fill="#CA9C5A"/>
<path d="M8.65971 43.4968C9.57557 44.0871 10.3985 44.5085 11.3608 45.288C11.9226 45.7426 12.5585 47.3689 12.4953 48.2301C12.525 48.5897 12.3734 48.8254 12.3734 48.8254C12.3734 48.8254 11.5295 46.5694 10.1927 45.5722C8.904 44.6102 7.71517 42.7298 7.63379 42.5981C7.69413 42.6615 8.18248 43.1881 8.65971 43.4968Z" fill="#6A4000"/>
<path d="M12.7726 42.1219C12.7727 42.1246 12.774 42.1257 12.7742 42.1282C12.7867 42.2805 12.9916 44.4651 13.7085 45.8649C14.4525 47.3165 14.1742 49.6959 14.1742 49.6959C14.1742 49.6959 12.3795 48.0835 12.1391 46.8093C11.8466 45.2758 12.7433 42.2169 12.7726 42.1219Z" fill="#CA9C5A"/>
<path d="M13.2846 43.3622C13.837 44.2731 14.3835 44.9935 14.8905 46.0937C15.1871 46.7357 15.0112 48.4625 14.5583 49.2112C14.4197 49.547 14.175 49.6959 14.175 49.6959C14.175 49.6959 14.4532 47.3165 13.7093 45.8649C12.9923 44.4651 12.7875 42.2805 12.7749 42.1282C12.8002 42.2102 12.9971 42.8866 13.2846 43.3622Z" fill="#6A4000"/>
<path d="M16.2804 44.1706C16.2806 44.1731 16.2819 44.1745 16.2819 44.177C16.2945 44.3293 16.4993 46.5136 17.2163 47.9136C17.9602 49.3649 17.6821 51.7446 17.6821 51.7446C17.6821 51.7446 15.8874 50.1319 15.6469 48.8578C15.3545 47.3243 16.2512 44.2654 16.2804 44.1706Z" fill="#CA9C5A"/>
<path d="M16.7906 45.4109C17.3428 46.3215 17.8895 47.0419 18.3965 48.1424C18.6931 48.7844 18.5171 50.511 18.0643 51.2597C17.9256 51.5954 17.681 51.7446 17.681 51.7446C17.681 51.7446 17.9591 49.3649 17.2151 47.9136C16.4982 46.5136 16.2933 44.3293 16.2808 44.177C16.306 44.259 16.5031 44.935 16.7906 45.4109Z" fill="#6A4000"/>
<path d="M5.77344 49.8855C5.77619 49.886 5.7778 49.8852 5.78064 49.8857C5.9465 49.9138 8.33227 50.2949 10.0163 49.9753C11.7623 49.6434 14.2284 50.5411 14.2284 50.5411C14.2284 50.5411 12.0323 51.8419 10.6087 51.7361C8.89446 51.6116 5.86693 49.9388 5.77344 49.8855Z" fill="#CA9C5A"/>
<path d="M7.23262 49.7214C8.35104 49.431 9.26462 49.0956 10.5733 48.8986C11.3368 48.7833 13.1334 49.4096 13.8125 50.0438C14.1341 50.2658 14.2286 50.541 14.2286 50.541C14.2286 50.541 11.7624 49.6434 10.0164 49.9752C8.3324 50.2948 5.94663 49.9138 5.78076 49.8857C5.87484 49.8832 6.64895 49.8723 7.23262 49.7214Z" fill="#6A4000"/>
<path d="M12.7749 55.1276C12.7772 55.1271 12.778 55.1257 12.7801 55.1251C12.9143 55.0792 14.8328 54.4034 15.9257 53.4946C17.0584 52.5522 19.265 52.2226 19.265 52.2226C19.265 52.2226 18.2324 54.0557 17.1416 54.5485C15.8295 55.1435 12.8671 55.1293 12.7749 55.1276Z" fill="#CA9C5A"/>
<path d="M13.772 54.4233C14.463 53.7624 14.9839 53.1505 15.8561 52.4821C16.3646 52.0919 17.9598 51.8315 18.7394 52.0247C19.0739 52.0588 19.2651 52.2225 19.2651 52.2225C19.2651 52.2225 17.0585 52.5521 15.9258 53.4945C14.833 54.4033 12.9145 55.0791 12.7803 55.125C12.8482 55.0853 13.4111 54.7676 13.772 54.4233Z" fill="#6A4000"/>
<path d="M24.5943 21.9473C24.592 21.9479 24.5914 21.9493 24.5893 21.9501C24.462 21.9987 22.6439 22.7141 21.6283 23.625C20.5755 24.5696 18.4673 24.962 18.4673 24.962C18.4673 24.962 19.3899 23.1648 20.4195 22.654C21.6578 22.0371 24.5056 21.949 24.5943 21.9473Z" fill="#CA9C5A"/>
<path d="M23.6629 22.6583C23.024 23.3172 22.5467 23.923 21.7338 24.5953C21.26 24.988 19.7367 25.2928 18.9801 25.1341C18.6574 25.1127 18.4673 24.9618 18.4673 24.9618C18.4673 24.9618 20.5755 24.5694 21.6283 23.6248C22.6439 22.7139 24.462 21.9985 24.5893 21.9499C24.5255 21.9902 23.9968 22.3151 23.6629 22.6583Z" fill="#6A4000"/>
<path d="M20.178 20.9588C20.1768 20.9605 20.177 20.9621 20.1757 20.9638C20.1015 21.0733 19.0543 22.6557 18.7806 23.9566C18.4973 25.3055 17.0165 26.7837 17.0165 26.7837C17.0165 26.7837 16.6745 24.8108 17.2032 23.8287C17.8375 22.6448 20.1067 21.0088 20.178 20.9588Z" fill="#CA9C5A"/>
<path d="M19.8521 22.0505C19.7322 22.9392 19.712 23.6954 19.4586 24.6903C19.3111 25.2711 18.2542 26.3563 17.5403 26.6426C17.264 26.8024 17.0171 26.7838 17.0171 26.7838C17.0171 26.7838 18.4979 25.3056 18.7811 23.9566C19.0549 22.6557 20.1021 21.0733 20.1763 20.9639C20.1489 21.0319 19.9153 21.5872 19.8521 22.0505Z" fill="#6A4000"/>
<path d="M16.6387 22.5195C16.6381 22.5212 16.6387 22.5223 16.638 22.5239C16.6068 22.6245 16.1739 24.0741 16.2724 25.1393C16.3749 26.244 15.5819 27.7061 15.5819 27.7061C15.5819 27.7061 14.8467 26.2532 15.0215 25.3797C15.23 24.3276 16.5953 22.5737 16.6387 22.5195Z" fill="#CA9C5A"/>
<path d="M16.6466 23.4344C16.7657 24.1477 16.9304 24.7372 16.9715 25.5615C16.9959 26.0422 16.4371 27.1094 15.9531 27.4843C15.7775 27.6674 15.582 27.7061 15.582 27.7061C15.582 27.7061 16.3751 26.244 16.2726 25.1393C16.174 24.0741 16.6069 22.6245 16.6382 22.5239C16.6332 22.5826 16.5849 23.0622 16.6466 23.4344Z" fill="#6A4000"/>
<path d="M23.8322 26.0279C23.8301 26.0282 23.8293 26.0293 23.8275 26.0298C23.7116 26.0579 22.0551 26.4792 21.0683 27.1559C20.0453 27.8579 18.1768 27.9685 18.1768 27.9685C18.1768 27.9685 19.1898 26.5159 20.1406 26.186C21.2845 25.7872 23.7552 26.0196 23.8322 26.0279Z" fill="#CA9C5A"/>
<path d="M22.942 26.5416C22.3108 27.0416 21.8258 27.5132 21.0429 28.0059C20.5862 28.2938 19.2337 28.3922 18.5991 28.1729C18.3228 28.1196 18.1768 27.9687 18.1768 27.9687C18.1768 27.9687 20.0453 27.8581 21.0683 27.1561C22.0551 26.4794 23.7116 26.0581 23.8275 26.03C23.7675 26.0578 23.2718 26.2812 22.942 26.5416Z" fill="#6A4000"/>
<path d="M18.7749 25.0574C18.7734 25.0591 18.7736 25.0604 18.7721 25.0618C18.6924 25.1602 17.5641 26.5839 17.1943 27.7986C16.8112 29.0587 15.2798 30.3501 15.2798 30.3501C15.2798 30.3501 15.1214 28.4498 15.7065 27.5571C16.4091 26.4811 18.7029 25.0993 18.7749 25.0574Z" fill="#CA9C5A"/>
<path d="M18.372 26.0695C18.1832 26.9046 18.1 27.6213 17.7752 28.5473C17.5862 29.0876 16.4905 30.0383 15.7883 30.2556C15.5123 30.3865 15.2793 30.3501 15.2793 30.3501C15.2793 30.3501 16.8107 29.0587 17.1938 27.7986C17.5636 26.5839 18.6919 25.1602 18.7716 25.0618C18.7398 25.1243 18.4711 25.6343 18.372 26.0695Z" fill="#6A4000"/>
<path d="M19.7657 29.2146C19.7636 29.2151 19.7631 29.2165 19.761 29.2173C19.6418 29.2682 17.9377 30.0135 17.0055 30.9167C16.0394 31.8536 14.0464 32.3013 14.0464 32.3013C14.0464 32.3013 14.8554 30.5569 15.8164 30.0341C16.972 29.403 19.6812 29.219 19.7657 29.2146Z" fill="#CA9C5A"/>
<path d="M18.9062 29.9246C18.3231 30.5747 17.8919 31.1685 17.1439 31.8375C16.7077 32.2282 15.2685 32.572 14.5416 32.4475C14.2333 32.4383 14.0464 32.3013 14.0464 32.3013C14.0464 32.3013 16.0394 31.8536 17.0055 30.9168C17.9377 30.0136 19.6418 29.2682 19.761 29.2174C19.7019 29.2579 19.2107 29.5859 18.9062 29.9246Z" fill="#6A4000"/>
<path d="M12.1289 25.1765C12.1286 25.1793 12.1299 25.1807 12.1298 25.1832C12.1258 25.3383 12.0934 27.5662 12.6645 29.0519C13.2574 30.5924 12.7155 32.9698 12.7155 32.9698C12.7155 32.9698 11.0783 31.1626 10.975 29.8512C10.8476 28.2724 12.0889 25.2696 12.1289 25.1765Z" fill="#CA9C5A"/>
<path d="M12.5095 26.4805C12.9678 27.4556 13.4413 28.2377 13.8332 29.4001C14.0626 30.078 13.6956 31.8057 13.1557 32.5177C12.9789 32.8434 12.7153 32.9698 12.7153 32.9698C12.7153 32.9698 13.2572 30.5924 12.6643 29.0519C12.0932 27.5662 12.1255 25.3383 12.1295 25.1832C12.146 25.2685 12.2711 25.9716 12.5095 26.4805Z" fill="#6A4000"/>
<path d="M15.5222 28.0484C15.5207 28.0506 15.5212 28.0523 15.5198 28.0545C15.4412 28.1907 14.3324 30.1544 14.1196 31.7232C13.8993 33.3497 12.2661 35.2234 12.2661 35.2234C12.2661 35.2234 11.6885 32.9037 12.2322 31.694C12.8843 30.2366 15.4416 28.1134 15.5222 28.0484Z" fill="#CA9C5A"/>
<path d="M15.2289 29.3726C15.1631 30.4387 15.2045 31.3399 14.9891 32.543C14.8641 33.245 13.701 34.6187 12.8767 35.0147C12.562 35.2264 12.2666 35.2234 12.2666 35.2234C12.2666 35.2234 13.8999 33.3497 14.1202 31.7232C14.333 30.1544 15.4417 28.1907 15.5203 28.0545C15.4936 28.1376 15.264 28.8165 15.2289 29.3726Z" fill="#6A4000"/>
<path d="M17.3027 32.9699C17.3008 32.971 17.3006 32.9727 17.2987 32.9741C17.1894 33.0608 15.6347 34.3211 14.9385 35.53C14.2172 36.7839 12.2666 37.8132 12.2666 37.8132C12.2666 37.8132 12.5717 35.7567 13.4166 34.9386C14.4319 33.952 17.2156 32.9982 17.3027 32.9699Z" fill="#CA9C5A"/>
<path d="M16.6225 33.9559C16.2135 34.8012 15.9465 35.5452 15.3704 36.4567C15.0346 36.9889 13.6325 37.7537 12.8314 37.8271C12.5053 37.9043 12.2666 37.8132 12.2666 37.8132C12.2666 37.8132 14.2172 36.7838 14.9385 35.5299C15.6347 34.321 17.1894 33.0607 17.2987 32.974C17.2493 33.0332 16.8364 33.5151 16.6225 33.9559Z" fill="#6A4000"/>
<path d="M10.3984 32.3013C10.3989 32.3032 10.4 32.304 10.4004 32.3057C10.4287 32.4177 10.854 34.0204 11.5624 34.9814C12.2973 35.9777 12.3875 37.7799 12.3875 37.7799C12.3875 37.7799 10.8505 36.7819 10.5125 35.861C10.1032 34.7524 10.3885 32.3752 10.3984 32.3013Z" fill="#CA9C5A"/>
<path d="M10.9339 33.1667C11.4587 33.7822 11.9553 34.2569 12.4701 35.0186C12.7709 35.463 12.8558 36.7678 12.6122 37.3758C12.5509 37.6412 12.3876 37.7799 12.3876 37.7799C12.3876 37.7799 12.2974 35.9777 11.5624 34.9814C10.8541 34.0204 10.4287 32.4177 10.4004 32.3057C10.4294 32.3641 10.6605 32.8451 10.9339 33.1667Z" fill="#6A4000"/>
<path d="M15.4939 37.1969C15.4924 37.198 15.4921 37.1994 15.4905 37.2005C15.3995 37.2766 14.1049 38.381 13.5397 39.4243C12.9542 40.5062 11.3174 41.4219 11.3174 41.4219C11.3174 41.4219 11.5305 39.6655 12.231 38.9521C13.0727 38.0915 15.4203 37.223 15.4939 37.1969Z" fill="#CA9C5A"/>
<path d="M14.9373 38.05C14.6084 38.7778 14.3979 39.4165 13.9282 40.204C13.6546 40.664 12.4786 41.3435 11.7984 41.4224C11.5226 41.4946 11.3174 41.4218 11.3174 41.4218C11.3174 41.4218 12.9542 40.5061 13.5397 39.4242C14.1049 38.381 15.3995 37.2766 15.4905 37.2004C15.45 37.2521 15.1094 37.6706 14.9373 38.05Z" fill="#6A4000"/>
<path d="M11.5011 36.716C11.5004 36.7185 11.5013 36.7202 11.5005 36.7227C11.463 36.8772 10.9483 39.099 11.1979 40.6964C11.4574 42.3528 10.4009 44.6246 10.4009 44.6246C10.4009 44.6246 9.15476 42.4975 9.33526 41.1658C9.54947 39.562 11.441 36.8013 11.5011 36.716Z" fill="#CA9C5A"/>
<path d="M11.5993 38.0944C11.8465 39.1593 12.1508 40.0336 12.2912 41.2725C12.3737 41.9954 11.6328 43.652 10.9387 44.2584C10.6914 44.5496 10.4004 44.6246 10.4004 44.6246C10.4004 44.6246 11.457 42.3528 11.1975 40.6964C10.9478 39.099 11.4626 36.8772 11.5001 36.7227C11.4981 36.8113 11.471 37.5389 11.5993 38.0944Z" fill="#6A4000"/>
</svg>
