<svg width="32" height="41" viewBox="0 0 32 41" fill="none" xmlns="http://www.w3.org/2000/svg">
<g id="Notification">
<g id="Iconly/Light Outline/Notification">
<g id="Notification_2">
<path id="Combined Shape" fill-rule="evenodd" clip-rule="evenodd" d="M12.671 36.0455C13.5671 37.0434 14.7176 37.5917 15.9113 37.5917H15.913C17.1119 37.5917 18.2675 37.0434 19.1654 36.0437C19.6464 35.5127 20.4664 35.4695 20.9975 35.9486C21.5303 36.4277 21.5736 37.2492 21.0944 37.7802C19.6965 39.3317 17.8575 40.1861 15.913 40.1861H15.9095C13.9702 40.1844 12.1347 39.3299 10.742 37.7785C10.2628 37.2475 10.306 36.426 10.8389 35.9486C11.3717 35.4678 12.1918 35.511 12.671 36.0455ZM15.9974 3C23.6873 3 28.8531 8.98782 28.8531 14.5796C28.8531 17.4559 29.5849 18.6752 30.3617 19.969C31.1298 21.2454 32 22.6948 32 25.4345C31.3962 32.4341 24.0869 33.0048 15.9974 33.0048C7.90791 33.0048 0.596899 32.4341 2.28989e-05 25.5451C-0.00514402 22.6948 0.86505 21.2454 1.63317 19.969L1.90434 19.5126C2.572 18.3654 3.14174 17.1175 3.14174 14.5796C3.14174 8.98782 8.30754 3 15.9974 3ZM15.9974 5.59438C9.95105 5.59438 5.73675 10.33 5.73675 14.5796C5.73675 18.1754 4.73854 19.8375 3.85623 21.3042C3.14866 22.482 2.58987 23.4126 2.58987 25.4345C2.87878 28.6964 5.03264 30.4105 15.9974 30.4105C26.9017 30.4105 29.123 28.6203 29.4102 25.322C29.405 23.4126 28.8462 22.482 28.1386 21.3042C27.2563 19.8375 26.2581 18.1754 26.2581 14.5796C26.2581 10.33 22.0438 5.59438 15.9974 5.59438Z" fill="#21B573"/>
</g>
</g>
<circle id="Ellipse 32" cx="22.5" cy="4.5" r="4.5" fill="#EE0000"/>
</g>
</svg>
