<svg width="96" height="97" viewBox="0 0 96 97" fill="none" xmlns="http://www.w3.org/2000/svg">
<path d="M96 48.5C96 75.2858 74.5097 97 48 97C21.4903 97 0 75.2858 0 48.5C0 21.7142 21.4903 0 48 0C74.5097 0 96 21.7142 96 48.5Z" fill="#FAB437"/>
<path d="M96 48.5C96 75.2858 74.5097 97 48 97C21.4903 97 0 75.2858 0 48.5C0 21.7142 21.4903 0 48 0C74.5097 0 96 21.7142 96 48.5Z" stroke="white"/>
<path d="M64 45H69.6C70.9256 45 72 46.0744 72 47.4V74.6C72 75.9256 70.9256 77 69.6 77H26.4C25.0745 77 24 75.9256 24 74.6V47.4C24 46.0744 25.0745 45 26.4 45H32M64 45V29C64 23.6667 60.8 13 48 13C35.2 13 32 23.6667 32 29V45M64 45H32" stroke="#364C65" stroke-width="3" stroke-linecap="round" stroke-linejoin="round"/>
</svg>
