<svg width="92" height="85" viewBox="0 0 92 85" fill="none" xmlns="http://www.w3.org/2000/svg">
<path d="M91.0232 42.1428C91.0232 65.2734 70.8584 84.0246 45.9838 84.0246C21.1092 84.0246 0.944336 65.2734 0.944336 42.1428C0.944336 19.0121 21.1092 0.260986 45.9838 0.260986C70.8584 0.260986 91.0232 19.0121 91.0232 42.1428Z" fill="#FAB437"/>
<path d="M91.0232 42.1428C91.0232 65.2734 70.8584 84.0246 45.9838 84.0246C21.1092 84.0246 0.944336 65.2734 0.944336 42.1428C0.944336 19.0121 21.1092 0.260986 45.9838 0.260986C70.8584 0.260986 91.0232 19.0121 91.0232 42.1428Z" stroke="#364C65"/>
<path d="M46.2979 47.5074C49.5689 47.5074 52.2204 45.0418 52.2204 42.0002C52.2204 38.9585 49.5689 36.4929 46.2979 36.4929C43.027 36.4929 40.3755 38.9585 40.3755 42.0002C40.3755 45.0418 43.027 47.5074 46.2979 47.5074Z" stroke="#364C65" stroke-width="3" stroke-linecap="round" stroke-linejoin="round"/>
<path d="M72.9491 42.0003C67.3565 50.2363 57.3088 58.522 46.298 58.522C35.2873 58.522 25.2394 50.2363 19.647 42.0003C26.4535 34.1751 34.4283 25.4785 46.298 25.4785C58.1678 25.4785 66.1427 34.175 72.9491 42.0003Z" stroke="#364C65" stroke-width="3" stroke-linecap="round" stroke-linejoin="round"/>
</svg>
