<svg width="96" height="97" viewBox="0 0 96 97" fill="none" xmlns="http://www.w3.org/2000/svg">
<path d="M96 48.5C96 75.2858 74.5097 97 48 97C21.4903 97 0 75.2858 0 48.5C0 21.7142 21.4903 0 48 0C74.5097 0 96 21.7142 96 48.5Z" fill="#FAB437"/>
<path d="M96 48.5C96 75.2858 74.5097 97 48 97C21.4903 97 0 75.2858 0 48.5C0 21.7142 21.4903 0 48 0C74.5097 0 96 21.7142 96 48.5Z" stroke="white"/>
<path d="M42.72 71H29.38C28.6178 71 28 70.3822 28 69.62V60.88C28 60.1178 28.6178 59.5 29.38 59.5H42.72C43.4822 59.5 44.1 60.1178 44.1 60.88V69.62C44.1 70.3822 43.4822 71 42.72 71Z" stroke="#364C65" stroke-width="3"/>
<path d="M55.3698 36.5H42.0298C41.2677 36.5 40.6498 35.8822 40.6498 35.12V26.38C40.6498 25.6178 41.2677 25 42.0298 25H55.3698C56.132 25 56.7498 25.6178 56.7498 26.38V35.12C56.7498 35.8822 56.132 36.5 55.3698 36.5Z" stroke="#364C65" stroke-width="3"/>
<path d="M68.02 71H54.68C53.9178 71 53.3 70.3822 53.3 69.62V60.88C53.3 60.1178 53.9178 59.5 54.68 59.5H68.02C68.7821 59.5 69.4 60.1178 69.4 60.88V69.62C69.4 70.3822 68.7821 71 68.02 71Z" stroke="#364C65" stroke-width="3"/>
<path d="M36.0501 59.5001V51.4501C36.0501 48.9095 38.1096 46.8501 40.6501 46.8501H56.7501C59.2907 46.8501 61.3501 48.9095 61.3501 51.4501V59.5001" stroke="#364C65" stroke-width="3"/>
<path d="M48.6999 46.85V36.5" stroke="#364C65" stroke-width="3"/>
</svg>
