<svg width="40" height="31" viewBox="0 0 40 31" fill="none" xmlns="http://www.w3.org/2000/svg">
<path fill-rule="evenodd" clip-rule="evenodd" d="M19.7299 18.8688L19.9345 18.8688L20.3923 18.8704C23.8911 18.8934 31.8868 19.2468 31.8868 24.6649C31.8868 30.0475 24.1698 30.3985 20.4468 30.4214L19.0674 30.4214C15.5684 30.3984 7.5711 30.0455 7.5711 24.6341C7.5711 19.2448 15.5684 18.8933 19.0674 18.8704L19.5252 18.8688C19.5962 18.8688 19.6645 18.8688 19.7299 18.8688ZM19.7299 21.5866C15.4238 21.5866 10.2896 22.1156 10.2896 24.6341C10.2896 27.0956 15.1174 27.6711 19.3363 27.7037L19.7299 27.7052C24.0359 27.7052 29.1684 27.178 29.1684 24.6649C29.1684 22.1211 24.0359 21.5866 19.7299 21.5866ZM34.1442 18.1335C38.5355 18.7912 39.4579 20.8531 39.4579 22.4675C39.4579 23.4532 39.0701 25.2523 36.4785 26.2398C36.319 26.2996 36.1559 26.3286 35.9946 26.3286C35.4473 26.3286 34.9308 25.9952 34.7242 25.4535C34.456 24.7523 34.8094 23.9659 35.5107 23.6996C36.7395 23.2321 36.7395 22.7157 36.7395 22.4675C36.7395 21.6739 35.73 21.1195 33.7401 20.8223C32.9989 20.71 32.486 20.0197 32.5965 19.275C32.7071 18.5321 33.3958 18.0375 34.1442 18.1335ZM6.8614 19.275C6.97195 20.0197 6.45907 20.71 5.71783 20.8223C3.72792 21.1195 2.71846 21.6739 2.71846 22.4675C2.71846 22.7157 2.71846 23.2303 3.94902 23.6996C4.65038 23.9659 5.00378 24.7523 4.73556 25.4535C4.52896 25.9952 4.01245 26.3286 3.46513 26.3286C3.30384 26.3286 3.14073 26.2996 2.98125 26.2398C0.387834 25.2505 0 23.4513 0 22.4675C0 20.8549 0.922465 18.7912 5.3155 18.1335C6.06398 18.0393 6.74904 18.5321 6.8614 19.275ZM19.7299 0C24.2969 0 28.0103 3.71432 28.0103 8.27841C28.0103 12.8425 24.2969 16.5568 19.7299 16.5568H19.6809C17.4699 16.5496 15.3985 15.6835 13.8471 14.1181C12.2922 12.5544 11.4422 10.478 11.4512 8.27298C11.4512 3.71432 15.1647 0 19.7299 0ZM19.7299 2.7178C16.6634 2.7178 14.1697 5.21274 14.1697 8.27841C14.1643 9.76414 14.7333 11.1538 15.7754 12.2029C16.8175 13.252 18.2057 13.8336 19.6846 13.839L19.7299 15.1979V13.839C22.7963 13.839 25.2918 11.3459 25.2918 8.27841C25.2918 5.21274 22.7963 2.7178 19.7299 2.7178ZM30.9463 1.77472C34.1323 2.29835 36.4466 5.0234 36.4466 8.25395C36.4394 11.5063 34.0091 14.2965 30.7922 14.7477C30.7288 14.7567 30.6653 14.7604 30.6037 14.7604C29.9368 14.7604 29.355 14.2693 29.259 13.5899C29.1557 12.8452 29.6722 12.1585 30.4171 12.0552C32.3019 11.7907 33.7245 10.1564 33.7281 8.25033C33.7281 6.36055 32.3725 4.76249 30.504 4.45628C29.7646 4.33489 29.2626 3.63551 29.384 2.89446C29.5073 2.1534 30.2014 1.65695 30.9463 1.77472ZM10.0757 2.89446C10.1971 3.63551 9.69512 4.33489 8.9557 4.45628C7.08721 4.76249 5.73161 6.36055 5.73161 8.25395C5.73523 10.1564 7.15789 11.7925 9.04088 12.0552C9.78574 12.1585 10.3022 12.8452 10.1989 13.5899C10.1029 14.2693 9.52114 14.7604 8.85421 14.7604C8.79259 14.7604 8.72916 14.7567 8.66573 14.7477C5.44889 14.2965 3.02039 11.5063 3.01314 8.25758C3.01314 5.0234 5.32746 2.29835 8.5135 1.77472C9.27648 1.65514 9.95247 2.15703 10.0757 2.89446Z" fill="#D0CECE"/>
</svg>
