<svg width="135" height="135" viewBox="0 0 135 135" fill="none" xmlns="http://www.w3.org/2000/svg">
<circle cx="67.4189" cy="67.2744" r="48.1641" transform="rotate(145.78 67.4189 67.2744)" fill="#FAB437"/>
<circle cx="67.4189" cy="67.2744" r="48.1641" transform="rotate(145.78 67.4189 67.2744)" stroke="white"/>
<path d="M43 78.6667V57.3333C43 49.9695 48.9695 44 56.3333 44H77.6667C85.0304 44 91 49.9695 91 57.3333V78.6667C91 86.0304 85.0304 92 77.6667 92H56.3333C48.9695 92 43 86.0304 43 78.6667Z" stroke="#364C65" stroke-width="3"/>
<path d="M78.9999 74.6667C78.9999 74.6667 74.9999 80.0001 66.9999 80.0001C58.9999 80.0001 54.9999 74.6667 54.9999 74.6667" stroke="#364C65" stroke-width="3" stroke-linecap="round" stroke-linejoin="round"/>
<path d="M57.6666 62.6667C56.9303 62.6667 56.3333 62.0697 56.3333 61.3333C56.3333 60.597 56.9303 60 57.6666 60C58.403 60 59 60.597 59 61.3333C59 62.0697 58.403 62.6667 57.6666 62.6667Z" fill="black" stroke="#364C65" stroke-width="3" stroke-linecap="round" stroke-linejoin="round"/>
<path d="M76.3334 62.6667C75.5971 62.6667 75.0001 62.0697 75.0001 61.3333C75.0001 60.597 75.5971 60 76.3334 60C77.0697 60 77.6667 60.597 77.6667 61.3333C77.6667 62.0697 77.0697 62.6667 76.3334 62.6667Z" fill="black" stroke="#364C65" stroke-width="3" stroke-linecap="round" stroke-linejoin="round"/>
</svg>
