<svg width="136" height="136" viewBox="0 0 136 136" fill="none" xmlns="http://www.w3.org/2000/svg">
<circle cx="67.8732" cy="68.2419" r="48.1641" transform="rotate(140.817 67.8732 68.2419)" fill="#FAB437"/>
<circle cx="67.8732" cy="68.2419" r="48.1641" transform="rotate(140.817 67.8732 68.2419)" stroke="#364C65"/>
<path d="M67 46L47.75 54.25L67 62.5L86.25 54.25L67 46Z" stroke="#364C65" stroke-width="3" stroke-linejoin="round"/>
<path fill-rule="evenodd" clip-rule="evenodd" d="M59.3491 61.397L47.1591 66.6213C46.6076 66.8577 46.25 67.4 46.25 68C46.25 68.6 46.6076 69.1423 47.1591 69.3787L66.4091 77.6287C66.7864 77.7904 67.2136 77.7904 67.5909 77.6287L86.8409 69.3787C87.3924 69.1423 87.75 68.6 87.75 68C87.75 67.4 87.3924 66.8577 86.8409 66.6213L74.6509 61.397L70.843 63.0289L82.4421 68L67 74.618L51.5579 68L63.157 63.0289L59.3491 61.397ZM64.4263 59.2211L66.4091 58.3713C66.7864 58.2096 67.2136 58.2096 67.5909 58.3713L69.5737 59.2211L67 60.3241L64.4263 59.2211Z" fill="#364C65"/>
<path fill-rule="evenodd" clip-rule="evenodd" d="M59.3491 75.147L47.1591 80.3713C46.6076 80.6077 46.25 81.15 46.25 81.75C46.25 82.35 46.6076 82.8923 47.1591 83.1287L66.4091 91.3787C66.7864 91.5404 67.2136 91.5404 67.5909 91.3787L86.8409 83.1287C87.3924 82.8923 87.75 82.35 87.75 81.75C87.75 81.15 87.3924 80.6077 86.8409 80.3713L74.6509 75.147L70.843 76.7789L82.4421 81.75L67 88.368L51.5579 81.75L63.157 76.7789L59.3491 75.147ZM64.4263 72.9711L66.4091 72.1213C66.7864 71.9596 67.2136 71.9596 67.5909 72.1213L69.5737 72.9711L67 74.0741L64.4263 72.9711Z" fill="#364C65"/>
</svg>
