<svg width="34" height="37" viewBox="0 0 34 37" fill="none" xmlns="http://www.w3.org/2000/svg">
<path fill-rule="evenodd" clip-rule="evenodd" d="M23.6884 0C29.4578 0 33.3333 3.94986 33.3333 9.82786V26.6987C33.3333 32.6281 29.577 36.4843 23.7637 36.521L9.64676 36.5265C3.87742 36.5265 0 32.5767 0 26.6987V9.82786C0 3.89665 3.75631 0.0421954 9.56969 0.00733833L23.6866 0H23.6884ZM23.6884 2.75187L9.57886 2.75921C5.30691 2.7849 2.75255 5.4267 2.75255 9.82786V26.6987C2.75255 31.1292 5.33076 33.7747 9.64492 33.7747L23.7545 33.7692C28.0264 33.7435 30.5808 31.098 30.5808 26.6987V9.82786C30.5808 5.39734 28.0044 2.75187 23.6884 2.75187ZM23.3344 24.7186C24.0941 24.7186 24.7107 25.335 24.7107 26.0946C24.7107 26.8541 24.0941 27.4705 23.3344 27.4705H10.0855C9.32581 27.4705 8.70924 26.8541 8.70924 26.0946C8.70924 25.335 9.32581 24.7186 10.0855 24.7186H23.3344ZM23.3344 17.0381C24.0941 17.0381 24.7107 17.6546 24.7107 18.4141C24.7107 19.1736 24.0941 19.79 23.3344 19.79H10.0855C9.32581 19.79 8.70924 19.1736 8.70924 18.4141C8.70924 17.6546 9.32581 17.0381 10.0855 17.0381H23.3344ZM15.1405 9.37545C15.9002 9.37545 16.5167 9.99187 16.5167 10.7514C16.5167 11.5109 15.9002 12.1273 15.1405 12.1273H10.085C9.32526 12.1273 8.70869 11.5109 8.70869 10.7514C8.70869 9.99187 9.32526 9.37545 10.085 9.37545H15.1405Z" fill="#D0CECE"/>
</svg>
