<svg width="45" height="58" viewBox="0 0 45 58" fill="none" xmlns="http://www.w3.org/2000/svg">
<path d="M32.7192 22.0818C40.0088 25.223 45 31.6223 45 39.0063C45 49.4959 34.926 58 22.4993 58C10.0727 58 0 49.4959 0 39.0063C0 31.7957 4.75949 25.5237 11.7725 22.3063C14.9603 20.8448 18.6146 20.0136 22.4993 20.0136C26.179 20.0136 29.6532 20.7592 32.7192 22.0818Z" fill="#292929"/>
<path d="M22.4993 57.2224C16.7354 57.2224 11.3165 55.3277 7.24112 51.887C3.16541 48.4465 0.921143 43.8719 0.921143 39.0063C0.921143 32.3218 5.24771 26.1845 12.2123 22.9895C15.3494 21.5513 18.9066 20.7909 22.4993 20.7909C25.9518 20.7909 29.2493 21.4582 32.3001 22.7741C35.7892 24.2775 38.7324 26.5567 40.8124 29.3652C42.9493 32.2512 44.0792 35.585 44.0792 39.0063C44.0792 43.8719 41.8342 48.4465 37.7585 51.887C33.6825 55.3277 28.2636 57.2224 22.4993 57.2224Z" fill="#C9C9C9"/>
<path d="M22.4995 55.0012C17.4384 55.0012 12.6806 53.3374 9.10202 50.3163C5.52343 47.2954 3.55273 43.2786 3.55273 39.0064C3.55273 33.137 7.35157 27.7484 13.4671 24.943C16.2213 23.6799 19.3449 23.0124 22.4995 23.0124C25.5313 23.0124 28.4264 23.5982 31.1052 24.7537C34.1689 26.0738 36.7533 28.075 38.5791 30.5411C40.456 33.075 41.4476 36.0022 41.4476 39.0064C41.4476 43.2786 39.4769 47.2952 35.898 50.3163C32.3191 53.3374 27.5609 55.0012 22.4995 55.0012Z" stroke="#929292" stroke-width="2.61099" stroke-miterlimit="10"/>
<path d="M22.5005 49.8521C19.0688 49.8521 15.8424 48.724 13.4158 46.6757C10.9895 44.6269 9.65283 41.9034 9.65283 39.0063C9.65283 35.0267 12.229 31.3725 16.3758 29.4702C18.2434 28.6137 20.3613 28.1613 22.5005 28.1613C24.5562 28.1613 26.5193 28.5584 28.3359 29.3418C30.4133 30.2372 32.1657 31.594 33.4039 33.2661C34.6763 34.9844 35.3489 36.9695 35.3489 39.0063C35.3489 41.9034 34.0123 44.6269 31.5856 46.6757C29.1589 48.724 25.9323 49.8521 22.5005 49.8521V49.8521Z" stroke="#C9C9C9" stroke-width="1.865" stroke-miterlimit="10"/>
<path d="M22.4995 52.2129C18.3208 52.2129 14.3919 50.8392 11.4372 48.3447C8.48246 45.8502 6.85547 42.534 6.85547 39.0062C6.85547 34.1601 9.99225 29.7108 15.0414 27.3942C17.3157 26.3515 19.8948 25.8004 22.4995 25.8004C25.0026 25.8004 27.393 26.2843 29.605 27.238C32.1344 28.3283 34.2684 29.9807 35.7759 32.0166C37.3255 34.109 38.1446 36.5259 38.1446 39.0062C38.1446 42.5337 36.5169 45.8502 33.5622 48.3447C30.6072 50.8392 26.6783 52.2129 22.4995 52.2129V52.2129Z" stroke="#929292" stroke-width="2.61099" stroke-miterlimit="10"/>
<path d="M29.3702 19.1897V18.4877C29.3702 18.2845 29.175 18.1197 28.934 18.1197H15.259C15.0183 18.1197 14.8231 18.2845 14.8231 18.4877V19.1897C14.8231 19.3939 15.0183 19.5587 15.259 19.5587H28.934C29.175 19.5587 29.3702 19.3939 29.3702 19.1897ZM31.625 18.6644C32.1978 19.7427 32.5162 20.9038 32.5669 22.0818C29.5006 20.7593 26.0263 20.0134 22.347 20.0134C18.4622 20.0134 14.8079 20.8449 11.6201 22.3064C11.6366 21.0514 11.9599 19.8114 12.5683 18.6644L12.852 18.1303C13.1691 17.5323 13.8282 17.114 14.5976 17.0231L15.4354 16.9236C19.8538 16.4015 24.3394 16.4015 28.7592 16.9236L29.5957 17.0231C30.3651 17.114 31.0242 17.5323 31.3412 18.1303L31.625 18.6644Z" fill="#C9C9C9"/>
<path d="M36.3785 9.15527e-05L28.5771 18.3905H24.2419L32.0207 0.0151005V9.15527e-05H36.3785Z" fill="#FF6E77"/>
<path d="M32.0213 9.15527e-05V0.0151005L24.2425 18.3905H19.9624L27.7411 0.0151005V9.15527e-05H32.0213Z" fill="#77DFE1"/>
<path d="M27.7413 9.15527e-05V0.0151005L19.9626 18.3905H15.5896L23.391 9.15527e-05H27.7413Z" fill="#AC748C"/>
<path d="M43.5032 39.0068C43.5032 44.9965 37.7511 49.8521 30.6552 49.8521C23.5595 49.8521 17.8071 44.9965 17.8071 39.0068C17.8071 33.0169 23.5595 28.1613 30.6552 28.1613C37.7511 28.1613 43.5032 33.0169 43.5032 39.0068Z" fill="#9A9898"/>
<path d="M7.78662 9.15527e-05L15.5881 18.3905H19.9229L12.1441 0.0151005V9.15527e-05H7.78662Z" fill="#AC748C"/>
<path d="M12.1438 9.15527e-05V0.0151005L19.9225 18.3905H24.203L16.4243 0.0151005V9.15527e-05H12.1438Z" fill="#77DFE1"/>
<path d="M16.4238 9.15527e-05V0.0151005L24.2026 18.3905H28.5752L20.7738 9.15527e-05H16.4238Z" fill="#FF6E77"/>
<path d="M42.6666 39.0069C42.6666 44.6065 37.2892 49.146 30.6554 49.146C24.022 49.146 18.6443 44.6065 18.6443 39.0069C18.6443 33.4071 24.022 28.8675 30.6554 28.8675C37.2892 28.8675 42.6666 33.4071 42.6666 39.0069Z" fill="#292929"/>
<path d="M39.8019 39.0069C39.8019 43.2709 35.7071 46.7274 30.6556 46.7274C25.6044 46.7274 21.5093 43.2709 21.5093 39.0069C21.5093 34.7427 25.6044 31.2861 30.6556 31.2861C35.7071 31.2861 39.8019 34.7427 39.8019 39.0069Z" fill="#929292"/>
<path d="M19.8607 35.6294C19.8607 35.6302 19.8611 35.6307 19.8611 35.6316C19.8604 35.6785 19.8571 36.3527 20.057 36.8004C20.264 37.2648 20.0879 37.9857 20.0879 37.9857C20.0879 37.9857 19.5243 37.4435 19.4848 37.047C19.4357 36.5698 19.8476 35.6577 19.8607 35.6294Z" fill="#929292"/>
<path d="M19.9964 36.0229C20.1557 36.3166 20.3197 36.552 20.4573 36.9024C20.5376 37.107 20.4188 37.6308 20.2377 37.8476C20.1788 37.9468 20.0892 37.9857 20.0892 37.9857C20.0892 37.9857 20.2654 37.2648 20.0583 36.8004C19.8585 36.3527 19.8618 35.6785 19.8624 35.6316C19.8683 35.6571 19.9134 35.8695 19.9964 36.0229Z" fill="#262626"/>
<path d="M21.7417 36.2816C21.741 36.2821 21.741 36.2827 21.7404 36.2832C21.7032 36.318 21.1735 36.8227 20.9733 37.2704C20.7656 37.7345 20.0696 38.1777 20.0696 38.1777C20.0696 38.1777 20.0702 37.4566 20.3504 37.1364C20.6869 36.7507 21.7097 36.2952 21.7417 36.2816Z" fill="#929292"/>
<path d="M21.5349 36.6518C21.425 36.9614 21.3641 37.2293 21.1932 37.5694C21.0938 37.7678 20.5947 38.0949 20.2888 38.1569C20.167 38.1983 20.0696 38.1778 20.0696 38.1778C20.0696 38.1778 20.7656 37.7345 20.9733 37.2704C21.1735 36.8227 21.7032 36.318 21.7404 36.2833C21.7249 36.3058 21.5925 36.4903 21.5349 36.6518Z" fill="#262626"/>
<path d="M19.3653 37.281C19.3653 37.2816 19.366 37.2821 19.366 37.2827C19.3733 37.3294 19.4872 37.9966 19.7624 38.4151C20.0478 38.849 19.9988 39.5837 19.9988 39.5837C19.9988 39.5837 19.3472 39.1171 19.2389 38.7297C19.1079 38.2637 19.3571 37.3105 19.3653 37.281Z" fill="#929292"/>
<path d="M19.5654 37.6534C19.7741 37.9244 19.9773 38.137 20.1741 38.4666C20.289 38.6591 20.2623 39.1919 20.1208 39.4287C20.0793 39.534 19.998 39.5837 19.998 39.5837C19.998 39.5837 20.047 38.849 19.7616 38.4151C19.4864 37.9966 19.3725 37.3294 19.3652 37.2827C19.3754 37.3077 19.4568 37.5122 19.5654 37.6534Z" fill="#262626"/>
<path d="M21.3377 37.6935C21.3371 37.6943 21.3371 37.6949 21.3368 37.6954C21.3058 37.7343 20.8693 38.2991 20.7488 38.7668C20.624 39.2517 20.0123 39.7761 20.0123 39.7761C20.0123 39.7761 19.8879 39.0627 20.1098 38.7115C20.3758 38.2882 21.3084 37.7113 21.3377 37.6935Z" fill="#929292"/>
<path d="M21.1971 38.0857C21.1421 38.4053 21.1283 38.6782 21.0183 39.0356C20.9541 39.244 20.5172 39.6294 20.2255 39.7284C20.1123 39.7845 20.0122 39.7762 20.0122 39.7762C20.0122 39.7762 20.6239 39.2518 20.7487 38.7668C20.8692 38.2991 21.3057 37.7344 21.3367 37.6955C21.3248 37.7199 21.226 37.9189 21.1971 38.0857Z" fill="#262626"/>
<path d="M19.1597 39.0739C19.16 39.0745 19.1607 39.0748 19.1607 39.0756C19.1807 39.1195 19.4747 39.7462 19.8569 40.0997C20.254 40.4657 20.4077 41.1902 20.4077 41.1902C20.4077 41.1902 19.6459 40.8636 19.4342 40.5079C19.1788 40.0802 19.1597 39.1042 19.1597 39.0739Z" fill="#929292"/>
<path d="M19.4583 39.3969C19.7355 39.6197 19.9913 39.7868 20.2731 40.0691C20.4378 40.2336 20.5582 40.7572 20.4855 41.0154C20.474 41.126 20.4084 41.1902 20.4084 41.1902C20.4084 41.1902 20.2547 40.4657 19.8577 40.0997C19.4754 39.7462 19.1815 39.1195 19.1614 39.0756C19.1785 39.0976 19.3138 39.2807 19.4583 39.3969Z" fill="#262626"/>
<path d="M21.1909 39.0893C21.1906 39.0901 21.1909 39.0907 21.1906 39.0912C21.1712 39.1354 20.9015 39.7699 20.9124 40.2484C20.9243 40.7445 20.4732 41.3745 20.4732 41.3745C20.4732 41.3745 20.1562 40.7045 20.2757 40.3196C20.4183 39.8558 21.1672 39.1124 21.1909 39.0893Z" fill="#929292"/>
<path d="M21.1628 39.4981C21.1968 39.8199 21.2583 40.0878 21.2494 40.4571C21.2442 40.6725 20.9252 41.1327 20.6684 41.2861C20.5735 41.3628 20.4741 41.3745 20.4741 41.3745C20.4741 41.3745 20.9252 40.7445 20.9133 40.2484C20.9024 39.7699 21.1721 39.1354 21.1915 39.0912C21.1869 39.1174 21.1451 39.3302 21.1628 39.4981Z" fill="#262626"/>
<path d="M19.3999 40.7548C19.4002 40.7556 19.4009 40.7557 19.4012 40.7565C19.4269 40.7982 19.8002 41.394 20.2266 41.7097C20.6687 42.0368 20.9156 42.7427 20.9156 42.7427C20.9156 42.7427 20.1159 42.4887 19.8595 42.1549C19.5497 41.7533 19.4039 40.7851 19.3999 40.7548Z" fill="#929292"/>
<path d="M19.7374 41.0486C20.0419 41.2442 20.3178 41.3865 20.6349 41.6408C20.8199 41.7892 21.0075 42.2986 20.969 42.5618C20.972 42.6726 20.915 42.7427 20.915 42.7427C20.915 42.7427 20.6681 42.0368 20.226 41.7097C19.7996 41.394 19.4263 40.7982 19.4006 40.7565C19.4204 40.7768 19.5787 40.9463 19.7374 41.0486Z" fill="#262626"/>
<path d="M21.4216 40.582C21.4213 40.5828 21.4216 40.5834 21.4213 40.5842C21.4078 40.6298 21.2225 41.2854 21.2955 41.76C21.3719 42.2519 21.0055 42.92 21.0055 42.92C21.0055 42.92 20.6032 42.2836 20.6717 41.8898C20.7533 41.4157 21.4009 40.607 21.4216 40.582Z" fill="#929292"/>
<path d="M21.4456 40.9911C21.5213 41.3079 21.6171 41.5683 21.6563 41.9362C21.6794 42.1508 21.4219 42.6379 21.1869 42.8141C21.1026 42.8992 21.0051 42.92 21.0051 42.92C21.0051 42.92 21.3715 42.2519 21.2952 41.76C21.2221 41.2854 21.4074 40.6298 21.4209 40.5842C21.4199 40.6103 21.4061 40.8257 21.4456 40.9911Z" fill="#262626"/>
<path d="M19.929 42.4038C19.9293 42.4047 19.9299 42.4047 19.9306 42.4052C19.9648 42.4425 20.4626 42.9694 20.9508 43.2128C21.4572 43.4652 21.8549 44.1199 21.8549 44.1199C21.8549 44.1199 21.0131 43.9957 20.6878 43.7078C20.2954 43.3618 19.9395 42.433 19.929 42.4038Z" fill="#929292"/>
<path d="M20.3252 42.6395C20.6675 42.784 20.9701 42.8807 21.3375 43.0814C21.5518 43.1981 21.8481 43.6691 21.8679 43.934C21.8952 44.0424 21.8547 44.1199 21.8547 44.1199C21.8547 44.1199 21.457 43.4652 20.9507 43.2128C20.4624 42.9694 19.9647 42.4425 19.9304 42.4052C19.9541 42.4222 20.1467 42.5639 20.3252 42.6395Z" fill="#262626"/>
<path d="M21.8771 41.9176C21.8768 41.9184 21.8775 41.9187 21.8771 41.9195C21.8742 41.9665 21.8357 42.6399 22.0118 43.0948C22.1948 43.5663 21.9815 44.2798 21.9815 44.2798C21.9815 44.2798 21.4465 43.7172 21.4274 43.3199C21.4034 42.8411 21.8623 41.9454 21.8771 41.9176Z" fill="#929292"/>
<path d="M21.991 42.3155C22.1348 42.6149 22.2866 42.8561 22.4058 43.2113C22.4753 43.4185 22.3294 43.9374 22.1371 44.1475C22.0729 44.2442 21.9818 44.2798 21.9818 44.2798C21.9818 44.2798 22.1951 43.5663 22.012 43.0948C21.8359 42.6399 21.8744 41.9665 21.8774 41.9195C21.882 41.9454 21.9159 42.1594 21.991 42.3155Z" fill="#262626"/>
<path d="M20.7537 43.9157C20.7543 43.9162 20.755 43.9162 20.7556 43.9169C20.7971 43.9483 21.3966 44.3937 21.9277 44.5611C22.4784 44.7348 23.0062 45.3206 23.0062 45.3206C23.0062 45.3206 22.1515 45.3228 21.7716 45.0871C21.3133 44.8045 20.7701 43.9427 20.7537 43.9157Z" fill="#929292"/>
<path d="M21.1929 44.0892C21.56 44.1809 21.8777 44.2314 22.281 44.3743C22.5164 44.4576 22.9058 44.8775 22.9802 45.1354C23.0296 45.2383 23.0059 45.3206 23.0059 45.3206C23.0059 45.3206 22.4782 44.7348 21.9274 44.5611C21.3964 44.3937 20.7969 43.9483 20.7554 43.9169C20.7824 43.9301 21.0013 44.0411 21.1929 44.0892Z" fill="#262626"/>
<path d="M22.5708 43.1489C22.5708 43.1498 22.5715 43.1501 22.5715 43.1509C22.5781 43.1975 22.6801 43.8662 22.9481 44.2878C23.226 44.7253 23.1637 45.4592 23.1637 45.4592C23.1637 45.4592 22.5204 44.9845 22.419 44.596C22.2962 44.1283 22.5623 43.1784 22.5708 43.1489Z" fill="#929292"/>
<path d="M22.7657 43.5239C22.9695 43.7973 23.169 44.0124 23.3599 44.3444C23.4715 44.5384 23.4357 45.0709 23.2898 45.306C23.2467 45.4108 23.164 45.4592 23.164 45.4592C23.164 45.4592 23.2263 44.7253 22.9484 44.2878C22.6804 43.8662 22.5784 43.1975 22.5718 43.1509C22.5817 43.1756 22.6597 43.3812 22.7657 43.5239Z" fill="#262626"/>
<path d="M22.1028 45.4253C22.1034 45.4256 22.1041 45.4256 22.1048 45.4258C22.1541 45.4479 22.8643 45.7563 23.4276 45.8097C24.0119 45.8647 24.6927 46.3244 24.6927 46.3244C24.6927 46.3244 23.8648 46.502 23.4279 46.3518C22.9021 46.1721 22.1265 45.4481 22.1028 45.4253Z" fill="#929292"/>
<path d="M22.5795 45.5029C22.9621 45.5166 23.2847 45.5002 23.7173 45.5557C23.9695 45.5882 24.4686 45.9153 24.6151 46.1502C24.6928 46.2393 24.6934 46.3245 24.6934 46.3245C24.6934 46.3245 24.0126 45.8648 23.4283 45.8098C22.865 45.7564 22.1549 45.448 22.1055 45.4259C22.1354 45.4332 22.38 45.4957 22.5795 45.5029Z" fill="#262626"/>
<path d="M23.645 44.3078C23.6453 44.3083 23.6457 44.3087 23.646 44.3094C23.6658 44.3534 23.9581 44.9808 24.3397 45.3346C24.7354 45.7018 24.8872 46.4265 24.8872 46.4265C24.8872 46.4265 24.126 46.0983 23.9156 45.7424C23.6611 45.3141 23.645 44.3381 23.645 44.3078Z" fill="#929292"/>
<path d="M23.9417 44.6315C24.2183 44.8547 24.4737 45.0223 24.7549 45.3052C24.9188 45.47 25.0377 45.9938 24.9643 46.252C24.9527 46.3623 24.8869 46.4265 24.8869 46.4265C24.8869 46.4265 24.7351 45.7018 24.3394 45.3346C23.9578 44.9808 23.6655 44.3534 23.6458 44.3094C23.6625 44.3315 23.7975 44.5148 23.9417 44.6315Z" fill="#262626"/>
<path d="M23.5747 46.5065C23.5757 46.5071 23.5764 46.5067 23.577 46.5073C23.6274 46.5276 24.3503 46.8142 24.9156 46.85C25.5016 46.8869 26.2019 47.3255 26.2019 47.3255C26.2019 47.3255 25.3821 47.5286 24.9393 47.3919C24.406 47.2282 23.5997 46.5287 23.5747 46.5065Z" fill="#929292"/>
<path d="M24.0549 46.5696C24.4378 46.5712 24.7598 46.545 25.194 46.5874C25.4478 46.612 25.9604 46.9236 26.1171 47.1537C26.1984 47.2407 26.2027 47.3254 26.2027 47.3254C26.2027 47.3254 25.5025 46.8869 24.9165 46.85C24.3512 46.8141 23.6283 46.5275 23.5779 46.5073C23.6082 46.5134 23.8554 46.5684 24.0549 46.5696Z" fill="#262626"/>
<path d="M25.0676 45.3422C25.068 45.3427 25.0686 45.3429 25.0689 45.3438C25.0907 45.3869 25.4097 46.0052 25.8061 46.3471C26.2176 46.7016 26.4003 47.4211 26.4003 47.4211C26.4003 47.4211 25.6256 47.1169 25.4001 46.7675C25.1272 46.3473 25.0689 45.3725 25.0676 45.3422Z" fill="#929292"/>
<path d="M25.3788 45.6564C25.6649 45.871 25.9273 46.0308 26.2203 46.3049C26.3918 46.4646 26.533 46.9843 26.4705 47.2444C26.4639 47.3553 26.4007 47.4211 26.4007 47.4211C26.4007 47.4211 26.218 46.7016 25.8064 46.3471C25.4101 46.0052 25.0911 45.3869 25.0693 45.3438C25.0871 45.3652 25.2297 45.5444 25.3788 45.6564Z" fill="#262626"/>
<path d="M25.467 47.5315C25.4677 47.5315 25.4684 47.5313 25.4693 47.5315C25.524 47.5397 26.3118 47.6511 26.8675 47.5568C27.444 47.459 28.2585 47.722 28.2585 47.722C28.2585 47.722 27.5335 48.1041 27.0637 48.0734C26.4978 48.0374 25.498 47.5472 25.467 47.5315Z" fill="#929292"/>
<path d="M25.9483 47.483C26.3174 47.3978 26.619 47.2991 27.0509 47.241C27.3027 47.2068 27.896 47.3902 28.1205 47.5765C28.2268 47.6415 28.2581 47.722 28.2581 47.722C28.2581 47.722 27.4436 47.4591 26.8672 47.5569C26.3115 47.6512 25.5236 47.5398 25.469 47.5316C25.4999 47.5309 25.7557 47.5275 25.9483 47.483Z" fill="#262626"/>
<path d="M27.687 48.1855C27.688 48.1855 27.6887 48.1853 27.6893 48.1853C27.745 48.1855 28.5436 48.1839 29.073 48.0127C29.6218 47.8348 30.4768 47.9789 30.4768 47.9789C30.4768 47.9789 29.8381 48.4581 29.3687 48.4941C28.8037 48.5385 27.7206 48.1964 27.687 48.1855Z" fill="#929292"/>
<path d="M28.1524 48.0697C28.4994 47.9332 28.7769 47.7934 29.1914 47.6749C29.4331 47.6058 30.0543 47.7027 30.3124 47.8545C30.4299 47.9037 30.4767 47.9788 30.4767 47.9788C30.4767 47.9788 29.6217 47.8347 29.0729 48.0127C28.5435 48.1839 27.7448 48.1855 27.6892 48.1853C27.7198 48.18 27.971 48.1408 28.1524 48.0697Z" fill="#262626"/>
<path d="M26.5317 46.0705C26.5321 46.0713 26.5327 46.0713 26.5334 46.0719C26.568 46.1086 27.0726 46.6313 27.5638 46.8703C28.0731 47.1182 28.4791 47.7693 28.4791 47.7693C28.4791 47.7693 27.6359 47.6526 27.3071 47.3674C26.9103 47.0251 26.5426 46.0997 26.5317 46.0705Z" fill="#929292"/>
<path d="M26.9321 46.3026C27.2765 46.4442 27.58 46.5381 27.9497 46.7352C28.1657 46.8503 28.4679 47.3186 28.4909 47.5834C28.5199 47.6914 28.4801 47.7693 28.4801 47.7693C28.4801 47.7693 28.0742 47.1182 27.5649 46.8703C27.0737 46.6313 26.569 46.1086 26.5344 46.0719C26.5585 46.0885 26.753 46.2286 26.9321 46.3026Z" fill="#262626"/>
<path d="M28.416 46.7592C28.4167 46.7598 28.417 46.7598 28.4177 46.7603C28.4542 46.7872 28.9836 47.1729 29.4504 47.3158C29.9344 47.464 30.4022 47.9731 30.4022 47.9731C30.4022 47.9731 29.6539 47.9808 29.3187 47.7777C28.9148 47.5335 28.4308 46.7828 28.416 46.7592Z" fill="#929292"/>
<path d="M28.8028 46.9078C29.1251 46.9856 29.4036 47.0273 29.7582 47.1498C29.9653 47.2209 30.3103 47.5859 30.3781 47.8113C30.4226 47.9007 30.4025 47.973 30.4025 47.973C30.4025 47.973 29.9347 47.4639 29.4507 47.3157C28.9839 47.1728 28.4545 46.7871 28.418 46.7602C28.4417 46.7713 28.6346 46.8673 28.8028 46.9078Z" fill="#262626"/>
<path d="M29.2434 48.6106C29.2437 48.6103 29.2437 48.6101 29.2444 48.6097C29.2701 48.5992 29.6391 48.4441 29.8373 48.2627C30.0431 48.0742 30.4773 47.9756 30.4773 47.9756C30.4773 47.9756 30.3121 48.3204 30.1046 48.428C29.8554 48.5579 29.2618 48.609 29.2434 48.6106Z" fill="#929292"/>
<path d="M29.4266 48.467C29.5501 48.337 29.6406 48.2186 29.7999 48.0838C29.8931 48.0049 30.2065 47.9295 30.3672 47.9498C30.435 47.9498 30.4768 47.9757 30.4768 47.9757C30.4768 47.9757 30.0426 48.0743 29.8368 48.2628C29.6386 48.4442 29.2696 48.5993 29.2439 48.6099C29.2564 48.6018 29.3621 48.5349 29.4266 48.467Z" fill="#262626"/>
<path d="M41.449 35.6294C41.449 35.6302 41.4487 35.6307 41.4487 35.6316C41.4494 35.6785 41.4527 36.3527 41.2531 36.8004C41.0457 37.2648 41.2219 37.9857 41.2219 37.9857C41.2219 37.9857 41.7855 37.4435 41.8253 37.047C41.8744 36.5698 41.4622 35.6577 41.449 35.6294Z" fill="#929292"/>
<path d="M41.3151 36.0229C41.1557 36.3166 40.9918 36.552 40.8542 36.9024C40.7738 37.107 40.8927 37.6308 41.0738 37.8476C41.133 37.9468 41.2222 37.9857 41.2222 37.9857C41.2222 37.9857 41.0461 37.2648 41.2535 36.8004C41.453 36.3527 41.4497 35.6785 41.4491 35.6316C41.4431 35.6571 41.398 35.8695 41.3151 36.0229Z" fill="#262626"/>
<path d="M39.5691 36.2816C39.5698 36.2821 39.5698 36.2827 39.5704 36.2832C39.6076 36.318 40.1373 36.8227 40.3378 37.2704C40.5452 37.7345 41.2412 38.1777 41.2412 38.1777C41.2412 38.1777 41.2405 37.4566 40.9604 37.1364C40.6239 36.7507 39.601 36.2952 39.5691 36.2816Z" fill="#929292"/>
<path d="M39.7762 36.6518C39.8862 36.9614 39.9471 37.2293 40.1183 37.5694C40.2177 37.7678 40.7165 38.0949 41.0223 38.1569C41.1441 38.1983 41.2416 38.1778 41.2416 38.1778C41.2416 38.1778 40.5456 37.7345 40.3382 37.2704C40.1377 36.8227 39.608 36.318 39.5708 36.2833C39.5866 36.3058 39.7186 36.4903 39.7762 36.6518Z" fill="#262626"/>
<path d="M41.9464 37.281C41.9464 37.2816 41.9461 37.2821 41.9461 37.2827C41.9385 37.3294 41.8249 37.9966 41.5497 38.4151C41.2639 38.849 41.3133 39.5837 41.3133 39.5837C41.3133 39.5837 41.9648 39.1171 42.0728 38.7297C42.2042 38.2637 41.955 37.3105 41.9464 37.281Z" fill="#929292"/>
<path d="M41.7457 37.6534C41.5369 37.9244 41.3341 38.137 41.1373 38.4666C41.022 38.6591 41.0487 39.1919 41.1906 39.4287C41.2317 39.534 41.3134 39.5837 41.3134 39.5837C41.3134 39.5837 41.264 38.849 41.5498 38.4151C41.825 37.9966 41.9386 37.3294 41.9461 37.2827C41.9356 37.3077 41.8543 37.5122 41.7457 37.6534Z" fill="#262626"/>
<path d="M39.9736 37.6935C39.9743 37.6943 39.9743 37.6949 39.9749 37.6954C40.0056 37.7343 40.4421 38.2991 40.5626 38.7668C40.6874 39.2517 41.2991 39.7761 41.2991 39.7761C41.2991 39.7761 41.4235 39.0627 41.2019 38.7115C40.9359 38.2882 40.0033 37.7113 39.9736 37.6935Z" fill="#929292"/>
<path d="M40.1146 38.0857C40.1699 38.4053 40.1834 38.6782 40.2937 39.0356C40.3576 39.244 40.7944 39.6294 41.0861 39.7284C41.1994 39.7845 41.2995 39.7762 41.2995 39.7762C41.2995 39.7762 40.6878 39.2518 40.563 38.7668C40.4425 38.2991 40.006 37.7344 39.9753 37.6955C39.9869 37.7199 40.0856 37.9189 40.1146 38.0857Z" fill="#262626"/>
<path d="M42.1507 39.0739C42.1503 39.0745 42.15 39.0748 42.1497 39.0756C42.1296 39.1195 41.8359 39.7462 41.4534 40.0997C41.0567 40.4657 40.9026 41.1902 40.9026 41.1902C40.9026 41.1902 41.6647 40.8636 41.8761 40.5079C42.1315 40.0802 42.1507 39.1042 42.1507 39.0739Z" fill="#929292"/>
<path d="M41.8536 39.3969C41.576 39.6197 41.3205 39.7868 41.0384 40.0691C40.8738 40.2336 40.7536 40.7572 40.8264 41.0154C40.8376 41.126 40.9031 41.1902 40.9031 41.1902C40.9031 41.1902 41.0572 40.4657 41.4539 40.0997C41.8364 39.7462 42.1301 39.1195 42.1502 39.0756C42.1334 39.0976 41.9981 39.2807 41.8536 39.3969Z" fill="#262626"/>
<path d="M40.1194 39.0893C40.1197 39.0901 40.1197 39.0907 40.12 39.0912C40.1391 39.1354 40.4091 39.7699 40.3979 40.2484C40.3864 40.7445 40.8374 41.3745 40.8374 41.3745C40.8374 41.3745 41.1541 40.7045 41.0349 40.3196C40.8921 39.8558 40.1431 39.1124 40.1194 39.0893Z" fill="#929292"/>
<path d="M40.1481 39.4981C40.1138 39.8199 40.0523 40.0878 40.0615 40.4571C40.0664 40.6725 40.3858 41.1327 40.6422 41.2861C40.737 41.3628 40.8368 41.3745 40.8368 41.3745C40.8368 41.3745 40.3858 40.7445 40.3973 40.2484C40.4085 39.7699 40.1385 39.1354 40.1194 39.0912C40.124 39.1174 40.1655 39.3302 40.1481 39.4981Z" fill="#262626"/>
<path d="M41.9124 40.7548C41.9121 40.7556 41.9115 40.7557 41.9111 40.7565C41.8858 40.7982 41.5121 41.394 41.0858 41.7097C40.644 42.0368 40.3967 42.7427 40.3967 42.7427C40.3967 42.7427 41.1964 42.4887 41.4529 42.1549C41.7627 41.7533 41.9085 40.7851 41.9124 40.7548Z" fill="#929292"/>
<path d="M41.5742 41.0486C41.2693 41.2442 40.9934 41.3865 40.6764 41.6408C40.4914 41.7892 40.3037 42.2986 40.3426 42.5618C40.3393 42.6726 40.3962 42.7427 40.3962 42.7427C40.3962 42.7427 40.6435 42.0368 41.0853 41.7097C41.5116 41.394 41.8853 40.7982 41.9106 40.7565C41.8912 40.7768 41.7328 40.9463 41.5742 41.0486Z" fill="#262626"/>
<path d="M39.8896 40.582C39.89 40.5828 39.8897 40.5834 39.89 40.5842C39.9035 40.6298 40.0888 41.2854 40.0157 41.76C39.9397 42.2519 40.3061 42.92 40.3061 42.92C40.3061 42.92 40.7081 42.2836 40.6396 41.8898C40.5583 41.4157 39.9104 40.607 39.8896 40.582Z" fill="#929292"/>
<path d="M39.8655 40.9911C39.7894 41.3079 39.6936 41.5683 39.6548 41.9362C39.6317 42.1508 39.8888 42.6379 40.1242 42.8141C40.2085 42.8992 40.3059 42.92 40.3059 42.92C40.3059 42.92 39.9395 42.2519 40.0156 41.76C40.0887 41.2854 39.9033 40.6298 39.8898 40.5842C39.8911 40.6103 39.9046 40.8257 39.8655 40.9911Z" fill="#262626"/>
<path d="M41.3818 42.4038C41.3812 42.4047 41.3805 42.4047 41.3798 42.4052C41.3459 42.4425 40.8478 42.9694 40.3596 43.2128C39.8536 43.4652 39.4556 44.1199 39.4556 44.1199C39.4556 44.1199 40.2974 43.9957 40.6226 43.7078C41.0151 43.3618 41.3713 42.433 41.3818 42.4038Z" fill="#929292"/>
<path d="M40.9858 42.6395C40.6434 42.784 40.3412 42.8807 39.9738 43.0814C39.7591 43.1981 39.4628 43.6691 39.4431 43.934C39.4157 44.0424 39.4562 44.1199 39.4562 44.1199C39.4562 44.1199 39.8543 43.4652 40.3603 43.2128C40.8485 42.9694 41.3466 42.4425 41.3805 42.4052C41.3568 42.4222 41.1642 42.5639 40.9858 42.6395Z" fill="#262626"/>
<path d="M39.4338 41.9176C39.4338 41.9184 39.4334 41.9187 39.4334 41.9195C39.4367 41.9665 39.4749 42.6399 39.2988 43.0948C39.1157 43.5663 39.3291 44.2798 39.3291 44.2798C39.3291 44.2798 39.8641 43.7172 39.8832 43.3199C39.9075 42.8411 39.4482 41.9454 39.4338 41.9176Z" fill="#929292"/>
<path d="M39.3202 42.3155C39.1763 42.6149 39.0249 42.8561 38.9057 43.2113C38.8359 43.4185 38.9817 43.9374 39.1743 44.1475C39.2382 44.2442 39.3294 44.2798 39.3294 44.2798C39.3294 44.2798 39.1161 43.5663 39.2991 43.0948C39.4752 42.6399 39.437 41.9665 39.4337 41.9195C39.4291 41.9454 39.3952 42.1594 39.3202 42.3155Z" fill="#262626"/>
<path d="M40.5581 43.9157C40.5574 43.9162 40.5568 43.9162 40.5561 43.9169C40.515 43.9483 39.9151 44.3937 39.3841 44.5611C38.8333 44.7348 38.3059 45.3206 38.3059 45.3206C38.3059 45.3206 39.1602 45.3228 39.5402 45.0871C39.9984 44.8045 40.5416 43.9427 40.5581 43.9157Z" fill="#929292"/>
<path d="M40.1189 44.0892C39.7518 44.1809 39.4338 44.2314 39.0305 44.3743C38.7951 44.4576 38.4056 44.8775 38.3312 45.1354C38.2819 45.2383 38.3059 45.3206 38.3059 45.3206C38.3059 45.3206 38.8333 44.7348 39.3841 44.5611C39.9151 44.3937 40.5149 43.9483 40.5561 43.9169C40.5294 43.9301 40.3102 44.0411 40.1189 44.0892Z" fill="#262626"/>
<path d="M38.7395 43.1489C38.7395 43.1498 38.7388 43.1501 38.7388 43.1509C38.7323 43.1975 38.6302 43.8662 38.3625 44.2878C38.0843 44.7253 38.1466 45.4592 38.1466 45.4592C38.1466 45.4592 38.7899 44.9845 38.8913 44.596C39.0144 44.1283 38.7484 43.1784 38.7395 43.1489Z" fill="#929292"/>
<path d="M38.5451 43.5239C38.3413 43.7973 38.1421 44.0124 37.9512 44.3444C37.8392 44.5384 37.8755 45.0709 38.0213 45.306C38.0641 45.4108 38.1467 45.4592 38.1467 45.4592C38.1467 45.4592 38.0845 44.7253 38.3627 44.2878C38.6303 43.8662 38.7324 43.1975 38.739 43.1509C38.7291 43.1756 38.6514 43.3812 38.5451 43.5239Z" fill="#262626"/>
<path d="M39.2075 45.4253C39.2065 45.4256 39.2058 45.4256 39.2052 45.4258C39.1561 45.4479 38.4457 45.7563 37.8824 45.8097C37.2983 45.8647 36.6172 46.3244 36.6172 46.3244C36.6172 46.3244 37.4455 46.502 37.8821 46.3518C38.4081 46.1721 39.1834 45.4481 39.2075 45.4253Z" fill="#929292"/>
<path d="M38.7311 45.5029C38.3489 45.5166 38.0259 45.5002 37.5937 45.5557C37.3411 45.5882 36.8424 45.9153 36.6956 46.1502C36.6179 46.2393 36.6172 46.3245 36.6172 46.3245C36.6172 46.3245 37.2983 45.8648 37.8824 45.8098C38.4457 45.7564 39.1561 45.448 39.2052 45.4259C39.1752 45.4332 38.9306 45.4957 38.7311 45.5029Z" fill="#262626"/>
<path d="M37.6665 44.3078C37.6661 44.3083 37.6655 44.3087 37.6651 44.3094C37.6454 44.3534 37.3534 44.9808 36.9718 45.3346C36.5761 45.7018 36.4243 46.4265 36.4243 46.4265C36.4243 46.4265 37.1851 46.0983 37.3955 45.7424C37.65 45.3141 37.6665 44.3381 37.6665 44.3078Z" fill="#929292"/>
<path d="M37.3698 44.6315C37.0929 44.8547 36.8378 45.0223 36.5566 45.3052C36.3923 45.47 36.2735 45.9938 36.3469 46.252C36.3584 46.3623 36.4246 46.4265 36.4246 46.4265C36.4246 46.4265 36.5763 45.7018 36.9721 45.3346C37.3536 44.9808 37.6456 44.3534 37.6654 44.3094C37.6486 44.3315 37.514 44.5148 37.3698 44.6315Z" fill="#262626"/>
<path d="M37.736 46.5065C37.735 46.5071 37.7344 46.5067 37.7337 46.5073C37.6837 46.5276 36.9607 46.8142 36.3951 46.85C35.8091 46.8869 35.1089 47.3255 35.1089 47.3255C35.1089 47.3255 35.9286 47.5286 36.3714 47.3919C36.9051 47.2282 37.7113 46.5287 37.736 46.5065Z" fill="#929292"/>
<path d="M37.2567 46.5696C36.8738 46.5712 36.5522 46.545 36.1176 46.5874C35.8641 46.612 35.3512 46.9236 35.1948 47.1537C35.1132 47.2407 35.1089 47.3254 35.1089 47.3254C35.1089 47.3254 35.8091 46.8869 36.3951 46.85C36.9607 46.8141 37.6837 46.5275 37.7337 46.5073C37.7034 46.5134 37.4565 46.5684 37.2567 46.5696Z" fill="#262626"/>
<path d="M36.2431 45.3422C36.2427 45.3427 36.2421 45.3429 36.2418 45.3438C36.22 45.3869 35.9013 46.0052 35.5046 46.3471C35.0934 46.7016 34.9104 47.4211 34.9104 47.4211C34.9104 47.4211 35.685 47.1169 35.9109 46.7675C36.1835 46.3473 36.2418 45.3725 36.2431 45.3422Z" fill="#929292"/>
<path d="M35.9326 45.6564C35.6465 45.871 35.3841 46.0308 35.0911 46.3049C34.9199 46.4646 34.7787 46.9843 34.8409 47.2444C34.8475 47.3553 34.9107 47.4211 34.9107 47.4211C34.9107 47.4211 35.0937 46.7016 35.5049 46.3471C35.9016 46.0052 36.2203 45.3869 36.242 45.3438C36.2243 45.3652 36.0817 45.5444 35.9326 45.6564Z" fill="#262626"/>
<path d="M35.8442 47.5315C35.8432 47.5315 35.8425 47.5313 35.8415 47.5315C35.7869 47.5397 34.9991 47.6511 34.4434 47.5568C33.8669 47.459 33.0527 47.722 33.0527 47.722C33.0527 47.722 33.7773 48.1041 34.2475 48.0734C34.8134 48.0374 35.8132 47.5472 35.8442 47.5315Z" fill="#929292"/>
<path d="M35.3625 47.483C34.9931 47.3978 34.6919 47.2991 34.2596 47.241C34.0078 47.2068 33.4145 47.3902 33.19 47.5765C33.084 47.6415 33.0527 47.722 33.0527 47.722C33.0527 47.722 33.8669 47.4591 34.4434 47.5569C34.9991 47.6512 35.7869 47.5398 35.8415 47.5316C35.8106 47.5309 35.5551 47.5275 35.3625 47.483Z" fill="#262626"/>
<path d="M34.7794 46.0705C34.7788 46.0713 34.7781 46.0713 34.7775 46.0719C34.7429 46.1086 34.2382 46.6313 33.7473 46.8703C33.2377 47.1182 32.8318 47.7693 32.8318 47.7693C32.8318 47.7693 33.6749 47.6526 34.0038 47.3674C34.4008 47.0251 34.7682 46.0997 34.7794 46.0705Z" fill="#929292"/>
<path d="M34.3793 46.3026C34.0353 46.4442 33.7314 46.5381 33.3617 46.7352C33.1457 46.8503 32.8435 47.3186 32.8205 47.5834C32.7918 47.6914 32.8313 47.7693 32.8313 47.7693C32.8313 47.7693 33.2373 47.1182 33.7469 46.8703C34.2378 46.6313 34.7424 46.1086 34.777 46.0719C34.7533 46.0885 34.5587 46.2286 34.3793 46.3026Z" fill="#262626"/>
<path d="M33.9253 48.182C33.9244 48.182 33.9237 48.1816 33.9227 48.1816C33.8671 48.1816 33.0687 48.1756 32.5407 48.001C31.9935 47.8201 31.1372 47.9591 31.1372 47.9591C31.1372 47.9591 31.7719 48.4421 32.2411 48.4807C32.8057 48.5285 33.8914 48.1928 33.9253 48.182Z" fill="#929292"/>
<path d="M33.4608 48.0635C33.1151 47.9249 32.8386 47.7835 32.4251 47.6628C32.1841 47.5923 31.5619 47.6856 31.3028 47.8357C31.1846 47.8843 31.1372 47.9591 31.1372 47.9591C31.1372 47.9591 31.9935 47.8201 32.5407 48.001C33.0687 48.1756 33.8671 48.1816 33.9227 48.1816C33.8924 48.1764 33.6416 48.1355 33.4608 48.0635Z" fill="#262626"/>
<path d="M32.8948 46.7592C32.8945 46.7598 32.8938 46.7598 32.8931 46.7603C32.8566 46.7872 32.3272 47.1729 31.8604 47.3158C31.3767 47.464 30.9089 47.9731 30.9089 47.9731C30.9089 47.9731 31.6569 47.9808 31.9921 47.7777C32.396 47.5335 32.8803 46.7828 32.8948 46.7592Z" fill="#929292"/>
<path d="M32.5083 46.9078C32.1859 46.9856 31.9071 47.0273 31.5525 47.1498C31.3458 47.2209 31.0004 47.5859 30.9329 47.8113C30.8885 47.9007 30.9086 47.973 30.9086 47.973C30.9086 47.973 31.3764 47.4639 31.86 47.3157C32.3268 47.1728 32.8562 46.7871 32.8928 46.7602C32.8691 46.7713 32.6762 46.8673 32.5083 46.9078Z" fill="#262626"/>
<path d="M32.0677 48.6106C32.0671 48.6103 32.0671 48.6101 32.0667 48.6097C32.0407 48.5992 31.6717 48.4441 31.4735 48.2627C31.2681 48.0742 30.8335 47.9756 30.8335 47.9756C30.8335 47.9756 30.9988 48.3204 31.2062 48.428C31.4554 48.5579 32.049 48.609 32.0677 48.6106Z" fill="#929292"/>
<path d="M31.8837 48.467C31.7606 48.337 31.67 48.2186 31.5104 48.0838C31.4175 48.0049 31.1038 47.9295 30.9431 47.9498C30.8756 47.9498 30.8335 47.9757 30.8335 47.9757C30.8335 47.9757 31.2681 48.0743 31.4735 48.2628C31.6717 48.4442 32.0407 48.5993 32.0667 48.6099C32.0539 48.6018 31.9482 48.5349 31.8837 48.467Z" fill="#262626"/>
<path d="M25.2554 25.0034C19.2544 26.0269 14.7 29.0486 12.1252 32.7133C10.0041 35.7289 9.70318 38.1539 10.6 41.0294C14.9328 55.5246 21.0859 47.9048 29.3525 54.968C29.4233 55.0298 29.4121 55.1083 29.3535 55.155L28.725 55.6536C28.6671 55.6994 28.5739 55.7026 28.5113 55.6481C23.4137 51.3395 19.4595 52.9793 15.4049 50.591C11.9623 48.5384 10.4722 44.2517 9.5333 40.6853C8.61808 37.1893 9.86022 34.0676 12.4966 31.1334C12.6543 30.9517 13.1521 30.4526 13.2344 30.3748C16.4689 27.4015 20.2457 25.4889 25.2554 25.0034Z" fill="#929292"/>
<path d="M7.53087 29.104C7.53021 29.1065 7.5312 29.1079 7.53054 29.1101C7.50256 29.2558 7.1256 31.3481 7.50157 32.8163C7.89202 34.3387 6.95277 36.5085 6.95277 36.5085C6.95277 36.5085 5.49796 34.6066 5.59014 33.3599C5.69812 31.8586 7.47425 29.1866 7.53087 29.104Z" fill="#929292"/>
<path d="M7.73345 30.3777C8.0686 31.3517 8.44918 32.146 8.68522 33.2879C8.82382 33.954 8.16934 35.5342 7.48852 36.1375C7.25115 36.4221 6.95288 36.5085 6.95288 36.5085C6.95288 36.5085 7.89213 34.3387 7.50168 32.8163C7.12572 31.3481 7.50267 29.2558 7.53066 29.1101C7.53527 29.1927 7.5593 29.8694 7.73345 30.3777Z" fill="#262626"/>
<path d="M11.3226 31.6318C11.3213 31.634 11.3223 31.6354 11.321 31.6379C11.263 31.7769 10.4518 33.7792 10.5131 35.2807C10.5773 36.8373 9.19653 38.8318 9.19653 38.8318C9.19653 38.8318 8.16476 36.7422 8.51801 35.5292C8.93974 34.0679 11.2495 31.7043 11.3226 31.6318Z" fill="#929292"/>
<path d="M11.2536 32.9155C11.3787 33.9242 11.5864 34.763 11.5785 35.9221C11.5745 36.5983 10.5984 38.0556 9.80172 38.5472C9.50838 38.7915 9.19629 38.8318 9.19629 38.8318C9.19629 38.8318 10.577 36.8373 10.5128 35.2807C10.4516 33.7792 11.2628 31.7769 11.3207 31.6379C11.3079 31.7196 11.1894 32.3894 11.2536 32.9155Z" fill="#262626"/>
<path d="M3.76221 33.1001C3.76319 33.1021 3.76484 33.1026 3.76582 33.1046C3.82936 33.2179 4.76171 34.8373 5.86491 35.713C7.00927 36.6203 7.59231 38.5234 7.59231 38.5234C7.59231 38.5234 5.485 37.7839 4.83677 36.8727C4.05389 35.7769 3.76978 33.181 3.76221 33.1001Z" fill="#929292"/>
<path d="M4.63246 33.9099C5.42422 34.4557 6.14554 34.857 6.96397 35.561C7.442 35.9712 7.88743 37.3451 7.75508 38.0452C7.75179 38.3414 7.59211 38.5234 7.59211 38.5234C7.59211 38.5234 7.00907 36.6203 5.86471 35.713C4.76151 34.8373 3.82916 33.2179 3.76562 33.1046C3.81567 33.1604 4.21995 33.6248 4.63246 33.9099Z" fill="#262626"/>
<path d="M3.10376 37.7002C3.10541 37.7019 3.10705 37.7022 3.10869 37.7038C3.20746 37.8067 4.64417 39.2693 6.03478 39.9332C7.47708 40.621 8.63954 42.4482 8.63954 42.4482C8.63954 42.4482 6.26029 42.1359 5.32531 41.3394C4.19742 40.382 3.13536 37.7817 3.10376 37.7002Z" fill="#929292"/>
<path d="M4.23694 38.3461C5.21077 38.7379 6.0687 38.9967 7.1166 39.5447C7.72829 39.8643 8.59314 41.1779 8.66557 41.9236C8.74985 42.2276 8.64022 42.4482 8.64022 42.4482C8.64022 42.4482 7.47776 40.621 6.03546 39.9332C4.64485 39.2693 3.20814 37.8067 3.10938 37.7038C3.17719 37.7505 3.72929 38.1413 4.23694 38.3461Z" fill="#262626"/>
<path d="M8.19045 35.8971C8.19045 35.8996 8.1921 35.901 8.1921 35.9035C8.20395 36.0558 8.40016 38.2429 9.18468 39.6516C9.99883 41.1123 9.64855 43.488 9.64855 43.488C9.64855 43.488 7.65481 41.8532 7.40427 40.5759C7.09942 39.0388 8.15621 35.9916 8.19045 35.8971Z" fill="#929292"/>
<path d="M8.74645 37.1435C9.35353 38.0614 9.95698 38.7884 10.5104 39.8953C10.8337 40.5409 10.6088 42.2653 10.0873 43.0081C9.92636 43.3419 9.64884 43.488 9.64884 43.488C9.64884 43.488 9.99912 41.1123 9.18497 39.6516C8.40044 38.2429 8.20423 36.0558 8.19238 35.9035C8.21938 35.9858 8.43073 36.6644 8.74645 37.1435Z" fill="#262626"/>
<path d="M3.32397 44.8775C3.32661 44.8786 3.32858 44.8778 3.33122 44.879C3.50175 44.9301 5.95804 45.6445 7.80133 45.5948C9.71276 45.5426 12.1579 46.7554 12.1579 46.7554C12.1579 46.7554 9.58997 47.6527 8.10158 47.3409C6.30866 46.9679 3.41286 44.9417 3.32397 44.8775Z" fill="#929292"/>
<path d="M4.90051 44.9407C6.13935 44.8337 7.16914 44.6541 8.59202 44.6639C9.4223 44.6689 11.209 45.5265 11.8104 46.2248C12.1097 46.4822 12.1584 46.7551 12.1584 46.7551C12.1584 46.7551 9.71333 45.5423 7.8019 45.5945C5.95861 45.6443 3.50232 44.9298 3.33179 44.8787C3.4322 44.8901 4.25426 44.9956 4.90051 44.9407Z" fill="#262626"/>
<path d="M8.58325 42.5931C8.58457 42.5953 8.58654 42.5959 8.58786 42.5981C8.67938 42.7298 10.017 44.6102 11.4669 45.5722C12.9707 46.5694 13.9202 48.8254 13.9202 48.8254C13.9202 48.8254 11.2697 48.1189 10.3669 47.0724C9.27757 45.8143 8.60268 42.6906 8.58325 42.5931Z" fill="#929292"/>
<path d="M9.74213 43.4968C10.7726 44.0871 11.6983 44.5085 12.7808 45.288C13.4129 45.7426 14.1283 47.3689 14.0572 48.2301C14.0908 48.5897 13.9202 48.8254 13.9202 48.8254C13.9202 48.8254 12.9708 46.5694 11.4669 45.5722C10.017 44.6102 8.67941 42.7298 8.58789 42.5981C8.65604 42.6615 9.20517 43.1881 9.74213 43.4968Z" fill="#262626"/>
<path d="M14.3696 42.1219C14.3696 42.1246 14.3713 42.1257 14.3713 42.1282C14.3854 42.2805 14.6159 44.4651 15.4225 45.8649C16.2594 47.3165 15.9466 49.6959 15.9466 49.6959C15.9466 49.6959 13.9275 48.0835 13.6569 46.8093C13.328 45.2758 14.3367 42.2169 14.3696 42.1219Z" fill="#929292"/>
<path d="M14.9446 43.3622C15.5658 44.2731 16.1808 44.9935 16.7513 46.0937C17.0848 46.7357 16.887 48.4625 16.3773 49.2112C16.2216 49.547 15.9464 49.6959 15.9464 49.6959C15.9464 49.6959 16.2592 47.3165 15.4223 45.8649C14.6157 44.4651 14.3853 42.2805 14.3711 42.1282C14.3994 42.2102 14.6213 42.8867 14.9446 43.3622Z" fill="#262626"/>
<path d="M18.3158 44.1706C18.3158 44.1731 18.3171 44.1745 18.3175 44.177C18.3316 44.3293 18.5621 46.5136 19.3687 47.9136C20.2055 49.365 19.8924 51.7446 19.8924 51.7446C19.8924 51.7446 17.8733 50.1319 17.6031 48.8578C17.2738 47.3243 18.2826 44.2654 18.3158 44.1706Z" fill="#929292"/>
<path d="M18.8904 45.4109C19.5116 46.3215 20.1266 47.0419 20.6971 48.1424C21.0306 48.7844 20.8328 50.511 20.3231 51.2597C20.1671 51.5954 19.8919 51.7446 19.8919 51.7446C19.8919 51.7446 20.205 49.365 19.3681 47.9136C18.5615 46.5136 18.3311 44.3293 18.3169 44.177C18.3452 44.259 18.5668 44.9351 18.8904 45.4109" fill="#262626"/>
<path d="M6.49536 49.8854C6.49832 49.8859 6.5003 49.8851 6.50326 49.8856C6.68993 49.9137 9.37403 50.2947 11.2687 49.9752C13.2328 49.6433 16.0071 50.5409 16.0071 50.5409C16.0071 50.5409 13.5367 51.8418 11.935 51.7359C10.0065 51.6114 6.60071 49.9387 6.49536 49.8854Z" fill="#929292"/>
<path d="M8.13772 49.7214C9.39599 49.431 10.4238 49.0956 11.8961 48.8986C12.755 48.7833 14.7761 49.4096 15.5402 50.0438C15.902 50.2658 16.008 50.541 16.008 50.541C16.008 50.541 13.2337 49.6434 11.2696 49.9752C9.37492 50.2948 6.69082 49.9138 6.50415 49.8857C6.61016 49.8832 7.48093 49.8723 8.13772 49.7214Z" fill="#262626"/>
<path d="M14.3711 55.1276C14.3737 55.1271 14.3744 55.1257 14.377 55.1251C14.5281 55.0792 16.6861 54.4034 17.9158 53.4946C19.1902 52.5522 21.6725 52.2226 21.6725 52.2226C21.6725 52.2226 20.511 54.0557 19.2837 54.5485C17.8075 55.1435 14.4748 55.1293 14.3711 55.1276Z" fill="#929292"/>
<path d="M15.4934 54.4234C16.2707 53.7625 16.8567 53.1506 17.8378 52.4822C18.4099 52.0917 20.2048 51.8316 21.0819 52.0249C21.4582 52.0589 21.6731 52.2226 21.6731 52.2226C21.6731 52.2226 19.1908 52.5522 17.9164 53.4946C16.6868 54.4035 14.5288 55.0792 14.3777 55.1251C14.4541 55.0854 15.0872 54.7678 15.4934 54.4234Z" fill="#262626"/>
<path d="M27.6689 21.9473C27.6666 21.9479 27.666 21.9493 27.6633 21.9501C27.5205 21.9987 25.475 22.7141 24.3323 23.625C23.1478 24.5696 20.7761 24.962 20.7761 24.962C20.7761 24.962 21.8141 23.1648 22.9723 22.654C24.3656 22.0371 27.5692 21.949 27.6689 21.9473Z" fill="#929292"/>
<path d="M26.6214 22.6585C25.9024 23.3174 25.3654 23.9233 24.4512 24.5955C23.9178 24.9882 22.2043 25.2931 21.3532 25.1344C20.9901 25.113 20.7761 24.9621 20.7761 24.9621C20.7761 24.9621 23.1478 24.5697 24.3323 23.6251C25.475 22.7141 27.5205 21.9988 27.6633 21.9501C27.5916 21.9904 26.9967 22.3153 26.6214 22.6585Z" fill="#262626"/>
<path d="M22.7007 20.9588C22.6994 20.9605 22.6997 20.9621 22.6981 20.9638C22.6148 21.0733 21.4365 22.6557 21.1287 23.9566C20.81 25.3055 19.1442 26.7837 19.1442 26.7837C19.1442 26.7837 18.7593 24.8108 19.3542 23.8287C20.0676 22.6448 22.6204 21.0088 22.7007 20.9588Z" fill="#929292"/>
<path d="M22.3335 22.0505C22.1985 22.9392 22.1758 23.6954 21.8904 24.6903C21.7248 25.2711 20.5356 26.3563 19.7327 26.6426C19.4219 26.8024 19.144 26.7838 19.144 26.7838C19.144 26.7838 20.8099 25.3056 21.1286 23.9566C21.4364 22.6557 22.6146 21.0733 22.6979 20.9639C22.6673 21.0319 22.4046 21.5872 22.3335 22.0505Z" fill="#262626"/>
<path d="M18.7187 22.5195C18.718 22.5212 18.7187 22.5223 18.7177 22.5239C18.6828 22.6245 18.1959 24.0741 18.3065 25.1393C18.4217 26.244 17.5296 27.7061 17.5296 27.7061C17.5296 27.7061 16.7026 26.2532 16.8994 25.3797C17.1338 24.3276 18.67 22.5737 18.7187 22.5195Z" fill="#929292"/>
<path d="M18.728 23.4344C18.862 24.1478 19.0473 24.7372 19.0937 25.5615C19.121 26.0422 18.4922 27.1094 17.9477 27.4843C17.7502 27.6674 17.5303 27.7061 17.5303 27.7061C17.5303 27.7061 18.4225 26.244 18.3072 25.1393C18.1966 24.0741 18.6835 22.6245 18.7184 22.5239C18.7128 22.5826 18.6588 23.0623 18.728 23.4344Z" fill="#262626"/>
<path d="M26.8108 26.0281C26.8089 26.0284 26.8079 26.0295 26.8056 26.0301C26.6756 26.0581 24.8118 26.4795 23.7017 27.1562C22.5508 27.8581 20.4487 27.9688 20.4487 27.9688C20.4487 27.9688 21.5882 26.5161 22.6581 26.1863C23.945 25.7875 26.7246 26.0198 26.8108 26.0281Z" fill="#929292"/>
<path d="M25.8097 26.5416C25.0996 27.0416 24.5537 27.5132 23.6731 28.0059C23.1595 28.2938 21.6375 28.3922 20.9238 28.1729C20.613 28.1196 20.4487 27.9687 20.4487 27.9687C20.4487 27.9687 22.5508 27.8581 23.7017 27.1561C24.8118 26.4794 26.6756 26.0581 26.8056 26.03C26.7381 26.0578 26.1804 26.2812 25.8097 26.5416Z" fill="#262626"/>
<path d="M21.1216 25.0574C21.12 25.0591 21.12 25.0604 21.1183 25.0618C21.0288 25.1602 19.7593 26.5839 19.3435 27.7986C18.9126 29.0587 17.1898 30.3501 17.1898 30.3501C17.1898 30.3501 17.0113 28.4498 17.6698 27.5571C18.4599 26.4811 21.0406 25.0993 21.1216 25.0574Z" fill="#929292"/>
<path d="M20.6689 26.0695C20.4562 26.9046 20.3627 27.6213 19.9973 28.5473C19.7846 29.0876 18.552 30.0383 17.7622 30.2556C17.4518 30.3865 17.1897 30.3501 17.1897 30.3501C17.1897 30.3501 18.9125 29.0587 19.3434 27.7986C19.7592 26.5839 21.0287 25.1602 21.1182 25.0618C21.0827 25.1243 20.7805 25.6343 20.6689 26.0695Z" fill="#262626"/>
<path d="M22.2377 29.2146C22.2354 29.2151 22.2347 29.2165 22.2324 29.2173C22.0981 29.2682 20.1811 30.0135 19.1325 30.9167C18.0454 31.8536 15.8035 32.3013 15.8035 32.3013C15.8035 32.3013 16.7134 30.5569 17.7946 30.0341C19.0946 29.403 22.1425 29.219 22.2377 29.2146Z" fill="#929292"/>
<path d="M21.2708 29.9246C20.6146 30.5747 20.1297 31.1685 19.2879 31.8375C18.7974 32.2282 17.1783 32.572 16.3605 32.4475C16.0135 32.4383 15.8035 32.3013 15.8035 32.3013C15.8035 32.3013 18.0454 31.8536 19.1325 30.9168C20.1811 30.0136 22.0981 29.2682 22.2324 29.2174C22.1659 29.2579 21.6132 29.5859 21.2708 29.9246Z" fill="#262626"/>
<path d="M13.6461 25.1767C13.6458 25.1794 13.6474 25.1806 13.6471 25.1833C13.6425 25.3384 13.6063 27.5664 14.2489 29.0521C14.9156 30.5925 14.3062 32.97 14.3062 32.97C14.3062 32.97 12.4642 31.1628 12.348 29.8513C12.2045 28.2725 13.601 25.2698 13.6461 25.1767Z" fill="#929292"/>
<path d="M14.073 26.4806C14.5889 27.4558 15.1215 28.2378 15.5623 29.4003C15.8201 30.0781 15.4073 31.8058 14.8002 32.5178C14.601 32.8435 14.3047 32.97 14.3047 32.97C14.3047 32.97 14.9141 30.5925 14.2475 29.0521C13.6048 27.5664 13.641 25.3384 13.6456 25.1833C13.6641 25.2686 13.805 25.9717 14.073 26.4806Z" fill="#262626"/>
<path d="M17.4625 28.0484C17.4608 28.0506 17.4615 28.0523 17.4598 28.0545C17.3713 28.1907 16.1239 30.1544 15.8845 31.7232C15.6366 33.3497 13.7993 35.2234 13.7993 35.2234C13.7993 35.2234 13.1494 32.9037 13.7611 31.694C14.4946 30.2366 17.3716 28.1135 17.4625 28.0484Z" fill="#929292"/>
<path d="M17.1332 29.3724C17.0591 30.4387 17.1055 31.3399 16.8632 32.543C16.7227 33.245 15.414 34.6187 14.487 35.0147C14.1327 35.2264 13.8005 35.2234 13.8005 35.2234C13.8005 35.2234 15.6379 33.3497 15.8858 31.7232C16.1251 30.1544 17.3725 28.1907 17.4611 28.0545C17.4308 28.1376 17.1724 28.8165 17.1332 29.3724Z" fill="#262626"/>
<path d="M19.466 32.9699C19.4641 32.971 19.4637 32.9727 19.4618 32.9741C19.3386 33.0608 17.5895 34.3211 16.8063 35.53C15.9948 36.7839 13.8005 37.8132 13.8005 37.8132C13.8005 37.8132 14.1436 35.7567 15.0944 34.9386C16.2364 33.952 19.3683 32.9982 19.466 32.9699Z" fill="#929292"/>
<path d="M18.7009 33.9559C18.2407 34.8012 17.9404 35.5452 17.2922 36.4567C16.9146 36.9889 15.337 37.7537 14.4359 37.8271C14.0689 37.9043 13.8005 37.8132 13.8005 37.8132C13.8005 37.8132 15.9948 36.7838 16.8063 35.5299C17.5895 34.321 19.3386 33.0607 19.4617 32.974C19.4061 33.0332 18.9416 33.5151 18.7009 33.9559Z" fill="#262626"/>
<path d="M11.6983 32.3014C11.6986 32.3033 11.7 32.3042 11.7006 32.3058C11.7325 32.4178 12.2109 34.0205 13.0079 34.9815C13.8346 35.9778 13.936 37.78 13.936 37.78C13.936 37.78 12.207 36.7821 11.8267 35.8611C11.3661 34.7525 11.6871 32.3753 11.6983 32.3014Z" fill="#929292"/>
<path d="M12.3016 33.1668C12.8919 33.7824 13.4505 34.257 14.0296 35.0188C14.3681 35.4631 14.4635 36.7679 14.1896 37.376C14.1205 37.6414 13.9368 37.78 13.9368 37.78C13.9368 37.78 13.8354 35.9778 13.0087 34.9815C12.2117 34.0205 11.7334 32.4178 11.7014 32.3058C11.734 32.3642 11.9941 32.8453 12.3016 33.1668Z" fill="#262626"/>
<path d="M17.4312 37.1969C17.4293 37.198 17.4293 37.1994 17.4273 37.2005C17.3249 37.2766 15.8685 38.381 15.2327 39.4243C14.574 40.5062 12.7327 41.4219 12.7327 41.4219C12.7327 41.4219 12.9723 39.6655 13.7605 38.9521C14.7073 38.0915 17.3483 37.223 17.4312 37.1969Z" fill="#929292"/>
<path d="M16.8051 38.05C16.435 38.7778 16.198 39.4165 15.6696 40.204C15.3618 40.664 14.0387 41.3435 13.2736 41.4224C12.9634 41.4946 12.7327 41.4218 12.7327 41.4218C12.7327 41.4218 14.574 40.5061 15.2327 39.4242C15.8685 38.381 17.3249 37.2766 17.4273 37.2004C17.3815 37.2521 16.9987 37.6706 16.8051 38.05Z" fill="#262626"/>
<path d="M12.9388 36.7161C12.9378 36.7186 12.9392 36.7202 12.9382 36.7227C12.896 36.8772 12.3169 39.0991 12.5978 40.6965C12.8898 42.3528 11.701 44.6244 11.701 44.6244C11.701 44.6244 10.2992 42.4976 10.5023 41.1659C10.7433 39.5621 12.871 36.8014 12.9388 36.7161Z" fill="#929292"/>
<path d="M13.0495 38.0945C13.3277 39.1594 13.6701 40.0337 13.8278 41.2726C13.9209 41.9954 13.087 43.652 12.3064 44.2584C12.0283 44.5494 11.7007 44.6244 11.7007 44.6244C11.7007 44.6244 12.8895 42.3528 12.5975 40.6965C12.3166 39.0991 12.8957 36.8772 12.9379 36.7227C12.9356 36.8114 12.9053 37.5389 13.0495 38.0945Z" fill="#262626"/>
<path d="M35.4553 43.8636H26.3794V42.2515C29.4882 40.3523 31.8681 38.6435 31.8681 37.205C31.8681 35.4537 29.1438 35.4267 26.9305 36.694H26.6823V34.5243C29.0326 33.6587 34.9193 33.1779 34.9193 36.8643C34.9193 38.9392 32.6233 40.5643 30.2612 41.9956H35.4553V43.8636Z" fill="#292525"/>
</svg>
