<svg width="34" height="36" viewBox="0 0 34 36" fill="none" xmlns="http://www.w3.org/2000/svg">
<path d="M11.64 32.9277V27.5645C11.64 26.1955 12.7582 25.0856 14.1376 25.0856H19.18C19.8424 25.0856 20.4777 25.3468 20.9461 25.8117C21.4145 26.2766 21.6777 26.9071 21.6777 27.5645V32.9277C21.6735 33.4968 21.8984 34.0441 22.3024 34.448C22.7064 34.852 23.2562 35.0792 23.8297 35.0792H27.2699C28.8766 35.0833 30.4189 34.4527 31.5564 33.3266C32.694 32.2005 33.3333 30.6714 33.3333 29.0768V13.7981C33.3333 12.51 32.758 11.2882 31.7625 10.4618L20.0597 1.18545C18.024 -0.441012 15.1072 -0.388498 13.1323 1.31017L1.69651 10.4618C0.653931 11.2638 0.0307935 12.4893 0 13.7981V29.0612C0 32.3848 2.7147 35.0792 6.06346 35.0792H9.42507C10.6162 35.0792 11.5842 34.1254 11.5928 32.9432L11.64 32.9277Z" fill="#21B573"/>
</svg>
