<svg width="15" height="14" viewBox="0 0 15 14" fill="none" xmlns="http://www.w3.org/2000/svg">
<g id="Iconly/Light Outline/Image 2">
<g id="Image 2">
<path id="Combined Shape" fill-rule="evenodd" clip-rule="evenodd" d="M10.3408 0C11.5039 0 12.5072 0.376767 13.2414 1.09031C14.0089 1.83542 14.4299 2.91941 14.4284 4.14303L14.4295 9.0518C14.4307 9.07068 14.431 9.08962 14.4302 9.10852L14.4284 9.85767C14.4284 12.3351 12.7842 14 10.3371 14H4.08303C1.6381 14 -0.00463867 12.3351 -0.00463867 9.85767V4.14233C-0.00463867 1.66493 1.6381 0 4.08303 0H10.3408ZM10.5408 7.60009C10.1155 7.60009 9.61639 8.28276 9.17442 8.88545C8.56825 9.71335 7.9411 10.57 6.99641 10.57C6.35768 10.57 5.77249 10.3315 5.25674 10.1203C4.43646 9.78492 4.06466 9.67757 3.70081 9.96804C2.97246 10.5502 2.25279 11.6103 1.9221 12.1319C2.44404 12.6539 3.18546 12.9476 4.08303 12.9476H10.3371C12.1636 12.9476 13.3434 11.7352 13.3434 9.85767L13.3434 9.29708L13.3267 9.28003C12.6935 8.64723 11.6 7.60009 10.5408 7.60009ZM10.3408 1.05242H4.08303C2.25946 1.05242 1.08039 2.26551 1.08039 4.14233V9.85767C1.08039 10.3268 1.15399 10.7543 1.29285 11.1318C1.71145 10.5188 2.34365 9.68885 3.01145 9.15557C3.91709 8.43291 4.89217 8.83002 5.67773 9.15066C6.13996 9.33939 6.57686 9.5176 6.99641 9.5176C7.38123 9.5176 7.86371 8.85808 8.29048 8.27645C8.88291 7.46538 9.55563 6.54767 10.5408 6.54767C11.622 6.54767 12.6013 7.19215 13.3442 7.83172L13.3434 4.14233C13.3448 3.18603 13.0439 2.38759 12.4739 1.83402C11.9473 1.32254 11.2102 1.05242 10.3408 1.05242ZM4.95539 2.93941C5.99051 2.94011 6.83249 3.75679 6.83322 4.7601V4.7608C6.83322 5.76481 5.99123 6.58149 4.95539 6.58149C3.91955 6.58149 3.07757 5.76481 3.07757 4.7608C3.07757 3.75609 3.91955 2.93941 4.95539 2.93941ZM4.95467 3.99183C4.51776 3.99183 4.1626 4.33632 4.1626 4.7608C4.1626 5.18457 4.51776 5.52907 4.95539 5.52907C5.3923 5.52907 5.74819 5.18457 5.74819 4.7615C5.74746 4.33703 5.39157 3.99253 4.95467 3.99183Z" fill="#21B573"/>
</g>
</g>
</svg>
