<svg width="291" height="409" viewBox="0 0 291 409" fill="none" xmlns="http://www.w3.org/2000/svg">
<path d="M193.604 98.7876L193.806 99.7449L193.957 100.513L194.222 101.962C194.386 102.906 194.537 103.826 194.676 104.745C194.941 106.584 195.167 108.386 195.369 110.187C195.76 113.789 196.05 117.354 196.214 120.931C196.378 124.495 196.428 128.06 196.391 131.625C196.34 135.189 196.189 138.741 195.949 142.293C195.697 145.845 195.331 149.397 194.89 152.936C194.638 154.7 194.411 156.476 194.121 158.239C193.982 159.121 193.843 160.003 193.692 160.884L193.2 163.517C193.049 164.399 192.847 165.268 192.671 166.149C192.482 167.018 192.318 167.9 192.103 168.769C191.7 170.507 191.309 172.258 190.842 173.996C190.615 174.866 190.401 175.735 190.161 176.591L189.43 179.173L189.241 179.816L189.153 180.143L188.964 180.798C188.774 181.415 188.585 181.944 188.371 182.486C188.169 182.99 187.955 183.506 187.74 183.96C187.526 184.438 187.299 184.854 187.072 185.282L186.744 185.874C186.631 186.076 186.517 186.265 186.404 186.441L186.063 186.995L185.735 187.512C185.508 187.864 185.294 188.167 185.067 188.482C184.184 189.716 183.314 190.749 182.469 191.693C181.625 192.638 180.805 193.469 179.985 194.25C178.359 195.812 176.782 197.135 175.231 198.382C172.13 200.85 169.091 202.929 166.052 204.869C159.999 208.735 153.984 212.073 147.931 215.21C141.891 218.346 135.813 221.243 129.71 224.014C126.646 225.387 123.582 226.735 120.505 228.045C118.967 228.7 117.428 229.355 115.877 229.997L113.532 230.942L111.124 231.899L100.557 208.043L102.612 206.997L104.718 205.901L108.942 203.697C111.754 202.211 114.566 200.712 117.34 199.175C122.914 196.14 128.424 193.003 133.783 189.804C136.457 188.204 139.092 186.554 141.664 184.904C144.237 183.254 146.746 181.566 149.117 179.853C151.487 178.14 153.745 176.402 155.661 174.714C156.62 173.871 157.49 173.039 158.183 172.309C158.864 171.578 159.381 170.898 159.482 170.671C159.482 170.659 159.507 170.621 159.495 170.621C159.482 170.633 159.482 170.633 159.469 170.646L159.431 170.684C159.419 170.709 159.406 170.722 159.394 170.747C159.343 170.81 159.331 170.86 159.268 170.974C159.23 171.062 159.154 171.188 159.104 171.326C159.028 171.49 158.978 171.641 158.902 171.868L158.851 172.019C158.839 172.069 158.851 172.019 158.851 172.006L158.864 171.943L158.927 171.679L159.053 171.137L159.545 168.996C159.709 168.278 159.848 167.56 159.999 166.842C160.314 165.406 160.554 163.958 160.819 162.509C160.957 161.791 161.058 161.061 161.172 160.33C161.285 159.6 161.411 158.882 161.5 158.151C161.928 155.241 162.256 152.307 162.521 149.359C162.773 146.412 162.937 143.465 163.063 140.505C163.164 137.545 163.189 134.585 163.139 131.637C163.101 128.677 162.975 125.73 162.773 122.782C162.584 119.848 162.319 116.925 161.966 114.041C161.79 112.605 161.588 111.182 161.373 109.796C161.273 109.103 161.159 108.423 161.046 107.756L160.869 106.798L160.73 106.118L193.604 98.7876Z" fill="#EA9B7A"/>
<path d="M158.47 106.912L152.468 152.382C161.434 157.395 169.933 160.985 177.751 162.408L158.47 106.912Z" fill="#A92F4B"/>
<path d="M171.209 177.196C171.083 177.196 170.945 177.171 170.831 177.095C166.166 174.563 159.747 172.435 159.684 172.409C159.268 172.271 159.041 171.817 159.18 171.402C159.319 170.986 159.772 170.759 160.189 170.898C160.453 170.986 166.809 173.09 171.6 175.697C171.991 175.911 172.13 176.39 171.916 176.78C171.777 177.057 171.5 177.196 171.209 177.196Z" fill="#D46A43"/>
<path d="M160.376 172.611C159.972 172.611 159.632 172.309 159.581 171.906C159.531 171.465 159.846 171.074 160.287 171.024C163.604 170.659 167.954 170.634 168.131 170.634C168.572 170.634 168.925 170.986 168.925 171.427C168.925 171.868 168.572 172.221 168.131 172.233C168.08 172.233 163.679 172.258 160.451 172.611C160.439 172.611 160.401 172.611 160.376 172.611Z" fill="#D46A43"/>
<path d="M74.0343 359.292L65.7497 372.794L49.9875 365.829L57.1373 351.306L74.0343 359.292Z" fill="#EA9B7A"/>
<path d="M0.0305806 373.499L59.6872 399.875C60.4817 399.27 61.2382 398.225 61.9444 396.915C64.5546 392.04 66.5091 383.286 67.9718 377.857C68.1358 377.228 68.2997 376.636 68.4636 376.107C68.7284 375.212 68.9806 374.469 69.2076 373.953C71.036 369.809 67.0639 368.902 67.0639 368.902C58.4011 372.152 55.5008 360.261 50.2173 361.395C50.2173 361.395 47.9476 361.861 41.3275 364.027C34.7074 366.194 25.4014 365.438 17.2807 365.274C6.7894 365.06 2.6408 367.642 1.02675 369.96C-0.272053 371.811 0.0305806 373.499 0.0305806 373.499Z" fill="#FAAF3A"/>
<path d="M0.0309897 373.499L59.6876 399.875C60.4821 399.27 61.2386 398.225 61.9448 396.915L1.01455 369.973C-0.271644 371.812 0.0309897 373.499 0.0309897 373.499Z" fill="#C77E2E"/>
<path d="M53.6045 397.179L55.3824 397.96C54.5124 395.163 54.2223 391.334 56.4038 387.001C59.3041 381.245 64.6002 378.839 67.967 377.857C68.1309 377.227 68.2948 376.635 68.4587 376.106C64.9154 376.963 58.4844 379.406 55.0168 386.309C52.9235 390.44 52.9109 394.219 53.6045 397.179Z" fill="#C77E2E"/>
<path d="M40.7741 367.995C41.2154 368.184 41.745 368.071 42.0602 367.667C42.4259 367.201 42.3377 366.521 41.8711 366.156L38.5547 363.586C38.0882 363.221 37.4073 363.309 37.0416 363.775C36.6759 364.241 36.7642 364.922 37.2307 365.287L40.5471 367.856C40.6101 367.919 40.6858 367.97 40.7741 367.995Z" fill="white"/>
<path d="M45.8441 366.534C46.2854 366.723 46.815 366.609 47.1303 366.206C47.4959 365.74 47.4077 365.06 46.9411 364.695L43.6247 362.125C43.1582 361.76 42.4773 361.848 42.1116 362.314C41.7459 362.78 41.8342 363.46 42.3007 363.826L45.6171 366.395C45.6927 366.458 45.7684 366.509 45.8441 366.534Z" fill="white"/>
<path d="M36.0786 368.512C36.52 368.701 37.0496 368.587 37.3648 368.184C37.7305 367.718 37.6422 367.038 37.1757 366.673L33.8593 364.103C33.3927 363.738 32.7118 363.826 32.3461 364.292C31.9805 364.758 32.0687 365.438 32.5353 365.804L35.8516 368.373C35.9273 368.436 36.003 368.486 36.0786 368.512Z" fill="white"/>
<path d="M31.4292 368.952C31.8705 369.141 32.4002 369.028 32.7154 368.625C33.0811 368.158 32.9928 367.478 32.5263 367.113L29.2099 364.544C28.7433 364.178 28.0624 364.266 27.6967 364.732C27.331 365.198 27.4193 365.879 27.8859 366.244L31.2022 368.813C31.2779 368.864 31.3535 368.914 31.4292 368.952Z" fill="white"/>
<path d="M26.5222 369.078C26.9636 369.267 27.4932 369.154 27.8084 368.751C28.1741 368.285 28.0858 367.605 27.6193 367.24L24.3029 364.67C23.8364 364.305 23.1554 364.393 22.7897 364.859C22.4241 365.325 22.5123 366.005 22.9789 366.37L26.2952 368.94C26.3583 368.99 26.434 369.041 26.5222 369.078Z" fill="white"/>
<path d="M21.3881 368.764C21.8294 368.953 22.359 368.839 22.6743 368.436C23.0399 367.97 22.9517 367.29 22.4851 366.925L19.1688 364.355C18.7022 363.99 18.0213 364.078 17.6556 364.544C17.2899 365.01 17.3782 365.69 17.8447 366.056L21.1611 368.625C21.2241 368.688 21.2998 368.739 21.3881 368.764Z" fill="white"/>
<path d="M111.072 228.964C116.608 223.523 160.288 211.355 189.29 219.442C192.619 225.828 196.843 242.013 186.453 256.99C148.334 263.212 127.061 276.022 127.061 276.022C127.061 276.022 113.531 307.221 105.499 318.671C97.4661 330.12 79.0433 366.484 79.0433 366.484L51.2892 354.644C51.3019 354.644 96.0034 243.777 111.072 228.964Z" fill="#39393B"/>
<path d="M82.0169 359.632C81.916 359.632 81.8152 359.607 81.7143 359.569L54.5529 348.296C54.1494 348.132 53.9476 347.654 54.1242 347.25C54.2881 346.847 54.7547 346.646 55.1708 346.822L82.3321 358.095C82.7357 358.259 82.9374 358.738 82.7609 359.141C82.6348 359.443 82.3321 359.632 82.0169 359.632Z" fill="#585859"/>
<path d="M77.4527 357.352C77.3518 357.352 77.251 357.339 77.1627 357.302C76.7466 357.138 76.5574 356.672 76.7087 356.269C76.7592 356.13 82.4462 341.96 95.699 321.87C108.864 301.918 122.633 268.174 122.772 267.834C122.936 267.431 123.403 267.23 123.819 267.393C124.222 267.557 124.424 268.023 124.26 268.439C124.121 268.779 110.301 302.661 97.0482 322.752C83.8837 342.703 78.2597 356.722 78.2093 356.861C78.0706 357.15 77.768 357.352 77.4527 357.352Z" fill="#585859"/>
<path d="M144.085 361.672L141.979 377.367H124.741L125.397 361.206L144.085 361.672Z" fill="#EA9B7A"/>
<path d="M82.1687 404.586H147.411C147.891 403.704 148.155 402.457 148.269 400.971C148.672 395.454 146.92 386.662 146.05 381.12C145.949 380.477 145.86 379.873 145.785 379.319C145.659 378.387 145.596 377.618 145.596 377.051C145.596 372.53 141.586 373.298 141.586 373.298C134.978 379.76 127.513 370.061 123.15 373.248C123.15 373.248 121.271 374.595 116.089 379.243C110.906 383.904 102.105 386.964 94.6019 390.101C84.9176 394.144 82.1813 398.174 81.6391 400.958C81.2103 403.162 82.1687 404.586 82.1687 404.586Z" fill="#FAAF3A"/>
<path d="M82.1699 404.585H147.413C147.892 403.704 148.157 402.457 148.27 400.97H81.6402C81.2115 403.162 82.1699 404.585 82.1699 404.585Z" fill="#C77E2E"/>
<path d="M140.75 404.586H142.692C140.763 402.382 138.947 398.993 139.187 394.157C139.502 387.72 143.373 383.375 146.059 381.12C145.958 380.478 145.87 379.873 145.794 379.319C142.894 381.536 138.014 386.372 137.636 394.081C137.396 398.691 138.922 402.142 140.75 404.586Z" fill="#C77E2E"/>
<path d="M117.184 383.085C117.663 383.085 118.104 382.757 118.231 382.266C118.369 381.686 118.029 381.107 117.449 380.968L113.376 379.961C112.796 379.822 112.216 380.162 112.077 380.742C111.938 381.321 112.291 381.901 112.859 382.039L116.932 383.047C117.007 383.072 117.096 383.085 117.184 383.085Z" fill="white"/>
<path d="M121.228 379.696C121.708 379.696 122.149 379.369 122.275 378.878C122.414 378.298 122.073 377.719 121.493 377.58L117.42 376.573C116.84 376.434 116.26 376.787 116.121 377.354C115.983 377.933 116.336 378.512 116.903 378.651L120.976 379.659C121.065 379.684 121.14 379.696 121.228 379.696Z" fill="white"/>
<path d="M113.118 385.452C113.598 385.452 114.039 385.125 114.165 384.633C114.304 384.054 113.963 383.475 113.383 383.336L109.31 382.328C108.73 382.19 108.15 382.53 108.011 383.109C107.873 383.689 108.213 384.268 108.793 384.407L112.866 385.414C112.942 385.44 113.03 385.452 113.118 385.452Z" fill="white"/>
<path d="M109.036 387.72C109.515 387.72 109.956 387.393 110.082 386.901C110.221 386.322 109.881 385.743 109.301 385.604L105.228 384.596C104.648 384.458 104.068 384.81 103.929 385.377C103.79 385.957 104.143 386.536 104.711 386.675L108.784 387.682C108.859 387.72 108.948 387.72 109.036 387.72Z" fill="white"/>
<path d="M104.588 389.823C105.068 389.823 105.509 389.496 105.635 389.004C105.774 388.425 105.421 387.845 104.853 387.707L100.78 386.699C100.2 386.561 99.6202 386.901 99.4815 387.48C99.3428 388.06 99.6958 388.639 100.263 388.778L104.336 389.785C104.424 389.823 104.513 389.823 104.588 389.823Z" fill="white"/>
<path d="M99.7768 391.625C100.256 391.625 100.697 391.297 100.823 390.806C100.962 390.226 100.622 389.647 100.042 389.508L95.9687 388.501C95.3886 388.362 94.8086 388.702 94.6699 389.282C94.5312 389.861 94.8842 390.441 95.4517 390.579L99.5246 391.587C99.6129 391.612 99.6886 391.625 99.7768 391.625Z" fill="white"/>
<path d="M274.777 231.798C274.752 232.062 274.714 232.314 274.689 232.553C274.55 232.654 274.424 232.755 274.298 232.856C264.172 240.615 252.357 245.779 240.29 248.714C239.861 248.814 239.445 248.915 239.016 249.016C236.948 249.495 234.867 249.91 232.787 250.25C229.975 250.716 227.163 251.082 224.376 251.321C221.905 251.535 219.446 251.674 217.025 251.711C206.584 251.9 196.685 250.54 188.312 247.882C187.997 247.782 187.669 247.681 187.354 247.567C185.135 246.824 183.041 245.993 181.074 245.073C180.772 244.935 180.469 244.796 180.179 244.645C178.956 244.053 177.783 243.411 176.674 242.743C176.85 238.725 176.901 233.914 176.863 228.775C176.863 228.346 176.863 227.918 176.85 227.49C176.774 220.336 176.56 212.614 176.283 205.561C176.257 205.221 176.245 204.893 176.245 204.566C176.093 200.875 175.917 197.374 175.766 194.262C175.74 193.935 175.728 193.595 175.715 193.28C175.576 190.647 175.438 188.292 175.312 186.365C175.274 185.874 175.249 185.395 175.211 184.904C175.186 184.526 175.16 184.148 175.135 183.783C175.034 182.422 174.921 181.1 174.807 179.79C174.631 177.699 174.429 175.671 174.215 173.706C173.962 171.464 173.698 169.273 173.42 167.169C173.105 164.902 172.79 162.71 172.449 160.607C172.084 158.352 171.705 156.186 171.302 154.107C169.902 146.777 168.326 140.479 166.75 135.037C166.636 134.66 166.535 134.307 166.422 133.929C165.779 131.763 165.148 129.76 164.53 127.871C164.392 127.455 164.253 127.052 164.127 126.636C160.621 116.245 157.721 109.972 157.671 105.765C157.57 97.0111 163.976 94.2022 170.659 90.6754C170.974 90.5117 171.289 90.3479 171.604 90.1716C172.727 89.567 173.862 88.9246 174.946 88.2319C175.413 87.9422 175.867 87.6399 176.308 87.325C176.623 87.1109 176.913 86.8841 177.203 86.67C179.851 84.6295 182.171 82.0726 183.685 78.445L208.942 73.1296C208.942 73.1296 211.363 74.3766 215.411 75.4598C215.789 75.5606 216.18 75.6614 216.596 75.7621C217.075 75.8755 217.567 75.9889 218.084 76.0896C218.399 76.1526 218.74 76.2156 219.067 76.2786C219.32 76.3289 219.584 76.3793 219.849 76.4171C222.27 76.795 225.07 77.0343 228.235 76.9713C228.55 76.9587 228.878 76.9587 229.193 76.9461C229.42 76.9335 229.647 76.9209 229.874 76.9209C232.018 76.8076 234.06 77.0847 236.028 77.7145C236.406 77.8278 236.772 77.9664 237.137 78.1175C245.346 81.3924 251.802 91.1919 255.976 106.244C257.136 110.425 258.284 114.506 259.393 118.487C259.52 118.928 259.633 119.356 259.759 119.784C259.999 120.653 260.238 121.522 260.478 122.391C260.566 122.706 260.654 123.021 260.743 123.336C261.6 126.422 262.432 129.47 263.239 132.481C263.328 132.795 263.416 133.123 263.492 133.438C263.542 133.614 263.58 133.778 263.63 133.942L264.084 135.705C266.884 146.474 269.216 156.853 270.717 167.32C271.032 169.499 271.31 171.678 271.537 173.87C271.6 174.399 271.663 175.004 271.726 175.659C271.738 175.785 271.751 175.898 271.764 176.024C271.789 176.251 271.814 176.477 271.839 176.717C271.852 176.83 271.864 176.956 271.877 177.069C272.281 181.037 272.798 186.529 273.315 192.587C273.34 192.902 273.378 193.23 273.403 193.557C274.563 207.639 275.61 224.417 274.777 231.798Z" fill="#DF615C"/>
<path d="M197.915 93.271C208.003 91.1424 213.45 78.5467 213.677 77.9925C213.828 77.6272 213.664 77.1989 213.299 77.0478C212.933 76.8966 212.504 77.0604 212.353 77.4257C212.302 77.5516 206.767 90.3866 197.032 91.9611C187.461 93.5104 183.653 86.482 183.489 86.1797C183.3 85.827 182.871 85.6884 182.518 85.8774C182.165 86.0663 182.027 86.4946 182.216 86.8472C182.253 86.9354 186.642 95.11 197.272 93.3844C197.486 93.3592 197.7 93.3088 197.915 93.271Z" fill="#A92F4B"/>
<path d="M208.152 227.339C217.635 225.349 227.432 220.475 237.23 212.829C250.672 202.337 259.499 190.169 259.587 190.043C259.814 189.716 259.751 189.275 259.423 189.036C259.095 188.809 258.641 188.872 258.415 189.199C258.326 189.325 249.6 201.342 236.322 211.708C224.141 221.218 205.504 231.244 185.934 224.996C185.555 224.87 185.152 225.085 185.026 225.462C184.9 225.84 185.114 226.243 185.492 226.369C192.705 228.674 200.321 228.989 208.152 227.339Z" fill="#A92F4B"/>
<path d="M202.475 220.109C217.254 216.746 225.185 194.477 225.526 193.533C225.652 193.155 225.463 192.752 225.084 192.613C224.706 192.487 224.303 192.676 224.164 193.054C224.088 193.281 216.157 215.512 202.172 218.699C201.782 218.787 201.542 219.177 201.63 219.568C201.706 219.946 202.084 220.185 202.475 220.109Z" fill="#A92F4B"/>
<path d="M175.192 184.891C177.02 183.632 178.748 182.07 180.109 180.294C183.401 176.011 183.842 171.628 181.358 167.95C180.853 167.22 180.399 166.539 179.971 165.922C174.889 158.516 174.359 157.748 174.801 145.568C174.939 141.739 173.855 138.716 171.585 136.625C170.059 135.201 168.193 134.383 166.403 133.904C166.516 134.269 166.617 134.635 166.73 135.012C168.218 135.466 169.706 136.196 170.929 137.33C172.985 139.232 173.956 142.003 173.83 145.542C173.376 158.037 174.031 158.995 179.164 166.477C179.592 167.106 180.046 167.774 180.551 168.504C183.577 172.951 181.093 177.435 179.34 179.715C178.167 181.239 176.692 182.624 175.116 183.77C175.141 184.136 175.179 184.514 175.192 184.891Z" fill="#A92F4B"/>
<path d="M271.871 177.045C269.904 178.191 268 178.909 266.184 179.299C261.279 180.332 257.029 178.846 254.293 176.1C251.027 172.812 249.753 167.157 253.65 162.723C257.408 158.428 255.793 156.148 253.751 153.251C251.733 150.405 249.224 146.853 251.834 140.618C253.335 137.028 255.642 134.572 258.694 133.338C260.22 132.72 261.771 132.468 263.233 132.431C263.322 132.746 263.41 133.073 263.485 133.388C262.061 133.401 260.535 133.627 259.047 134.232C256.247 135.365 254.116 137.645 252.717 140.983C250.308 146.727 252.465 149.75 254.533 152.685C256.638 155.67 258.631 158.491 254.369 163.34C251.229 166.918 251.468 171.88 254.974 175.395C258.505 178.947 264.797 180.181 271.757 175.961C271.783 176.188 271.808 176.415 271.833 176.654C271.858 176.805 271.871 176.931 271.871 177.045Z" fill="#A92F4B"/>
<path d="M206.013 180.672C208.446 184.854 213.717 186.857 218.534 185.458C219.266 185.244 220.035 184.967 220.804 184.64C226.995 181.995 234.132 175.76 236.869 168.505C238.975 162.912 238.331 157.181 234.99 151.954C230.047 144.22 227.184 137.028 226.705 131.184C226.415 127.72 224.032 125.037 220.64 124.344C217.223 123.651 213.969 125.188 212.343 128.261C212.255 128.425 212.166 128.589 212.078 128.753C207.917 136.864 210.401 142.734 212.595 147.911C214.89 153.327 216.87 158 210.603 164.071C204.89 169.588 203.176 175.797 206.013 180.672ZM211.271 164.751C218.03 158.214 215.81 153.012 213.478 147.52C211.258 142.293 208.976 136.902 212.935 129.181C213.024 129.017 213.099 128.853 213.188 128.702C213.944 127.279 215.092 126.233 216.454 125.654C217.664 125.138 219.039 124.986 220.438 125.276C223.414 125.893 225.495 128.236 225.747 131.259C226.037 134.66 227.033 138.376 228.761 142.394C230.123 145.58 231.938 148.931 234.183 152.458C237.398 157.496 237.991 162.774 235.973 168.164C233.01 176.049 224.637 182.675 218.269 184.526C213.856 185.811 209.064 183.985 206.845 180.181C204.247 175.722 205.899 169.953 211.271 164.751Z" fill="#A92F4B"/>
<path d="M164.093 126.61C164.232 127.013 164.358 127.417 164.497 127.832C167.864 129.18 170.966 129.13 173.437 128.601C174.698 128.336 175.795 127.946 176.69 127.568C182.857 124.91 187.043 119.204 186.942 115.753C186.904 114.456 186.249 113.511 185.101 113.095C178.468 110.677 175.77 106.306 174.761 96.3682C174.484 93.6727 173.412 91.5818 171.558 90.1333C171.243 90.297 170.928 90.4608 170.612 90.6371C170.688 90.6875 170.764 90.7505 170.852 90.8135C172.554 92.0856 173.538 93.9876 173.79 96.4689C174.837 106.86 177.712 111.445 184.761 114.002C185.542 114.292 185.933 114.871 185.959 115.778C186.047 118.914 181.936 124.242 176.287 126.686C173.689 127.82 169.162 128.953 164.093 126.61Z" fill="#A92F4B"/>
<path d="M198.331 128.21C199.517 129.495 201.433 129.974 203.337 129.583C203.968 129.445 204.598 129.218 205.191 128.89C208.243 127.203 209.378 123.676 208.23 119.469C207.032 115.086 209.314 112.982 211.521 110.954C213.463 109.178 215.455 107.339 213.879 104.19C212.669 101.772 210.424 100.638 207.423 100.915C203.88 101.256 200.778 103.422 199.113 106.722C196.289 112.302 193.59 123.071 198.331 128.21ZM199.971 107.15C201.307 104.493 203.766 102.591 206.528 102.011C206.856 101.948 207.183 101.898 207.511 101.86C210.134 101.608 211.988 102.54 213.022 104.606C214.283 107.113 212.845 108.422 210.865 110.236C208.671 112.252 205.948 114.758 207.297 119.708C208.318 123.462 207.36 126.573 204.725 128.034C202.745 129.13 200.299 128.928 199.038 127.555C194.624 122.782 197.272 112.503 199.971 107.15Z" fill="#A92F4B"/>
<path d="M184.143 162.307C184.685 164.852 185.707 166.917 187.472 167.95C190.12 169.5 192.718 170.104 194.635 169.701C195.467 169.525 196.16 169.159 196.69 168.605C198.254 166.93 197.737 163.92 195.278 160.342C192.428 156.198 194.925 153.566 197.585 150.77C199.842 148.389 202.188 145.933 200.876 142.57C199.931 140.152 197.762 139.031 194.597 139.308C189.288 139.786 184.912 144.044 184.194 149.447C183.626 153.642 183.349 158.516 184.143 162.307ZM185.139 149.586C185.442 147.306 186.451 145.253 187.914 143.653C189.389 142.054 191.318 140.907 193.474 140.454C193.865 140.366 194.256 140.315 194.672 140.278C197.434 140.038 199.174 140.895 199.968 142.923C201.065 145.719 199.035 147.86 196.892 150.115C194.218 152.924 191.192 156.11 194.483 160.897C196.665 164.058 197.22 166.64 195.984 167.95C194.609 169.424 191.318 169.084 187.964 167.119C184.887 165.305 183.878 159.083 185.139 149.586Z" fill="#A92F4B"/>
<path d="M176.275 205.549C180.146 204.15 181.445 206.09 183.324 208.899C185.013 211.406 187.107 214.529 191.81 215.638C193.411 216.016 194.95 216.003 196.4 215.701C200.195 214.907 203.297 212.073 204.785 208.899C206.79 204.629 205.908 200.359 202.465 197.777C200.965 196.656 200.183 195.585 200.032 194.515C199.83 193.003 200.965 191.542 202.175 189.993C203.852 187.839 205.756 185.408 204.294 182.284C203.146 179.828 200.99 178.367 198.216 178.153C193.601 177.813 188.431 180.937 185.039 186.088C182.138 190.497 178.469 192.424 175.682 193.255C175.695 193.57 175.72 193.91 175.733 194.238C178.721 193.381 182.718 191.353 185.833 186.617C188.405 182.713 192.024 180.042 195.555 179.299C196.425 179.11 197.295 179.047 198.14 179.11C200.549 179.287 202.415 180.559 203.411 182.687C204.609 185.269 203.045 187.272 201.393 189.388C200.12 191.026 198.796 192.714 199.048 194.628C199.224 195.963 200.145 197.235 201.847 198.533C205.492 201.279 205.29 205.473 203.877 208.483C201.986 212.514 197.295 215.94 191.999 214.693C187.661 213.673 185.757 210.851 184.093 208.357C182.214 205.549 180.575 203.105 176.199 204.541C176.25 204.881 176.262 205.208 176.275 205.549Z" fill="#A92F4B"/>
<path d="M225.31 193.872C225.638 195.547 226.647 196.694 228.135 197.097C228.929 197.311 229.812 197.311 230.745 197.122C232.826 196.681 235.108 195.27 236.974 193.154C238.891 190.988 240.808 191.265 243.456 191.643C246.028 192.008 249.231 192.474 253.316 190.622C257.856 188.557 258.613 184.274 257.402 181.163C256.292 178.354 253.304 175.911 249.344 177.221C246.507 178.153 244.666 179.601 243.027 180.861C240.53 182.8 238.387 184.476 233.456 184.173C231.01 184.022 229.043 184.677 227.643 186.113C224.919 188.897 225.285 193.62 225.298 193.809C225.31 193.847 225.31 193.86 225.31 193.872ZM226.256 193.708C226.231 193.343 226.004 189.161 228.337 186.781C229.534 185.559 231.237 185.005 233.393 185.131C238.677 185.446 241.072 183.594 243.607 181.616C245.259 180.332 246.961 179.009 249.647 178.115C253.014 177.006 255.561 179.097 256.494 181.503C257.553 184.199 256.885 187.927 252.913 189.728C249.08 191.466 246.154 191.051 243.582 190.673C242.094 190.459 240.732 190.27 239.42 190.547C238.323 190.774 237.277 191.34 236.243 192.499C233.809 195.245 230.568 196.757 228.374 196.165C227.265 195.862 226.521 195.018 226.256 193.708Z" fill="#A92F4B"/>
<path d="M267.52 217.048C264.216 222.515 265.604 228.598 268.882 231.332C270.458 232.642 272.325 233.158 274.304 232.856C274.43 232.755 274.556 232.654 274.695 232.553C274.733 232.314 274.758 232.062 274.796 231.798C272.854 232.264 271.038 231.873 269.5 230.588C266.549 228.12 265.301 222.565 268.352 217.552C271.442 212.463 269.008 210.889 266.436 209.226C264.078 207.689 261.619 206.115 261.997 201.543C262.186 199.288 263.094 197.474 264.721 196.152C266.133 195.006 267.936 194.338 269.702 193.96C271.013 193.683 272.312 193.57 273.422 193.532C273.396 193.204 273.371 192.889 273.346 192.562C270.61 192.663 266.789 193.23 264.116 195.409C262.287 196.895 261.253 198.935 261.051 201.467C260.635 206.606 263.573 208.508 265.931 210.032C268.441 211.67 270.118 212.766 267.52 217.048Z" fill="#A92F4B"/>
<path d="M187.36 247.555C187.676 247.668 187.991 247.769 188.319 247.87C188.357 246.384 188.71 243.197 190.916 241.056C192.757 239.28 195.506 238.574 199.088 238.965C203.841 239.494 205.998 241.459 207.889 243.197C211.079 246.119 213.299 247.505 221.621 242.076C224.786 240.01 227.724 238.801 230.284 238.26C234.42 237.39 237.598 238.247 239.262 239.96C241.305 242.063 241.204 245.401 239.023 249.004C239.451 248.903 239.867 248.802 240.296 248.701C242.276 244.998 242.175 241.56 239.968 239.28C237.005 236.232 229.843 235.551 221.104 241.257C212.996 246.56 211.319 245.023 208.545 242.479C206.641 240.728 204.258 238.549 199.188 237.995C195.305 237.567 192.291 238.36 190.235 240.363C187.915 242.643 187.436 245.83 187.36 247.555Z" fill="#A92F4B"/>
<path d="M241.486 232.062C242.696 234.644 246.681 236.773 250.401 235.992C250.565 235.954 250.728 235.917 250.88 235.866C256.554 234.267 259.82 229.669 260.072 222.93C260.261 217.716 259.782 212.602 254.953 210.385C254.928 210.373 254.902 210.36 254.864 210.36C254.637 210.31 249.291 209.012 245.962 211.267C244.562 212.211 243.73 213.647 243.49 215.512C243.049 218.812 244.058 220.84 244.777 222.313C245.685 224.127 246.088 224.958 243.314 226.848C241.259 228.271 240.59 230.173 241.486 232.062ZM243.856 227.666C247.16 225.412 246.681 224.014 245.647 221.91C244.941 220.474 244.045 218.673 244.436 215.663C244.651 214.076 245.344 212.866 246.504 212.073C249.341 210.146 254.095 211.179 254.587 211.292C258.042 212.892 259.354 216.267 259.101 222.893C258.937 227.339 257.323 233.045 250.615 234.947C247.273 235.879 243.427 233.952 242.356 231.659C241.662 230.186 242.192 228.8 243.856 227.666Z" fill="#A92F4B"/>
<path d="M180.185 244.633C180.475 244.785 180.777 244.923 181.08 245.062C183.098 242.706 183.93 240.137 183.539 237.454C182.909 233.096 179.264 229.443 176.856 227.478C176.868 227.906 176.868 228.335 176.868 228.763C179.113 230.74 182.064 233.94 182.593 237.592C182.946 240.036 182.165 242.366 180.273 244.545C180.248 244.57 180.21 244.608 180.185 244.633Z" fill="#A92F4B"/>
<path d="M161.609 35.0407C161.609 35.0407 147.297 32.0177 146.956 26.5638C146.653 21.5255 152.605 22.0545 152.605 22.0545C152.605 22.0545 145.657 10.668 149.642 8.43858C153.627 6.19655 158.658 12.5826 158.658 12.5826C158.658 12.5826 155.014 -0.920014 159.881 0.0498538C164.748 1.01972 165.379 8.43858 165.379 8.43858C165.379 8.43858 181.557 2.68235 190.75 5.44081C197.017 7.31757 198.492 13.3383 198.492 13.3383C198.492 13.3383 202.212 11.1215 204.86 12.4818C207.495 13.8421 205.087 18.4774 205.087 18.4774C205.087 18.4774 209.172 21.6137 207.924 26.6016C206.676 31.5895 203.107 41.4393 203.107 41.4393L161.609 35.0407Z" fill="#39393B"/>
<path d="M181.819 74.7176L183.206 81.2926C184.102 81.746 184.997 82.1239 185.88 82.4262C198.741 86.8725 209.271 75.8008 209.271 75.8008L204.466 53.0278L184.518 72.1355L181.819 74.7176Z" fill="#EA9B7A"/>
<path d="M181.82 74.7174L183.207 81.2924C184.102 81.7458 184.997 82.1237 185.88 82.426C194.795 76.5312 199.726 64.855 199.726 64.855L184.531 72.1353L181.82 74.7174Z" fill="#39393B"/>
<path d="M169.154 21.5251C169.154 21.5251 153.581 26.3619 162.824 41.7664C162.824 41.7538 170.44 25.7825 169.154 21.5251Z" fill="#39393B"/>
<path d="M167.45 47.3339C167.45 47.3339 162.784 43.7064 161.599 48.5683C160.414 53.4177 163.919 61.9953 169.304 59.3502L167.45 47.3339Z" fill="#D46A43"/>
<path d="M166.723 63.634C166.723 63.634 169.572 77.2248 183.708 74.2144C197.755 71.2292 205.006 58.1927 205.397 57.5755C205.409 57.5629 205.409 57.5629 205.409 57.5629L204.955 54.6785L202.622 39.6896L201.374 31.6788C201.374 31.6788 200.164 17.0426 186.053 17.2945C175.739 17.4834 166.798 21.0858 163.192 27.2325C161.868 29.4997 161.263 32.1196 161.59 35.0418L164.15 49.3631L164.781 52.8773L166.723 63.634Z" fill="#EA9B7A"/>
<path d="M195.57 41.4519C195.57 41.4519 193.489 49.7903 188.887 49.4124C184.284 49.0219 179.177 49.5509 175.621 52.2086C175.621 52.2086 168.497 51.1506 165.13 54.69C162.873 57.0706 168.182 74.7801 178.03 75.4099C187.878 76.0523 199.719 70.1449 200.891 60.7485C202.064 51.3521 200.299 43.9333 200.299 43.9333L195.57 41.4519Z" fill="#39393B"/>
<path d="M172.718 56.1763C172.718 56.1763 180.675 55.3576 184.571 53.1282C184.571 53.1282 186.311 60.8871 179.59 61.5547C174.193 62.0963 172.718 56.1763 172.718 56.1763Z" fill="white"/>
<path d="M182.982 47.2206C183.196 48.203 185.403 48.5809 187.912 48.0519C190.421 47.5229 192.3 46.2885 192.086 45.306C191.872 44.311 189.665 43.9457 187.156 44.4747C184.646 45.0037 182.78 46.2255 182.982 47.2206Z" fill="#D46A43"/>
<path d="M164.796 52.8637C165.149 52.8259 165.528 52.7629 165.906 52.6873C168.415 52.1583 170.294 50.9239 170.08 49.9415C169.865 48.959 167.659 48.5811 165.149 49.1102C164.809 49.1857 164.481 49.2613 164.166 49.3621L164.796 52.8637Z" fill="#D46A43"/>
<path d="M181.994 41.7419C182.284 43.1023 183.129 44.0721 183.885 43.9084C184.642 43.7446 185.033 42.5229 184.743 41.1625C184.453 39.8022 183.608 38.8323 182.851 38.9961C182.095 39.1598 181.704 40.3816 181.994 41.7419Z" fill="#39393B"/>
<path d="M168.531 44.5757C168.821 45.936 169.666 46.9059 170.422 46.7421C171.179 46.5784 171.57 45.3566 171.28 43.9963C170.99 42.6359 170.145 41.6661 169.388 41.8298C168.632 41.9809 168.253 43.2153 168.531 44.5757Z" fill="#39393B"/>
<path d="M176.895 49.9543C177.21 49.8913 177.399 49.589 177.336 49.2741C177.273 48.9592 176.971 48.7703 176.656 48.8333C174.6 49.2615 173.415 48.3924 172.986 47.9768C174.247 42.9133 175.483 37.8121 175.495 37.7617C175.571 37.4594 175.382 37.1445 175.079 37.0689C174.777 36.9933 174.461 37.1823 174.386 37.4846C174.373 37.535 173.087 42.8251 171.801 47.9894C171.763 48.1531 171.801 48.3295 171.902 48.468C171.977 48.5814 173.579 50.6597 176.895 49.9543Z" fill="#39393B"/>
<path d="M187.486 34.0835C186.868 32.7105 185.102 30.2796 180.475 31.0353C179.907 31.1235 179.479 31.6021 179.453 32.1689C179.415 32.8869 179.983 33.4915 180.702 33.4789C181.963 33.4411 183.867 33.7308 185.304 35.5068C185.746 36.061 186.59 36.0862 187.095 35.595L187.208 35.4816C187.587 35.1163 187.7 34.5621 187.486 34.0835Z" fill="#39393B"/>
<path d="M163.959 39.0342C163.972 37.5353 164.589 34.5879 169.142 33.4165C169.696 33.2779 170.276 33.5424 170.541 34.0463C170.869 34.6886 170.592 35.4696 169.923 35.7467C168.751 36.2253 167.124 37.2582 166.531 39.4498C166.342 40.13 165.598 40.4953 164.93 40.2559L164.779 40.2056C164.287 40.0292 163.959 39.5506 163.959 39.0342Z" fill="#39393B"/>
<path d="M199.816 52.9895C199.917 53.1281 202.578 56.8942 205.402 57.5743C205.415 57.5617 205.415 57.5617 205.415 57.5617L204.961 54.6773C204.961 54.6647 202.653 54.7529 199.816 52.9895Z" fill="#39393B"/>
<path d="M200.311 43.0389C200.311 43.0389 204.207 34.5998 209.402 39.4995C213.677 43.5301 210.07 57.1461 202.681 54.2995L200.311 43.0389Z" fill="#EA9B7A"/>
<path d="M202.971 51.9318C203.248 51.8688 203.45 51.6043 203.425 51.3146C202.87 45.6717 207.094 42.7621 207.271 42.6488C207.536 42.4724 207.599 42.1197 207.435 41.8552C207.258 41.5907 206.905 41.5277 206.64 41.6915C206.439 41.83 201.66 45.0797 202.29 51.4154C202.315 51.7302 202.605 51.957 202.921 51.9318C202.921 51.9444 202.946 51.9318 202.971 51.9318Z" fill="#39393B"/>
<path d="M207.468 47.4472C207.632 47.4094 207.771 47.3086 207.859 47.1449C207.998 46.8678 207.897 46.5151 207.607 46.3765C207.342 46.238 205.009 45.0792 203.42 45.8727C203.143 46.0113 203.017 46.3513 203.155 46.641C203.294 46.9181 203.635 47.0441 203.925 46.9056C204.833 46.4521 206.56 47.1323 207.09 47.4094C207.216 47.4598 207.342 47.4724 207.468 47.4472Z" fill="#39393B"/>
<path d="M163.21 27.232C163.411 27.6854 163.701 28.0507 164.08 28.3152C167.434 30.6202 173.714 28.227 179.338 25.1033C184.962 21.9796 190.106 25.456 190.106 25.456C189.652 31.5649 195.415 30.8344 195.125 35.457C194.835 40.0796 196.512 45.7351 196.512 45.7351L199.942 44.5259C200.27 42.3216 201.644 40.6338 202.615 39.6891L201.367 31.6783C201.367 31.6783 200.156 17.0421 186.046 17.294C175.756 17.4829 166.803 21.0727 163.21 27.232Z" fill="#39393B"/>
<path d="M268.567 219.882C268.567 219.882 282.034 272.948 212.214 272.948C174.927 272.948 157.198 269.358 157.198 269.358C157.198 269.358 156.303 302.246 154.563 316.126C152.823 330.007 146.682 364.569 146.682 364.569L117.314 366.836C117.314 366.836 112.623 246.422 130.617 235.337C148.611 224.253 174.499 223.926 218.935 219.656C218.935 219.656 258.833 212.917 268.567 219.882Z" fill="#39393B"/>
<path d="M142.661 354.946C142.597 354.946 142.534 354.934 142.471 354.921C142.043 354.82 141.778 354.392 141.879 353.964C145.939 337.022 147.553 312.763 148.839 293.265C150.113 274.044 150.882 263.93 152.874 262.166C155.081 260.227 161.613 260.919 172.445 262.066C185.874 263.489 206.151 265.643 228.028 263.136C238.898 261.889 247.22 257.644 252.781 250.503C262.756 237.693 260.473 219.719 260.448 219.542C260.385 219.102 260.7 218.699 261.129 218.648C261.57 218.585 261.974 218.9 262.024 219.328C262.125 220.084 264.433 238.134 254.042 251.473C248.204 258.967 239.516 263.426 228.205 264.723C206.151 267.242 185.761 265.089 172.268 263.653C162.95 262.658 155.598 261.877 153.921 263.363C153.543 263.703 152.786 265.353 152.017 272.646C151.437 278.037 150.97 285.141 150.428 293.378C149.129 312.94 147.515 337.274 143.417 354.342C143.354 354.694 143.026 354.946 142.661 354.946Z" fill="#585859"/>
<path d="M117.628 357.339C117.212 357.339 116.859 357.012 116.833 356.584C116.808 356.143 117.149 355.765 117.577 355.74L147.614 353.926C148.055 353.901 148.433 354.241 148.459 354.669C148.484 355.11 148.143 355.488 147.715 355.513L117.678 357.327C117.666 357.339 117.64 357.339 117.628 357.339Z" fill="#585859"/>
<path d="M198.435 235.073H110.457C110.256 235.073 110.092 234.909 110.092 234.708V223.888C110.092 223.686 110.256 223.523 110.457 223.523H198.435C198.637 223.523 198.801 223.686 198.801 223.888V234.708C198.788 234.909 198.625 235.073 198.435 235.073Z" fill="#CED3E6"/>
<path d="M100.836 235.073C97.4947 235.073 94.5819 232.831 93.7118 229.607L77.1174 167.548C76.1086 163.756 78.971 160.028 82.8926 160.028H122.613C125.299 160.028 127.645 161.804 128.376 164.386L148.249 235.061H100.836V235.073Z" fill="white"/>
<path d="M128.375 164.399L148.084 234.494H152.623L132.914 164.399C132.183 161.817 129.837 160.041 127.151 160.041H122.612C125.298 160.028 127.643 161.817 128.375 164.399Z" fill="#CED3E6"/>
<path d="M117.151 198.558C118.059 202.45 115.626 205.611 111.717 205.611C107.82 205.611 103.924 202.45 103.016 198.558C102.108 194.666 104.542 191.504 108.451 191.504C112.36 191.504 116.243 194.666 117.151 198.558Z" fill="#CED3E6"/>
<path d="M171.315 209.781C171.315 209.781 153.308 211.016 147.558 216.52L151.064 228.964C151.064 228.964 161.832 224.569 164.808 224.997C167.797 225.425 169.575 230.312 179.549 227.34L171.315 209.781Z" fill="#EA9B7A"/>
<path d="M171.419 208.962L173.449 208.131L175.555 207.249C176.967 206.657 178.367 206.04 179.779 205.41C182.591 204.163 185.378 202.879 188.152 201.543C193.688 198.886 199.123 196.064 204.356 193.079C209.589 190.081 214.658 186.907 219.273 183.506C220.421 182.65 221.555 181.793 222.64 180.924C223.724 180.043 224.771 179.161 225.78 178.267C227.759 176.478 229.575 174.639 231 172.85C231.706 171.969 232.337 171.074 232.803 170.294C233.219 169.576 233.623 168.782 233.976 167.888C234.682 166.112 235.237 164.008 235.615 161.703C236.359 157.068 236.384 151.715 235.905 146.236C235.426 140.744 234.455 135.076 233.182 129.446C232.539 126.624 231.807 123.803 231.013 121.019C230.609 119.621 230.193 118.236 229.764 116.875C229.55 116.195 229.323 115.515 229.109 114.847L228.781 113.877L228.617 113.411L228.541 113.197L228.503 113.097L228.491 113.059C224.695 105.149 228.037 95.6515 235.956 91.8602C243.875 88.0689 253.382 91.4067 257.178 99.3168C257.544 100.085 257.846 100.866 258.086 101.647L258.565 103.297L258.691 103.738L258.792 104.091L258.981 104.771L259.322 106.081C259.536 106.95 259.75 107.794 259.952 108.65C260.356 110.351 260.734 112.038 261.074 113.726C261.78 117.115 262.386 120.503 262.903 123.929C263.924 130.781 264.618 137.746 264.706 144.951C264.756 148.553 264.63 152.219 264.302 155.947C263.962 159.688 263.382 163.504 262.436 167.409C261.478 171.314 260.129 175.307 258.136 179.287C257.128 181.277 255.955 183.242 254.58 185.144C253.244 186.983 251.882 188.57 250.482 190.069C247.683 193.041 244.795 195.51 241.882 197.765C238.969 199.994 236.019 201.997 233.056 203.861C227.129 207.564 221.139 210.713 215.099 213.598C209.059 216.469 202.969 219.064 196.84 221.47C193.776 222.666 190.699 223.825 187.597 224.934C186.046 225.488 184.495 226.029 182.932 226.559L180.574 227.352L178.115 228.146C172.781 229.859 167.056 226.936 165.329 221.608C163.689 216.532 166.262 211.116 171.129 209.113L171.419 208.962Z" fill="#EA9B7A"/>
<path d="M245.087 174.803C245.024 174.803 244.961 174.79 244.911 174.777C238.77 172.939 231.91 173.216 231.847 173.228C231.494 173.241 231.204 172.976 231.191 172.624C231.179 172.271 231.444 171.981 231.797 171.969C232.087 171.956 238.934 171.666 245.289 173.568C245.617 173.669 245.806 174.022 245.718 174.349C245.617 174.626 245.365 174.803 245.087 174.803Z" fill="#D46A43"/>
<path d="M233.397 173.216C233.22 173.216 233.044 173.14 232.918 173.002C232.691 172.737 232.716 172.347 232.981 172.107C235.276 170.13 238.151 169.261 238.277 169.223C238.605 169.122 238.958 169.311 239.059 169.651C239.16 169.979 238.97 170.331 238.63 170.432C238.605 170.445 235.881 171.263 233.8 173.052C233.687 173.165 233.536 173.216 233.397 173.216Z" fill="#D46A43"/>
<path d="M267.531 134.698L254.48 138.275L253.521 138.54L244.505 141.009L243.408 141.311L231.807 144.485L230.912 140.379L230.71 139.396L228.617 129.748L228.403 128.778L224.456 110.577C223.384 106.37 222.678 101.105 223.27 96.8103C224.141 90.4495 229.727 82.1993 240.029 81.6451C241.87 81.5443 243.597 81.8214 245.211 82.4134C245.539 82.5142 245.867 82.6527 246.182 82.7913C249.297 84.202 251.995 86.7967 254.316 90.1346C254.505 90.3991 254.681 90.6636 254.845 90.9407C259.259 97.6416 262.272 107.013 264.29 115.779C264.378 116.119 264.454 116.46 264.53 116.8C265.463 120.969 266.169 124.987 266.698 128.463C266.787 129.005 266.862 129.534 266.925 130.05C267.178 131.776 267.379 133.338 267.531 134.698Z" fill="#DF615C"/>
<path d="M266.7 128.463C265.149 127.052 263.056 126.07 259.828 126.649C255.994 127.329 252.981 126.095 251.77 123.336C250.85 121.271 251.278 118.852 252.754 117.719C255.704 115.451 260.231 115.64 264.531 116.799C264.455 116.459 264.38 116.119 264.292 115.779C259.878 114.658 255.263 114.582 252.161 116.95C250.774 118.021 250.131 119.885 250.358 121.812C250.433 122.455 250.61 123.097 250.875 123.727C252.287 126.913 255.704 128.362 260.004 127.594C263.472 126.964 265.389 128.312 266.927 130.05C266.864 129.533 266.788 129.004 266.7 128.463Z" fill="#A92F4B"/>
<path d="M253.069 99.9589C250.396 96.092 252.401 93.5351 254.847 90.9404C254.683 90.6633 254.507 90.3988 254.317 90.1342C251.732 92.8423 249.122 95.9535 252.275 100.513C254.456 103.675 254.998 106.244 253.775 107.567C252.401 109.04 249.097 108.7 245.755 106.735C242.679 104.922 241.682 98.6993 242.931 89.2022C243.233 86.9223 244.242 84.8692 245.705 83.2696C245.856 83.1058 246.02 82.9421 246.184 82.791C245.869 82.6524 245.541 82.5139 245.213 82.4131C243.486 84.1891 242.326 86.4941 241.972 89.0636C241.43 93.258 241.14 98.1325 241.935 101.911C242.477 104.456 243.498 106.521 245.264 107.567C247.912 109.116 250.522 109.721 252.426 109.317C253.258 109.141 253.964 108.776 254.481 108.222C256.045 106.546 255.528 103.536 253.069 99.9589Z" fill="#A92F4B"/>
<path d="M228.644 128.904C226.5 116.17 223.789 104.254 223.764 104.128C223.701 103.876 223.449 103.713 223.196 103.775C222.944 103.838 222.78 104.09 222.843 104.342C222.868 104.468 225.567 116.321 227.698 128.992C227.837 129.483 228.644 129.508 228.644 128.904Z" fill="#A92F4B"/>
<path d="M225.187 113.537C225.099 113.537 225.011 113.512 224.935 113.461L220.017 110.312C219.803 110.174 219.727 109.884 219.878 109.657C220.017 109.431 220.307 109.368 220.534 109.519L225.452 112.668C225.666 112.806 225.742 113.096 225.591 113.323C225.502 113.461 225.351 113.537 225.187 113.537Z" fill="#A92F4B"/>
<path d="M193.322 114.897C191.657 114.897 190.131 114.292 188.77 113.096C180.989 106.256 181.027 81.3925 181.027 80.3344C181.027 79.8432 181.431 79.4401 181.935 79.4401C182.44 79.4401 182.843 79.8432 182.83 80.347C182.83 80.5989 182.793 105.438 189.955 111.736C191.178 112.806 192.515 113.234 194.015 113.033C203.586 111.773 207.936 83.9494 208.806 73.3312C208.844 72.84 209.286 72.4621 209.777 72.4999C210.269 72.5377 210.647 72.9786 210.61 73.4698C210.597 73.5706 209.777 83.37 207.445 93.2576C204.229 106.836 199.791 114.091 194.255 114.821C193.94 114.884 193.624 114.897 193.322 114.897Z" fill="white"/>
<path d="M265.605 347.137H171.309C169.103 347.137 167.312 345.348 167.312 343.144C167.312 340.939 169.103 339.151 171.309 339.151H265.605C267.812 339.151 269.602 340.939 269.602 343.144C269.602 345.348 267.812 347.137 265.605 347.137Z" fill="#084FC7"/>
<path d="M162.633 408.062C162.457 408.062 162.28 408.049 162.104 408.024C159.922 407.734 158.384 405.719 158.674 403.54L175.848 275.442C176.113 273.464 177.803 271.978 179.808 271.978H256.74C258.745 271.978 260.435 273.464 260.699 275.442L277.609 403.54C277.899 405.719 276.361 407.734 274.167 408.011C271.985 408.301 269.967 406.764 269.69 404.573L253.234 279.938H183.301L166.593 404.585C166.328 406.613 164.613 408.062 162.633 408.062Z" fill="#0875F7"/>
<path d="M202.084 275.97H252.043C267.869 275.97 284.829 267.317 287.25 251.698C290.503 230.802 291.298 210.574 290.402 192.007C289.381 171.01 281.21 151.512 264.678 138.501C264.678 138.501 271.815 219.491 265.372 241.861C256.785 271.751 202.084 275.97 202.084 275.97Z" fill="#0875F7"/>
<path d="M49.1791 109.192V133.149C49.1791 136.31 51.7515 138.88 54.9165 138.88H98.4705L111.622 143.59C112.972 144.069 114.271 142.747 113.741 141.411L108.773 128.576V109.179C108.773 106.018 106.2 103.448 103.023 103.448H54.9291C51.7515 103.448 49.1791 106.018 49.1791 109.192Z" fill="#0875F7"/>
<path d="M87.0207 121.85C87.0207 124.143 88.8743 125.994 91.1693 125.994C93.4643 125.994 95.3179 124.13 95.3179 121.85C95.3179 119.558 93.4643 117.706 91.1693 117.706C88.8743 117.694 87.0207 119.558 87.0207 121.85Z" fill="#084FC7"/>
<path d="M73.8725 121.85C73.8725 124.142 75.7261 125.994 78.0211 125.994C80.3161 125.994 82.1697 124.13 82.1697 121.85C82.1697 119.557 80.3161 117.706 78.0211 117.706C75.7261 117.693 73.8725 119.557 73.8725 121.85Z" fill="#084FC7"/>
<path d="M60.7195 121.85C60.7195 124.143 62.5858 125.994 64.8681 125.994C67.1631 125.994 69.0167 124.13 69.0167 121.85C69.0167 119.558 67.1505 117.706 64.8681 117.706C62.5732 117.694 60.7195 119.558 60.7195 121.85Z" fill="#084FC7"/>
</svg>
