<svg width="1520" height="1481" viewBox="0 0 1520 1481" fill="none" xmlns="http://www.w3.org/2000/svg">
<g opacity="0.8">
<g opacity="0.5">
<path d="M235.552 437.747C242.651 458.62 255.11 477.35 271.573 492.469C296.154 515.053 339.861 563.72 332.687 619.102C322.779 695.492 255.942 708.074 216.164 695.937C176.385 683.8 45.5442 570.029 30.8065 394.133C17.615 236.736 185.529 174.824 232.025 251.534C272.351 318.072 207.467 355.191 235.552 437.747Z" fill="#CED3E6" fill-opacity="0.5"/>
</g>
<g opacity="0.5">
<path d="M353.23 407.354C352.551 403.649 355.232 400.053 359.218 399.323C363.203 398.592 366.985 401.004 367.664 404.709C368.343 408.414 365.663 412.01 361.677 412.74C357.691 413.471 353.909 411.059 353.23 407.354Z" fill="#CED3E6" fill-opacity="0.5"/>
</g>
<g opacity="0.5">
<path d="M1279.23 1281.35C1278.55 1277.65 1281.23 1274.05 1285.22 1273.32C1289.2 1272.59 1292.99 1275 1293.66 1278.71C1294.34 1282.41 1291.66 1286.01 1287.68 1286.74C1283.69 1287.47 1279.91 1285.06 1279.23 1281.35Z" fill="#CED3E6" fill-opacity="0.5"/>
</g>
<path d="M1034.49 156.139C1034.49 154.01 1032.98 152.139 1030.88 151.776C1027.31 151.158 1024.15 155.076 1026.63 159.12C1030.09 162.367 1034.49 159.875 1034.49 156.139Z" fill="#CED3E6" fill-opacity="0.5"/>
<path d="M674.308 135.571C677.093 131.536 682.623 130.522 686.659 133.308C690.695 136.093 691.708 141.623 688.923 145.659C686.137 149.695 680.607 150.708 676.571 147.923C672.536 145.137 671.522 139.607 674.308 135.571Z" fill="#CED3E6" fill-opacity="0.5"/>
<g opacity="0.8">
<path d="M706.519 799.648C703.769 799.397 701.332 801.416 701.081 804.167C700.829 806.917 702.849 809.353 705.599 809.605C708.349 809.857 710.785 807.837 711.037 805.087C711.294 802.336 709.269 799.9 706.519 799.648Z" fill="#CED3E6" fill-opacity="0.5"/>
</g>
<path d="M1365.46 402.945C1365.86 400.853 1364.71 398.73 1362.72 397.988C1359.32 396.711 1355.5 399.976 1357.18 404.416C1359.98 408.254 1364.76 406.613 1365.46 402.945Z" fill="#CED3E6" fill-opacity="0.5"/>
<path d="M1036.91 771.821C1032.15 770.453 1027.18 773.209 1025.82 777.976C1024.45 782.735 1027.21 787.707 1031.98 789.065C1036.74 790.433 1041.71 787.678 1043.07 782.911C1044.43 778.153 1041.67 773.19 1036.91 771.821Z" fill="#CED3E6" fill-opacity="0.5"/>
<path d="M255.37 189.984C252.4 190.529 250.441 193.377 250.984 196.339C251.527 199.301 254.377 201.268 257.339 200.725C260.309 200.181 262.267 197.332 261.725 194.37C261.182 191.409 258.332 189.442 255.37 189.984Z" fill="#CED3E6" fill-opacity="0.5"/>
</g>
</svg>
