<svg width="32" height="32" viewBox="0 0 32 32" fill="none" xmlns="http://www.w3.org/2000/svg">
<path fill-rule="evenodd" clip-rule="evenodd" d="M14.5033 0C18.3146 0 21.4153 3.09997 21.4153 6.91029V8.36214C21.4153 9.00706 20.8918 9.53047 20.2467 9.53047C19.6016 9.53047 19.0781 9.00706 19.0781 8.36214V6.91029C19.0781 4.38669 17.026 2.33666 14.5033 2.33666H6.9073C4.38777 2.33666 2.33723 4.38669 2.33723 6.91029V24.2468C2.33723 26.7688 4.38777 28.8188 6.9073 28.8188H14.5205C17.0322 28.8188 19.0781 26.775 19.0781 24.2639V22.7949C19.0781 22.15 19.6016 21.6266 20.2467 21.6266C20.8918 21.6266 21.4153 22.15 21.4153 22.7949V24.2639C21.4153 28.0649 18.3208 31.1555 14.5205 31.1555H6.9073C3.09917 31.1555 0 28.0571 0 24.2468V6.91029C0 3.09997 3.09917 0 6.9073 0H14.5033ZM27.0934 10.2097L31.6557 14.7506C31.6964 14.791 31.7328 14.8329 31.7661 14.8774L31.6557 14.7506C31.7109 14.805 31.7599 14.8644 31.8025 14.9279C31.8213 14.9566 31.8394 14.9863 31.8561 15.0168C31.8697 15.0407 31.8823 15.0656 31.8939 15.0909C31.9037 15.1133 31.9131 15.1356 31.9219 15.1584C31.9336 15.188 31.9439 15.2184 31.9529 15.2492C31.9597 15.2735 31.966 15.2978 31.9715 15.3223C31.9784 15.352 31.9839 15.382 31.9882 15.4121C31.9907 15.4317 31.9931 15.4523 31.9949 15.473C31.9985 15.5085 32 15.5431 32 15.5778L31.9921 15.6743L31.9889 15.7362C31.9885 15.7389 31.9881 15.7415 31.9878 15.7441L32 15.5778C32 15.6642 31.9904 15.7498 31.9718 15.8331C31.966 15.8577 31.9597 15.882 31.9527 15.9059C31.9439 15.9371 31.9336 15.9675 31.9221 15.9975C31.9131 16.0199 31.9037 16.0423 31.8936 16.0643C31.8823 16.0899 31.8697 16.1148 31.8563 16.1393C31.8394 16.1692 31.8213 16.1989 31.802 16.2277C31.791 16.2448 31.779 16.2617 31.7666 16.2782C31.7295 16.327 31.689 16.3729 31.6453 16.4154L27.0934 20.9474C26.8659 21.1748 26.5667 21.2886 26.2691 21.2886C25.9699 21.2886 25.6692 21.1748 25.4417 20.9443C24.9867 20.4863 24.9883 19.7479 25.4448 19.293L28.0001 16.7461H12.0692C11.4241 16.7461 10.9005 16.2227 10.9005 15.5778C10.9005 14.9328 11.4241 14.4094 12.0692 14.4094H28.0032L25.4448 11.864C24.9883 11.4091 24.9852 10.6708 25.4417 10.2128C25.8967 9.75479 26.6353 9.75479 27.0934 10.2097Z" fill="#E86E6E"/>
</svg>
