<svg width="32" height="38" viewBox="0 0 32 38" fill="none" xmlns="http://www.w3.org/2000/svg">
<path fill-rule="evenodd" clip-rule="evenodd" d="M12.671 33.0455C13.5671 34.0434 14.7176 34.5917 15.9113 34.5917H15.913C17.1119 34.5917 18.2675 34.0434 19.1654 33.0437C19.6464 32.5127 20.4664 32.4695 20.9975 32.9486C21.5303 33.4277 21.5736 34.2492 21.0944 34.7802C19.6965 36.3317 17.8575 37.1861 15.913 37.1861H15.9095C13.9702 37.1844 12.1347 36.3299 10.742 34.7785C10.2628 34.2475 10.306 33.426 10.8389 32.9486C11.3717 32.4678 12.1918 32.511 12.671 33.0455ZM15.9974 0C23.6873 0 28.8531 5.98782 28.8531 11.5796C28.8531 14.4559 29.5849 15.6752 30.3617 16.969C31.1298 18.2454 32 19.6948 32 22.4345C31.3962 29.4341 24.0869 30.0048 15.9974 30.0048C7.90791 30.0048 0.596899 29.4341 2.28989e-05 22.5451C-0.00514402 19.6948 0.86505 18.2454 1.63317 16.969L1.90434 16.5126C2.572 15.3654 3.14174 14.1175 3.14174 11.5796C3.14174 5.98782 8.30754 0 15.9974 0ZM15.9974 2.59438C9.95105 2.59438 5.73675 7.32998 5.73675 11.5796C5.73675 15.1754 4.73854 16.8375 3.85623 18.3042C3.14866 19.482 2.58987 20.4126 2.58987 22.4345C2.87878 25.6964 5.03264 27.4105 15.9974 27.4105C26.9017 27.4105 29.123 25.6203 29.4102 22.322C29.405 20.4126 28.8462 19.482 28.1386 18.3042C27.2563 16.8375 26.2581 15.1754 26.2581 11.5796C26.2581 7.32998 22.0438 2.59438 15.9974 2.59438Z" fill="#21B573"/>
</svg>
