<svg width="32" height="35" viewBox="0 0 32 35" fill="none" xmlns="http://www.w3.org/2000/svg">
<path fill-rule="evenodd" clip-rule="evenodd" d="M17.0368 0C18.2249 0 19.3798 0.487722 20.2078 1.33543C21.0341 2.18811 21.4904 3.35765 21.4556 4.54378C21.4589 4.81086 21.5468 5.11942 21.7061 5.38983C21.97 5.83773 22.3865 6.15293 22.8809 6.28232C23.3754 6.40508 23.8931 6.33873 24.3328 6.07828C26.4568 4.86561 29.1598 5.59221 30.3728 7.69904L31.4065 9.48901C31.4331 9.53712 31.4563 9.58357 31.4762 9.63168C32.5747 11.707 31.8413 14.3198 29.8003 15.5125C29.5033 15.6834 29.2627 15.9223 29.0968 16.2109C28.8396 16.6572 28.7682 17.1881 28.8976 17.6758C29.0304 18.1735 29.3473 18.5865 29.7937 18.842C30.8009 19.421 31.5526 20.3964 31.8529 21.5228C32.1532 22.6476 31.989 23.8685 31.4032 24.8755L30.3014 26.7102C29.0885 28.7938 26.3854 29.5155 24.2831 28.3011C24.0026 28.1402 23.6791 28.0523 23.3572 28.044H23.3472C22.8677 28.044 22.3748 28.2481 22.0164 28.6047C21.653 28.968 21.4539 29.4524 21.4572 29.9667C21.4456 32.4037 19.4627 34.3744 17.0368 34.3744H14.9577C12.5201 34.3744 10.5372 32.3937 10.5372 29.9567C10.5339 29.6565 10.4476 29.3446 10.2867 29.0742C10.0262 28.6197 9.60469 28.2945 9.11851 28.1651C8.63565 28.0357 8.10633 28.1071 7.67158 28.3592C6.62953 28.9398 5.40329 29.0808 4.28158 28.7656C3.16154 28.4488 2.19416 27.6791 1.62667 26.6588L0.58959 24.8722C-0.623375 22.7687 0.0984306 20.0729 2.19913 18.8586C2.79483 18.5152 3.16486 17.8748 3.16486 17.1881C3.16486 16.5013 2.79483 15.8593 2.19913 15.5159C0.0967714 14.2949 -0.623375 11.5925 0.587931 9.48901L1.71295 7.64264C2.90932 5.56235 5.61402 4.82911 7.72302 6.04012C8.01008 6.21099 8.32204 6.29725 8.63897 6.30057C9.67273 6.30057 10.5372 5.44789 10.5538 4.39945C10.5472 3.24319 11.0035 2.13337 11.8348 1.29562C12.6695 0.45952 13.7779 0 14.9577 0H17.0368ZM17.0368 2.48838H14.9577C14.4433 2.48838 13.9621 2.68911 13.5987 3.05075C13.237 3.41405 13.0395 3.8968 13.0428 4.41106C13.008 6.8364 11.0251 8.78895 8.62403 8.78895C7.85411 8.78065 7.11239 8.57329 6.46857 8.18842C5.56424 7.67416 4.3828 7.99101 3.85348 8.91171L2.73012 10.7581C2.21573 11.6506 2.531 12.8301 3.44694 13.3626C4.80593 14.1489 5.65385 15.6154 5.65385 17.1881C5.65385 18.7607 4.80593 20.2255 3.44363 21.0135C2.53266 21.5411 2.21739 22.7139 2.74505 23.6263L3.79208 25.4312C4.05094 25.8974 4.47407 26.2341 4.96357 26.3718C5.45141 26.5079 5.98903 26.4498 6.43705 26.201C7.0958 25.8144 7.8624 25.6137 8.63233 25.6137C9.01232 25.6137 9.3923 25.6618 9.76399 25.7613C10.8857 26.0633 11.8597 26.8131 12.4372 27.8201C12.8122 28.4521 13.0196 29.1903 13.0262 29.9435C13.0262 31.0218 13.8924 31.8861 14.9577 31.8861H17.0368C18.0971 31.8861 18.9633 31.0268 18.9683 29.9667C18.9616 28.7955 19.4196 27.6824 20.2576 26.8446C21.0839 26.0185 22.2388 25.5225 23.3937 25.5556C24.1503 25.5739 24.8788 25.7779 25.5209 26.1429C26.4452 26.6721 27.6249 26.3569 28.1592 25.4445L29.261 23.6081C29.5066 23.185 29.578 22.6542 29.4469 22.1648C29.3175 21.6754 28.9922 21.2507 28.5542 21.0002C27.5287 20.4097 26.7969 19.4575 26.4933 18.3161C26.1929 17.1963 26.3572 15.9737 26.943 14.9668C27.3246 14.3032 27.8838 13.7441 28.5542 13.3593C29.4535 12.8334 29.7688 11.6572 29.2461 10.7415C29.2245 10.705 29.2046 10.6668 29.188 10.627L28.2157 8.94157C27.6863 8.02087 26.5082 7.70402 25.584 8.22989C24.5851 8.82047 23.397 8.98968 22.2554 8.68941C21.1154 8.39413 20.1597 7.6725 19.564 6.65392C19.1823 6.0169 18.9749 5.27536 18.9683 4.52055C18.9832 3.9532 18.7841 3.44391 18.4223 3.07066C18.0623 2.69906 17.5562 2.48838 17.0368 2.48838ZM16.0045 11.5695C19.1025 11.5695 21.623 14.091 21.623 17.1882C21.623 20.2854 19.1025 22.8037 16.0045 22.8037C12.9066 22.8037 10.3861 20.2854 10.3861 17.1882C10.3861 14.091 12.9066 11.5695 16.0045 11.5695ZM16.0045 14.0578C14.2788 14.0578 12.8751 15.4629 12.8751 17.1882C12.8751 18.9135 14.2788 20.3153 16.0045 20.3153C17.7302 20.3153 19.134 18.9135 19.134 17.1882C19.134 15.4629 17.7302 14.0578 16.0045 14.0578Z" fill="#D0CECE"/>
</svg>
