<svg width="34" height="32" viewBox="0 0 34 32" fill="none" xmlns="http://www.w3.org/2000/svg">
<path d="M16.0513 0.846824C16.3551 -0.0649662 17.6449 -0.0649664 17.9487 0.846824L21.2624 10.7903C21.3985 11.1987 21.7806 11.4742 22.2111 11.4742H32.8795C33.8543 11.4742 34.253 12.7267 33.4575 13.2902L24.8705 19.373C24.5111 19.6276 24.3606 20.0873 24.4999 20.5052L27.79 30.3781C28.0956 31.295 27.0519 32.0689 26.2633 31.5103L17.578 25.3578C17.2317 25.1125 16.7683 25.1125 16.422 25.3578L7.73672 31.5103C6.94809 32.0689 5.90442 31.295 6.20997 30.3781L9.50013 20.5052C9.63937 20.0873 9.48885 19.6276 9.12946 19.373L0.542481 13.2902C-0.252999 12.7267 0.145678 11.4742 1.12052 11.4742H11.7889C12.2194 11.4742 12.6015 11.1987 12.7376 10.7903L16.0513 0.846824Z" fill="#FBB03B"/>
</svg>

