<svg xmlns="http://www.w3.org/2000/svg" width="75" height="75" viewBox="0 0 75 75" fill="none">
<path d="M43.5234 35.9062C46.0474 34.362 48.1195 32.1795 49.5309 29.5789C50.9423 26.9783 51.6431 24.0516 51.5625 21.0938C51.5625 17.3641 50.0809 13.7873 47.4437 11.1501C44.8065 8.51283 41.2296 7.03125 37.5 7.03125C33.7704 7.03125 30.1935 8.51283 27.5563 11.1501C24.9191 13.7873 23.4375 17.3641 23.4375 21.0938C23.3569 24.0516 24.0577 26.9783 25.4691 29.5789C26.8805 32.1795 28.9526 34.362 31.4766 35.9062C25.8528 37.2576 20.8468 40.4607 17.2633 45.0006C13.6798 49.5406 11.7269 55.1537 11.7188 60.9375V67.9688H16.4062V60.9375C16.4036 56.1557 18.0257 51.515 21.0066 47.776C23.9875 44.0371 28.1503 41.422 32.8125 40.3594C32.9111 40.7843 33.1123 41.1786 33.3984 41.5078L34.9688 43.0547L32.8125 60.7031C32.7774 61.0502 32.8202 61.4007 32.9377 61.7292C33.0553 62.0576 33.2448 62.3557 33.4922 62.6016L35.8359 64.9453C36.0538 65.165 36.313 65.3394 36.5986 65.4583C36.8843 65.5773 37.1906 65.6386 37.5 65.6386C37.8094 65.6386 38.1157 65.5773 38.4014 65.4583C38.687 65.3394 38.9462 65.165 39.1641 64.9453L41.5078 62.6016C41.7552 62.3557 41.9447 62.0576 42.0623 61.7292C42.1798 61.4007 42.2226 61.0502 42.1875 60.7031L39.8438 43.0547L41.4141 41.5078C41.7002 41.1786 41.9014 40.7843 42 40.3594C46.6969 41.385 50.9025 43.9842 53.9203 47.7266C56.938 51.469 58.5869 56.13 58.5938 60.9375V67.9688H63.2812V60.9375C63.2731 55.1537 61.3202 49.5406 57.7367 45.0006C54.1532 40.4607 49.1472 37.2576 43.5234 35.9062V35.9062ZM28.125 21.0938C28.125 18.6073 29.1127 16.2228 30.8709 14.4646C32.629 12.7065 35.0136 11.7188 37.5 11.7188C39.9864 11.7188 42.371 12.7065 44.1291 14.4646C45.8873 16.2228 46.875 18.6073 46.875 21.0938C46.875 27.5625 42.6797 32.8125 37.5 32.8125C32.3203 32.8125 28.125 27.5625 28.125 21.0938Z" fill="#364C65"/>
</svg>