<svg width="100" height="100" viewBox="-2 0 75 75" fill="none" xmlns="http://www.w3.org/2000/svg">
<path d="M53.125 21.875H18.75C13.5812 21.875 9.375 26.0812 9.375 31.25V53.125C9.375 58.2938 13.5812 62.5 18.75 62.5H53.125C58.2938 62.5 62.5 58.2938 62.5 53.125V31.25C62.5 26.0812 58.2938 21.875 53.125 21.875ZM56.25 53.125C56.25 54.85 54.85 56.25 53.125 56.25H18.75C17.025 56.25 15.625 54.85 15.625 53.125V40.625H56.25V53.125ZM56.25 34.375H15.625V31.25C15.625 29.525 17.025 28.125 18.75 28.125H53.125C54.85 28.125 56.25 29.525 56.25 31.25V34.375Z" fill="#364C65"/>
<path d="M43.75 50H50C50.8625 50 51.5625 49.3 51.5625 48.4375C51.5625 47.575 50.8625 46.875 50 46.875H43.75C42.8875 46.875 42.1875 47.575 42.1875 48.4375C42.1875 49.3 42.8875 50 43.75 50Z" fill="#364C65"/>
</svg>
