<svg width="283" height="417" viewBox="0 0 283 417" fill="none" xmlns="http://www.w3.org/2000/svg">
<path d="M172.799 127.538C172.799 127.538 217.31 187.85 227.467 217.903C237.624 247.956 212.979 269.29 212.979 269.29L190.088 277.871C190.088 277.854 166.56 171.768 172.799 127.538Z" fill="#084FC7"/>
<path d="M168.861 296.476C149.406 302.912 101.87 319.801 81.2295 312.97C80.353 312.678 79.5453 312.352 78.7719 311.975C76.5206 310.876 74.7161 309.4 73.4443 307.478C65.3497 295.172 57.3239 243.527 60.9329 213.182C61.3797 209.389 61.6032 205.27 61.6719 200.945C61.775 194.577 61.5688 187.764 61.2938 180.915C60.2799 155.136 56.2068 137.338 67.2573 131.073C77.1736 125.444 89.7194 121.05 97.7108 119.145C102.66 117.96 110.772 115.489 116.461 115.592L141.071 120.054C141.071 120.054 162.313 123.59 167.211 127.211C172.109 130.816 174.618 146.726 183.469 161.298C192.319 175.869 194.244 190.493 185.789 206.489C178.433 220.408 179.722 215.122 178.76 237.949C177.591 265.925 206.859 283.913 168.861 296.476Z" fill="white"/>
<g opacity="0.8">
<path d="M103.523 165.4C103.523 165.4 130.196 158.518 164.241 164.868L165.066 188.365C165.066 188.365 127.635 184.211 104.056 190.201L103.523 165.4Z" fill="#CED3E6"/>
</g>
<g opacity="0.8">
<path d="M134.166 145.559C133.805 145.559 133.444 145.542 133.066 145.525C118.492 144.769 105.122 131.931 104.572 131.382C104.176 131.004 104.176 130.369 104.554 129.975C104.933 129.58 105.568 129.58 105.964 129.957C106.101 130.078 119.352 142.83 133.169 143.534C146.402 144.237 148 131.125 148.069 130.558C148.138 130.009 148.619 129.614 149.169 129.683C149.719 129.734 150.114 130.232 150.046 130.781C150.046 130.936 148.293 145.559 134.166 145.559Z" fill="#CED3E6"/>
</g>
<g opacity="0.8">
<path d="M92.8444 263.197C92.7413 263.111 92.6553 263.025 92.5694 262.905C92.2773 262.407 92.4319 261.772 92.9131 261.48C111.869 250.015 130.052 245.982 141.962 244.609C154.903 243.116 163.238 244.317 163.582 244.386C164.149 244.471 164.544 245.003 164.458 245.57C164.372 246.136 163.84 246.531 163.272 246.445C163.186 246.428 154.8 245.227 142.116 246.703C130.43 248.059 112.574 252.04 93.9787 263.282C93.635 263.471 93.1881 263.437 92.8444 263.197Z" fill="#CED3E6"/>
</g>
<path d="M117.629 305.831C100.116 300.287 84.2708 289.131 73.4608 279.193C72.6015 278.404 71.7766 277.631 70.986 276.859C65.3834 271.418 61.4307 274.216 59.7121 271.092C53.1642 259.129 56.8764 212.187 59.7121 194.938C62.5477 177.706 50.6379 146.126 57.0482 134.832C63.4586 123.539 85.5425 119.591 85.5425 119.591C85.5425 119.591 82.4147 115.953 88.3439 111.782C94.273 107.611 110.05 109.345 110.05 109.345C110.806 183.954 121.392 253.242 117.629 305.831Z" fill="#0875F7"/>
<path d="M100.406 284.445C99.9244 284.445 99.5119 284.102 99.4432 283.622C91.4689 231.874 99.3572 134.524 99.4432 133.545C99.4947 133.013 99.9588 132.619 100.492 132.653C101.024 132.704 101.437 133.168 101.385 133.7C101.299 134.678 93.4453 231.788 101.385 283.313C101.471 283.845 101.093 284.342 100.56 284.428C100.509 284.445 100.457 284.445 100.406 284.445Z" fill="white"/>
<path d="M116.443 292.203C115.979 292.203 115.566 291.877 115.48 291.396C105.049 231.96 104.224 129.392 104.224 128.362C104.224 127.83 104.653 127.384 105.186 127.384C105.719 127.384 106.166 127.813 106.166 128.345C106.166 129.374 107.008 231.771 117.405 291.053C117.491 291.585 117.147 292.083 116.615 292.186C116.546 292.203 116.494 292.203 116.443 292.203Z" fill="#084FC7"/>
<path d="M99.1316 127.778C99.0457 127.778 98.9597 127.761 98.8738 127.744C90.6245 125.547 85.5719 120.69 85.3485 120.484C84.9704 120.106 84.9532 119.488 85.3313 119.111C85.7094 118.733 86.328 118.716 86.7061 119.094C86.7577 119.145 91.6213 123.814 99.355 125.873C99.8706 126.01 100.18 126.542 100.042 127.075C99.9565 127.486 99.5612 127.778 99.1316 127.778Z" fill="#084FC7"/>
<path d="M193.506 273.255C193.506 273.255 187.267 294.246 164.032 304.252C161.144 247.338 154.614 182.341 146.176 113.207C146.176 113.207 155.061 111.645 158.756 116.725C160.354 118.905 160.698 122.612 160.698 122.612C160.698 122.612 165.235 123.487 170.201 125.805C175.168 128.122 174.601 131.297 175.787 139.364C176.973 147.43 189.45 159.908 193.506 176.814C197.561 193.72 186.803 204.498 183.452 218.692C180.083 232.852 193.506 273.255 193.506 273.255Z" fill="#0875F7"/>
<path d="M173.557 282.059C173.024 282.059 172.594 281.648 172.577 281.116C170.326 203.692 156.165 134.506 156.027 133.82C155.924 133.288 156.25 132.773 156.783 132.67C157.316 132.567 157.832 132.893 157.935 133.425C158.072 134.112 172.268 203.451 174.519 281.064C174.536 281.596 174.107 282.059 173.574 282.059C173.574 282.059 173.574 282.059 173.557 282.059Z" fill="white"/>
<path d="M152.173 129.924C151.709 129.924 151.296 129.58 151.21 129.117C151.124 128.585 151.485 128.087 152.001 127.984C152.07 127.967 158.325 126.834 159.752 122.32C159.906 121.805 160.456 121.514 160.972 121.685C161.488 121.84 161.763 122.389 161.608 122.904C159.803 128.568 152.62 129.855 152.327 129.907C152.276 129.907 152.224 129.924 152.173 129.924Z" fill="#084FC7"/>
<path d="M171.285 282.06C170.804 282.06 170.374 281.7 170.322 281.202C163.448 224.117 152.586 132.893 152.483 131.984C152.415 131.452 152.81 130.971 153.343 130.903C153.875 130.834 154.357 131.229 154.425 131.761C154.528 132.67 165.39 223.911 172.264 280.979C172.333 281.511 171.955 281.991 171.405 282.06C171.354 282.06 171.319 282.06 171.285 282.06Z" fill="#084FC7"/>
<path d="M113.564 323.045C116.537 325.174 121.211 327.388 128.24 329.619C168.112 342.286 204.666 321.844 204.666 321.844C206.883 310.945 205.508 298.553 201.831 294.022C202.982 292.409 202.226 290.487 202.226 290.487L238.918 252.453C218.054 269.719 192.241 275.366 172.151 287.5C172.151 287.5 172.151 287.5 172.133 287.5C166.342 291.001 161.134 294.074 157.319 296.202C151.493 299.463 144.069 299.789 136.782 298.776C122.586 296.82 108.975 289.834 108.975 289.834C108.975 289.834 63.2776 269.153 54.719 269.839C48.068 270.371 83.9179 307.736 113.564 323.045Z" fill="#21B573"/>
<path d="M184.175 354.935C184.175 354.935 172.42 351.554 168.794 347.744L160.613 366.967L188.437 375.634C188.455 375.634 188.833 358.745 184.175 354.935Z" fill="#EA9B7A"/>
<path d="M251.318 410.458L215.348 330.735C214.007 330.632 212.323 330.992 210.433 331.679C203.455 334.219 193.642 341.221 187.335 345.323C186.596 345.804 185.908 346.25 185.272 346.645C184.207 347.297 183.296 347.812 182.608 348.138C177.057 350.627 179.979 353.613 179.979 353.613C190.325 358.78 184.018 374.089 190.325 377.659C190.325 377.659 193.006 379.221 201.565 382.98C210.123 386.739 218.733 395.818 226.708 403.25C237.002 412.861 243.464 413.977 247.159 413.101C250.115 412.415 251.318 410.458 251.318 410.458Z" fill="#EBB12B"/>
<path d="M251.316 410.458L215.346 330.734C214.006 330.631 212.321 330.992 210.431 331.678L247.157 413.101C250.113 412.414 251.316 410.458 251.316 410.458Z" fill="#C77E2E"/>
<path d="M219.023 338.869L217.957 336.5C216.325 340.088 213.162 344.155 207.113 346.541C199.053 349.699 191.594 347.365 187.349 345.34C186.61 345.82 185.923 346.266 185.287 346.661C189.601 348.978 198.211 352.274 207.869 348.498C213.644 346.198 217.046 342.456 219.023 338.869Z" fill="#C77E2E"/>
<path d="M205.668 379.512C205.41 378.929 204.757 378.568 204.087 378.688C203.296 378.826 202.781 379.581 202.918 380.37L203.932 385.914C204.07 386.704 204.826 387.219 205.616 387.081C206.407 386.944 206.922 386.189 206.785 385.399L205.771 379.855C205.754 379.735 205.719 379.615 205.668 379.512Z" fill="white"/>
<path d="M199.287 376.442C199.029 375.859 198.376 375.498 197.705 375.619C196.915 375.756 196.399 376.511 196.537 377.301L197.551 382.844C197.688 383.634 198.444 384.149 199.235 384.011C200.026 383.874 200.541 383.119 200.404 382.329L199.39 376.786C199.373 376.648 199.338 376.545 199.287 376.442Z" fill="white"/>
<path d="M210.84 383.186C210.582 382.602 209.929 382.242 209.259 382.362C208.468 382.499 207.953 383.255 208.09 384.044L209.104 389.588C209.241 390.377 209.998 390.892 210.788 390.755C211.579 390.618 212.094 389.863 211.957 389.073L210.943 383.529C210.926 383.409 210.891 383.289 210.84 383.186Z" fill="white"/>
<path d="M215.862 386.909C215.604 386.325 214.951 385.965 214.28 386.085C213.49 386.222 212.974 386.978 213.112 387.767L214.126 393.311C214.263 394.1 215.019 394.615 215.81 394.478C216.601 394.341 217.116 393.585 216.979 392.796L215.965 387.252C215.93 387.132 215.896 387.012 215.862 386.909Z" fill="white"/>
<path d="M220.882 391.184C220.624 390.6 219.971 390.24 219.301 390.36C218.51 390.497 217.995 391.252 218.132 392.042L219.146 397.585C219.284 398.375 220.04 398.89 220.83 398.753C221.621 398.615 222.137 397.86 221.999 397.071L220.985 391.527C220.968 391.407 220.934 391.287 220.882 391.184Z" fill="white"/>
<path d="M225.744 396.091C225.487 395.508 224.833 395.147 224.163 395.267C223.373 395.405 222.857 396.16 222.995 396.949L224.009 402.493C224.146 403.283 224.902 403.798 225.693 403.66C226.483 403.523 226.999 402.768 226.861 401.978L225.847 396.435C225.813 396.297 225.779 396.194 225.744 396.091Z" fill="white"/>
<path d="M54.7315 269.839C54.7315 269.839 25.8075 254.255 9.06844 266.304C-21.5569 288.341 30.4134 330.718 89.8767 351.416C149.34 372.115 168.64 369.284 168.64 369.284C168.64 369.284 181.564 365.731 176.975 344.826C176.975 344.826 142.706 331.816 124.867 318.188C107.011 304.543 94.8607 287.844 54.7315 269.839Z" fill="#21B573"/>
<path d="M174.643 350.901C162.166 347.914 136.766 336.261 106.673 319.767C84.1594 307.426 58.2086 291.653 54.3934 286.178C52.3311 283.226 51.8155 280.806 52.8466 278.987C54.3934 276.275 58.8617 276 60.8896 276.017C61.4052 276.017 61.8177 276.464 61.7833 276.978C61.7489 277.459 61.3537 277.819 60.8725 277.819C58.8789 277.802 55.3901 278.146 54.4105 279.879C53.5856 281.321 54.7543 283.535 55.8713 285.131C58.9476 289.542 80.6707 303.444 107.532 318.17C130.665 330.854 160.551 345.649 175.056 349.133L174.643 350.901Z" fill="#217C58"/>
<path d="M172.285 342.045C170.876 353.03 168.023 363.019 161.819 370.691C161.819 370.691 167.146 374.518 172.01 371.772C175.722 369.678 182.889 352.515 180.156 343.35C177.046 341.65 174.365 341.05 172.285 342.045Z" fill="#217C58"/>
<path d="M96.8368 352.755C96.8368 352.755 108.661 350.472 112.012 346.422L121.447 365.044L94.2761 375.548C94.259 375.565 92.4372 356.874 96.8368 352.755Z" fill="#EA9B7A"/>
<path d="M33.8713 414.509L64.428 332.571C65.7685 332.365 67.4527 332.623 69.3947 333.189C76.5269 335.266 86.7868 341.582 93.3519 345.272C94.1252 345.701 94.8299 346.096 95.5001 346.439C96.6172 347.023 97.5452 347.486 98.2671 347.744C103.973 349.855 101.601 351.468 101.601 351.468C90.3615 356.737 98.5936 373.729 92.5441 377.728C92.5441 377.728 89.9663 379.461 81.6826 383.787C73.399 388.112 65.4075 397.74 57.9488 405.687C48.3247 415.951 41.9487 417.513 38.2022 416.877C35.2118 416.38 33.8713 414.509 33.8713 414.509Z" fill="#EBB12B"/>
<path d="M33.8735 414.509L64.4302 332.571C65.7707 332.365 67.4549 332.622 69.3969 333.189L38.1872 416.877C35.214 416.379 33.8735 414.509 33.8735 414.509Z" fill="#C77E2E"/>
<path d="M61.2874 340.93L62.1982 338.493C64.0715 341.96 67.4915 345.821 73.6956 347.778C81.9449 350.404 89.2317 347.572 93.3391 345.255C94.1125 345.684 94.8171 346.079 95.4874 346.422C91.3456 349.031 82.9588 352.893 73.0769 349.752C67.1478 347.898 63.5043 344.363 61.2874 340.93Z" fill="#C77E2E"/>
<path d="M77.3256 380.593C77.549 379.993 78.1677 379.581 78.838 379.667C79.6286 379.752 80.1957 380.473 80.1097 381.263L79.4739 386.858C79.3879 387.648 78.6661 388.214 77.8756 388.128C77.085 388.042 76.5179 387.321 76.6038 386.532L77.2397 380.937C77.2569 380.817 77.2913 380.696 77.3256 380.593Z" fill="white"/>
<path d="M83.5026 377.093C83.726 376.492 84.3447 376.081 85.015 376.166C85.8056 376.252 86.3727 376.973 86.2867 377.763L85.6509 383.358C85.5649 384.147 84.8431 384.714 84.0526 384.628C83.262 384.542 82.6949 383.821 82.7808 383.032L83.4167 377.436C83.4339 377.316 83.4683 377.196 83.5026 377.093Z" fill="white"/>
<path d="M72.4411 384.609C72.6645 384.009 73.2832 383.614 73.9535 383.683C74.744 383.768 75.3112 384.489 75.2252 385.279L74.5893 390.874C74.5034 391.663 73.7816 392.23 72.991 392.144C72.2005 392.058 71.6334 391.337 71.7193 390.548L72.3552 384.953C72.3724 384.832 72.4067 384.712 72.4411 384.609Z" fill="white"/>
<path d="M67.6792 388.661C67.9026 388.06 68.5213 387.666 69.1915 387.734C69.9821 387.82 70.5492 388.541 70.4633 389.33L69.8274 394.926C69.7415 395.715 69.0197 396.282 68.2291 396.196C67.4386 396.11 66.8714 395.389 66.9573 394.6L67.5932 389.004C67.6104 388.884 67.6448 388.764 67.6792 388.661Z" fill="white"/>
<path d="M62.9375 393.26C63.1609 392.659 63.7796 392.264 64.4498 392.333C65.2404 392.419 65.8075 393.14 65.7216 393.929L65.0857 399.524C64.9998 400.314 64.278 400.88 63.4874 400.794C62.6969 400.709 62.1297 399.988 62.2156 399.198L62.8515 393.603C62.8687 393.483 62.9031 393.363 62.9375 393.26Z" fill="white"/>
<path d="M58.4179 398.462C58.6413 397.862 59.26 397.45 59.9303 397.535C60.7208 397.621 61.288 398.342 61.202 399.132L60.5662 404.727C60.4802 405.516 59.7584 406.083 58.9678 405.997C58.1773 405.911 57.6102 405.19 57.6961 404.401L58.332 398.806C58.3492 398.685 58.3835 398.582 58.4179 398.462Z" fill="white"/>
<path d="M227.116 257.173C227.116 257.173 254.476 238.997 272.264 249.466C304.797 268.603 256.934 315.562 199.619 341.616C142.321 367.67 122.832 366.623 122.832 366.623C122.832 366.623 109.65 364.272 112.28 343.024C112.28 343.024 145.208 326.924 161.724 311.718C178.239 296.528 188.809 278.781 227.116 257.173Z" fill="#21B573"/>
<path d="M177.078 351.416C173.915 352.446 170.719 353.493 167.402 354.54C154.581 358.573 139.939 362.796 126.689 366.039L126.637 367.927C138.616 365.01 152.656 361.062 167.935 356.256C170.925 355.312 173.967 354.334 177.026 353.321L177.078 351.416Z" fill="#217C58"/>
<path d="M115.172 348.876C127.322 344.757 151.554 330.837 179.997 311.649C201.273 297.3 225.677 279.21 228.96 273.409C230.73 270.285 231.039 267.831 229.836 266.114C228.049 263.557 223.581 263.677 221.553 263.883C221.037 263.935 220.659 264.415 220.745 264.93C220.831 265.393 221.243 265.72 221.725 265.685C223.718 265.496 227.207 265.514 228.358 267.144C229.304 268.5 228.358 270.817 227.396 272.516C224.749 277.185 204.384 293.009 178.983 310.155C157.123 324.899 128.714 342.371 114.587 347.177L115.172 348.876Z" fill="#217C58"/>
<path d="M116.689 339.848C119.096 350.661 122.859 360.341 129.751 367.413C129.751 367.413 124.801 371.721 119.714 369.421C115.83 367.67 107.117 351.227 108.99 341.856C111.929 339.883 114.541 339.059 116.689 339.848Z" fill="#217C58"/>
<path d="M112.989 253.157L110.79 284.514C110.79 284.514 73.4445 279.193 55.1243 274.525C49.7794 273.169 43.7987 271.418 38.2992 268.501C28.1767 263.128 19.79 253.774 20.4086 235.547C20.5977 229.694 21.732 222.932 24.0349 215.071C37.3712 169.537 59.7129 131.297 59.7129 131.297C88.465 143.586 86.0418 164.045 86.0418 164.045C77.8441 185.893 59.7129 232.423 59.7129 232.423C70.2479 245.279 112.989 253.157 112.989 253.157Z" fill="#0875F7"/>
<path d="M59.7141 233.402C59.5422 233.402 59.3532 233.35 59.1985 233.247C56.0191 231.29 47.3746 229.248 47.2887 229.231C46.7559 229.111 46.4294 228.579 46.5668 228.064C46.6871 227.532 47.2199 227.223 47.7355 227.343C48.0448 227.412 54.1115 228.836 58.1158 230.552C57.5315 229.248 56.5691 227.858 55.2458 226.347C54.8848 225.935 54.9364 225.335 55.3317 224.974C55.7441 224.614 56.3457 224.665 56.7066 225.06C59.0095 227.669 60.3156 230.037 60.6765 232.286C60.7452 232.663 60.5734 233.041 60.264 233.247C60.0922 233.35 59.9031 233.402 59.7141 233.402Z" fill="#084FC7"/>
<path d="M38.3163 268.5C28.1938 263.128 19.807 253.774 20.4257 235.547C28.4344 239.735 42.4066 249.895 38.3163 268.5Z" fill="#084FC7"/>
<path d="M89.5099 248.334C89.4239 248.334 89.3552 248.317 89.2693 248.3C70.7772 243.529 59.5376 233.574 59.0736 233.145C58.747 232.853 58.6611 232.372 58.8501 231.978C72.0489 206.078 80.3841 185.516 85.1103 167.255C85.2477 166.74 85.7805 166.414 86.2961 166.551C86.8117 166.688 87.1382 167.22 87.0007 167.735C82.2746 185.98 73.9909 206.456 60.9296 232.166C63.4216 234.226 74.0081 242.344 89.7505 246.395C90.266 246.532 90.5926 247.064 90.4551 247.579C90.3348 248.043 89.9395 248.334 89.5099 248.334Z" fill="#084FC7"/>
<path d="M82.1106 181.791C81.9044 181.791 81.681 181.722 81.5091 181.585C81.0795 181.242 81.0107 180.641 81.3545 180.212L88.2117 171.613C88.5554 171.184 89.1569 171.115 89.5865 171.459C90.0162 171.802 90.0849 172.403 89.7412 172.832L82.884 181.431C82.6778 181.654 82.4028 181.791 82.1106 181.791Z" fill="#084FC7"/>
<path d="M114.083 102.754L147.252 107.491C168.803 105.346 175.661 96.7812 179.184 78.691C180.954 69.5944 179.785 61.562 178.05 55.5892C177.603 48.7925 176.039 42.9226 172.825 39.0437C158.269 21.5199 145.448 22.2065 145.448 22.2065C138.934 19.2201 117.418 17.1776 103.222 34.3924C102.775 34.77 94.1134 43.9353 92.1198 63.1582C90.195 81.4886 102.449 104.899 114.083 102.754Z" fill="#39393B"/>
<path d="M132.605 27.0122C132.605 27.0122 136.059 -3.5385 108.905 0.340409C91.1692 2.86342 80.1874 26.8749 96.4109 37.7736C112.634 48.6724 132.605 27.0122 132.605 27.0122Z" fill="#39393B"/>
<path d="M99.1391 40.9145C99.0016 40.9145 98.8641 40.8802 98.7266 40.8115C98.3141 40.5884 98.1595 40.0563 98.3829 39.6444C104.673 28.2308 113.644 23.1848 120.054 20.9535C127.015 18.5507 132.428 18.8424 132.652 18.8424C133.133 18.8768 133.494 19.2715 133.459 19.7521C133.425 20.2327 133.03 20.5931 132.549 20.5588C132.342 20.5416 111.393 19.5805 99.8952 40.4682C99.7234 40.7429 99.4312 40.9145 99.1391 40.9145Z" fill="#EBB12B"/>
<path d="M116.669 95.8553C116.669 95.8553 95.5135 84.0298 99.6725 59.4176C103.832 34.8053 120.055 19.9934 144.923 27.1333C144.94 27.1333 142.517 98.2753 116.669 95.8553Z" fill="#39393B"/>
<path d="M175.513 50.5947C175.513 50.5947 177.678 71.7228 173.811 74.7779C169.962 77.8329 166.181 69.4744 166.181 69.4744C166.181 69.4744 171.44 50.835 175.513 50.5947Z" fill="#39393B"/>
<path d="M165.767 76.7011C165.767 76.7011 172.074 71.1745 174.171 77.954C176.268 84.7336 172.023 97.2113 164.169 93.8988L165.767 76.7011Z" fill="#D46A43"/>
<path d="M173.534 92.3534C172.675 93.1429 171.713 93.8294 170.664 94.3958C166.694 96.524 161.522 96.7815 155.3 93.5205C155.3 93.5205 147.343 83.1881 159.098 64.9607C159.098 64.9607 169.874 62.1287 176.044 68.6336C176.731 69.3545 177.35 70.1783 177.9 71.1395C178.243 71.723 178.536 72.3581 178.811 73.0446C180.993 78.5884 178.965 87.4275 173.534 92.3534Z" fill="#21B573"/>
<path d="M173.265 66.4194C173.763 63.9822 174.262 60.9614 174.588 57.6146C174.434 57.6832 174.279 57.7347 174.107 57.7347C173.437 57.7862 172.784 57.5116 172.131 57.031C171.838 60.1547 171.392 62.9867 170.945 65.3381L173.265 66.4194Z" fill="white"/>
<path d="M173.53 92.3535C172.671 93.143 171.708 93.8296 170.66 94.396C176.108 83.1196 176.263 72.8216 176.039 68.6338C176.727 69.3546 177.345 70.1785 177.895 71.1396C177.895 75.8767 177.191 83.6689 173.53 92.3535Z" fill="#217C58"/>
<path d="M147.379 107.184L144.784 124.656C144.784 124.656 134.077 138.369 109.295 116.006C112.113 108.9 116.444 99.7519 115.327 92.7493C115.327 92.7493 117.132 94.4141 120.26 96.3879C120.895 96.7998 121.583 97.2289 122.305 97.658C128.732 101.571 138.563 106.566 147.379 107.184Z" fill="#EA9B7A"/>
<path d="M147.39 107.183L146.17 115.352C138.934 112.572 126.423 106.547 120.253 96.3696C120.889 96.7815 121.576 97.2106 122.298 97.6397C128.743 101.57 138.573 106.565 147.39 107.183Z" fill="#39393B"/>
<path d="M171.141 77.4728C170.866 79.275 170.608 80.9741 170.333 82.5875C168.34 94.6361 166.518 101.124 163.167 103.698C146.204 116.691 116.3 93.7265 115.338 92.9885C115.321 92.9713 115.321 92.9713 115.321 92.9713C115.218 91.5639 115.149 90.1737 115.115 88.8178C114.719 77.2154 116.146 66.7114 118.792 56.9111C119.806 46.3214 127.523 37.4651 137.955 35.3368C148.765 33.1399 157.289 39.0098 162.565 41.5156C170.522 45.3259 174.166 56.8768 171.931 72.2208C171.656 74.0573 171.399 75.8251 171.141 77.4728Z" fill="#EA9B7A"/>
<path d="M155.991 91.5125C146.504 91.5125 142.706 82.4502 142.672 82.3472C142.5 81.901 142.706 81.4033 143.153 81.2316C143.6 81.06 144.098 81.2659 144.27 81.7122C144.442 82.1069 148.412 91.5125 158.758 89.5215C159.222 89.4357 159.686 89.7446 159.772 90.208C159.858 90.6715 159.548 91.1177 159.084 91.2207C157.984 91.4266 156.953 91.5125 155.991 91.5125Z" fill="#39393B"/>
<path d="M148.683 58.7991C151.123 57.9581 150.625 54.3709 148.047 54.1993C143.665 53.9075 136.618 54.0277 136.034 57.5633C135.175 62.7295 143.355 60.5841 148.528 58.8506C148.58 58.8334 148.631 58.8162 148.683 58.7991Z" fill="#39393B"/>
<path d="M161.626 60.3265C159.736 58.5759 161.643 55.4865 164.066 56.379C168.191 57.8893 174.601 60.8243 173.708 64.2913C172.419 69.3716 165.785 64.1025 161.746 60.4467C161.695 60.3952 161.66 60.3609 161.626 60.3265Z" fill="#39393B"/>
<path d="M148.99 95.7516C150.726 96.1806 152.187 95.8545 152.29 95.8202C152.599 95.7516 152.788 95.4426 152.719 95.1337C152.651 94.8247 152.341 94.6359 152.032 94.7046C151.998 94.7046 149.162 95.3396 147.014 93.4517C146.773 93.2457 146.412 93.2629 146.206 93.5032C146 93.7434 146.017 94.1039 146.258 94.3098C147.134 95.0994 148.096 95.5284 148.99 95.7516Z" fill="#D46A43"/>
<path d="M154.942 83.9781C154.787 83.9094 154.684 83.7721 154.615 83.6177C154.512 83.2916 154.684 82.9311 155.011 82.8281L159.152 81.4723L156.695 78.9836C156.557 78.8463 156.489 78.6575 156.523 78.4687L157.279 71.6205C157.313 71.2772 157.623 71.0198 157.984 71.0713C158.327 71.1056 158.585 71.4145 158.534 71.7578L157.795 78.297L160.751 81.2835C160.905 81.4379 160.974 81.661 160.923 81.867C160.871 82.073 160.716 82.2446 160.51 82.3133L155.406 83.9953C155.251 84.0639 155.097 84.0467 154.942 83.9781Z" fill="#39393B"/>
<path d="M144.214 77.4208C144.007 78.8454 140.897 79.5491 137.288 79.017C133.679 78.4849 130.912 76.8888 131.135 75.4642C131.341 74.0396 134.452 73.3359 138.061 73.868C141.67 74.4172 144.42 76.0134 144.214 77.4208Z" fill="#D46A43"/>
<g opacity="0.8">
<path d="M171.155 79.1379C170.88 80.9401 170.622 82.6392 170.347 84.2526C167.047 83.6347 164.624 82.1415 164.83 80.8199C165.019 79.464 167.804 78.7603 171.155 79.1379Z" fill="#D46A43"/>
</g>
<path d="M147.743 72.3407C147.45 74.2973 146.333 75.7391 145.233 75.5846C144.134 75.4301 143.498 73.7138 143.773 71.7572C144.065 69.8005 145.182 68.3588 146.282 68.5133C147.382 68.6678 148.035 70.3841 147.743 72.3407Z" fill="#39393B"/>
<path d="M167.073 75.2072C166.78 77.1638 165.663 78.6055 164.563 78.451C163.464 78.2966 162.828 76.5802 163.103 74.6236C163.395 72.667 164.512 71.2253 165.612 71.3797C166.712 71.5514 167.348 73.2677 167.073 75.2072Z" fill="#39393B"/>
<path d="M122.898 86.02C122.778 86.226 119.324 91.7869 115.354 92.9883C115.336 92.9712 115.336 92.9712 115.336 92.9712C115.233 91.5638 115.165 90.1735 115.113 88.8176C115.268 88.8005 119.083 88.7147 122.898 86.02Z" fill="#39393B"/>
<path d="M121.328 71.9281C121.328 71.9281 115.072 60.2914 108.129 67.6716C102.406 73.7474 108.593 93.142 119.128 87.9587L121.328 71.9281Z" fill="#EA9B7A"/>
<path d="M118.32 84.7837C117.907 84.715 117.615 84.3718 117.632 83.9427C117.941 75.8759 111.703 72.1343 111.445 71.9798C111.067 71.7567 110.93 71.259 111.153 70.8642C111.376 70.4695 111.875 70.3493 112.27 70.5724C112.562 70.7441 119.626 74.9491 119.265 84.0113C119.248 84.4576 118.87 84.8008 118.423 84.7837C118.388 84.7837 118.354 84.7837 118.32 84.7837Z" fill="#39393B"/>
<path d="M111.567 78.8114C111.327 78.7771 111.12 78.6398 110.983 78.4167C110.76 78.0391 110.88 77.5413 111.275 77.301C111.636 77.0951 114.85 75.2414 117.17 76.2198C117.582 76.3914 117.771 76.872 117.6 77.2839C117.428 77.6958 116.947 77.8846 116.534 77.713C115.194 77.1466 112.822 78.2622 112.1 78.6913C111.928 78.7942 111.739 78.8286 111.567 78.8114Z" fill="#39393B"/>
<path d="M140.679 82.5883C134.561 80.2541 131.485 73.3888 133.822 67.2786C136.159 61.1685 143.034 58.0962 149.152 60.4305C155.27 62.7647 158.346 69.63 156.009 75.7402C153.672 81.8503 146.797 84.9225 140.679 82.5883ZM148.533 62.0438C143.309 60.0529 137.431 62.6789 135.438 67.8965C133.444 73.1142 136.073 78.984 141.298 80.975C146.523 82.9659 152.4 80.3399 154.394 75.1223C156.387 69.9046 153.758 64.0348 148.533 62.0438Z" fill="white"/>
<path d="M134.212 68.8581C134.109 68.8581 134.006 68.8238 133.903 68.7723C127.475 65.8374 121.443 68.0686 121.374 68.1029C120.927 68.2745 120.429 68.0514 120.257 67.6052C120.085 67.1589 120.308 66.6612 120.755 66.4896C121.03 66.3866 127.544 63.9665 134.624 67.2104C135.054 67.4164 135.243 67.9313 135.054 68.3604C134.882 68.6865 134.556 68.8753 134.212 68.8581Z" fill="white"/>
<path d="M166.968 85.5571C160.849 83.2229 157.773 76.3575 160.11 70.2474C162.448 64.1372 169.322 61.065 175.44 63.3992C181.558 65.7334 184.635 72.5988 182.298 78.7089C179.977 84.8191 173.086 87.8913 166.968 85.5571ZM174.839 65.0126C169.614 63.0216 163.737 65.6476 161.743 70.8653C159.75 76.0829 162.379 81.9528 167.604 83.9437C172.828 85.9347 178.706 83.3087 180.699 78.091C182.693 72.8734 180.063 67.0035 174.839 65.0126Z" fill="white"/>
<path d="M155.471 70.7106C155.334 70.642 155.231 70.539 155.145 70.4017C154.887 69.9898 155.007 69.4577 155.42 69.2003C155.54 69.1316 158.427 67.3638 161.435 69.6637C161.813 69.9555 161.882 70.5047 161.589 70.8823C161.297 71.2599 160.747 71.3285 160.369 71.0367C158.307 69.4577 156.348 70.6592 156.331 70.6592C156.056 70.8479 155.729 70.848 155.471 70.7106Z" fill="white"/>
<path d="M161.831 30.8743C169.049 34.1182 174.721 40.1253 177.247 47.6086C178.828 52.2941 180.151 58.4901 173.552 57.6834C155.541 55.5037 145.9 36.83 145.9 36.83C145.9 36.83 142.394 54.0276 128.25 51.9337C114.106 49.8226 114.553 39.1814 122.596 33.157C129.143 28.2311 145.831 23.6657 161.831 30.8743Z" fill="#39393B"/>
<path d="M128.804 49.9433C128.804 49.9433 120.761 58.5765 123.648 67.8619C126.535 77.1472 126.724 84.5961 123.717 89.5906C123.717 89.5906 122.943 79.8075 119.351 72.393C116.413 66.3 113.663 61.6659 115.794 54.6461C117.255 49.8404 120.778 45.2063 128.804 49.9433Z" fill="#39393B"/>
<path d="M115.719 92.0787C109.481 93.589 104.652 92.7137 101.077 90.4653C100.51 90.1049 99.977 89.7101 99.4614 89.2982C91.9684 83.0336 91.4184 70.0409 96.007 63.6733C97.6225 61.4249 99.4958 59.9146 101.472 58.9534C102.074 58.6445 102.675 58.4042 103.277 58.2154C111.028 55.6752 119.431 60.3265 119.431 60.3265C128.231 84.4581 115.719 92.0787 115.719 92.0787Z" fill="#21B573"/>
<path d="M137.676 102.633C119.442 98.909 111.691 85.7962 111.33 85.1611C111.038 84.6634 111.21 84.0112 111.725 83.7194C112.224 83.4276 112.877 83.5993 113.169 84.1142C113.289 84.3201 122.759 100.213 144.86 101.415C145.444 101.449 145.891 101.947 145.857 102.53C145.822 103.114 145.324 103.56 144.74 103.526C142.231 103.389 139.876 103.08 137.676 102.633Z" fill="white"/>
<path d="M150.651 103.253C150.273 105.072 148.485 106.256 146.664 105.879C144.842 105.501 143.656 103.716 144.034 101.897C144.412 100.077 146.2 98.893 148.021 99.2706C149.843 99.6482 151.029 101.416 150.651 103.253Z" fill="#243434"/>
<path d="M101.068 90.4665C100.501 90.106 99.9682 89.7113 99.4526 89.2994C105.227 76.2552 103.268 64.8588 101.446 58.9546C102.048 58.6456 102.649 58.4053 103.251 58.2166C105.21 64.464 107.324 76.6328 101.068 90.4665Z" fill="#217C58"/>
<path d="M175.112 42.7181C173.583 39.8518 171.881 37.9467 171.039 37.0027C170.335 34.9603 169.578 33.038 168.444 31.253C164.629 25.2115 158.597 21.5042 150.485 20.2513C141.737 18.8954 134.141 20.6289 127.92 25.3831C125.978 26.8592 124.259 28.5927 122.712 30.4463C120.581 33.038 118.811 35.9043 117.368 38.7705C112.349 48.7939 111.146 59.0919 111.129 59.2292L108.74 58.9718C108.843 57.9935 111.542 34.8573 126.442 23.4608C133.196 18.2947 141.411 16.4067 150.846 17.8656C159.679 19.2215 166.279 23.3064 170.472 29.9657C172.93 33.8103 174.356 38.2213 175.112 42.7181Z" fill="white"/>
<path d="M84.4248 306.843L76.1068 291.053C74.0273 287.123 76.9317 282.403 81.3829 282.437L212.048 283.845L208.198 304.063L84.4248 306.843Z" fill="#39393B"/>
<path d="M205.927 302.399H88.9942C86.1757 302.399 84.1306 300.116 84.4571 297.301L92.4314 225.147C92.7407 222.332 95.2843 220.049 98.1028 220.049H215.036C217.854 220.049 219.9 222.332 219.573 225.147L211.599 297.301C211.289 300.116 208.746 302.399 205.927 302.399Z" fill="#39393B"/>
<path d="M87.2591 305.505C87.2247 305.505 87.1732 305.505 87.1388 305.505C86.606 305.436 86.2108 304.939 86.2795 304.407L95.9896 227.137C96.0583 226.605 96.5567 226.21 97.0895 226.279C97.6222 226.348 98.0175 226.845 97.9488 227.377L88.2387 304.647C88.17 305.145 87.7403 305.505 87.2591 305.505Z" fill="#564C54"/>
<path d="M144.141 262.51C143.695 268.311 147.974 273.306 153.68 273.666C159.403 274.027 164.404 269.633 164.85 263.832C165.297 258.031 161.018 253.036 155.312 252.676C149.589 252.315 144.588 256.709 144.141 262.51Z" fill="#585859"/>
<path d="M206.503 308.68H87.954C85.3418 308.68 83.3482 306.38 83.6919 303.805L84.8262 295.55H212.054L210.765 304.955C210.473 307.1 208.651 308.68 206.503 308.68Z" fill="#39393B"/>
<path d="M120.579 285.389L119.72 289.509H123.621L123.192 294.4H118.672L117.727 298.88H112.554L113.499 294.4H110.302L109.357 298.88H104.184L105.129 294.4H101.228L101.658 289.509H106.178L107.037 285.389H103.136L103.565 280.481H108.085L109.03 276.001H114.203L113.258 280.481H116.455L117.4 276.001H122.573L121.628 280.481H125.529L125.099 285.372L120.579 285.389ZM115.424 285.389H112.227L111.368 289.509H114.564L115.424 285.389Z" fill="#EBB12B"/>
</svg>
