<svg width="1369" height="1207" viewBox="0 0 1369 1207" fill="none" xmlns="http://www.w3.org/2000/svg">
<path d="M35.5 1101L40.7715 1131.23L71 1136.5L40.7715 1141.77L35.5 1172L30.2285 1141.77L0 1136.5L30.2285 1131.23L35.5 1101Z" fill="#21B573"/>
<g clip-path="url(#clip0_156_34)">
<path d="M1122.47 664L1120 696L1117.53 664H1122.47Z" fill="#21B573"/>
<path d="M1106.14 667.052L1120 696L1101.86 669.524L1106.14 667.052Z" fill="#21B573"/>
<path d="M1093.52 677.86L1120 696L1091.05 682.141L1093.52 677.86Z" fill="#21B573"/>
<path d="M1088 693.53L1120 696L1088 698.472V693.53Z" fill="#21B573"/>
<path d="M1091.05 709.86L1120 696L1093.52 714.14L1091.05 709.86Z" fill="#21B573"/>
<path d="M1101.86 722.478L1120 696L1106.14 724.948L1101.86 722.478Z" fill="#21B573"/>
<path d="M1117.53 728L1120 696L1122.47 728H1117.53Z" fill="#21B573"/>
<path d="M1133.86 724.948L1120 696L1138.14 722.478L1133.86 724.948Z" fill="#21B573"/>
<path d="M1146.48 714.14L1120 696L1148.95 709.86L1146.48 714.14Z" fill="#21B573"/>
<path d="M1152 698.472L1120 696L1152 693.53V698.472Z" fill="#21B573"/>
<path d="M1148.95 682.141L1120 696L1146.48 677.86L1148.95 682.141Z" fill="#21B573"/>
<path d="M1138.14 669.524L1120 696L1133.86 667.052L1138.14 669.524Z" fill="#21B573"/>
</g>
<path d="M221.585 713.905L194.088 710.24C192.787 710.073 191.852 708.874 192.019 707.541L195.69 680.085C195.857 678.786 197.058 677.853 198.393 678.019L225.89 681.684C227.191 681.851 228.125 683.051 227.959 684.383L224.288 711.839C224.121 713.139 222.92 714.072 221.585 713.905ZM197.125 705.808L219.85 708.84L222.886 686.149L200.162 683.117L197.125 705.808Z" fill="#FFD054" fill-opacity="0.5"/>
<line x1="599" y1="896.25" x2="723" y2="896.25" stroke="#D9ECFF" stroke-width="1.5"/>
<g clip-path="url(#clip1_156_34)">
<path d="M1237.49 71C1255.99 71 1270.99 56.0767 1270.99 37.6678C1270.99 19.259 1255.99 4.33569 1237.49 4.33569C1219 4.33569 1204 19.259 1204 37.6678C1204 56.0767 1219 71 1237.49 71Z" fill="#CED3E6"/>
<path d="M1237.49 66.6643C1255.99 66.6643 1270.99 51.741 1270.99 33.3322C1270.99 14.9233 1255.99 0 1237.49 0C1219 0 1204 14.9233 1204 33.3322C1204 51.741 1219 66.6643 1237.49 66.6643Z" fill="#21B573"/>
<path d="M1237.49 60.424C1252.54 60.424 1264.73 48.2946 1264.73 33.3323C1264.73 18.3699 1252.54 6.24048 1237.49 6.24048C1222.45 6.24048 1210.26 18.3699 1210.26 33.3323C1210.26 48.2946 1222.45 60.424 1237.49 60.424Z" fill="white"/>
<path d="M1264.73 33.3323C1264.73 34.059 1264.71 34.7733 1264.64 35.475C1263.55 21.5282 1251.78 10.5135 1237.49 10.5135C1223.2 10.5135 1211.45 21.5282 1210.34 35.475C1210.29 34.7733 1210.26 34.059 1210.26 33.3323C1210.26 18.3954 1222.47 6.24048 1237.49 6.24048C1252.52 6.24048 1264.73 18.3829 1264.73 33.3323Z" fill="#CED3E6"/>
<path d="M1237.49 36.1515C1237.28 36.1515 1237.08 36.0512 1236.95 35.8758L1223.59 17.9817C1223.37 17.681 1223.43 17.2549 1223.73 17.0294C1224.02 16.8038 1224.46 16.8665 1224.68 17.1672L1237.72 34.6353L1252.53 28.1693C1252.88 28.0189 1253.28 28.1693 1253.43 28.5202C1253.58 28.8585 1253.43 29.2595 1253.08 29.4099L1237.77 36.0888C1237.68 36.1264 1237.59 36.1515 1237.49 36.1515Z" fill="#39393B"/>
</g>
<ellipse cx="1307" cy="1146" rx="62" ry="61" fill="#38C4E5" fill-opacity="0.2"/>
<path d="M649.5 636L654.771 666.229L685 671.5L654.771 676.771L649.5 707L644.229 676.771L614 671.5L644.229 666.229L649.5 636Z" fill="#FAB437"/>
<path d="M733 374C790.121 363.471 922.091 346.953 993 365.116" stroke="#EFA02A" stroke-width="7" stroke-linecap="round"/>
<defs>
<clipPath id="clip0_156_34">
<rect width="64" height="64" fill="white" transform="translate(1088 664)"/>
</clipPath>
<clipPath id="clip1_156_34">
<rect width="67" height="71" fill="white" transform="translate(1204)"/>
</clipPath>
</defs>
</svg>
