<svg  width="85" height="85" viewBox="0 -12 75 75" fill="none" xmlns="http://www.w3.org/2000/svg">
<path d="M34.5 23C39.9625 23 44.5625 26.7375 45.7125 31.9125C46 33.35 47.725 34.5 49.1625 33.925C50.6 33.6375 51.75 31.9125 51.175 30.475C49.45 22.425 42.55 17.25 34.5 17.25C25.0125 17.25 17.25 25.0125 17.25 34.5C17.25 43.4125 24.15 50.8875 33.0625 51.75H33.35C34.7875 51.75 35.9375 50.6 36.225 49.1625C36.5125 47.725 35.075 46.2875 33.6375 46C27.8875 45.425 23 40.25 23 34.5C23 28.175 28.175 23 34.5 23Z" fill="#364C65"/>
<path d="M34.5 57.5C21.85 57.5 11.5 47.15 11.5 34.5C11.5 21.85 21.85 11.5 34.5 11.5C46.575 11.5 56.6375 20.9875 57.5 33.0625C57.5 34.7875 58.9375 35.9375 60.6625 35.65C62.3875 35.65 63.5375 34.2125 63.25 32.4875C62.1 17.5375 49.7375 5.75 34.5 5.75C18.6875 5.75 5.75 18.6875 5.75 34.5C5.75 50.3125 18.6875 63.25 34.5 63.25C36.225 63.25 37.375 62.1 37.375 60.375C37.375 58.65 36.225 57.5 34.5 57.5Z" fill="#364C65"/>
<path d="M61.2375 41.6875C60.95 41.4 60.375 41.1125 60.0875 41.1125L41.4 34.7875C39.675 34.2125 37.6625 34.7875 36.225 36.225C34.7875 37.6625 34.5 39.675 35.3625 41.4L43.9875 60.375C44.85 62.1 46.575 63.25 48.3 63.25C48.5875 63.25 48.875 63.25 49.1625 63.25C51.4625 62.9625 52.9 61.2375 53.1875 58.9375L54.05 52.0375L59.8 50.3125C61.525 49.7375 62.9625 48.3 63.25 46.2875C63.5375 44.5625 62.675 42.55 61.2375 41.6875ZM52.0375 46.575C50.025 47.15 48.875 48.5875 48.5875 50.6L48.0125 54.9125L41.6875 40.825L55.4875 45.425L52.0375 46.575Z" fill="#364C65"/>
</svg>
