<svg width="314" height="403" viewBox="0 0 314 403" fill="none" xmlns="http://www.w3.org/2000/svg">
<g clip-path="url(#clip0_0_2975)">
<path d="M271.715 167.063C271.715 167.063 275.974 180.803 286.649 181.894C295.272 182.759 302.015 173.622 304.291 170.074C304.843 169.226 305.119 168.707 305.119 168.707C305.119 168.707 305.74 168.69 306.671 168.534C308.844 168.205 312.638 167.219 313.776 164.312C315.397 160.193 307.188 158.67 307.188 158.67C307.188 158.67 310.706 154.5 309.344 152.025C307.999 149.585 302.515 149.81 302.515 149.81C302.515 149.81 307.792 145.207 305.395 142.178C301.773 137.627 296.531 143.926 296.082 144.29C296.41 143.805 309.947 123.143 305.636 122.312C301.877 121.585 289.408 138.267 286.08 142.836C285.546 143.563 285.252 143.978 285.252 143.978C285.252 143.978 284.994 143.84 284.545 143.615C282.424 142.576 275.957 139.929 272.594 143.649C268.542 148.131 271.715 167.063 271.715 167.063Z" fill="#EA9B7A"/>
<path d="M298.031 161.197C296.41 162.495 295.065 164.121 294.754 165.627C294.565 166.596 294.789 167.444 295.427 168.084C295.858 168.534 296.548 168.88 297.376 169.14C299.445 169.815 302.342 170.005 304.291 170.057C304.843 169.209 305.119 168.69 305.119 168.69C305.119 168.69 305.757 168.672 306.671 168.517C306.533 168.43 306.378 168.396 306.222 168.396C303.136 168.465 297.79 168.119 296.582 166.907C296.427 166.752 296.255 166.492 296.358 165.956C296.703 164.312 299.359 161.82 301.825 160.833C302.222 160.678 302.429 160.262 302.325 159.847C302.222 159.432 301.808 159.172 301.394 159.241C299.376 159.57 293.754 160.003 291.995 158.22C291.737 157.961 291.771 157.805 291.788 157.718C291.874 157.32 292.288 156.87 292.875 156.403C294.082 155.451 296.031 154.465 297.479 153.894C297.652 153.825 297.772 153.721 297.859 153.582C298.014 153.358 298.048 153.081 297.945 152.821C297.772 152.388 297.307 152.181 296.876 152.354C296.237 152.613 293.978 153.531 292.237 154.811C291.616 155.278 291.047 155.78 290.667 156.334C290.426 156.68 290.253 157.026 290.167 157.39C290.064 157.909 290.081 158.67 290.823 159.414C292.375 160.954 295.513 161.249 298.031 161.197Z" fill="#D46A43"/>
<path d="M290.012 149.135C290.253 149.377 290.34 149.723 290.202 150.052C289.788 151.056 289.564 151.99 289.667 152.665C289.753 153.202 289.995 153.392 290.202 153.479C290.529 153.634 291.029 153.686 291.633 153.669C293.133 153.617 295.306 153.063 297.255 152.44C297.169 152.579 297.031 152.683 296.876 152.752C295.427 153.323 293.478 154.309 292.271 155.261C292.081 155.278 291.874 155.296 291.685 155.296C291.081 155.313 290.529 155.278 290.064 155.174C289.857 155.123 289.667 155.053 289.495 154.984C288.667 154.603 288.167 153.877 288.029 152.908C287.874 151.887 288.15 150.641 288.667 149.395C288.891 148.858 289.564 148.737 289.977 149.118C289.995 149.118 289.995 149.135 290.012 149.135Z" fill="#D46A43"/>
<path d="M275.216 151.904C275.388 152.025 278.096 153.79 281.096 154.777C282.769 155.313 284.528 155.624 285.994 155.244C287.218 154.95 288.132 154.24 288.719 153.15C290.823 149.291 287.977 145.016 286.08 142.819C285.546 143.546 285.252 143.961 285.252 143.961C285.252 143.961 284.994 143.822 284.545 143.597C286.166 145.397 288.977 149.204 287.27 152.337C286.908 153.011 286.356 153.427 285.597 153.617C282.752 154.327 277.785 151.61 276.112 150.502C275.733 150.243 275.216 150.346 274.974 150.744C274.733 151.125 274.836 151.644 275.216 151.904Z" fill="#D46A43"/>
<path d="M283.683 174.193C283.959 174.279 284.269 174.227 284.494 174.02C284.838 173.708 284.856 173.189 284.563 172.843C282.924 171.009 282.217 168.984 282.459 166.855C283.079 161.387 289.598 156.767 289.667 156.715C290.047 156.455 290.133 155.936 289.874 155.555C289.615 155.175 289.098 155.088 288.719 155.348C288.425 155.555 281.527 160.453 280.803 166.648C280.493 169.278 281.355 171.718 283.321 173.933C283.424 174.072 283.545 174.141 283.683 174.193Z" fill="#D46A43"/>
<path d="M180.557 106.063L188.955 127.383C190.214 130.947 191.49 134.512 192.784 138.06C194.06 141.607 195.353 145.138 196.664 148.65C197.992 152.163 199.285 155.659 200.613 159.103C201.941 162.546 203.321 165.956 204.7 169.261C206.063 172.566 207.477 175.802 208.873 178.692C209.563 180.128 210.27 181.461 210.857 182.516L211.253 183.209L211.409 183.486C211.443 183.555 211.443 183.555 211.46 183.607C211.512 183.745 211.529 183.832 211.546 183.901C211.564 184.039 211.512 184.126 211.581 184.247C211.633 184.385 211.84 184.558 212.271 184.766C213.15 185.164 215.047 185.441 217.427 185.337C219.824 185.233 222.652 184.749 225.601 183.987C228.55 183.226 231.672 182.24 234.81 181.046C241.087 178.657 247.52 175.629 253.866 172.237C260.23 168.863 264.903 166.146 271.094 162.27C273.077 171.476 279.561 178.917 288.96 182.465C282.941 187.968 276.63 193.073 269.99 197.935C263.316 202.763 256.315 207.332 248.606 211.364C244.743 213.371 240.725 215.292 236.362 216.936C231.999 218.58 227.36 220.017 222.118 220.916C219.497 221.366 216.72 221.678 213.754 221.73C210.788 221.764 207.632 221.574 204.321 220.934C201.01 220.293 197.543 219.203 194.198 217.542C190.852 215.898 187.662 213.666 184.937 211.104C183.575 209.824 182.333 208.474 181.195 207.09L180.384 206.051L179.712 205.151C179.488 204.84 179.298 204.563 179.091 204.286C178.901 204.009 178.677 203.698 178.505 203.438C177.022 201.241 175.797 199.233 174.659 197.26C172.4 193.349 170.486 189.629 168.623 185.926C166.795 182.222 165.088 178.554 163.432 174.885C161.777 171.234 160.173 167.582 158.638 163.914C157.103 160.262 155.586 156.611 154.103 152.942C152.637 149.273 151.206 145.622 149.809 141.953C148.429 138.285 147.05 134.599 145.704 130.913L143.721 125.358L142.756 122.554C142.428 121.603 142.117 120.703 141.79 119.699L180.557 106.063Z" fill="#21B573"/>
<path d="M203.424 194.751C203.752 194.751 204.062 194.613 204.269 194.318C204.303 194.267 208.356 188.885 211.874 186.358C212.357 186.012 212.46 185.354 212.116 184.87C211.771 184.385 211.115 184.282 210.632 184.628C206.838 187.345 202.734 192.813 202.562 193.038C202.217 193.505 202.303 194.18 202.769 194.526C202.976 194.682 203.2 194.751 203.424 194.751Z" fill="#217C58"/>
<path d="M210.632 195.824C210.701 195.824 210.788 195.824 210.857 195.807C211.426 195.686 211.788 195.114 211.667 194.543C211.65 194.492 210.684 189.975 211.65 186.566C211.805 185.995 211.477 185.406 210.926 185.251C210.356 185.095 209.77 185.424 209.615 185.977C208.494 189.906 209.546 194.803 209.598 195.011C209.701 195.478 210.132 195.824 210.632 195.824Z" fill="#217C58"/>
<path d="M200.785 309.449C181.16 320.784 133.719 326.616 102.781 314.294C91.4339 309.778 89.4334 306.992 90.2957 286.537C90.3302 285.776 90.3647 285.014 90.3992 284.253C90.4854 282.643 90.5888 281.034 90.7096 279.442C90.7613 278.663 90.8303 277.902 90.882 277.14C91.1062 274.285 91.3821 271.482 91.6925 268.799C91.7788 268.055 91.865 267.328 91.934 266.602C92.641 260.614 93.7792 255.232 94.8139 251.062C95.0036 250.318 95.1933 249.591 95.3658 248.933C96.4695 244.849 97.349 242.392 97.349 242.392C102.333 243.205 107.472 243.672 112.645 243.88C113.37 243.915 114.111 243.932 114.836 243.949C141.6 244.659 168.83 238.585 181.454 235.279C182.212 235.089 182.919 234.899 183.575 234.708C186.851 233.826 188.714 233.255 188.714 233.255C188.714 233.255 189.869 235.279 191.49 238.637C191.783 239.26 192.111 239.917 192.422 240.627C194.991 246.164 198.268 254.194 200.13 262.57C200.165 262.673 200.182 262.777 200.199 262.881C200.354 263.608 200.51 264.335 200.665 265.061C200.699 265.2 200.734 265.356 200.751 265.494C202.027 271.568 203.2 277.954 203.993 284.045C204.097 284.824 204.183 285.603 204.286 286.381C205.856 299.775 206.097 306.386 200.785 309.449Z" fill="#39393B"/>
<path d="M200.786 265.511C200.734 265.494 200.682 265.459 200.648 265.442C196.664 263.262 193.146 259.956 190.128 255.578C189.714 254.99 189.317 254.367 188.921 253.727C185.886 248.777 183.385 242.617 181.471 235.297C182.23 235.106 182.937 234.916 183.592 234.726C185.472 241.959 187.921 247.981 190.904 252.758C191.301 253.398 191.715 254.004 192.128 254.609C194.491 258.001 197.181 260.666 200.165 262.587C200.199 262.691 200.216 262.794 200.234 262.898C200.389 263.625 200.544 264.352 200.699 265.079C200.717 265.217 200.751 265.356 200.786 265.511Z" fill="#585859"/>
<path d="M114.853 243.949C113.991 251.667 112.266 258.191 109.748 263.504C109.421 264.196 109.076 264.888 108.696 265.529C106.627 269.284 104.092 272.347 101.108 274.7C97.4525 277.573 93.7275 278.871 90.7096 279.425C90.7613 278.646 90.8303 277.885 90.8821 277.123C93.5206 276.569 96.6937 275.375 99.7978 272.935C102.385 270.911 104.592 268.28 106.437 265.096C106.817 264.439 107.179 263.764 107.524 263.071C110.076 257.932 111.783 251.529 112.68 243.863C113.387 243.915 114.111 243.932 114.853 243.949Z" fill="#585859"/>
<path d="M192.439 240.644C190.921 241.319 189.3 242.011 187.558 242.721C186.886 242.998 186.196 243.274 185.489 243.551C175.383 247.514 162.156 251.581 147.877 253.052C147.325 253.104 146.774 253.156 146.239 253.208C133.288 254.402 120.095 253.848 109.231 252.827C108.455 252.758 107.679 252.688 106.937 252.602C102.35 252.135 98.2285 251.598 94.814 251.079C95.0037 250.335 95.1934 249.608 95.3658 248.95C98.8838 249.47 103.109 250.023 107.834 250.508C108.576 250.577 109.334 250.646 110.093 250.716C121.165 251.719 134.599 252.221 147.653 250.871C161.587 249.435 174.504 245.472 184.42 241.613C185.127 241.336 185.799 241.059 186.472 240.8C188.266 240.073 189.938 239.363 191.49 238.671C191.801 239.277 192.111 239.935 192.439 240.644Z" fill="#585859"/>
<path d="M222.911 403C220.048 358.595 213.547 317.427 204.028 284.062L151.413 308.653C153.051 349.06 161.139 377.06 170.451 403H222.911Z" fill="#39393B"/>
<path d="M178.953 403C163.691 359.305 161.018 323.552 160.984 323.085C160.932 322.48 160.415 322.03 159.811 322.064C159.207 322.099 158.742 322.635 158.793 323.241C158.828 323.691 161.501 359.322 176.642 403H178.953Z" fill="#585859"/>
<path d="M140.945 403C144.187 371.453 147.929 332.707 148.412 317.703L90.2957 286.52C90.2957 286.52 80.0521 321.995 86.7777 402.983H140.945V403Z" fill="#39393B"/>
<path d="M135.633 403L145.377 322.22C145.463 321.528 144.98 320.905 144.29 320.836C143.601 320.749 142.98 321.234 142.911 321.926L133.133 403H135.633Z" fill="#585859"/>
<path d="M153.465 310.557C153.534 311.162 154.086 311.578 154.672 311.526C155.275 311.456 155.707 310.903 155.638 310.297C155.155 306.196 154.689 301.991 154.241 297.803C154.155 297.059 154.086 296.332 154.017 295.588C152.585 281.847 151.447 268.332 150.688 258.762C150.637 257.984 150.568 257.24 150.516 256.513C150.343 254.419 150.205 252.55 150.085 250.975C149.343 250.975 148.619 250.993 147.877 250.993C147.998 252.567 148.136 254.454 148.308 256.565C148.36 257.292 148.429 258.036 148.481 258.814C149.24 268.298 150.378 281.692 151.792 295.345C151.861 296.107 151.947 296.851 152.016 297.612C152.482 301.939 152.965 306.299 153.465 310.557Z" fill="#585859"/>
<path d="M147.998 296.747C148.36 296.851 149.998 297.335 152.033 297.595C152.74 297.699 153.499 297.768 154.258 297.785C154.965 297.803 155.655 297.785 156.345 297.716C157.673 297.56 158.897 297.214 159.863 296.505C161.07 295.622 161.725 294.29 161.742 292.646C161.829 288.319 160.587 270.72 159.638 258.295C159.587 257.534 159.535 256.79 159.466 256.063C159.311 254.073 159.173 252.273 159.052 250.733C158.328 250.768 157.586 250.802 156.862 250.819C156.983 252.36 157.121 254.194 157.276 256.219C157.328 256.945 157.379 257.69 157.448 258.451C158.38 270.859 159.621 288.423 159.535 292.611C159.518 293.58 159.207 294.255 158.552 294.74C157.5 295.501 155.776 295.674 153.999 295.588C153.241 295.553 152.482 295.466 151.775 295.345C150.464 295.138 149.309 294.861 148.602 294.653C148.015 294.48 147.412 294.809 147.239 295.397C147.084 295.951 147.412 296.574 147.998 296.747Z" fill="#585859"/>
<path d="M81.7766 123.956L165.657 121.793C163.053 118.142 163.295 83.2546 162.139 76.0557C160.932 68.6145 161.863 53.8879 162.967 41.8436C165.105 18.7241 146.394 -1.0902 123.286 0.0519313C122.941 0.0692364 122.596 0.0865414 122.234 0.103846C86.9674 2.3535 84.3806 32.672 87.6572 51.0326C90.6579 67.7493 92.7618 113.296 81.7766 123.956Z" fill="#39393B"/>
<path d="M99.9874 233.272L106.748 261.739C123.648 260.389 143.635 257.932 158.69 250.127C158.69 250.127 178.746 256.894 188.921 253.744L181.471 233.29H99.9874V233.272Z" fill="white"/>
<path d="M199.268 254.35C179.781 254.211 168.089 251.685 157.466 242.946C137.53 263.729 88.2952 264.525 88.2952 264.525C93.2273 248.57 94.8311 220.345 94.8311 220.345C94.4345 217.421 94.2275 214.375 93.9171 211.277C93.6067 208.197 93.1928 205.065 92.3995 201.985C87.5364 187.916 81.8627 177.827 76.8099 163.273C76.4822 162.321 76.1546 161.387 75.8097 160.452C75.5855 159.83 75.3613 159.224 75.1371 158.618C73.4816 154.067 71.6881 149.533 69.8256 145.172C61.6686 126.119 60.358 104.626 79.9658 98.0678C81.3971 97.6006 82.794 97.1333 84.1563 96.7007C93.4342 93.7588 101.16 91.8207 103.316 91.3015C103.712 91.215 103.902 91.1631 103.902 91.1631L145.066 94.5895L148.981 94.9183C154.741 95.5586 160.828 95.4028 164.674 96.2508C168.054 96.9949 170.106 96.8218 173.555 97.8428C181.661 100.248 181.436 111.202 183.954 124.804C183.989 125.029 184.04 125.271 184.075 125.514C184.092 125.583 184.109 125.669 184.127 125.739C184.575 128.057 185.092 130.342 185.696 132.609C186.368 135.135 187.11 137.644 187.886 140.067C192.628 155.001 198.354 161.854 197.371 171.268C196.474 179.782 187.834 191.394 185.541 193.869C185.006 194.44 184.696 194.751 184.696 194.751C184.696 194.786 184.713 194.838 184.713 194.89C184.747 195.218 184.782 195.582 184.834 195.962C185.006 197.399 185.265 199.095 185.575 201.033C186.282 208.214 187.3 214.738 188.438 220.536C189.059 223.668 189.714 226.592 190.404 229.292C194.525 245.645 199.268 254.35 199.268 254.35Z" fill="#21B573"/>
<path d="M190.404 229.24C184.834 232.199 180.333 234.172 180.333 234.172L176.177 226.316C180.16 224.879 184.42 222.751 188.438 220.466C189.352 222.924 190.197 225.398 190.404 229.24Z" fill="#217C58"/>
<path d="M100.591 221.885C100.591 221.885 119.319 229.863 133.184 231.213L131.063 239.848C131.063 239.848 108.351 236.093 99.2631 229.586L100.591 221.885Z" fill="#217C58"/>
<path d="M188.058 192.588C188.334 192.588 188.61 192.484 188.834 192.259C189.335 191.723 201.234 178.986 197.095 167.375C195.939 164.156 194.612 160.885 193.18 157.441C188.869 146.955 183.989 135.083 182.747 119.682C182.695 119.093 182.178 118.661 181.609 118.713C181.022 118.765 180.591 119.266 180.643 119.855C181.919 135.585 186.869 147.629 191.232 158.255C192.646 161.681 193.974 164.917 195.112 168.101C198.819 178.484 187.438 190.684 187.317 190.806C186.92 191.238 186.937 191.896 187.351 192.311C187.524 192.484 187.8 192.588 188.058 192.588Z" fill="#217C58"/>
<path d="M153.482 147.197C153.482 148.477 152.447 149.516 151.171 149.516C149.895 149.516 148.86 148.477 148.86 147.197C148.86 145.916 149.895 144.878 151.171 144.878C152.447 144.878 153.482 145.916 153.482 147.197Z" fill="#217C58"/>
<path d="M156.914 167.721C156.914 169.001 155.879 170.039 154.603 170.039C153.327 170.039 152.292 169.001 152.292 167.721C152.292 166.44 153.327 165.402 154.603 165.402C155.879 165.402 156.914 166.44 156.914 167.721Z" fill="#217C58"/>
<path d="M158.983 188.608C158.983 189.888 157.948 190.927 156.672 190.927C155.396 190.927 154.361 189.888 154.361 188.608C154.361 187.327 155.396 186.289 156.672 186.289C157.948 186.289 158.983 187.327 158.983 188.608Z" fill="#217C58"/>
<path d="M159.863 210.066C159.863 211.347 158.828 212.385 157.552 212.385C156.276 212.385 155.241 211.347 155.241 210.066C155.241 208.785 156.276 207.747 157.552 207.747C158.828 207.747 159.863 208.785 159.863 210.066Z" fill="#217C58"/>
<path d="M159.759 232.407C159.759 233.687 158.724 234.726 157.448 234.726C156.172 234.726 155.137 233.687 155.137 232.407C155.137 231.126 156.172 230.088 157.448 230.088C158.724 230.088 159.759 231.126 159.759 232.407Z" fill="#217C58"/>
<path d="M140.324 94.5376C140.324 94.5376 149.257 93.7242 155.534 95.4028L154.862 118.955L149.516 120.114L154.017 124.562L148.619 140.379C148.619 140.361 141.238 114.058 140.324 94.5376Z" fill="#217C58"/>
<path d="M103.902 91.1631L87.5536 95.6451L106.765 121.257L121.164 120.097L116.112 131.155L148.636 140.361C148.636 140.361 110.973 104.471 107.955 91.4919L103.902 91.1631Z" fill="#217C58"/>
<path d="M106.748 93.084C106.748 93.084 116.146 113.158 148.619 140.361C148.619 140.361 146.877 118.955 140.341 96.0085C140.341 96.0085 121.233 102.688 106.748 93.084Z" fill="white"/>
<path d="M153.154 157.164C142.462 157.164 120.63 141.798 119.699 141.14C119.302 140.863 119.216 140.309 119.492 139.911C119.768 139.513 120.319 139.427 120.716 139.704C120.94 139.859 143.014 155.417 153.154 155.417C162.863 155.417 165.002 144.774 165.036 144.67C165.122 144.186 165.588 143.874 166.071 143.978C166.554 144.065 166.864 144.532 166.761 145.016C166.726 145.12 164.277 157.164 153.154 157.164Z" fill="#217C58"/>
<path d="M140.324 94.5375L140.755 100.11C141.583 110.475 134.219 113.417 123.527 107.932C115.077 103.588 107.903 97.116 106.73 93.1012L140.324 94.5375Z" fill="#EA9B7A"/>
<path d="M125.01 200.427C125.183 200.739 125.51 200.912 125.838 200.912C125.993 200.912 126.166 200.877 126.303 200.791C126.459 200.704 141.91 191.965 160.777 195.668C170.365 197.537 178.505 197.347 184.834 195.928C184.782 195.547 184.747 195.201 184.713 194.855C184.713 194.803 184.696 194.768 184.696 194.716C184.696 194.716 185.006 194.405 185.541 193.851C179.35 195.426 171.072 195.738 161.139 193.782C141.548 189.94 126.01 198.749 125.355 199.129C124.907 199.389 124.751 199.977 125.01 200.427Z" fill="#217C58"/>
<path d="M157.966 25.3346C157.966 25.3346 162.708 44.0414 159.673 47.2947C156.638 50.5654 152.137 43.5568 152.137 43.5568C152.137 43.5568 154.361 26.0787 157.966 25.3346Z" fill="#39393B"/>
<path d="M152.74 50.0981C152.74 50.0981 157.655 44.2836 160.432 50.0981C163.208 55.9126 161.07 67.6974 153.603 65.7765L152.74 50.0981Z" fill="#D46A43"/>
<path d="M148.429 64.5825C145.704 65.863 143.808 68.6318 143.808 71.8506C143.808 76.2807 147.395 79.8801 151.809 79.8801C156.224 79.8801 159.811 76.2807 159.811 71.8506C159.811 68.6664 157.966 65.9149 155.293 64.6171C154.379 64.1671 153.361 63.8902 152.292 63.8383C152.102 63.3365 151.93 62.8346 151.723 62.3501C151.758 62.3501 151.792 62.3501 151.809 62.3501C153.12 62.3501 154.379 62.627 155.5 63.1115C158.88 64.5651 161.277 67.9396 161.277 71.8506C161.277 77.094 157.035 81.351 151.809 81.351C146.584 81.351 142.342 77.094 142.342 71.8506C142.342 68.3203 144.273 65.24 147.119 63.5961L148.429 64.5825Z" fill="white"/>
<path d="M140.341 79.9666V96.0084C140.341 96.0084 131.908 109.87 106.748 93.0839C111.507 87.7366 111.662 77.4228 109.731 71.2622C109.731 71.2622 111.576 72.5082 114.629 73.8753C115.249 74.1521 115.922 74.4463 116.629 74.7405C122.924 77.4055 132.374 80.5896 140.341 79.9666Z" fill="#EA9B7A"/>
<path d="M140.341 79.9666V87.477C133.495 85.9542 121.509 82.199 114.629 73.8752C115.249 74.1521 115.922 74.4463 116.629 74.7405C122.923 77.4055 132.374 80.5896 140.341 79.9666Z" fill="#39393B"/>
<path d="M154.017 74.7232C140.583 88.6711 110.766 72.0236 109.8 71.4871C109.783 71.4698 109.783 71.4698 109.783 71.4698C109.507 70.2239 109.265 68.9779 109.041 67.7493C107.144 57.3835 107.023 47.7446 108.075 38.5903C107.575 28.934 113.301 19.9527 122.354 16.6301C131.736 13.2037 140.151 17.3397 145.204 18.8971C152.827 21.2506 157.638 31.1491 157.673 45.2527C157.707 62.5404 157.345 71.2449 154.017 74.7232Z" fill="#EA9B7A"/>
<path d="M156.052 29.159C152.947 29.5916 149.757 29.9204 146.48 30.18L144.687 21.5621L144.101 30.353C138.065 30.7684 131.805 30.9241 125.372 30.9241L124.579 21.8563L122.82 30.9241C118.06 30.9068 113.232 30.803 108.369 30.6645C104.471 12.5808 124.01 4.70696 140.445 8.46216C156.862 12.2347 156.052 29.159 156.052 29.159Z" fill="#39393B"/>
<path d="M120.837 25.3346C120.837 25.3346 114.784 33.4334 118.095 40.9611C121.406 48.4888 119.095 55.8607 117.526 61.3464C117.526 61.3464 114.094 49.2329 106.006 46.9832C97.9181 44.7163 102.091 22.5139 120.837 25.3346Z" fill="#39393B"/>
<path d="M142.48 67.109C144.256 67.3859 145.687 66.9013 145.773 66.8667C146.067 66.7629 146.239 66.4341 146.136 66.1399C146.032 65.8457 145.704 65.6727 145.411 65.7765C145.377 65.7938 142.6 66.6937 140.289 64.9978C140.031 64.8074 139.669 64.8593 139.479 65.1189C139.289 65.3785 139.341 65.7419 139.6 65.915C140.565 66.6245 141.566 66.9706 142.48 67.109Z" fill="#D46A43"/>
<path d="M151.016 58.0931C151.016 58.0931 141.669 61.3637 134.65 56.726C134.65 56.726 137.116 63.0596 143.169 63.6653C149.222 64.2537 151.016 58.0931 151.016 58.0931Z" fill="white"/>
<path d="M136.133 32.4297C136.133 32.4297 138.927 32.7066 137.944 35.2677C136.961 37.8289 131.374 35.0081 127.373 39.7324C127.373 39.7324 125.666 33.5891 136.133 32.4297Z" fill="#39393B"/>
<path d="M148.774 32.4297C148.774 32.4297 145.98 32.7066 146.963 35.2677C147.946 37.8289 153.534 35.0081 157.535 39.7324C157.535 39.7324 159.242 33.5891 148.774 32.4297Z" fill="#39393B"/>
<g opacity="0.8">
<path d="M134.616 51.4479C134.616 52.7458 131.943 53.8187 128.632 53.8187C125.321 53.8187 122.648 52.7631 122.648 51.4479C122.648 50.1501 125.321 49.0771 128.632 49.0771C131.943 49.0771 134.616 50.1328 134.616 51.4479Z" fill="#D46A43"/>
</g>
<path d="M159 53.7322C158.535 53.7841 158.052 53.8014 157.552 53.8014C154.241 53.8014 151.568 52.7458 151.568 51.4306C151.568 50.1327 154.241 49.0598 157.552 49.0598C158 49.0598 158.431 49.0771 158.845 49.1117L159 53.7322Z" fill="#D46A43"/>
<path d="M135.306 45.2527C135.306 47.0525 134.495 48.5061 133.495 48.5061C132.495 48.5061 131.684 47.0525 131.684 45.2527C131.684 43.453 132.495 41.9994 133.495 41.9994C134.495 41.9994 135.306 43.453 135.306 45.2527Z" fill="#39393B"/>
<path d="M152.982 45.2527C152.982 47.0525 152.171 48.5061 151.171 48.5061C150.171 48.5061 149.36 47.0525 149.36 45.2527C149.36 43.453 150.171 41.9994 151.171 41.9994C152.171 41.9994 152.982 43.453 152.982 45.2527Z" fill="#39393B"/>
<path d="M146.049 52.0883C146.912 52.0883 147.481 51.9498 147.532 51.9325C147.739 51.8806 147.894 51.7422 147.998 51.5691C148.101 51.3788 148.119 51.1711 148.05 50.9807L145.325 43.1589C145.187 42.7781 144.773 42.5705 144.394 42.7089C144.014 42.8474 143.807 43.2627 143.945 43.6434L146.36 50.6C145.618 50.6346 144.48 50.5654 143.342 49.9424C142.98 49.7521 142.531 49.8905 142.342 50.2366C142.152 50.6 142.29 51.05 142.635 51.2403C143.894 51.9152 145.135 52.0883 146.049 52.0883Z" fill="#39393B"/>
<path d="M115.612 64.2017C115.525 64.4093 113.18 69.8777 109.8 71.4698C109.783 71.4525 109.783 71.4525 109.783 71.4525C109.507 70.2065 109.265 68.9606 109.041 67.7319C109.145 67.7319 112.559 67.1262 115.612 64.2017Z" fill="#39393B"/>
<path d="M112.335 51.7593C112.335 51.7593 105.196 42.1377 99.953 49.7C95.6417 55.9298 103.764 72.5427 112.49 66.4686L112.335 51.7593Z" fill="#EA9B7A"/>
<path d="M104.937 66.5725C102.212 67.8531 100.315 70.6738 100.315 73.8752C100.315 78.3053 103.902 81.9048 108.317 81.9048C112.732 81.9048 116.319 78.3053 116.319 73.8752C116.319 70.6911 114.473 67.9396 111.8 66.6417C110.886 66.1918 109.869 65.9149 108.8 65.863C108.61 65.3611 108.438 64.8593 108.231 64.3748C108.265 64.3748 108.3 64.3748 108.317 64.3748C109.628 64.3748 110.886 64.6516 112.007 65.1362C115.387 66.5898 117.785 69.9643 117.785 73.8752C117.785 79.1187 113.542 83.3757 108.317 83.3757C103.092 83.3757 98.8494 79.1187 98.8494 73.8752C98.8494 70.345 100.833 67.2128 103.678 65.5688C104.075 65.9322 104.489 66.2783 104.937 66.5725Z" fill="white"/>
<path d="M111.352 63.6999C111.387 63.6999 111.404 63.6999 111.438 63.6999C111.835 63.648 112.128 63.2846 112.094 62.8866C111.197 54.7013 104.333 51.8632 104.04 51.7421C103.661 51.5864 103.23 51.7767 103.092 52.1574C102.936 52.5381 103.126 52.9708 103.506 53.1092C103.781 53.213 109.852 55.7569 110.645 63.0423C110.662 63.423 110.99 63.6999 111.352 63.6999Z" fill="#39393B"/>
<path d="M104.506 59.2351C104.661 59.2351 104.833 59.1832 104.971 59.0621C105.609 58.5429 107.541 57.2623 108.817 57.5911C109.214 57.695 109.61 57.4527 109.714 57.0547C109.817 56.6567 109.576 56.2586 109.179 56.1548C106.972 55.5837 104.333 57.6777 104.04 57.9026C103.73 58.1622 103.678 58.6294 103.937 58.9409C104.075 59.1486 104.282 59.2351 104.506 59.2351Z" fill="#39393B"/>
<path d="M55.702 204.165C55.702 204.165 58.0473 209.253 55.3398 220.345C52.6323 231.455 48.0968 238.412 48.0968 238.412C48.0968 238.412 36.7495 221.124 55.702 204.165Z" fill="#217C58"/>
<path d="M5.62199 193.557C5.65648 194.111 5.69097 194.682 5.7427 195.218C5.81168 195.772 5.89791 196.309 5.98414 196.862C6.03587 197.122 6.07036 197.399 6.13934 197.676L6.32904 198.454C6.8119 200.566 7.57069 202.452 8.39846 204.182C8.81234 205.013 9.27796 205.861 9.72634 206.588C9.96777 206.951 10.192 207.332 10.4334 207.695L11.1577 208.716C13.1236 211.399 15.2103 213.406 17.228 215.119C19.2629 216.832 21.2806 218.234 23.2465 219.497C24.2295 220.138 25.2125 220.709 26.1955 221.28C27.1612 221.851 28.1269 222.37 29.0927 222.889C31.0241 223.893 32.9211 224.845 34.8181 225.71C38.612 227.458 42.3714 228.929 46.1309 230.261C49.8731 231.594 53.6325 232.788 57.3575 233.878C61.0997 234.985 64.8246 235.989 68.5668 236.906C72.309 237.823 76.0512 238.654 79.8279 239.45C81.1903 239.727 83.07 239.917 85.036 240.073C88.0366 240.298 91.296 240.471 93.4344 240.834C93.9517 237.72 91.3305 235.21 91.8478 232.095C92.4514 228.461 93.055 224.81 93.7103 221.176L92.21 217.923C89.9336 217.369 87.6572 216.78 85.3636 216.175C85.2947 216.157 85.2257 216.14 85.1567 216.123C81.8284 215.223 78.5345 214.219 75.258 213.146C71.9296 212.073 68.6186 210.914 65.3592 209.685C62.1172 208.457 58.944 207.142 55.8572 205.74C52.7875 204.338 49.7869 202.867 47.0104 201.292C45.6308 200.514 44.2684 199.718 43.0268 198.87C42.4059 198.454 41.7851 198.039 41.216 197.606C40.6469 197.174 40.0951 196.741 39.5777 196.309C38.7844 195.651 38.0601 194.959 37.4738 194.318C37.3014 194.128 37.1462 193.955 36.9909 193.765L36.9737 193.73L37.5083 193.003L38.474 191.688C38.9741 190.996 39.457 190.321 40.0089 189.612C41.0781 188.21 42.1128 186.825 43.1992 185.424L46.493 181.236C48.7349 178.45 50.9595 175.629 53.2531 172.843L54.9604 170.749L56.6849 168.655L59.1165 165.713L60.1512 164.467L61.4101 162.944L63.6347 160.262L67.1527 156.074C69.4808 153.288 71.8262 150.485 74.1888 147.716L88.2781 131.034L88.3643 130.93C94.2966 123.904 93.4344 113.365 86.4328 107.413C79.483 101.512 69.1187 102.325 63.1519 109.178L59.4614 113.435L55.8399 117.692C54.6328 119.111 53.4428 120.547 52.2529 121.966C51.063 123.385 49.8558 124.821 48.6832 126.258C46.3206 129.13 43.958 132.02 41.6126 134.928L38.1119 139.306L37.6463 139.894L34.6284 143.719C33.4729 145.189 32.3175 146.678 31.1793 148.149L29.4548 150.381L28.6788 151.402L27.7475 152.631C25.4712 155.624 23.2121 158.653 20.9702 161.716L17.6246 166.371C16.5209 167.928 15.4172 169.555 14.3136 171.13C13.7617 171.908 13.2099 172.739 12.658 173.587L11.0197 176.079L10.6058 176.702L10.5024 176.858L10.4506 176.944L10.3644 177.065L10.0195 177.619C9.79532 178 9.57113 178.363 9.34694 178.744C9.24347 178.934 9.12276 179.142 9.01928 179.35L8.70887 179.973C8.50193 180.388 8.29499 180.786 8.08805 181.219C7.89835 181.669 7.70865 182.118 7.5362 182.568L7.27752 183.261C7.1913 183.486 7.10507 183.745 7.03609 183.987C6.88088 184.472 6.72568 184.974 6.58772 185.458C6.44975 185.96 6.34628 186.497 6.22557 187.016C6.1221 187.535 6.00138 188.054 5.9324 188.608C5.86342 189.162 5.79444 189.698 5.7427 190.252C5.69097 190.806 5.67372 191.359 5.65648 191.93L5.63923 192.761C5.60474 192.986 5.62199 193.263 5.62199 193.557Z" fill="#EA9B7A"/>
<path d="M78.3621 214.115C78.3621 214.115 75.6719 211.485 72.3608 212.16C72.3608 212.16 64.5315 225.468 68.6014 236.889C68.6014 236.889 70.4121 238.533 74.2233 238.221C74.2061 238.221 70.4121 224.481 78.3621 214.115Z" fill="black"/>
<path d="M63.1691 225.727C63.4105 230.105 67.1527 233.445 71.4985 233.203C75.8615 232.961 79.1898 229.205 78.9484 224.844C78.707 220.466 74.9648 217.126 70.619 217.369C66.256 217.611 62.9277 221.349 63.1691 225.727Z" fill="black"/>
<path d="M71.395 231.213C74.6544 231.022 77.1549 228.219 76.9652 224.966C76.7755 221.695 73.9818 219.186 70.7397 219.376C67.4804 219.566 64.9798 222.37 65.1695 225.623C65.342 228.877 68.1357 231.386 71.395 231.213Z" fill="white"/>
<path d="M85.0187 239.64C88.0193 239.865 91.2786 240.038 93.417 240.402C93.9344 237.287 91.3131 234.778 91.8305 231.663C92.4341 228.029 93.0377 224.377 93.693 220.743L92.1926 217.49C89.9163 216.936 87.6399 216.348 85.3463 215.742C85.2773 215.725 85.2083 215.707 85.1394 215.69C84.2081 220.864 82.7595 231.697 85.0187 239.64Z" fill="#D46A43"/>
<path d="M92.3824 115.615C93.9862 120.807 92.7618 126.483 89.2093 130.584C82.5526 138.302 69.8257 153.219 62.7724 162.581C52.9082 175.664 40.4399 192.086 40.4399 192.086C40.4399 192.086 49.4074 199.995 55.7019 204.165C55.7019 204.165 40.3192 217.213 48.0968 238.412C48.0968 238.412 20.4528 223.166 6.46695 208.526C-3.74219 197.831 -0.913977 184.489 8.41566 171.718C13.1236 165.281 49.4592 123.731 62.3585 109.195C67.1182 103.83 74.6371 101.685 81.3972 104.021C85.7257 105.544 90.2785 108.78 92.3824 115.615Z" fill="#21B573"/>
<path d="M85.6568 219.636C85.6568 219.636 86.7433 213.285 88.3816 207.193C89.7439 202.106 92.5031 200.531 92.5031 200.531C93.1067 203.992 93.9517 206.086 94.0552 212.385C94.0552 212.385 95.59 210.949 98.3837 211.52C101.177 212.091 110.8 214.133 110.938 216.365C111.214 221.47 99.1598 219.047 99.1598 219.047C99.1598 219.047 112.076 221.487 111.749 225.07C111.49 227.96 99.7979 228.513 99.7979 228.513C99.7979 228.513 111.076 228.617 109.714 232.684C108.282 236.993 97.8147 234.276 97.8147 234.276C97.8147 234.276 105.351 237.91 104.626 239.433C103.575 241.631 99.108 242.236 91.8996 240.471C84.4841 238.654 85.6568 219.636 85.6568 219.636Z" fill="#EA9B7A"/>
<path d="M72.3434 153.236C72.0675 153.271 71.7743 153.202 71.5502 153.011C71.1363 152.648 71.0673 152.025 71.4294 151.61L88.1228 131.726C88.4849 131.311 89.1057 131.242 89.5196 131.605C89.9335 131.968 90.0025 132.591 89.6403 133.007L72.947 152.89C72.7918 153.098 72.5676 153.202 72.3434 153.236Z" fill="#217C58"/>
<path d="M90.4853 138.51L84.1736 139.479C83.6218 139.565 83.1217 139.185 83.0354 138.648C82.9492 138.094 83.3286 137.593 83.8632 137.506L90.1749 136.537C90.7268 136.45 91.2269 136.831 91.3131 137.368C91.3993 137.904 91.0372 138.423 90.4853 138.51Z" fill="#217C58"/>
<path d="M22.5566 196.395C22.6601 196.534 22.7981 196.62 22.9533 196.637C23.1257 196.672 23.3154 196.637 23.4706 196.516C28.2303 192.969 36.6977 192.588 40.8883 192.64C40.7158 192.45 40.5606 192.276 40.4054 192.086L40.3709 192.052L40.9055 191.307C40.5261 191.307 40.1122 191.29 39.6638 191.307C37.0426 188.781 29.9721 186.324 29.6617 186.22C29.3167 186.099 28.9546 186.289 28.8339 186.618C28.7132 186.964 28.9029 187.327 29.2305 187.448C29.2995 187.466 34.68 189.335 37.6462 191.359C33.0245 191.567 26.7127 192.432 22.6774 195.461C22.4014 195.686 22.3497 196.101 22.5566 196.395Z" fill="#217C58"/>
</g>
<defs>
<clipPath id="clip0_0_2975">
<rect width="314" height="403" fill="white"/>
</clipPath>
</defs>
</svg>
