<svg width="761" height="897" viewBox="0 0 761 897" fill="none" xmlns="http://www.w3.org/2000/svg">
<g clip-path="url(#clip0_0_53)">
<path d="M356.752 229.614L395.185 370.102L381.472 354.32C386.542 357.025 392.427 359.099 398.916 360.544C405.404 362.014 412.497 362.855 419.906 363.222C427.314 363.616 435.037 363.537 442.945 363.222C450.852 362.881 458.917 362.303 467.113 361.594H467.166C479.25 360.57 489.89 369.525 490.914 381.604C491.886 393.132 483.716 403.321 472.499 405.159C464.04 406.498 455.449 407.785 446.649 408.809C437.822 409.833 428.785 410.594 419.433 410.805C410.08 411.015 400.387 410.647 390.351 409.203C380.342 407.758 369.966 405.132 359.825 400.773C353.336 397.964 348.713 392.659 346.611 386.436L346.112 384.965L300.008 246.814C294.832 231.294 303.213 214.488 318.765 209.315C334.29 204.142 351.103 212.519 356.279 228.064C356.463 228.537 356.62 229.115 356.752 229.614Z" fill="#EA9B7A"/>
<path d="M371.568 738.865C370.99 738.865 370.412 738.76 369.834 738.55L168.498 665.995C165.871 665.05 164.479 662.135 165.451 659.509C166.397 656.883 169.313 655.491 171.94 656.463L373.276 729.018C375.903 729.963 377.295 732.878 376.323 735.504C375.587 737.578 373.643 738.865 371.568 738.865Z" fill="#C77E2E"/>
<path d="M161.852 738.865C159.776 738.865 157.832 737.578 157.071 735.504C156.125 732.878 157.491 729.963 160.118 728.991L363.845 655.228C366.472 654.283 369.388 655.649 370.36 658.275C371.305 660.9 369.939 663.815 367.312 664.787L163.586 738.55C163.008 738.786 162.43 738.865 161.852 738.865Z" fill="#C77E2E"/>
<path d="M389.458 868.561C385.176 868.561 381.446 865.384 380.842 861.025L344.483 589.579H192.325L156.519 860.998C155.888 865.751 151.528 869.112 146.773 868.482C142.018 867.852 138.655 863.493 139.286 858.74L176.09 579.785C176.668 575.452 180.346 572.222 184.707 572.222H352.128C356.489 572.222 360.167 575.452 360.745 579.758L398.128 858.714C398.758 863.467 395.422 867.852 390.667 868.482C390.246 868.535 389.852 868.561 389.458 868.561Z" fill="#FAAF3A"/>
<path d="M303.607 580.914H194.9C160.459 580.914 123.576 562.06 118.269 528.053C111.203 482.546 109.442 438.508 111.413 398.069C113.646 352.351 135.503 309.81 171.44 281.45C171.44 281.45 193.166 376.063 165.845 506.652C176.301 556.23 303.607 580.914 303.607 580.914Z" fill="#FAAF3A"/>
<path d="M280.962 25.997C280.962 25.997 268.037 -5.14679 233.806 0.735353C209.9 4.83184 199.707 34.6102 201.1 80.6169C203.149 147.553 180.504 187.887 180.504 187.887L210.557 194.715C210.583 194.715 287.109 79.9604 280.962 25.997Z" fill="#39393B"/>
<path d="M555.172 752.257H506.598C506.598 752.257 495.354 698.373 491.597 668.174C487.815 637.95 485.87 566.34 485.87 566.34C485.87 566.34 447.174 578.918 366.156 574.165C186.651 563.688 254.718 431.865 254.718 431.865C260.786 440.241 297.932 434.438 323.336 438.43C401.28 445.914 468.847 476.48 509.409 493.969C519.181 498.17 527.851 502.634 535.469 507.335C545.242 513.348 551.363 531.651 555.067 555.678C566.126 627.918 555.172 752.257 555.172 752.257Z" fill="#39393B"/>
<path d="M512.614 726.287C511.799 726.287 511.09 725.709 510.906 724.895C503.892 690.232 501.554 647.088 499.662 612.425C498.086 583.671 496.615 556.519 492.911 553.263C489.916 550.61 477.49 552.685 461.781 555.285C430.493 560.484 383.206 568.309 331.086 556.204C302.687 549.586 281.802 535.8 269.035 515.212C246.994 479.71 257.056 435.672 257.161 435.226C257.371 434.281 258.317 433.703 259.262 433.939C260.208 434.149 260.786 435.095 260.55 436.04C260.445 436.46 250.751 479.132 272.03 513.401C284.298 533.174 304.447 546.435 331.9 552.816C383.364 564.79 430.23 557.018 461.255 551.871C479.828 548.798 491.046 546.934 495.275 550.663C499.846 554.707 501.134 574.559 503.183 612.241C505.074 646.799 507.412 689.786 514.374 724.212C514.558 725.158 513.954 726.077 513.008 726.26C512.85 726.26 512.745 726.287 512.614 726.287Z" fill="#585859"/>
<path d="M556.091 727.206H556.065L502.053 726.05C501.081 726.024 500.319 725.236 500.345 724.265C500.372 723.293 501.16 722.532 502.132 722.558L556.144 723.713C557.116 723.74 557.877 724.527 557.851 725.499C557.799 726.444 557.037 727.206 556.091 727.206Z" fill="#585859"/>
<path d="M553.832 814.44H519.549L512.955 774.237L509.33 752.257H551.914L552.597 774.237L553.832 814.44Z" fill="#EA9B7A"/>
<path d="M553.832 814.44H519.549L514.636 784.504L512.955 774.237H552.597L552.912 784.898L553.832 814.44Z" fill="#FAAF3A"/>
<path d="M552.912 784.898L514.636 784.504L512.955 774.237H552.597L552.912 784.898Z" fill="#C77E2E"/>
<path d="M638.423 868.561H508.778C507.806 866.802 507.281 864.333 507.071 861.366C506.256 850.389 509.75 832.901 511.458 821.872C511.668 820.585 511.852 819.377 511.983 818.3C512.22 816.462 512.377 814.913 512.377 813.784C512.377 804.777 520.337 806.326 520.337 806.326C533.446 819.193 548.315 799.892 556.984 806.221C556.984 806.221 557.326 806.483 558.14 807.087C558.876 807.665 559.979 808.558 561.503 809.845C563.71 811.683 566.809 814.361 571.013 818.143C581.311 827.412 598.807 833.505 613.702 839.728C615.594 840.516 617.354 841.33 619.009 842.118C620.243 842.722 621.426 843.326 622.529 843.903C634.718 850.468 638.58 856.77 639.473 861.34C640.314 865.751 638.423 868.561 638.423 868.561Z" fill="#0875F7"/>
<path d="M622.529 843.93C619.192 846.582 611.758 851.912 605.795 851.912C605.532 851.912 605.269 851.912 605.006 851.886C600.803 851.545 585.356 843.956 572.773 837.05C565.575 833.084 558.981 829.198 554.252 826.073C546.502 820.952 545.136 819.009 544.847 817.644C543.718 812.523 552.177 808.978 558.114 807.114C558.849 807.691 559.953 808.584 561.476 809.871C554.121 811.867 548.052 815.018 548.341 816.83C549.077 818.353 556.748 824.182 575.085 834.24C589.087 841.908 602.353 848.079 605.295 848.341C609.289 848.656 615.147 845.032 618.982 842.17C620.27 842.722 621.425 843.326 622.529 843.93Z" fill="#084FC7"/>
<path d="M638.422 868.561H508.778C507.806 866.802 507.281 864.333 507.071 861.366H639.499C640.314 865.751 638.422 868.561 638.422 868.561Z" fill="#084FC7"/>
<path d="M521.992 868.561H518.13C521.966 864.176 525.565 857.427 525.092 847.816C524.462 835.001 516.791 826.388 511.431 821.872C511.642 820.585 511.825 819.377 511.957 818.3C517.71 822.686 527.404 832.323 528.166 847.658C528.639 856.849 525.617 863.703 521.992 868.561Z" fill="#084FC7"/>
<path d="M568.806 825.81C567.86 825.81 566.967 825.154 566.731 824.182C566.442 823.027 567.151 821.871 568.281 821.583L576.372 819.561C577.528 819.272 578.684 819.981 578.973 821.11C579.262 822.265 578.552 823.421 577.423 823.71L569.331 825.732C569.174 825.784 568.99 825.81 568.806 825.81Z" fill="white"/>
<path d="M560.767 819.062C559.821 819.062 558.928 818.405 558.692 817.434C558.403 816.278 559.112 815.123 560.242 814.834L568.333 812.812C569.489 812.523 570.645 813.232 570.934 814.361C571.223 815.517 570.513 816.672 569.384 816.935L561.293 818.957C561.109 819.035 560.951 819.062 560.767 819.062Z" fill="white"/>
<path d="M576.924 830.511C575.978 830.511 575.085 829.854 574.848 828.883C574.559 827.727 575.269 826.572 576.398 826.309L584.49 824.287C585.645 823.999 586.801 824.708 587.09 825.837C587.379 826.992 586.67 828.148 585.54 828.436L577.449 830.458C577.265 830.485 577.081 830.511 576.924 830.511Z" fill="white"/>
<path d="M585.015 835.028C584.069 835.028 583.176 834.371 582.939 833.399C582.65 832.244 583.36 831.089 584.489 830.8L592.581 828.778C593.737 828.489 594.892 829.198 595.181 830.327C595.47 831.483 594.761 832.638 593.631 832.9L585.54 834.923C585.356 835.028 585.199 835.028 585.015 835.028Z" fill="white"/>
<path d="M593.842 839.229C592.896 839.229 592.003 838.573 591.766 837.601C591.477 836.446 592.187 835.29 593.316 835.027L601.407 833.006C602.563 832.717 603.719 833.426 604.008 834.555C604.297 835.71 603.588 836.866 602.458 837.154L594.367 839.177C594.183 839.203 594.026 839.229 593.842 839.229Z" fill="white"/>
<path d="M603.43 842.8C602.485 842.8 601.591 842.144 601.355 841.172C601.066 840.017 601.775 838.861 602.905 838.573L610.996 836.551C612.152 836.262 613.308 836.971 613.597 838.1C613.886 839.255 613.177 840.411 612.047 840.673L603.956 842.695C603.772 842.774 603.588 842.8 603.43 842.8Z" fill="white"/>
<path d="M164.82 390.033C164.82 390.033 163.297 400.511 177.325 403.452L323.598 408.336C323.598 408.336 333.476 403.373 331.69 391.136C331.663 391.11 269.902 356.447 164.82 390.033Z" fill="#084FC7"/>
<path d="M325.569 438.403C249.647 480.156 166.738 446.544 166.738 446.544C170.784 435.489 173.805 423.015 175.985 411.671C178.507 398.463 179.926 386.803 180.583 380.685C212.869 378.925 292.048 375.538 323.073 382.891L323.31 395.311L325.569 438.403Z" fill="#EA9B7A"/>
<path d="M269.482 418.367C268.93 422.28 267.144 425.273 265.541 425.037C263.912 424.801 263.072 421.44 263.623 417.527C264.175 413.614 265.961 410.621 267.564 410.857C269.193 411.093 270.06 414.455 269.482 418.367Z" fill="#D96C63"/>
<path d="M323.31 395.311C290.971 393.342 227.37 392.659 175.985 411.645C178.507 398.436 179.926 386.777 180.583 380.659C212.869 378.899 292.048 375.512 323.073 382.864L323.31 395.311Z" fill="#D96C63"/>
<path d="M359.379 335.256C359.064 336.201 358.696 337.068 358.302 337.882C358.144 338.197 357.986 338.512 357.829 338.801C353.757 346.337 347.478 352.876 342.198 357.524C341.095 358.495 340.044 359.362 339.072 360.15C337.128 361.725 335.473 362.96 334.343 363.774C333.292 364.509 332.688 364.903 332.688 364.903C332.688 364.982 332.688 365.034 332.662 365.139C332.609 365.691 332.557 366.295 332.504 366.925C332.32 369.314 332.163 372.15 332.058 375.407C331.953 378.006 331.874 380.869 331.821 383.967C331.795 386.252 331.742 388.641 331.716 391.11C288.817 371.94 200.443 384.046 164.847 390.033C165.503 386.961 166.081 383.941 166.633 381C169.155 367.424 170.574 355.213 171.125 344.263C171.966 327.982 170.547 303.508 167.08 278.22C166.87 276.566 166.633 274.938 166.397 273.31C166.239 272.233 166.081 271.182 165.898 270.106C164.689 262.175 163.27 254.219 161.668 246.499C154.654 212.834 159.566 177.515 193.718 173.339C196.187 173.024 198.63 172.762 201.021 172.499C217.098 170.792 230.339 170.188 234.017 170.057C234.7 170.031 235.041 170.031 235.041 170.031L301.032 189.2L307.311 191.012C310.91 192.167 314.246 193.297 317.346 194.4C318.66 194.872 319.947 195.345 321.155 195.791C324.36 196.999 327.25 198.155 329.903 199.336C335.184 201.673 339.387 203.958 342.671 206.295C357.146 216.563 354.913 228.169 354.545 251.094C354.545 251.199 354.545 251.304 354.545 251.409C354.545 251.698 354.545 251.987 354.545 252.302C354.545 252.433 354.545 252.564 354.545 252.696C354.545 253.641 354.545 254.56 354.545 255.506C354.571 258.473 354.676 261.414 354.86 264.355C355.097 268.688 355.491 272.994 355.964 277.196C356.148 278.877 356.331 280.557 356.542 282.238C356.725 283.813 356.936 285.363 357.146 286.912C359.694 306.974 362.978 324.542 359.379 335.256Z" fill="#0875F7"/>
<path d="M354.466 251.409C354.466 251.698 354.466 251.987 354.466 252.302C354.466 252.433 354.466 252.564 354.466 252.696C354.466 253.641 354.466 254.56 354.466 255.506L340.595 264.197C340.175 264.46 339.702 264.539 339.229 264.46C338.704 264.381 338.231 264.066 337.916 263.593C337.338 262.674 337.627 261.493 338.52 260.915L353.231 251.698C353.625 251.462 354.046 251.357 354.466 251.409Z" fill="#084FC7"/>
<path d="M263.045 325.645C262.52 325.645 261.995 325.435 261.601 325.015C260.891 324.227 260.944 322.993 261.732 322.284L274.631 310.677C275.419 309.968 276.653 310.02 277.363 310.808C278.072 311.596 278.019 312.83 277.231 313.539L264.333 325.146C263.965 325.487 263.518 325.645 263.045 325.645Z" fill="#084FC7"/>
<path d="M357.041 286.886L348.214 294.842C347.846 295.184 347.373 295.341 346.926 295.341C346.401 295.341 345.876 295.131 345.482 294.711C344.772 293.923 344.825 292.689 345.613 291.98L356.436 282.238C356.647 283.787 356.857 285.363 357.041 286.886Z" fill="#084FC7"/>
<path d="M236.88 278.982C236.591 278.535 236.46 277.984 236.591 277.432C236.828 276.382 237.878 275.752 238.929 275.988L255.821 279.979C256.872 280.216 257.502 281.266 257.266 282.317C257.029 283.367 255.979 283.997 254.928 283.761L238.036 279.769C237.537 279.638 237.143 279.349 236.88 278.982Z" fill="#084FC7"/>
<path d="M176.616 312.121C176.09 312.121 175.565 311.911 175.171 311.491C174.462 310.703 174.514 309.469 175.302 308.76L188.201 297.153C188.989 296.444 190.224 296.497 190.933 297.284C191.642 298.072 191.59 299.306 190.802 300.015L177.903 311.622C177.535 311.937 177.062 312.121 176.616 312.121Z" fill="#084FC7"/>
<path d="M326.777 309.338C326.935 308.839 327.329 308.392 327.828 308.182C328.8 307.762 329.956 308.208 330.376 309.18L337.311 325.093C337.732 326.065 337.285 327.22 336.313 327.641C335.341 328.061 334.185 327.614 333.765 326.643L326.83 310.729C326.646 310.283 326.619 309.784 326.777 309.338Z" fill="#084FC7"/>
<path d="M359.379 335.256C359.063 336.201 358.696 337.068 358.302 337.882C358.144 338.197 357.986 338.512 357.829 338.801L348.398 335.834C347.925 335.676 347.557 335.361 347.321 334.967C347.058 334.521 346.953 333.943 347.137 333.418C347.452 332.394 348.555 331.842 349.554 332.157L359.379 335.256Z" fill="#084FC7"/>
<path d="M306.103 336.648C306.628 336.595 307.18 336.753 307.6 337.146C308.388 337.855 308.441 339.09 307.731 339.877L296.067 352.718C295.358 353.506 294.123 353.559 293.335 352.85C292.547 352.141 292.494 350.907 293.204 350.119L304.868 337.278C305.209 336.91 305.656 336.7 306.103 336.648Z" fill="#084FC7"/>
<path d="M299.246 307.027C298.72 306.948 298.248 306.633 297.932 306.16C297.354 305.267 297.643 304.059 298.537 303.482L313.248 294.265C314.141 293.687 315.35 293.976 315.928 294.869C316.505 295.761 316.217 296.969 315.323 297.547L300.612 306.764C300.165 307.027 299.692 307.106 299.246 307.027Z" fill="#084FC7"/>
<path d="M308.598 251.146C308.939 251.54 309.15 252.066 309.071 252.643C308.966 253.694 307.994 254.481 306.943 254.35L289.683 252.459C288.632 252.354 287.844 251.383 287.976 250.332C288.081 249.282 289.053 248.494 290.104 248.626L307.363 250.516C307.862 250.569 308.283 250.805 308.598 251.146Z" fill="#084FC7"/>
<path d="M283.51 213.727C283.641 213.201 283.983 212.755 284.482 212.492C285.428 211.993 286.61 212.335 287.109 213.28L295.332 228.563C295.831 229.509 295.489 230.69 294.543 231.189C293.598 231.688 292.416 231.347 291.916 230.401L283.694 215.118C283.457 214.672 283.405 214.173 283.51 213.727Z" fill="#084FC7"/>
<path d="M342.172 357.55C341.068 358.522 340.017 359.388 339.045 360.176L336.786 354.399C336.602 353.926 336.602 353.454 336.786 353.007C336.97 352.508 337.364 352.088 337.889 351.878C338.888 351.484 340.017 351.983 340.411 352.955L342.172 357.55Z" fill="#084FC7"/>
<path d="M183.499 328.139C183.236 327.667 183.183 327.115 183.393 326.564C183.761 325.566 184.865 325.041 185.863 325.408L202.203 331.291C203.201 331.658 203.727 332.761 203.359 333.759C202.991 334.757 201.888 335.282 200.89 334.914L184.549 329.032C184.077 328.875 183.735 328.56 183.499 328.139Z" fill="#084FC7"/>
<path d="M191.511 350.224C192.036 350.224 192.562 350.46 192.956 350.88C193.665 351.668 193.586 352.902 192.798 353.611L179.795 365.113C179.006 365.822 177.772 365.743 177.062 364.955C176.353 364.168 176.432 362.933 177.22 362.224L190.224 350.723C190.592 350.355 191.038 350.197 191.511 350.224Z" fill="#084FC7"/>
<path d="M215.076 368.474C215.417 368.894 215.575 369.446 215.47 369.997C215.286 371.048 214.287 371.757 213.237 371.573L196.135 368.658C195.084 368.474 194.375 367.476 194.558 366.426C194.742 365.375 195.741 364.666 196.791 364.85L213.893 367.765C214.366 367.844 214.787 368.107 215.076 368.474Z" fill="#084FC7"/>
<path d="M229.367 206.033C229.235 205.534 229.288 204.956 229.603 204.483C230.181 203.59 231.39 203.328 232.283 203.906L246.863 213.306C247.756 213.884 248.019 215.092 247.441 215.985C246.863 216.878 245.654 217.14 244.761 216.563L230.181 207.162C229.787 206.873 229.498 206.479 229.367 206.033Z" fill="#084FC7"/>
<path d="M328.905 217.114C329.378 216.851 329.93 216.799 330.481 216.983C331.48 217.35 332.005 218.453 331.664 219.451L325.858 235.811C325.49 236.809 324.387 237.334 323.388 236.993C322.39 236.625 321.865 235.522 322.206 234.524L328.012 218.164C328.17 217.692 328.485 217.324 328.905 217.114Z" fill="#084FC7"/>
<path d="M321.103 195.791L312.145 207.293C311.488 208.133 310.279 208.291 309.439 207.634C308.598 206.978 308.44 205.77 309.097 204.93L317.294 194.426C318.607 194.872 319.868 195.345 321.103 195.791Z" fill="#084FC7"/>
<path d="M233.439 354.504C233.622 355.056 234.095 355.449 234.621 355.554C234.883 355.607 235.172 355.607 235.435 355.502C235.724 355.397 263.807 346.311 293.335 358.548C308.335 364.772 321.681 367.135 332.478 366.925C332.53 366.295 332.583 365.691 332.635 365.139C332.635 365.06 332.662 364.982 332.662 364.929C332.662 364.929 333.266 364.535 334.317 363.8C323.704 364.325 310.122 362.067 294.543 355.633C263.886 342.924 235.619 352.114 234.437 352.508C233.622 352.771 233.176 353.664 233.439 354.504Z" fill="#084FC7"/>
<path d="M300.98 189.2C297.276 194.925 289.657 201.411 274.21 200.308C252.905 198.759 238.877 178.434 233.99 170.083C234.647 170.057 235.015 170.057 235.015 170.057L300.98 189.2Z" fill="#084FC7"/>
<path d="M278.308 226.909C278.939 227.04 279.569 227.119 280.2 227.171C286.084 227.644 290.865 225.937 294.386 222.103C304.631 210.917 300.428 185.393 300.244 184.316C300.086 183.449 299.272 182.872 298.431 183.029C297.564 183.187 296.986 184.001 297.144 184.841C297.197 185.104 301.269 209.919 292.074 219.976C289.21 223.101 285.401 224.44 280.489 224.047C259.84 222.392 236.696 169.952 236.46 169.427C236.118 168.639 235.172 168.271 234.384 168.613C233.596 168.954 233.228 169.899 233.57 170.687C234.489 172.84 256.425 222.471 278.308 226.909Z" fill="white"/>
<path d="M342.618 206.295C341.252 221.421 344.983 246.393 354.755 264.355C354.519 260.495 354.414 256.582 354.466 252.696C354.466 252.564 354.466 252.433 354.466 252.302C354.466 251.908 354.493 251.514 354.493 251.12C354.86 228.169 357.093 216.563 342.618 206.295Z" fill="#EA9B7A"/>
<path d="M221.249 232.922C213.683 262.123 185.994 285.546 167.08 278.246C166.843 276.618 166.633 274.964 166.397 273.336C166.239 272.259 166.081 271.209 165.924 270.132C164.715 262.202 163.297 254.245 161.694 246.525C154.68 212.86 159.619 177.541 193.744 173.366C196.213 173.051 198.657 172.788 201.047 172.525C218.07 179.799 229.945 199.31 221.249 232.922Z" fill="#EA9B7A"/>
<path d="M225.137 210.654L269.482 372.781L253.667 354.557C259.525 357.655 266.303 360.071 273.816 361.752C281.303 363.432 289.5 364.404 298.037 364.85C306.602 365.297 315.507 365.218 324.623 364.85C333.739 364.483 343.065 363.8 352.522 362.986H352.575C366.524 361.804 378.793 372.124 379.975 386.068C381.104 399.355 371.673 411.146 358.696 413.247C348.949 414.796 339.019 416.267 328.853 417.448C318.686 418.63 308.257 419.496 297.433 419.759C286.636 419.995 275.445 419.601 263.886 417.921C252.353 416.24 240.374 413.247 228.657 408.179C221.17 404.949 215.837 398.804 213.394 391.635L212.843 389.954L159.671 230.506C153.682 212.597 163.376 193.218 181.292 187.231C199.208 181.244 218.596 190.933 224.585 208.842C224.769 209.42 224.98 210.103 225.137 210.654Z" fill="#EA9B7A"/>
<path d="M244.998 367.581C244.551 367.581 244.104 367.345 243.868 366.925C243.5 366.295 243.737 365.507 244.367 365.139C244.787 364.903 254.481 359.415 264.622 358.653C265.357 358.601 265.988 359.126 266.04 359.861C266.093 360.596 265.567 361.226 264.832 361.279C255.296 362.014 245.759 367.371 245.681 367.424C245.444 367.529 245.208 367.581 244.998 367.581Z" fill="#D96C63"/>
<path d="M261.101 361.725C260.865 361.725 260.628 361.673 260.418 361.542C254.297 357.839 246.889 357.261 246.81 357.261C246.075 357.209 245.549 356.579 245.602 355.87C245.654 355.134 246.259 354.609 246.994 354.662C247.309 354.688 255.112 355.266 261.758 359.31C262.389 359.677 262.572 360.491 262.205 361.121C261.994 361.515 261.548 361.725 261.101 361.725Z" fill="#D96C63"/>
<path d="M300.664 276.277C320.288 280.242 328.879 259.97 328.958 259.76C329.299 258.946 328.905 258.026 328.091 257.711C327.276 257.37 326.357 257.764 326.042 258.578C325.726 259.339 318.318 276.645 301.295 273.205C283.405 269.581 250.041 234.419 249.726 234.052C249.122 233.421 248.124 233.395 247.493 233.999C246.863 234.603 246.836 235.601 247.441 236.231C248.807 237.675 281.802 272.469 300.664 276.277Z" fill="#084FC7"/>
<path d="M269.797 148.603C269.797 148.603 238.299 142.668 229.419 110.894C220.96 80.6432 227.475 64.94 236.276 48.6065C242.896 36.2908 263.912 19.6685 293.361 25.6294C323.099 31.6428 345.35 46.9259 348.634 71.3735C354.781 117.118 317.845 172.919 269.797 148.603Z" fill="#39393B"/>
<path d="M230.917 115.778C230.339 115.778 229.787 115.49 229.498 114.938C228.92 113.94 215.68 90.1229 226.687 58.769C233.57 39.1793 247.099 30.4349 257.266 26.5222C268.247 22.2944 277.468 22.7146 277.862 22.7146C278.755 22.7671 279.464 23.5286 279.412 24.4477C279.359 25.3406 278.624 26.0496 277.704 25.997C277.625 25.997 268.667 25.6294 258.317 29.6209C244.551 34.9515 234.962 45.114 229.787 59.8456C219.305 89.729 232.23 113.074 232.362 113.31C232.808 114.098 232.545 115.096 231.757 115.542C231.468 115.726 231.179 115.778 230.917 115.778Z" fill="#FAAF3A"/>
<path d="M330.902 116.304C330.902 116.304 341.147 108.216 343.853 118.93C346.559 129.643 338.94 148.682 327.014 142.905L330.902 116.304Z" fill="#D96C63"/>
<path d="M320.893 135.998C315.796 137.679 311.304 142.196 310.148 147.789C308.467 156.139 313.878 164.28 322.206 165.987C330.56 167.667 338.704 162.258 340.412 153.934C341.672 147.684 338.967 141.539 334.002 138.152C332.347 136.996 330.429 136.182 328.327 135.762C328.275 135.762 328.222 135.736 328.17 135.736C327.881 136.786 327.986 137.626 328.59 138.283C330.271 138.729 331.795 139.491 333.135 140.489C336.996 143.43 339.072 148.393 338.047 153.461C336.629 160.498 329.719 165.068 322.679 163.65C315.639 162.232 311.068 155.325 312.486 148.288C313.537 143.167 317.32 139.543 322.075 138.388L320.893 135.998Z" fill="#FAAF3A"/>
<path d="M299.85 162.205L295.568 189.043C295.568 189.043 275.471 209.551 238.771 172.762C248.623 165.435 252.38 148.419 251.224 137.443C251.224 137.443 254.113 139.176 258.579 143.22C259.446 144.007 260.576 144.611 261.653 145.373C271.347 151.964 286.216 160.525 299.85 162.205Z" fill="#EA9B7A"/>
<path d="M299.85 162.205L297.827 174.915C286.82 170.004 267.354 159.527 258.579 143.193C259.525 143.876 260.576 144.585 261.653 145.347C271.347 151.964 286.216 160.525 299.85 162.205Z" fill="#39393B"/>
<path d="M340.832 109.844C340.254 112.68 339.728 115.385 339.177 117.958C338.599 120.742 338.047 123.367 337.495 125.836C333.424 144.401 330.087 154.354 324.676 158.083C297.276 176.911 252.695 138.782 251.25 137.548C251.224 137.521 251.224 137.521 251.224 137.521C251.197 135.342 251.197 133.162 251.224 131.035C251.565 112.969 254.639 96.7403 259.525 81.7461C261.968 65.3601 274.683 52.2303 291.049 49.7619C308.02 47.2148 320.788 57.0358 328.774 61.3687C340.832 67.9073 345.534 86.1577 340.832 109.844Z" fill="#EA9B7A"/>
<path d="M260.445 64.8874C260.445 64.8874 279.622 28.019 317.872 38.3128C356.121 48.6065 358.144 66.358 358.827 75.2337C359.51 84.1094 339.019 68.38 339.019 68.38C339.019 68.38 338.31 86.1314 331.48 80.6694C323.099 73.947 313.747 59.478 313.747 59.478C313.747 59.478 290.971 81.8511 269.324 75.8114C257.029 72.3977 260.445 64.8874 260.445 64.8874Z" fill="#39393B"/>
<path d="M307.442 146.003C302.477 146.003 299.062 142.563 298.905 142.379C298.379 141.828 298.379 140.961 298.931 140.436C299.482 139.911 300.323 139.911 300.849 140.462C301.032 140.646 304.973 144.559 310.174 142.773C310.884 142.537 311.672 142.905 311.908 143.614C312.145 144.323 311.777 145.11 311.068 145.347C309.78 145.819 308.572 146.003 307.442 146.003Z" fill="#D96C63"/>
<path d="M295.988 123.683C295.988 123.683 314.43 129.145 323.993 129.145C323.993 129.145 319.211 142.8 305.551 138.02C294.911 134.291 295.988 123.683 295.988 123.683Z" fill="white"/>
<path d="M330.245 85.2911C330.245 85.2911 325.464 84.7922 326.226 89.4401C327.014 94.0881 337.39 91.252 342.539 100.548C342.513 100.548 347.478 90.8056 330.245 85.2911Z" fill="#39393B"/>
<path d="M308.94 80.9845C308.94 80.9845 313.537 82.4026 311.015 86.3677C308.493 90.3329 300.034 83.6893 291.68 90.2542C291.68 90.2542 290.892 79.3302 308.94 80.9845Z" fill="#39393B"/>
<path d="M300.612 114.255C300.165 116.435 295.279 117.301 289.71 116.172C284.14 115.043 279.99 112.365 280.436 110.159C280.883 107.979 285.743 107.113 291.338 108.242C296.908 109.371 301.058 112.05 300.612 114.255Z" fill="#D96C63"/>
<path d="M355.07 115.7L340.175 113.152C340.096 113.783 339.939 114.413 339.807 115.017C339.781 115.122 339.755 115.227 339.702 115.332L354.703 117.879C355.307 117.984 355.885 117.564 355.99 116.96C356.069 116.382 355.701 115.778 355.07 115.7Z" fill="white"/>
<path d="M315.297 102.99C315.297 102.229 315.271 101.467 315.166 100.732C314.667 96.6878 312.88 92.9589 310.148 90.0704C307.626 87.4181 304.342 85.4749 300.533 84.6346C300.481 84.6084 300.402 84.6084 300.349 84.5821C291.628 82.7965 283.037 87.3656 279.491 95.1384C279.175 95.8212 278.913 96.5039 278.676 97.213C278.466 97.8432 278.308 98.4997 278.151 99.1562C277.153 104.04 278.125 108.872 280.568 112.811C281.382 114.15 282.407 115.385 283.536 116.461C286.006 118.851 289.132 120.584 292.731 121.319C298.799 122.58 304.763 120.742 309.045 116.908C311.935 114.334 314.062 110.815 314.903 106.745C314.903 106.719 314.903 106.719 314.903 106.693C315.166 105.458 315.297 104.198 315.297 102.99ZM293.177 119.14C293.072 119.113 292.994 119.113 292.915 119.087C288.212 118.037 284.403 115.043 282.17 111.131C280.252 107.743 279.491 103.699 280.331 99.6026C280.515 98.7623 280.752 97.9482 281.041 97.1604C281.067 97.1079 281.093 97.0554 281.093 97.0029C283.431 90.9369 289.132 86.8142 295.542 86.4465C296.96 86.3678 298.405 86.4465 299.876 86.7617C303.029 87.4181 305.761 88.9149 307.941 90.9894C311.935 94.7971 313.931 100.522 312.749 106.299C310.884 115.227 302.109 121.004 293.177 119.14Z" fill="white"/>
<path d="M348.66 95.296C348.161 95.0334 347.636 94.7971 347.084 94.5607C346.454 94.2981 345.797 94.0881 345.14 93.878C344.667 93.7467 344.221 93.6154 343.722 93.5366C342.828 93.3528 341.962 93.2478 341.095 93.1953C340.044 93.1165 338.993 93.1427 337.968 93.274C335.105 93.5891 332.399 94.5345 330.009 96.0313C327.381 97.6594 325.149 99.944 323.625 102.701C323.204 103.41 322.863 104.145 322.548 104.881C322.521 104.933 322.521 104.96 322.495 105.012C322.101 106.01 321.786 107.06 321.549 108.137C320.052 115.385 322.968 122.527 328.459 126.781C330.245 128.173 332.294 129.25 334.553 129.906C334.895 130.011 335.236 130.116 335.604 130.169C335.788 130.221 335.946 130.247 336.13 130.3C337.942 130.668 339.755 130.773 341.515 130.615C341.804 130.589 342.093 130.563 342.356 130.536C343.117 130.431 343.879 130.3 344.641 130.09C346.033 129.722 347.4 129.197 348.66 128.541C353.468 126.02 357.146 121.451 358.328 115.726C360.036 107.349 355.885 99.1037 348.66 95.296ZM356.148 115.253C356.069 115.621 355.99 115.962 355.885 116.304C355.753 116.803 355.596 117.275 355.412 117.774C354.098 121.267 351.682 124.103 348.634 125.967C347.531 126.65 346.322 127.201 345.061 127.622C344.273 127.884 343.485 128.068 342.645 128.199C342.408 128.252 342.172 128.278 341.935 128.304C340.201 128.514 338.389 128.462 336.576 128.094C336.418 128.068 336.235 128.015 336.077 127.989C335.972 127.963 335.867 127.937 335.788 127.91C333.135 127.228 330.77 125.915 328.853 124.155C328.564 123.893 328.301 123.63 328.038 123.367C324.387 119.586 322.6 114.098 323.73 108.557C323.993 107.323 324.387 106.115 324.886 105.012C326.541 101.388 329.431 98.5785 332.925 96.9241C335.079 95.9 337.469 95.3485 339.939 95.3485C340.333 95.3485 340.727 95.3748 341.147 95.4011C341.856 95.4536 342.566 95.5586 343.275 95.6899C343.8 95.7949 344.3 95.9262 344.799 96.0838C345.482 96.2939 346.139 96.5565 346.795 96.8453C347.294 97.0817 347.794 97.3443 348.293 97.6068C354.23 101.126 357.619 108.137 356.148 115.253Z" fill="white"/>
<path d="M255.742 98.4997C255.611 98.4734 255.479 98.4209 255.374 98.3421C254.849 98.0007 254.718 97.318 255.033 96.8191C262.494 85.1598 280.436 95.6374 280.594 95.7424C281.119 96.0575 281.303 96.7403 280.988 97.2655C280.673 97.7907 279.99 97.9745 279.464 97.6594C279.307 97.5543 263.203 88.1797 256.898 98.027C256.635 98.4209 256.162 98.6047 255.742 98.4997Z" fill="white"/>
<path d="M323.362 105.511C323.073 105.458 322.837 105.275 322.653 105.038C320.262 101.362 315.166 103.016 315.113 103.016C314.535 103.2 313.905 102.885 313.721 102.307C313.537 101.73 313.852 101.099 314.43 100.916C316.768 100.128 321.891 99.7339 324.544 103.83C324.886 104.356 324.728 105.038 324.203 105.353C323.94 105.537 323.625 105.59 323.362 105.511Z" fill="white"/>
<g opacity="0.8">
<path d="M339.177 117.958C338.599 120.742 338.047 123.367 337.495 125.836C332.425 124.602 328.774 122.107 329.194 120.033C329.614 117.958 334.002 117.091 339.177 117.958Z" fill="#D96C63"/>
</g>
<path d="M304.526 103.253C303.922 106.273 302.057 108.426 300.375 108.084C298.694 107.743 297.827 105.038 298.431 102.018C299.036 98.9986 300.901 96.8453 302.582 97.1867C304.264 97.5281 305.157 100.233 304.526 103.253Z" fill="#39393B"/>
<path d="M334.317 109.292C333.713 112.312 331.847 114.465 330.166 114.124C328.485 113.783 327.618 111.078 328.222 108.058C328.826 105.038 330.691 102.885 332.373 103.226C334.054 103.542 334.947 106.273 334.317 109.292Z" fill="#39393B"/>
<path d="M318.949 117.354C320.394 117.643 321.418 117.59 321.497 117.59C321.838 117.564 322.18 117.407 322.416 117.144C322.653 116.881 322.732 116.514 322.705 116.172L320.788 102.123C320.683 101.441 320.052 100.942 319.369 101.047C318.686 101.152 318.187 101.782 318.292 102.465L319.999 114.991C318.739 114.807 316.847 114.282 315.139 112.864C314.614 112.417 313.8 112.496 313.353 113.021C312.906 113.546 312.985 114.36 313.511 114.807C315.376 116.356 317.399 117.039 318.949 117.354Z" fill="#39393B"/>
<path d="M263.518 127.306C263.308 127.622 257.476 135.998 251.25 137.521C251.224 137.495 251.224 137.495 251.224 137.495C251.171 135.316 251.197 133.136 251.224 131.009C251.434 131.035 257.397 131.193 263.518 127.306Z" fill="#39393B"/>
<path d="M262.257 105.301C262.257 105.301 253.483 86.7091 242.108 97.6068C232.729 106.614 240.926 136.655 257.213 130.221L262.257 105.301Z" fill="#EA9B7A"/>
<path d="M240.689 121.319C235.593 123 231.101 127.516 229.945 133.11C228.263 141.46 233.675 149.601 242.003 151.308C250.357 152.988 258.501 147.579 260.208 139.254C261.469 133.005 258.763 126.86 253.798 123.472C252.143 122.317 250.225 121.503 248.124 121.083C248.071 121.083 248.019 121.057 247.966 121.057C247.677 122.107 247.809 122.947 248.386 123.604C250.068 124.05 251.591 124.812 252.931 125.81C256.793 128.751 258.868 133.714 257.844 138.782C256.425 145.819 249.516 150.389 242.476 148.971C235.435 147.552 230.864 140.646 232.283 133.609C233.307 128.488 237.116 124.864 241.871 123.709L240.689 121.319Z" fill="#FAAF3A"/>
<path d="M256.53 125.022C256.583 125.022 256.609 125.048 256.662 125.048C257.345 125.101 257.975 124.602 258.028 123.893C259.315 109.844 248.702 102.727 248.255 102.439C247.677 102.045 246.889 102.229 246.495 102.806C246.101 103.384 246.285 104.172 246.863 104.566C247.257 104.828 256.662 111.183 255.506 123.683C255.453 124.313 255.9 124.891 256.53 125.022Z" fill="#39393B"/>
<path d="M246.495 115.174C246.758 115.227 247.073 115.201 247.336 115.043C248.597 114.387 252.301 112.916 254.323 113.888C254.954 114.203 255.716 113.94 256.005 113.31C256.32 112.68 256.057 111.918 255.427 111.629C251.907 109.923 246.758 112.522 246.18 112.811C245.549 113.126 245.313 113.888 245.654 114.518C245.812 114.886 246.127 115.096 246.495 115.174Z" fill="#39393B"/>
<path d="M273.554 73.7369C273.554 73.7369 261.758 105.747 261.128 112.207C260.261 121.004 248.623 90.8581 260.313 65.1238L273.554 73.7369Z" fill="#39393B"/>
<path d="M470.607 752.415H422.033C422.033 752.415 410.79 698.53 407.033 668.332C403.25 638.107 401.306 566.497 401.306 566.497C401.306 566.497 362.61 579.076 281.592 574.323C102.087 563.845 170.153 432.022 170.153 432.022C176.222 440.399 221.722 451.927 247.099 455.945C325.043 463.429 384.283 476.663 424.844 494.152C434.617 498.354 443.286 502.818 450.905 507.518C460.677 513.532 466.798 531.835 470.502 555.862C481.562 628.076 470.607 752.415 470.607 752.415Z" fill="#39393B"/>
<path d="M428.076 726.444C427.261 726.444 426.552 725.867 426.368 725.052C419.354 690.39 417.016 647.245 415.124 612.583C413.548 583.829 412.077 556.676 408.373 553.42C405.378 550.768 392.952 552.842 377.243 555.442C345.955 560.641 298.668 568.467 246.547 556.361C218.149 549.744 197.264 535.957 184.497 515.37C162.456 479.867 172.518 435.83 172.623 435.383C172.833 434.438 173.779 433.86 174.724 434.097C175.67 434.307 176.248 435.252 176.012 436.197C175.906 436.618 166.213 479.289 187.492 513.558C199.76 533.332 219.909 546.593 247.362 552.974C298.825 564.948 345.692 557.175 376.717 552.028C395.29 548.956 406.508 547.092 410.737 550.82C415.308 554.864 416.596 574.717 418.645 612.399C420.536 646.957 422.874 689.943 429.836 724.37C430.02 725.315 429.415 726.234 428.47 726.418C428.312 726.444 428.181 726.444 428.076 726.444Z" fill="#585859"/>
<path d="M471.553 727.363H471.527L417.515 726.208C416.543 726.182 415.781 725.394 415.807 724.422C415.834 723.451 416.622 722.689 417.594 722.716L471.606 723.871C472.578 723.897 473.339 724.685 473.313 725.657C473.261 726.602 472.472 727.363 471.553 727.363Z" fill="#585859"/>
<path d="M469.268 814.598H435.011L428.391 774.42L424.792 752.415H467.376L468.033 774.42L469.268 814.598Z" fill="#EA9B7A"/>
<path d="M469.268 814.598H435.011L430.072 784.688L428.391 774.421H468.033L468.375 785.056L469.268 814.598Z" fill="#FAAF3A"/>
<path d="M468.375 785.056L430.072 784.688L428.391 774.421H468.033L468.375 785.056Z" fill="#C77E2E"/>
<path d="M553.858 868.719H424.214C423.242 866.959 422.717 864.491 422.506 861.523C421.692 850.547 425.186 833.058 426.894 822.029C427.104 820.742 427.288 819.534 427.419 818.458C427.655 816.62 427.813 815.07 427.813 813.941C427.813 804.934 435.773 806.483 435.773 806.483C448.882 819.351 463.751 800.076 472.42 806.378C472.42 806.378 472.762 806.641 473.576 807.245C474.312 807.823 475.415 808.715 476.939 810.002C479.145 811.84 482.245 814.519 486.449 818.3C496.747 827.57 514.243 833.662 529.138 839.886C531.029 840.673 532.789 841.461 534.444 842.275C535.679 842.879 536.861 843.483 537.965 844.061C550.154 850.626 554.016 856.928 554.909 861.497C555.776 865.909 553.858 868.719 553.858 868.719Z" fill="#0875F7"/>
<path d="M537.991 844.113C534.655 846.766 527.22 852.096 521.257 852.096C520.994 852.096 520.731 852.096 520.469 852.07C516.265 851.729 500.818 844.14 488.235 837.233C481.037 833.268 474.443 829.382 469.714 826.257C461.965 821.136 460.598 819.193 460.309 817.828C459.18 812.707 467.639 809.162 473.576 807.297C474.312 807.875 475.415 808.768 476.939 810.055C469.583 812.05 463.514 815.202 463.803 816.987C464.539 818.51 472.21 824.34 490.547 834.397C504.549 842.065 517.815 848.236 520.758 848.499C524.751 848.814 530.609 845.19 534.444 842.328C535.705 842.905 536.888 843.509 537.991 844.113Z" fill="#084FC7"/>
<path d="M553.858 868.718H424.214C423.242 866.959 422.717 864.491 422.506 861.523H554.935C555.776 865.909 553.858 868.718 553.858 868.718Z" fill="#084FC7"/>
<path d="M437.454 868.719H433.593C437.428 864.333 441.027 857.584 440.554 847.973C439.924 835.159 432.253 826.546 426.894 822.029C427.104 820.742 427.288 819.534 427.419 818.458C433.172 822.843 442.866 832.48 443.628 847.816C444.101 857.007 441.08 863.861 437.454 868.719Z" fill="#084FC7"/>
<path d="M484.268 825.968C483.322 825.968 482.429 825.312 482.193 824.34C481.904 823.184 482.613 822.029 483.743 821.74L491.834 819.718C492.99 819.429 494.146 820.138 494.435 821.268C494.724 822.423 494.014 823.578 492.885 823.867L484.794 825.889C484.61 825.942 484.452 825.968 484.268 825.968Z" fill="white"/>
<path d="M476.229 819.246C475.257 819.246 474.39 818.589 474.154 817.617C473.865 816.462 474.574 815.307 475.704 815.018L483.795 812.996C484.951 812.707 486.107 813.416 486.396 814.545C486.685 815.7 485.976 816.856 484.846 817.145L476.755 819.167C476.571 819.219 476.387 819.246 476.229 819.246Z" fill="white"/>
<path d="M492.359 830.668C491.414 830.668 490.521 830.012 490.284 829.04C489.995 827.885 490.704 826.73 491.834 826.467L499.925 824.445C501.081 824.156 502.237 824.865 502.526 825.994C502.815 827.15 502.106 828.305 500.976 828.594L492.885 830.616C492.727 830.668 492.543 830.668 492.359 830.668Z" fill="white"/>
<path d="M500.477 835.211C499.531 835.211 498.638 834.555 498.402 833.583C498.113 832.428 498.822 831.272 499.951 831.01L508.043 828.988C509.199 828.699 510.355 829.408 510.644 830.537C510.933 831.693 510.223 832.848 509.094 833.137L501.002 835.159C500.818 835.185 500.634 835.211 500.477 835.211Z" fill="white"/>
<path d="M509.304 839.387C508.358 839.387 507.465 838.73 507.228 837.759C506.939 836.603 507.649 835.448 508.778 835.185L516.87 833.163C518.026 832.874 519.181 833.583 519.47 834.712C519.759 835.868 519.05 837.023 517.92 837.312L509.829 839.334C509.645 839.36 509.461 839.387 509.304 839.387Z" fill="white"/>
<path d="M518.866 842.958C517.894 842.958 517.027 842.301 516.791 841.33C516.502 840.174 517.211 839.019 518.341 838.73L526.432 836.708C527.588 836.419 528.744 837.128 529.033 838.257C529.322 839.413 528.612 840.568 527.483 840.857L519.391 842.879C519.208 842.932 519.05 842.958 518.866 842.958Z" fill="white"/>
<path d="M649.509 430.053V440.819C649.509 447.016 645.778 452.032 641.155 452.032H59.3448C54.7212 452.032 50.9908 447.016 50.9908 440.819V430.053C50.9908 423.855 54.7212 418.84 59.3448 418.84H641.128C645.778 418.866 649.509 423.882 649.509 430.053Z" fill="#21B573"/>
<path d="M649.509 433.466H50.9908V438.403H649.509V433.466Z" fill="#217C58"/>
<path d="M632.039 479.683H85.1423C82.6992 479.683 80.7026 477.688 80.7026 475.245V451.874H636.452V475.245C636.452 477.714 634.482 479.683 632.039 479.683Z" fill="#217C58"/>
<path d="M607.476 616.889H118.401V635.954H607.476V616.889Z" fill="#217C58"/>
<path d="M83.1457 872.106L177.824 479.683H144.566L49.8875 872.106H83.1457Z" fill="#21B573"/>
<path d="M642.074 872.106L547.396 479.683H580.654L675.332 872.106H642.074Z" fill="#21B573"/>
<path d="M104.127 328.661L93.8695 330.231L105.726 407.611L115.983 406.04L104.127 328.661Z" fill="#FAAF3A"/>
<path d="M104.136 328.638L93.8641 330.214L96.1234 322.362L97.3056 318.318L99.6436 321.837L104.136 328.638Z" fill="#EA9B7A"/>
<path d="M115.112 400.407L104.854 401.978L105.718 407.611L115.975 406.04L115.112 400.407Z" fill="#39393B"/>
<path d="M115.984 410.594L107.078 411.96C106.71 412.012 106.343 411.75 106.29 411.382L105.712 407.575L115.984 405.999L116.562 409.807C116.641 410.174 116.378 410.542 115.984 410.594Z" fill="#DF615C"/>
<path d="M99.6436 321.837L96.1234 322.362L97.3056 318.318L99.6436 321.837Z" fill="#39393B"/>
<path d="M114.517 396.372L104.259 397.942L104.876 401.966L115.133 400.395L114.517 396.372Z" fill="#C77E2E"/>
<path d="M97.0166 333.628L105.791 390.926C105.87 391.346 106.264 391.661 106.684 391.582C107.104 391.504 107.42 391.11 107.341 390.69L98.5666 333.391C98.4877 332.971 98.0937 332.656 97.6734 332.735C97.2268 332.787 96.9378 333.181 97.0166 333.628Z" fill="#C77E2E"/>
<path d="M101.01 332.997L109.784 390.296C109.863 390.716 110.257 391.031 110.677 390.952C111.124 390.874 111.413 390.48 111.334 390.059L102.56 332.761C102.481 332.341 102.087 332.026 101.666 332.105C101.246 332.183 100.957 332.577 101.01 332.997Z" fill="#C77E2E"/>
<path d="M122.686 328.991L112.309 329.025L112.567 407.305L122.944 407.271L122.686 328.991Z" fill="#21B573"/>
<path d="M122.709 328.98L112.306 329.032L115.721 321.601L117.481 317.767L119.241 321.601L122.709 328.98Z" fill="#EA9B7A"/>
<path d="M122.937 401.572L112.56 401.606L112.579 407.305L122.955 407.271L122.937 401.572Z" fill="#39393B"/>
<path d="M122.289 411.802L113.278 411.829C112.884 411.829 112.595 411.513 112.595 411.146V407.312L122.972 407.286V411.12C122.972 411.487 122.656 411.802 122.289 411.802Z" fill="#DF615C"/>
<path d="M119.241 321.601H115.721L117.481 317.767L119.241 321.601Z" fill="#39393B"/>
<path d="M122.913 397.502L112.536 397.536L112.55 401.606L122.927 401.572L122.913 397.502Z" fill="#217C58"/>
<path d="M114.907 332.866L115.091 390.821C115.091 391.267 115.458 391.609 115.879 391.609C116.325 391.609 116.667 391.241 116.667 390.821L116.483 332.866C116.483 332.42 116.115 332.078 115.695 332.078C115.248 332.078 114.907 332.446 114.907 332.866Z" fill="#217C58"/>
<path d="M118.979 332.866L119.163 390.821C119.163 391.267 119.53 391.609 119.951 391.609C120.397 391.609 120.739 391.241 120.739 390.821L120.555 332.866C120.555 332.42 120.187 332.078 119.767 332.078C119.32 332.052 118.979 332.42 118.979 332.866Z" fill="#217C58"/>
<path d="M130.331 328.603L119.321 406.108L129.595 407.566L140.606 330.061L130.331 328.603Z" fill="#0875F7"/>
<path d="M140.625 330.083L130.328 328.638L134.767 321.785L137.053 318.24L138.287 322.284L140.625 330.083Z" fill="#EA9B7A"/>
<path d="M130.412 401.959L120.138 400.501L119.337 406.143L129.611 407.601L130.412 401.959Z" fill="#39393B"/>
<path d="M128.278 411.986L119.373 410.726C119.005 410.673 118.742 410.332 118.795 409.938L119.346 406.13L129.618 407.601L129.066 411.408C129.014 411.776 128.672 412.039 128.278 411.986Z" fill="#DF615C"/>
<path d="M138.287 322.284L134.767 321.785L137.053 318.24L138.287 322.284Z" fill="#39393B"/>
<path d="M120.722 396.451L120.149 400.481L130.423 401.94L130.996 397.911L120.722 396.451Z" fill="#084FC7"/>
<path d="M132.35 332.814L124.206 390.191C124.154 390.637 124.443 391.031 124.89 391.084C125.336 391.136 125.73 390.847 125.783 390.401L133.927 333.024C133.979 332.577 133.69 332.183 133.243 332.131C132.823 332.078 132.403 332.393 132.35 332.814Z" fill="#084FC7"/>
<path d="M136.37 333.391L128.226 390.768C128.173 391.215 128.462 391.609 128.909 391.661C129.355 391.714 129.75 391.425 129.802 390.978L137.946 333.601C137.998 333.155 137.709 332.761 137.263 332.709C136.843 332.656 136.422 332.945 136.37 333.391Z" fill="#084FC7"/>
<path d="M143.988 359.94L143.463 364.141L142.963 367.975L142.202 373.752L141.729 377.534L140.967 383.363L140.494 387.092L139.732 392.974L139.259 396.651L138.497 402.585L138.025 406.209L137.236 412.196L136.79 415.768L136.396 418.866H95.5717L95.1776 415.768L94.7047 412.196L93.9429 406.209L93.47 402.585L92.7082 396.651L92.2353 392.974L91.4735 387.092L90.9743 383.363L90.2388 377.534L89.7396 373.752L89.0041 367.975L88.5049 364.141L87.9532 359.94H143.988Z" fill="#DF615C"/>
<path d="M143.462 364.141L142.963 367.975H89.004L88.5049 364.141H143.462Z" fill="#B11722"/>
<path d="M142.202 373.752L141.729 377.534H90.2388L89.7396 373.752H142.202Z" fill="#B11722"/>
<path d="M140.967 383.363L140.494 387.092H91.4734L90.9742 383.363H140.967Z" fill="#B11722"/>
<path d="M139.732 392.974L139.259 396.651H92.7081L92.2352 392.974H139.732Z" fill="#B11722"/>
<path d="M138.497 402.585L138.025 406.209H93.9428L93.47 402.585H138.497Z" fill="#B11722"/>
<path d="M137.236 412.196L136.79 415.768H95.1776L94.7047 412.196H137.236Z" fill="#B11722"/>
<path d="M646.12 210.733L611.312 357.891L610.392 361.752L608.054 371.651C607.03 375.958 603.22 378.978 598.807 378.978H364.318C358.17 378.978 353.652 373.253 355.07 367.292L393.136 206.374C394.161 202.094 397.97 199.074 402.383 199.074H636.873C642.994 199.047 647.538 204.772 646.12 210.733Z" fill="#39393B"/>
<path d="M611.311 357.891L610.392 361.752H366.918V357.891H611.311Z" fill="#585859"/>
<path d="M458.812 235.469C456.868 245.895 446.833 254.35 436.403 254.35C425.974 254.35 419.091 245.895 421.035 235.469C422.979 225.044 433.015 216.589 443.444 216.589C453.873 216.589 460.756 225.044 458.812 235.469Z" fill="#FAAF3A"/>
<path d="M437.481 231.872C437.087 233.946 436.036 235.653 435.143 235.653C434.223 235.653 433.803 233.973 434.197 231.872C434.591 229.797 435.642 228.091 436.535 228.091C437.428 228.091 437.848 229.771 437.481 231.872Z" fill="#39393B"/>
<path d="M447.332 231.872C446.938 233.946 445.887 235.653 444.994 235.653C444.074 235.653 443.654 233.973 444.048 231.872C444.442 229.797 445.493 228.091 446.386 228.091C447.306 228.091 447.726 229.771 447.332 231.872Z" fill="#39393B"/>
<path d="M438.374 244.66C430.256 244.66 429.915 236.546 429.915 236.467C429.888 236.021 430.256 235.575 430.729 235.496C431.202 235.391 431.57 235.68 431.596 236.126C431.596 236.415 431.911 243.032 438.715 243.032C445.493 243.032 448.278 236.415 448.409 236.126C448.593 235.68 449.092 235.391 449.512 235.496C449.933 235.601 450.143 236.021 449.959 236.467C449.854 236.546 446.491 244.66 438.374 244.66Z" fill="#39393B"/>
<path d="M567.203 323.649C567.414 333.418 583.964 345.655 583.964 345.655C583.964 345.655 603.194 333.418 605.532 323.649C608.054 313.066 595.97 309.81 587.011 317.793C579.787 309.81 566.993 313.04 567.203 323.649Z" fill="#DF615C"/>
<path d="M532.185 295.315C531.055 305.451 521.94 313.644 511.826 313.644C501.711 313.644 494.382 305.425 495.512 295.315C496.641 285.179 505.757 276.986 515.871 276.986C525.985 276.986 533.288 285.179 532.185 295.315Z" fill="#585859"/>
<path d="M411.657 199.047L371.122 378.978H364.291C358.144 378.978 353.625 373.253 355.044 367.292L393.11 206.374C394.134 202.094 397.944 199.047 402.357 199.047H411.657Z" fill="#585859"/>
<path d="M479.592 379.004L472.473 418.971H495.958L503.078 379.004H479.592Z" fill="white"/>
<path d="M437.297 412.091L442.104 405.343C443.812 402.927 446.596 401.509 449.565 401.509H513.98C517.395 401.509 520.521 403.399 522.097 406.419L525.329 412.616C526.852 415.505 524.751 418.997 521.467 418.997H440.843C437.323 418.971 435.248 414.98 437.297 412.091Z" fill="white"/>
<path d="M303.081 418.971H496.589L498.69 411.671C500.004 407.076 496.563 402.506 491.781 402.506H313.222C310.017 402.506 307.206 404.633 306.313 407.706L303.081 418.971Z" fill="white"/>
<path d="M556.827 151.019L471.238 150.966C467.928 150.966 465.222 148.261 465.222 144.953L465.248 92.3812C465.248 89.0725 467.954 86.3677 471.264 86.3677L556.853 86.4203C560.163 86.4203 562.869 89.125 562.869 92.4337L562.843 145.005C562.843 148.34 560.137 151.019 556.827 151.019Z" fill="#DF615C"/>
<path d="M551.73 141.329L543.902 170.766L530.267 143.088L551.73 141.329Z" fill="#DF615C"/>
<path d="M535.653 113.94C533.919 124.969 513.297 138.782 513.297 138.782C513.297 138.782 493.462 124.943 492.333 113.888C491.098 101.913 505.284 98.2633 514.19 107.297C523.595 98.2896 537.57 101.966 535.653 113.94Z" fill="white"/>
<path d="M85.2883 18.6508C90.2857 17.1679 95.4937 20.2275 96.6315 25.3145L109.64 83.4762C111.358 91.157 103.084 97.1873 96.2983 93.2006L26.1535 51.9932C19.3673 48.0065 20.6066 37.8439 28.152 35.605L85.2883 18.6508Z" fill="#FF9776" fill-opacity="0.5"/>
<path d="M756.114 56.3792C747.596 46.2005 735.608 39.6341 722.788 38.1246C709.969 36.615 697.366 40.286 687.754 48.3299C678.142 56.3739 672.307 68.1318 671.534 81.0171C670.76 93.9025 675.111 106.86 683.629 117.038L719.872 86.7088L756.114 56.3792Z" fill="#6CA1F8" fill-opacity="0.3"/>
</g>
<defs>
<clipPath id="clip0_0_53">
<rect width="761" height="897" fill="white"/>
</clipPath>
</defs>
</svg>
