<svg width="43" height="42" viewBox="0 0 43 42" fill="none" xmlns="http://www.w3.org/2000/svg">
<path d="M15.1311 1.3814C10.9346 2.83719 7.31562 5.60032 4.80562 9.26494C2.29562 12.9296 1.02694 17.3025 1.18592 21.7414C1.3449 26.1804 2.92316 30.4514 5.68889 33.927C8.45462 37.4027 12.262 39.8999 16.5519 41.0517C20.0297 41.9491 23.6735 41.9885 27.17 41.1666C30.3374 40.4551 33.2658 38.9332 35.6684 36.75C38.169 34.4083 39.9841 31.4294 40.9184 28.1334C41.9337 24.5492 42.1144 20.78 41.4467 17.115H21.9167V25.2164H33.2272C33.0011 26.5085 32.5167 27.7417 31.803 28.8423C31.0892 29.9428 30.1607 30.8881 29.0731 31.6214C27.6922 32.5353 26.1352 33.1501 24.5023 33.4261C22.8648 33.7306 21.1852 33.7306 19.5477 33.4261C17.8878 33.0833 16.3177 32.3983 14.9375 31.4147C12.7199 29.8449 11.0547 27.6147 10.1797 25.0425C9.2901 22.422 9.2901 19.5812 10.1797 16.9608C10.8026 15.124 11.8322 13.4516 13.1919 12.0684C14.7478 10.4565 16.7177 9.3043 18.8854 8.73821C21.053 8.17213 23.3347 8.21405 25.4802 8.85937C27.1562 9.37362 28.6889 10.2725 29.9558 11.4844C31.2311 10.2156 32.5042 8.94359 33.7752 7.66827C34.4314 6.98249 35.1467 6.32952 35.7931 5.62734C33.8589 3.82763 31.5887 2.42715 29.1125 1.50609C24.6031 -0.13129 19.669 -0.175292 15.1311 1.3814Z" fill="white"/>
<path d="M15.131 1.38141C19.6685 -0.176343 24.6026 -0.133498 29.1124 1.50281C31.5891 2.43013 33.8582 3.83736 35.7897 5.64375C35.1335 6.34594 34.4411 7.00219 33.7718 7.68469C32.4986 8.95563 31.2266 10.2222 29.9557 11.4844C28.6888 10.2725 27.1561 9.37362 25.48 8.85938C23.3353 8.21179 21.0537 8.16745 18.8855 8.73122C16.7172 9.29499 14.7461 10.4451 13.1885 12.0553C11.8288 13.4385 10.7992 15.1109 10.1763 16.9477L3.37427 11.6812C5.80898 6.85309 10.0245 3.15992 15.131 1.38141Z" fill="#E33629"/>
<path d="M1.56971 16.8984C1.93504 15.0864 2.54203 13.3317 3.37439 11.6812L10.1764 16.9608C9.28684 19.5812 9.28684 22.422 10.1764 25.0425C7.91018 26.7925 5.64283 28.5512 3.37439 30.3187C1.2913 26.1723 0.655986 21.4479 1.56971 16.8984Z" fill="#F8BD00"/>
<path d="M21.9167 17.1117H41.4467C42.1144 20.7767 41.9337 24.5459 40.9185 28.1302C39.9841 31.4261 38.169 34.4051 35.6685 36.7467C33.4733 35.0339 31.2683 33.3342 29.0731 31.6214C30.1615 30.8873 31.0904 29.9411 31.8042 28.8393C32.518 27.7376 33.002 26.5031 33.2272 25.2099H21.9167C21.9135 22.5127 21.9167 19.8122 21.9167 17.1117Z" fill="#587DBD"/>
<path d="M3.37109 30.3187C5.63953 28.5687 7.90687 26.81 10.1731 25.0425C11.0499 27.6156 12.7174 29.8459 14.9375 31.4147C16.322 32.3937 17.8955 33.0732 19.5575 33.4097C21.195 33.7142 22.8747 33.7142 24.5122 33.4097C26.145 33.1337 27.702 32.5189 29.083 31.605C31.2781 33.3178 33.4831 35.0175 35.6783 36.7303C33.276 38.9147 30.3476 40.4377 27.1798 41.1502C23.6834 41.9721 20.0396 41.9327 16.5617 41.0353C13.8111 40.3009 11.2417 39.0062 9.01484 37.2323C6.65801 35.3608 4.73293 33.0025 3.37109 30.3187Z" fill="#319F43"/>
</svg>
