<svg width="152" height="170" viewBox="0 0 152 170" fill="none" xmlns="http://www.w3.org/2000/svg">
<g id="Group">
<g id="Group_2">
<path id="Vector" d="M83.3699 93.3999H119.76C125.26 93.3999 130.1 97.0399 131.63 102.33L150.93 168.6" stroke="#0E0E0E" stroke-width="1.66" stroke-miterlimit="10" stroke-linecap="round"/>
<path id="Vector_2" d="M29.5698 113.53V168.6" stroke="#0E0E0E" stroke-width="1.66" stroke-miterlimit="10" stroke-linecap="round"/>
<g id="Group_3">
<g id="Group_4">
<path id="Vector_3" d="M10.2 26.2599H68.09L83.11 94.0799L106.76 112.93L139.7 122.15H56.5399L23.49 102.13L12.47 40.8199L10.2 26.2599Z" fill="#B6BFD8"/>
<path id="Vector_4" d="M75.93 32.5499L90.06 92.8299C91.63 99.5299 97.61 104.27 104.49 104.27H139.7C144.64 104.27 148.64 108.27 148.64 113.21C148.64 118.15 144.64 122.16 139.7 122.16H91.9601C85.0801 122.16 79.1 117.42 77.53 110.73L60.06 36.2799C59.07 32.0799 61.54 27.8299 65.68 26.6099C70.17 25.2799 74.86 27.9999 75.93 32.5599V32.5499Z" fill="#B6BFD8"/>
</g>
<path id="Vector_5" d="M16.2799 32.5499L30.4099 92.8299C31.9799 99.5299 37.9599 104.27 44.8399 104.27H80.0499C84.9899 104.27 88.9899 108.27 88.9899 113.21C88.9899 118.15 84.9899 122.16 80.0499 122.16H32.3099C25.4299 122.16 19.4499 117.42 17.8799 110.73L0.4099 36.2799C-0.5801 32.0799 1.8899 27.8299 6.0299 26.6099C10.5199 25.2799 15.2099 27.9999 16.2799 32.5599V32.5499Z" fill="#8D95B9"/>
</g>
</g>
<g id="Group_5">
<g id="Group_6">
<g id="Group_7">
<path id="Vector_6" d="M124.66 70.6C125.44 70.11 120.58 69.77 120.58 69.77C125.83 68.48 125.67 68.72 125.83 68.48C126.25 67.85 120.08 68.36 120.08 68.36C120.08 68.36 124.08 67.6 124.29 66.89C124.49 66.18 116.74 66.8 116.74 66.8C116.74 66.8 118.03 65.53 117.94 63.87C117.92 63.45 117.45 63.14 117.14 63.1C116.54 65.17 111.76 67.34 111.76 67.34C111.76 67.34 111.16 67.4 110.14 67.5C109.6 67.55 109.07 67.61 108.53 67.66C106.83 67.83 104.61 68.04 102.2 68.27C94.69 68.94 86.5 69.36 76.56 68.63C73.77 72.25 70.81 75.74 67.78 79.16C74.4 79.95 84.49 79.66 99.44 76.32L102.22 75.71C104.49 75.32 106.91 74.84 109.5 74.22L112.69 73.31C112.69 73.31 122.54 72.63 123.19 72.27C123.84 71.91 120.09 71.6 120.09 71.6C120.09 71.6 123.7 71.21 124.67 70.6H124.66Z" fill="#FBC8C8"/>
<g id="Group_8">
<path id="Vector_7" d="M84.92 76.9299L76.21 44.8099L61.77 49.0299L69.9 77.3099C74.91 77.2199 79.92 77.0799 84.92 76.9299Z" fill="#FBC8C8"/>
<path id="Vector_8" d="M58.89 48.63L62.38 68.78C62.38 68.78 82.27 64.77 82.62 64.21C82.79 63.94 80.98 50.1 79.98 44.66C78.8 38.29 70.6 33.61 64.43 35.6L66.13 36.39C60.97 38.06 57.87 43.31 58.89 48.63Z" fill="#FAAF3A"/>
</g>
<g id="Group_9">
<path id="Vector_9" d="M70.7799 41.2399H41.3299C41.3299 41.2399 37.4199 0.689941 55.3999 0.689941C74.9699 0.689941 70.7899 41.2399 70.7899 41.2399H70.7799Z" fill="#A92F4B"/>
<g id="Group_10">
<g id="Group_11">
<path id="Vector_10" d="M61.1999 26.2399L62.1299 42.8699L50.1899 42.6699L51.0399 28.9599L61.1999 26.2399Z" fill="#FBC8C8"/>
<path id="Vector_11" d="M61.57 32.9899C55.36 34.6199 51.03 28.9599 51.03 28.9599L61.19 26.2399L61.56 32.9899H61.57Z" fill="#F96B80"/>
</g>
<g id="Group_12">
<g id="Group_13">
<path id="Vector_12" d="M44.6201 15.3999C44.6201 23.7299 49.3101 30.5799 56.1001 30.5799C62.8901 30.5799 67.5801 23.7399 67.5801 15.3999C67.5801 7.0599 64.7101 3.5199 56.1001 3.5199C47.4901 3.5199 44.6201 7.0699 44.6201 15.3999Z" fill="#FBC8C8"/>
<g id="Clip path group">
<mask id="mask0_283_34" style="mask-type:luminance" maskUnits="userSpaceOnUse" x="44" y="3" width="24" height="28">
<g id="clippath">
<path id="Vector_13" d="M44.6201 15.3999C44.6201 23.7299 49.3101 30.5799 56.1001 30.5799C62.8901 30.5799 67.5801 23.7399 67.5801 15.3999C67.5801 7.0599 64.7101 3.5199 56.1001 3.5199C47.4901 3.5199 44.6201 7.0699 44.6201 15.3999Z" fill="white"/>
</g>
</mask>
<g mask="url(#mask0_283_34)">
<g id="Group_14">
<path id="Vector_14" d="M62.6401 22.8899C62.6401 24.3999 64.0001 25.6199 65.6701 25.6199C67.3401 25.6199 68.7001 24.3999 68.7001 22.8899C68.7001 21.3799 67.3401 20.1599 65.6701 20.1599C64.0001 20.1599 62.6401 21.3799 62.6401 22.8899Z" fill="#FFA1AF"/>
<path id="Vector_15" d="M43.6602 22.7499C43.6602 24.2599 45.0202 25.4799 46.6902 25.4799C48.3602 25.4799 49.7202 24.2599 49.7202 22.7499C49.7202 21.2399 48.3602 20.0199 46.6902 20.0199C45.0202 20.0199 43.6602 21.2399 43.6602 22.7499Z" fill="#FFA1AF"/>
</g>
</g>
</g>
</g>
<g id="Group_15">
<path id="Vector_16" d="M43.1 21.4599C44.5194 21.4599 45.67 20.3093 45.67 18.8899C45.67 17.4706 44.5194 16.3199 43.1 16.3199C41.6807 16.3199 40.53 17.4706 40.53 18.8899C40.53 20.3093 41.6807 21.4599 43.1 21.4599Z" fill="#FBC8C8"/>
<path id="Vector_17" d="M41.98 18.46C41.98 18.46 42.81 17.87 43.66 19.15" stroke="#0F1B3C" stroke-width="0.38" stroke-miterlimit="10" stroke-linecap="round"/>
</g>
<g id="Group_16">
<path id="Vector_18" d="M68.7001 21.4599C70.1195 21.4599 71.2701 20.3093 71.2701 18.8899C71.2701 17.4706 70.1195 16.3199 68.7001 16.3199C67.2807 16.3199 66.1301 17.4706 66.1301 18.8899C66.1301 20.3093 67.2807 21.4599 68.7001 21.4599Z" fill="#FBC8C8"/>
<path id="Vector_19" d="M69.8201 18.46C69.8201 18.46 68.9901 17.87 68.1401 19.15" stroke="#0F1B3C" stroke-width="0.38" stroke-miterlimit="10" stroke-linecap="round"/>
</g>
</g>
</g>
</g>
<g id="Group_17">
<g id="Group_18">
<path id="Vector_20" d="M61.42 18.5199C61.768 18.5199 62.05 18.1931 62.05 17.7899C62.05 17.3868 61.768 17.0599 61.42 17.0599C61.0721 17.0599 60.79 17.3868 60.79 17.7899C60.79 18.1931 61.0721 18.5199 61.42 18.5199Z" fill="#0F1B3C"/>
<path id="Vector_21" d="M50.7999 18.5199C51.1479 18.5199 51.4299 18.1931 51.4299 17.7899C51.4299 17.3868 51.1479 17.0599 50.7999 17.0599C50.452 17.0599 50.1699 17.3868 50.1699 17.7899C50.1699 18.1931 50.452 18.5199 50.7999 18.5199Z" fill="#0F1B3C"/>
</g>
<path id="Vector_22" d="M56.57 21.07L57.56 20.07C56.83 19.34 56.27 18.58 56.27 18.58" stroke="#0F1B3C" stroke-width="0.38" stroke-miterlimit="10" stroke-linecap="round"/>
<path id="Vector_23" d="M57.8499 22.81C57.8499 22.81 55.4999 25.28 53.4099 21.46" stroke="#0F1B3C" stroke-width="0.38" stroke-miterlimit="10" stroke-linecap="round"/>
</g>
<path id="Vector_24" d="M73.31 38.04C72.82 35.19 67.2 34.06 61.57 34.52C56.87 40.71 50.59 36.56 50.56 36.54C46.11 37.96 39.94 40.5 38.5 41.9C36.23 44.1 38.2 51.88 38.2 51.88L49.59 86.97L75.05 77.85C73.92 64.26 73.31 38.05 73.31 38.05V38.04Z" fill="#FAAF3A"/>
<path id="Vector_25" d="M55.53 1.45995C43.1 1.45995 44.19 16.32 44.19 16.32C52.67 15.9399 59.3 10.96 58.94 9.24995C58.83 8.69995 58.85 8.95995 58.94 9.24995C60.93 17.16 68.15 15.88 68.15 15.88L68.22 15.5999C68.22 15.5999 68.53 1.44995 55.53 1.44995V1.45995Z" fill="#A92F4B"/>
<path id="Vector_26" d="M73.3301 53.72L75.0601 77.84" stroke="#161613" stroke-width="0.97" stroke-miterlimit="10" stroke-linecap="round"/>
<g id="Group_19">
<path id="Vector_27" d="M71.3199 78.5799H96.2099V75.7699H71.3199C70.5399 75.7699 69.9199 76.3999 69.9199 77.1699C69.9199 77.9499 70.5499 78.5699 71.3199 78.5699V78.5799Z" fill="#564752"/>
<g id="Group_20">
<path id="Vector_28" d="M92.9299 78.5799H128.66C130.56 78.5799 132.23 77.3099 132.74 75.4799L139.17 52.3799C139.74 50.3399 138.2 48.3199 136.08 48.3199H103.04C101.77 48.3199 100.66 49.1699 100.34 50.3999L92.9299 78.5799Z" fill="#564752"/>
<path id="Vector_29" d="M117.51 67.8699C119.233 67.8699 120.63 66.473 120.63 64.7499C120.63 63.0268 119.233 61.6299 117.51 61.6299C115.787 61.6299 114.39 63.0268 114.39 64.7499C114.39 66.473 115.787 67.8699 117.51 67.8699Z" fill="white"/>
</g>
</g>
</g>
<g id="Group_21">
<g id="Group_22">
<g id="Group_23">
<g id="Group_24">
<path id="Vector_30" d="M126.15 146.04L125.11 162.5L116.74 162.17L117.2 145.51L126.15 146.04Z" fill="#084FC7"/>
<path id="Vector_31" d="M124.88 160.67L138.7 166.97C139.61 167.42 140.08 168.44 139.85 169.43H115.48L116.39 160.57L124.89 160.67H124.88Z" fill="#161613"/>
</g>
<path id="Vector_32" d="M56.5399 85.7299C56.5399 85.7299 48.4699 104.04 70.7199 104.48L112.28 103.64L111.9 146.43L131.29 146.87L134.75 92.4599C134.9 84.8099 130.44 78.4999 122.79 78.4099L86.7899 77.9999L56.5499 85.7399L56.5399 85.7299Z" fill="#5E515A"/>
</g>
<g id="Group_25">
<g id="Group_26">
<path id="Vector_33" d="M114.42 146.04L113.39 162.5L105.01 162.17L105.48 145.51L114.42 146.04Z" fill="#084FC7"/>
<path id="Vector_34" d="M113.16 160.67L126.98 166.97C127.89 167.42 128.36 168.44 128.13 169.43H103.76L104.67 160.57L113.17 160.67H113.16Z" fill="#161613"/>
</g>
<path id="Vector_35" d="M44.82 85.5799C44.82 85.5799 36.75 103.89 59 104.33L100.56 103.49L100.18 146.28L119.57 146.72L123.03 92.3099C123.18 84.6599 118.72 78.3499 111.07 78.2599L75.07 77.8499L44.83 85.5899L44.82 85.5799Z" fill="#71626B"/>
</g>
</g>
<g id="Group_27">
<g id="Group_28">
<path id="Vector_36" d="M44.44 55.4798C45.24 63.4598 46.32 71.6298 48.12 77.3098C60.48 71.5398 69.04 65.6298 76.52 59.9498C78.44 58.4798 80.21 57.1098 81.56 56.0698C81.99 55.7398 82.42 55.4098 82.84 55.0798C83.65 54.4498 84.13 54.0798 84.13 54.0798C84.13 54.0798 87.03 49.6998 86.43 47.6298C86.71 47.4898 87.27 47.5098 87.52 47.8498C88.48 49.2098 88.06 50.9698 88.06 50.9698C88.06 50.9698 94.29 46.3198 94.5 47.0298C94.7 47.7398 91.72 50.5098 91.72 50.5098C91.72 50.5098 96.68 46.7998 96.66 47.5598C96.66 47.8498 96.66 47.5598 92.9 51.4398C92.9 51.4398 97.2 49.1498 96.8 49.9698C96.3 51.0098 93.45 53.2498 93.45 53.2498C93.45 53.2498 96.79 51.5198 96.43 52.1698C96.07 52.8198 88.09 58.6298 88.09 58.6298L85.88 61.0898C84.02 62.9898 82.23 64.6898 80.51 66.2198L78.48 68.2098C54.67 91.7998 42.76 90.6598 41.52 89.9598C39 89.4498 34.46 74.0398 31.01 57.5998C30.34 54.3898 32.05 51.1398 35.1 49.9398C35.16 49.9198 35.23 49.8898 35.29 49.8698C39.44 48.2398 44.01 51.0198 44.46 55.4598L44.44 55.4798Z" fill="#FBC8C8"/>
<path id="Vector_37" d="M49.08 37.2198C49.08 37.2198 29.92 41.4198 30.12 54.8098C30.23 62.3398 34.05 78.2598 34.05 78.2598L51.9 74.7299L49.08 37.2299V37.2198Z" fill="#FAAF3A"/>
<path id="Vector_38" d="M49.48 67.8499L51.02 74.5899" stroke="#161613" stroke-width="0.97" stroke-miterlimit="10" stroke-linecap="round"/>
</g>
<path id="Vector_39" d="M61.5801 34.5199C61.5801 34.5199 57.9301 40.5899 50.5701 36.5399" stroke="#161613" stroke-width="0.97" stroke-miterlimit="10" stroke-linecap="round"/>
</g>
</g>
</g>
<path id="Vector_40" d="M21.4399 93.3999H57.8299C63.3299 93.3999 68.1699 97.0399 69.6999 102.33L88.9999 168.6" stroke="#0E0E0E" stroke-width="1.66" stroke-miterlimit="10" stroke-linecap="round"/>
</g>
</g>
</svg>
