<svg width="45" height="58" viewBox="0 0 45 58" fill="none" xmlns="http://www.w3.org/2000/svg">
<g id="Group 29">
<path id="path310" d="M32.7192 22.0817C40.0087 25.2229 45 31.6222 45 39.0062C45 49.4958 34.926 58 22.4993 58C10.0727 58 0 49.4958 0 39.0062C0 31.7957 4.75949 25.5236 11.7725 22.3063C14.9603 20.8447 18.6146 20.0135 22.4993 20.0135C26.179 20.0135 29.6532 20.7592 32.7192 22.0817Z" fill="#FFAE67"/>
<path id="path312" d="M22.4994 57.2224C16.7355 57.2224 11.3166 55.3276 7.24121 51.8869C3.1655 48.4464 0.920898 43.8718 0.920898 39.0062C0.920898 32.3218 5.2478 26.1845 12.2124 22.9894C15.3492 21.5512 18.9067 20.7909 22.4994 20.7909C25.9519 20.7909 29.2494 21.4581 32.3002 22.774C35.7892 24.2775 38.7324 26.5566 40.8121 29.3651C42.9494 32.2512 44.0789 35.5849 44.0789 39.0062C44.0789 43.8718 41.8343 48.4464 37.7586 51.8869C33.6826 55.3276 28.2634 57.2224 22.4994 57.2224Z" fill="#F7AC7A"/>
<path id="path314" d="M22.5 55.0011C17.4389 55.0011 12.6811 53.3372 9.1025 50.3162C5.52392 47.2953 3.55322 43.2785 3.55322 39.0062C3.55322 33.1368 7.35205 27.7482 13.4676 24.9428C16.2218 23.6797 19.3454 23.0122 22.5 23.0122C25.5317 23.0122 28.4269 23.598 31.1057 24.7535C34.1691 26.0736 36.7534 28.0748 38.5796 30.5409C40.4561 33.0749 41.4481 36.0021 41.4481 39.0062C41.4481 43.2785 39.477 47.2951 35.8985 50.3162C32.3195 53.3372 27.561 55.0011 22.5 55.0011Z" stroke="#C38359" stroke-width="2.61099" stroke-miterlimit="10"/>
<path id="path316" d="M22.4995 49.8521C19.0675 49.8521 15.8415 48.7241 13.4148 46.6757C10.9881 44.6269 9.65186 41.9035 9.65186 39.0063C9.65186 35.0267 12.228 31.3725 16.3745 29.4702C18.2424 28.6137 20.3603 28.1613 22.4995 28.1613C24.5552 28.1613 26.5183 28.5584 28.3349 29.3418C30.4119 30.2373 32.1644 31.594 33.4029 33.2662C34.6753 34.9845 35.3479 36.9695 35.3479 39.0063C35.3479 41.9035 34.0113 44.6269 31.5846 46.6757C29.158 48.7241 25.9313 49.8521 22.4995 49.8521V49.8521Z" stroke="#F7AC7A" stroke-width="1.865" stroke-miterlimit="10"/>
<path id="path318" d="M22.4999 52.2131C18.3208 52.2131 14.3922 50.8394 11.4375 48.3449C8.48279 45.8503 6.85547 42.5341 6.85547 39.0064C6.85547 34.1602 9.99225 29.711 15.0418 27.3943C17.316 26.3516 19.8948 25.8005 22.4999 25.8005C25.0029 25.8005 27.3933 26.2844 29.605 27.2382C32.1347 28.3284 34.2684 29.9808 35.7762 32.0168C37.3258 34.1091 38.1446 36.5261 38.1446 39.0064C38.1446 42.5338 36.5172 45.8503 33.5622 48.3449C30.6071 50.8394 26.6786 52.2131 22.4999 52.2131V52.2131Z" stroke="#C38359" stroke-width="2.61099" stroke-miterlimit="10"/>
<path id="path320" d="M29.3692 19.1896V18.4876C29.3692 18.2844 29.174 18.1196 28.933 18.1196H15.258C15.0173 18.1196 14.8221 18.2844 14.8221 18.4876V19.1896C14.8221 19.3938 15.0173 19.5586 15.258 19.5586H28.933C29.174 19.5586 29.3692 19.3938 29.3692 19.1896ZM31.624 18.6643C32.1968 19.7426 32.5149 20.9037 32.5656 22.0817C29.4996 20.7592 26.0253 20.0133 22.346 20.0133C18.4609 20.0133 14.8069 20.8448 11.6191 22.3063C11.6356 21.0512 11.9589 19.8112 12.5673 18.6643L12.8511 18.1302C13.1678 17.5321 13.8269 17.1139 14.5962 17.023L15.4341 16.9235C19.8529 16.4013 24.3384 16.4013 28.7582 16.9235L29.5947 17.023C30.3641 17.1139 31.0232 17.5321 31.3402 18.1302L31.624 18.6643Z" fill="#F7AC7A"/>
<path id="path322" d="M36.3784 -1.33514e-05L28.577 18.3904H24.2422L32.0209 0.0149937V-1.33514e-05H36.3784Z" fill="#FF6E77"/>
<path id="path324" d="M32.0208 -1.33514e-05V0.0149937L24.2421 18.3904H19.9619L27.7403 0.0149937V-1.33514e-05H32.0208Z" fill="#77DFE1"/>
<path id="path326" d="M27.7398 -1.33514e-05V0.0149937L19.9614 18.3904H15.5884L23.3898 -1.33514e-05H27.7398Z" fill="#AC748C"/>
<path id="path328" d="M43.5032 39.0069C43.5032 44.9966 37.7508 49.8521 30.6551 49.8521C23.5595 49.8521 17.8071 44.9966 17.8071 39.0069C17.8071 33.0169 23.5595 28.1613 30.6551 28.1613C37.7508 28.1613 43.5032 33.0169 43.5032 39.0069Z" fill="#6E2F08"/>
<path id="path330" d="M7.78564 -1.33514e-05L15.5871 18.3904H19.9219L12.1432 0.0149937V-1.33514e-05H7.78564Z" fill="#AC748C"/>
<path id="path332" d="M12.144 -1.33514e-05V0.0149937L19.9228 18.3904H24.2029L16.4245 0.0149937V-1.33514e-05H12.144Z" fill="#77DFE1"/>
<path id="path334" d="M16.4243 -1.33514e-05V0.0149937L24.2027 18.3904H28.5757L20.7743 -1.33514e-05H16.4243Z" fill="#FF6E77"/>
<path id="path336" d="M42.6663 39.0069C42.6663 44.6064 37.2889 49.1459 30.6552 49.1459C24.0215 49.1459 18.644 44.6064 18.644 39.0069C18.644 33.407 24.0215 28.8674 30.6552 28.8674C37.2889 28.8674 42.6663 33.407 42.6663 39.0069Z" fill="#FFAE67"/>
<path id="path338" d="M39.8014 39.0067C39.8014 43.2707 35.7063 46.7273 30.6551 46.7273C25.6036 46.7273 21.5088 43.2707 21.5088 39.0067C21.5088 34.7426 25.6036 31.286 30.6551 31.286C35.7063 31.286 39.8014 34.7426 39.8014 39.0067Z" fill="#C38359"/>
<path id="path340" d="M19.8613 35.6294C19.8613 35.6302 19.8616 35.6308 19.8616 35.6316C19.861 35.6786 19.8577 36.3528 20.0575 36.8005C20.2646 37.2649 20.0885 37.9858 20.0885 37.9858C20.0885 37.9858 19.5248 37.4436 19.485 37.047C19.436 36.5698 19.8481 35.6578 19.8613 35.6294Z" fill="#C38359"/>
<path id="path342" d="M19.9959 36.0229C20.1553 36.3167 20.3192 36.5521 20.4568 36.9025C20.5371 37.107 20.4183 37.6309 20.2372 37.8477C20.178 37.9469 20.0888 37.9858 20.0888 37.9858C20.0888 37.9858 20.2649 37.2649 20.0578 36.8005C19.858 36.3528 19.8613 35.6786 19.8619 35.6316C19.8678 35.6572 19.913 35.8695 19.9959 36.0229Z" fill="#6E2F08"/>
<path id="path344" d="M21.7419 36.2816C21.7413 36.2822 21.7413 36.2828 21.7406 36.2833C21.7034 36.318 21.1737 36.8227 20.9732 37.2704C20.7658 37.7345 20.0698 38.1778 20.0698 38.1778C20.0698 38.1778 20.0705 37.4566 20.3506 37.1365C20.6871 36.7507 21.71 36.2953 21.7419 36.2816Z" fill="#C38359"/>
<path id="path346" d="M21.5352 36.6518C21.4252 36.9614 21.3643 37.2293 21.1934 37.5695C21.0937 37.7679 20.5949 38.095 20.2891 38.157C20.1673 38.1984 20.0698 38.1778 20.0698 38.1778C20.0698 38.1778 20.7658 37.7346 20.9732 37.2705C21.1737 36.8227 21.7034 36.3181 21.7406 36.2833C21.7248 36.3058 21.5928 36.4904 21.5352 36.6518Z" fill="#6E2F08"/>
<path id="path348" d="M19.3638 37.2809C19.3638 37.2815 19.3641 37.2821 19.3645 37.2826C19.3717 37.3293 19.4856 37.9966 19.7605 38.4151C20.0463 38.8489 19.9972 39.5837 19.9972 39.5837C19.9972 39.5837 19.3454 39.1171 19.2374 38.7297C19.106 38.2636 19.3552 37.3104 19.3638 37.2809Z" fill="#C38359"/>
<path id="path350" d="M19.5654 37.6533C19.7741 37.9243 19.9769 38.1369 20.1738 38.4665C20.289 38.6591 20.2623 39.1918 20.1205 39.4286C20.0793 39.5339 19.998 39.5837 19.998 39.5837C19.998 39.5837 20.047 38.8489 19.7613 38.4151C19.4864 37.9966 19.3725 37.3293 19.3652 37.2826C19.3754 37.3076 19.4568 37.5122 19.5654 37.6533Z" fill="#6E2F08"/>
<path id="path352" d="M21.3378 37.6938C21.3371 37.6943 21.3371 37.6949 21.3365 37.6954C21.3059 37.7346 20.8693 38.299 20.7488 38.7668C20.6241 39.2517 20.0124 39.7761 20.0124 39.7761C20.0124 39.7761 19.8879 39.0627 20.1095 38.7115C20.3755 38.2882 21.3082 37.7113 21.3378 37.6938Z" fill="#C38359"/>
<path id="path354" d="M21.1966 38.0855C21.1416 38.4051 21.1278 38.678 21.0175 39.0354C20.9536 39.2439 20.5167 39.6293 20.2251 39.7283C20.1118 39.7844 20.0117 39.7761 20.0117 39.7761C20.0117 39.7761 20.6234 39.2516 20.7482 38.7667C20.8687 38.299 21.3052 37.7346 21.3358 37.6954C21.3243 37.7198 21.2255 37.9188 21.1966 38.0855Z" fill="#6E2F08"/>
<path id="path356" d="M19.1592 39.0738C19.1595 39.0744 19.1598 39.0746 19.1602 39.0755C19.1803 39.1194 19.4739 39.7461 19.8565 40.0996C20.2532 40.4656 20.4072 41.1901 20.4072 41.1901C20.4072 41.1901 19.6451 40.8635 19.4337 40.5078C19.1783 40.0801 19.1592 39.1041 19.1592 39.0738Z" fill="#C38359"/>
<path id="path358" d="M19.4573 39.3967C19.7348 39.6196 19.9906 39.7866 20.2724 40.069C20.437 40.2335 20.5575 40.7571 20.4844 41.0153C20.4732 41.1259 20.4077 41.1901 20.4077 41.1901C20.4077 41.1901 20.2536 40.4656 19.8569 40.0996C19.4744 39.7461 19.1807 39.1194 19.1606 39.0755C19.1774 39.0974 19.3127 39.2806 19.4573 39.3967Z" fill="#6E2F08"/>
<path id="path360" d="M21.1914 39.0893C21.1911 39.0901 21.1911 39.0907 21.1907 39.0912C21.1716 39.1354 20.902 39.7699 20.9129 40.2484C20.9244 40.7445 20.4734 41.3745 20.4734 41.3745C20.4734 41.3745 20.1567 40.7045 20.2758 40.3196C20.4187 39.8558 21.1677 39.1124 21.1914 39.0893Z" fill="#C38359"/>
<path id="path362" d="M21.1628 39.4981C21.1971 39.8199 21.2586 40.0878 21.2494 40.4571C21.2445 40.6725 20.9251 41.1327 20.6687 41.2861C20.5739 41.3628 20.4741 41.3745 20.4741 41.3745C20.4741 41.3745 20.9252 40.7445 20.9136 40.2484C20.9028 39.7699 21.1724 39.1354 21.1915 39.0912C21.1869 39.1174 21.1454 39.3302 21.1628 39.4981Z" fill="#6E2F08"/>
<path id="path364" d="M19.3989 40.7549C19.3993 40.7557 19.3999 40.7557 19.4002 40.7565C19.4256 40.7982 19.7992 41.3941 20.2256 41.7098C20.6674 42.0369 20.9146 42.7427 20.9146 42.7427C20.9146 42.7427 20.115 42.4887 19.8585 42.155C19.5487 41.7534 19.4029 40.7852 19.3989 40.7549Z" fill="#C38359"/>
<path id="path366" d="M19.7367 41.0486C20.0412 41.2443 20.3171 41.3866 20.6341 41.6408C20.8192 41.7892 21.0068 42.2986 20.968 42.5618C20.9713 42.6727 20.9143 42.7427 20.9143 42.7427C20.9143 42.7427 20.6671 42.0369 20.2253 41.7098C19.7989 41.3941 19.4253 40.7982 19.3999 40.7565C19.4193 40.7768 19.5777 40.9464 19.7367 41.0486Z" fill="#6E2F08"/>
<path id="path368" d="M21.4214 40.582C21.4211 40.5828 21.4214 40.5834 21.4211 40.5842C21.4076 40.6298 21.2222 41.2854 21.2953 41.76C21.3713 42.2519 21.0049 42.92 21.0049 42.92C21.0049 42.92 20.6029 42.2836 20.6714 41.8898C20.7531 41.4157 21.4006 40.607 21.4214 40.582Z" fill="#C38359"/>
<path id="path370" d="M21.4449 40.9911C21.5206 41.3079 21.6167 41.5683 21.6559 41.9362C21.6786 42.1508 21.4215 42.6379 21.1861 42.8141C21.1018 42.8992 21.0044 42.92 21.0044 42.92C21.0044 42.92 21.3708 42.2519 21.2948 41.76C21.2217 41.2854 21.407 40.6298 21.4205 40.5842C21.4192 40.6103 21.4057 40.8257 21.4449 40.9911Z" fill="#6E2F08"/>
<path id="path372" d="M19.9277 42.4037C19.9284 42.4045 19.9291 42.4045 19.9294 42.4051C19.9636 42.4423 20.4617 42.9692 20.95 43.2126C21.456 43.465 21.854 44.1198 21.854 44.1198C21.854 44.1198 21.0122 43.9956 20.6869 43.7076C20.2945 43.3617 19.9386 42.4329 19.9277 42.4037Z" fill="#C38359"/>
<path id="path374" d="M20.3247 42.6394C20.6671 42.7842 20.9694 42.8806 21.3368 43.0813C21.5514 43.198 21.8477 43.669 21.8675 43.9339C21.8948 44.0422 21.8543 44.1198 21.8543 44.1198C21.8543 44.1198 21.4563 43.465 20.9503 43.2126C20.462 42.9692 19.9639 42.4423 19.9297 42.4051C19.9537 42.422 20.1463 42.5638 20.3247 42.6394Z" fill="#6E2F08"/>
<path id="path376" d="M21.8771 41.9176C21.8771 41.9184 21.8774 41.9187 21.8774 41.9195C21.8741 41.9665 21.8359 42.6399 22.0121 43.0948C22.1951 43.5663 21.9818 44.2798 21.9818 44.2798C21.9818 44.2798 21.4468 43.7172 21.4277 43.3199C21.4033 42.8411 21.8626 41.9454 21.8771 41.9176Z" fill="#C38359"/>
<path id="path378" d="M21.9909 42.3155C22.1348 42.6148 22.2862 42.8561 22.4054 43.2113C22.4752 43.4185 22.3293 43.9374 22.1371 44.1475C22.0729 44.2442 21.9817 44.2798 21.9817 44.2798C21.9817 44.2798 22.195 43.5663 22.0119 43.0948C21.8358 42.6399 21.874 41.9665 21.8773 41.9195C21.8819 41.9454 21.9158 42.1594 21.9909 42.3155Z" fill="#6E2F08"/>
<path id="path380" d="M20.7534 43.9157C20.7541 43.9162 20.7547 43.9162 20.7554 43.9169C20.7969 43.9483 21.3964 44.3937 21.9274 44.5611C22.4782 44.7348 23.0059 45.3206 23.0059 45.3206C23.0059 45.3206 22.1513 45.3228 21.7714 45.0871C21.3131 44.8045 20.7699 43.9429 20.7534 43.9157Z" fill="#C38359"/>
<path id="path382" d="M21.1924 44.0892C21.5592 44.1809 21.8772 44.2314 22.2805 44.3743C22.5159 44.4576 22.905 44.8775 22.9797 45.1354C23.0291 45.2383 23.0054 45.3206 23.0054 45.3206C23.0054 45.3206 22.4777 44.7348 21.9269 44.5611C21.3959 44.3937 20.7964 43.9483 20.7549 43.9169C20.7815 43.9301 21.0008 44.0411 21.1924 44.0892Z" fill="#6E2F08"/>
<path id="path384" d="M22.5713 43.1489C22.5713 43.1498 22.572 43.1501 22.572 43.1509C22.5785 43.1975 22.6806 43.8662 22.9486 44.2878C23.2264 44.7253 23.1642 45.4592 23.1642 45.4592C23.1642 45.4592 22.5209 44.9845 22.4195 44.596C22.2967 44.1283 22.5627 43.1784 22.5713 43.1489Z" fill="#C38359"/>
<path id="path386" d="M22.7657 43.5239C22.9695 43.7973 23.1686 44.0124 23.3596 44.3444C23.4715 44.5384 23.4353 45.0709 23.2895 45.306C23.2467 45.4108 23.164 45.4592 23.164 45.4592C23.164 45.4592 23.2263 44.7253 22.9484 44.2878C22.6804 43.8662 22.5784 43.1975 22.5718 43.1509C22.5817 43.1756 22.6594 43.3812 22.7657 43.5239Z" fill="#6E2F08"/>
<path id="path388" d="M22.103 45.4253C22.104 45.4256 22.1047 45.4256 22.1053 45.4258C22.1544 45.4479 22.8648 45.7563 23.4281 45.8097C24.0125 45.8647 24.6933 46.3244 24.6933 46.3244C24.6933 46.3244 23.865 46.502 23.4285 46.3518C22.9024 46.1721 22.1271 45.4481 22.103 45.4253Z" fill="#C38359"/>
<path id="path390" d="M22.5795 45.5029C22.9621 45.5166 23.2847 45.5002 23.717 45.5557C23.9695 45.5882 24.4683 45.9153 24.6151 46.1502C24.6928 46.2393 24.6934 46.3245 24.6934 46.3245C24.6934 46.3245 24.0126 45.8648 23.4283 45.8098C22.865 45.7564 22.1545 45.448 22.1055 45.4259C22.1354 45.4332 22.38 45.4957 22.5795 45.5029Z" fill="#6E2F08"/>
<path id="path392" d="M23.6445 44.3076C23.6449 44.3082 23.6455 44.3085 23.6458 44.3092C23.6656 44.3532 23.9576 44.9807 24.3392 45.3345C24.7349 45.7016 24.887 46.4263 24.887 46.4263C24.887 46.4263 24.1258 46.0981 23.9155 45.7422C23.661 45.3139 23.6449 44.3379 23.6445 44.3076Z" fill="#C38359"/>
<path id="path394" d="M23.9411 44.6313C24.218 44.8545 24.4732 45.0221 24.7543 45.305C24.9186 45.4698 25.0374 45.9936 24.964 46.2519C24.9525 46.3622 24.8867 46.4263 24.8867 46.4263C24.8867 46.4263 24.7346 45.7016 24.3388 45.3345C23.9573 44.9807 23.6653 44.3532 23.6455 44.3092C23.6623 44.3315 23.7969 44.5146 23.9411 44.6313Z" fill="#6E2F08"/>
<path id="path396" d="M23.5742 46.5064C23.5752 46.507 23.5759 46.5066 23.5765 46.5072C23.6266 46.5275 24.3495 46.8141 24.9151 46.8499C25.5011 46.8868 26.2014 47.3254 26.2014 47.3254C26.2014 47.3254 25.3816 47.5285 24.9388 47.3918C24.4052 47.2281 23.5992 46.5285 23.5742 46.5064Z" fill="#C38359"/>
<path id="path398" d="M24.0542 46.5695C24.4371 46.5711 24.7587 46.545 25.1933 46.5873C25.4468 46.6119 25.9597 46.9235 26.1161 47.1536C26.1977 47.2406 26.202 47.3254 26.202 47.3254C26.202 47.3254 25.5017 46.8868 24.9157 46.8499C24.3501 46.8141 23.6272 46.5275 23.5771 46.5072C23.6074 46.5134 23.8547 46.5683 24.0542 46.5695Z" fill="#6E2F08"/>
<path id="path400" d="M25.0679 45.3422C25.0682 45.3428 25.0689 45.343 25.0692 45.3439C25.0909 45.387 25.4096 46.0053 25.8063 46.3472C26.2175 46.7017 26.4005 47.4212 26.4005 47.4212C26.4005 47.4212 25.6259 47.1169 25.4 46.7676C25.1275 46.3474 25.0692 45.3725 25.0679 45.3422Z" fill="#C38359"/>
<path id="path402" d="M25.3793 45.6565C25.6654 45.871 25.9278 46.0308 26.2208 46.3049C26.392 46.4647 26.5332 46.9844 26.471 47.2445C26.4644 47.3553 26.4012 47.4212 26.4012 47.4212C26.4012 47.4212 26.2181 46.7017 25.8069 46.3472C25.4102 46.0053 25.0916 45.387 25.0698 45.3439C25.0876 45.3653 25.2301 45.5445 25.3793 45.6565Z" fill="#6E2F08"/>
<path id="path404" d="M25.4668 47.5315C25.4678 47.5315 25.4684 47.5313 25.4694 47.5315C25.5241 47.5397 26.3119 47.6511 26.8676 47.5568C27.4441 47.459 28.2582 47.722 28.2582 47.722C28.2582 47.722 27.5336 48.1041 27.0638 48.0734C26.4976 48.0374 25.4977 47.5472 25.4668 47.5315Z" fill="#C38359"/>
<path id="path406" d="M25.9483 47.4827C26.3176 47.3975 26.6189 47.2989 27.0511 47.2408C27.303 47.2066 27.8962 47.3903 28.1208 47.5762C28.2268 47.6412 28.258 47.7218 28.258 47.7218C28.258 47.7218 27.4439 47.4589 26.8674 47.5567C26.3117 47.6509 25.5239 47.5395 25.4692 47.5314C25.5002 47.5306 25.7557 47.5273 25.9483 47.4827Z" fill="#6E2F08"/>
<path id="path408" d="M27.687 48.1855C27.688 48.1855 27.6883 48.1853 27.6893 48.1853C27.7449 48.1855 28.5436 48.1839 29.073 48.0127C29.6218 47.8348 30.4768 47.9789 30.4768 47.9789C30.4768 47.9789 29.8381 48.4581 29.3686 48.4941C28.8037 48.5385 27.7206 48.1964 27.687 48.1855Z" fill="#C38359"/>
<path id="path410" d="M28.1518 48.0697C28.4988 47.9332 28.7767 47.7934 29.1909 47.6749C29.4328 47.6058 30.0541 47.7027 30.3122 47.8545C30.4297 47.9037 30.4764 47.9788 30.4764 47.9788C30.4764 47.9788 29.6215 47.8347 29.0727 48.0127C28.5433 48.1839 27.7446 48.1855 27.689 48.1853C27.7196 48.18 27.9708 48.1408 28.1518 48.0697Z" fill="#6E2F08"/>
<path id="path412" d="M26.5322 46.0704C26.5329 46.0712 26.5335 46.0712 26.5342 46.0718C26.5688 46.1085 27.0735 46.6312 27.5643 46.8702C28.074 47.118 28.4799 47.7692 28.4799 47.7692C28.4799 47.7692 27.6368 47.6525 27.3079 47.3673C26.9108 47.025 26.5434 46.0996 26.5322 46.0704Z" fill="#C38359"/>
<path id="path414" d="M26.9309 46.3025C27.2753 46.4441 27.5788 46.538 27.9485 46.735C28.1645 46.8501 28.4667 47.3184 28.4897 47.5833C28.5184 47.6913 28.4789 47.7692 28.4789 47.7692C28.4789 47.7692 28.073 47.118 27.5633 46.8702C27.0725 46.6312 26.5678 46.1085 26.5332 46.0718C26.5569 46.0887 26.7515 46.2285 26.9309 46.3025Z" fill="#6E2F08"/>
<path id="path416" d="M28.4155 46.759C28.4159 46.7596 28.4165 46.7596 28.4172 46.7601C28.4537 46.787 28.9831 47.1727 29.4499 47.3156C29.9335 47.4638 30.4014 47.9729 30.4014 47.9729C30.4014 47.9729 29.6534 47.9806 29.3182 47.7775C28.9143 47.5333 28.43 46.7826 28.4155 46.759Z" fill="#C38359"/>
<path id="path418" d="M28.8015 46.9076C29.1238 46.9855 29.4027 47.0272 29.7572 47.1497C29.964 47.2208 30.3093 47.5858 30.3768 47.8112C30.4213 47.9006 30.4012 47.9729 30.4012 47.9729C30.4012 47.9729 29.9334 47.4638 29.4497 47.3156C28.9829 47.1727 28.4535 46.787 28.417 46.7601C28.4407 46.7715 28.6336 46.8671 28.8015 46.9076Z" fill="#6E2F08"/>
<path id="path420" d="M29.2427 48.6107C29.243 48.6104 29.243 48.6102 29.2437 48.6102C29.2693 48.5993 29.6384 48.4442 29.8366 48.2628C30.042 48.0743 30.4766 47.9757 30.4766 47.9757C30.4766 47.9757 30.3113 48.3206 30.1039 48.4281C29.8547 48.558 29.2611 48.6093 29.2427 48.6107Z" fill="#C38359"/>
<path id="path422" d="M29.426 48.467C29.5495 48.3369 29.64 48.2186 29.7997 48.0838C29.8925 48.0048 30.2063 47.9295 30.3669 47.9498C30.4344 47.9498 30.4766 47.9757 30.4766 47.9757C30.4766 47.9757 30.042 48.0743 29.8366 48.2628C29.6384 48.4442 29.2693 48.5993 29.2437 48.6102C29.2562 48.6018 29.3618 48.5348 29.426 48.467Z" fill="#6E2F08"/>
<path id="path424" d="M41.4489 35.6294C41.4489 35.6302 41.4485 35.6308 41.4485 35.6316C41.4492 35.6786 41.4525 36.3528 41.2527 36.8005C41.0456 37.2649 41.2217 37.9858 41.2217 37.9858C41.2217 37.9858 41.7853 37.4436 41.8252 37.047C41.8739 36.5698 41.462 35.6578 41.4489 35.6294Z" fill="#C38359"/>
<path id="path426" d="M41.3151 36.0229C41.1557 36.3167 40.9918 36.5521 40.8542 36.9025C40.7738 37.107 40.8927 37.6309 41.0738 37.8477C41.133 37.9469 41.2222 37.9858 41.2222 37.9858C41.2222 37.9858 41.0461 37.2649 41.2532 36.8005C41.453 36.3528 41.4497 35.6786 41.4491 35.6316C41.4431 35.6572 41.398 35.8695 41.3151 36.0229Z" fill="#6E2F08"/>
<path id="path428" d="M39.5693 36.2816C39.57 36.2822 39.57 36.2828 39.5707 36.2833C39.6079 36.318 40.1376 36.8227 40.3377 37.2704C40.5455 37.7345 41.2414 38.1778 41.2414 38.1778C41.2414 38.1778 41.2408 37.4566 40.9606 37.1365C40.6241 36.7507 39.6013 36.2953 39.5693 36.2816Z" fill="#C38359"/>
<path id="path430" d="M39.7762 36.6518C39.8862 36.9614 39.9471 37.2293 40.118 37.5695C40.2177 37.7679 40.7165 38.095 41.0223 38.157C41.1441 38.1984 41.2416 38.1778 41.2416 38.1778C41.2416 38.1778 40.5456 37.7346 40.3379 37.2705C40.1377 36.8227 39.608 36.3181 39.5708 36.2833C39.5863 36.3058 39.7186 36.4904 39.7762 36.6518Z" fill="#6E2F08"/>
<path id="path432" d="M41.9467 37.2809C41.9467 37.2815 41.946 37.2821 41.946 37.2826C41.9388 37.3293 41.8249 37.9966 41.5496 38.4151C41.2642 38.8489 41.3133 39.5837 41.3133 39.5837C41.3133 39.5837 41.9648 39.1171 42.0731 38.7297C42.2045 38.2636 41.9549 37.3104 41.9467 37.2809Z" fill="#C38359"/>
<path id="path434" d="M41.745 37.6533C41.5363 37.9243 41.3332 38.1369 41.1363 38.4665C41.0214 38.6591 41.0481 39.1918 41.1896 39.4286C41.2311 39.5339 41.3124 39.5837 41.3124 39.5837C41.3124 39.5837 41.2634 38.8489 41.5488 38.4151C41.824 37.9966 41.9379 37.3293 41.9452 37.2826C41.935 37.3076 41.8536 37.5122 41.745 37.6533Z" fill="#6E2F08"/>
<path id="path436" d="M39.9736 37.6938C39.9743 37.6943 39.9743 37.6949 39.9746 37.6954C40.0056 37.7346 40.4421 38.299 40.5626 38.7668C40.6874 39.2517 41.2991 39.7761 41.2991 39.7761C41.2991 39.7761 41.4235 39.0627 41.2016 38.7115C40.9356 38.2882 40.0029 37.7113 39.9736 37.6938Z" fill="#C38359"/>
<path id="path438" d="M40.1137 38.0855C40.1687 38.4051 40.1825 38.678 40.2925 39.0354C40.3567 39.2439 40.7935 39.6293 41.0852 39.7283C41.1985 39.7844 41.2986 39.7761 41.2986 39.7761C41.2986 39.7761 40.6869 39.2516 40.5621 38.7667C40.4416 38.299 40.0051 37.7346 39.9741 37.6954C39.986 37.7198 40.0847 37.9188 40.1137 38.0855Z" fill="#6E2F08"/>
<path id="path440" d="M42.1509 39.0738C42.1506 39.0744 42.1499 39.0746 42.1499 39.0755C42.1298 39.1194 41.8362 39.7461 41.4536 40.0996C41.0566 40.4656 40.9028 41.1901 40.9028 41.1901C40.9028 41.1901 41.6646 40.8635 41.8763 40.5078C42.1318 40.0801 42.1509 39.1041 42.1509 39.0738Z" fill="#C38359"/>
<path id="path442" d="M41.8533 39.3967C41.5761 39.6196 41.3203 39.7866 41.0385 40.069C40.8739 40.2335 40.7534 40.7571 40.8265 41.0153C40.8377 41.1259 40.9032 41.1901 40.9032 41.1901C40.9032 41.1901 41.057 40.4656 41.454 40.0996C41.8366 39.7461 42.1302 39.1194 42.1503 39.0755C42.1332 39.0974 41.9979 39.2806 41.8533 39.3967Z" fill="#6E2F08"/>
<path id="path444" d="M40.1191 39.0893C40.1195 39.0901 40.1191 39.0907 40.1198 39.0912C40.1389 39.1354 40.4085 39.7699 40.3977 40.2484C40.3858 40.7445 40.8372 41.3745 40.8372 41.3745C40.8372 41.3745 41.1539 40.7045 41.0347 40.3196C40.8918 39.8558 40.1428 39.1124 40.1191 39.0893Z" fill="#C38359"/>
<path id="path446" d="M40.1477 39.4981C40.1138 39.8199 40.0523 40.0878 40.0615 40.4571C40.0664 40.6725 40.3854 41.1327 40.6422 41.2861C40.737 41.3628 40.8368 41.3745 40.8368 41.3745C40.8368 41.3745 40.3854 40.7445 40.3973 40.2484C40.4081 39.7699 40.1385 39.1354 40.1194 39.0912C40.1237 39.1174 40.1655 39.3302 40.1477 39.4981Z" fill="#6E2F08"/>
<path id="path448" d="M41.9117 40.7549C41.9114 40.7557 41.9107 40.7557 41.9104 40.7565C41.8847 40.7982 41.5114 41.3941 41.0851 41.7098C40.6429 42.0369 40.396 42.7427 40.396 42.7427C40.396 42.7427 41.1957 42.4887 41.4521 42.155C41.7619 41.7534 41.9078 40.7852 41.9117 40.7549Z" fill="#C38359"/>
<path id="path450" d="M41.5736 41.0486C41.2691 41.2443 40.9932 41.3866 40.6761 41.6408C40.4911 41.7892 40.3035 42.2986 40.342 42.5618C40.339 42.6727 40.396 42.7427 40.396 42.7427C40.396 42.7427 40.6429 42.0369 41.085 41.7098C41.5114 41.3941 41.8847 40.7982 41.9104 40.7565C41.8906 40.7768 41.7323 40.9464 41.5736 41.0486Z" fill="#6E2F08"/>
<path id="path452" d="M39.8896 40.582C39.89 40.5828 39.8896 40.5834 39.89 40.5842C39.9035 40.6298 40.0888 41.2854 40.0157 41.76C39.9394 42.2519 40.3058 42.92 40.3058 42.92C40.3058 42.92 40.7081 42.2836 40.6396 41.8898C40.558 41.4157 39.9104 40.607 39.8896 40.582Z" fill="#C38359"/>
<path id="path454" d="M39.8653 40.9911C39.7892 41.3079 39.6935 41.5683 39.6543 41.9362C39.6312 42.1508 39.8887 42.6379 40.1237 42.8141C40.208 42.8992 40.3055 42.92 40.3055 42.92C40.3055 42.92 39.939 42.2519 40.0154 41.76C40.0885 41.2854 39.9032 40.6298 39.8897 40.5842C39.891 40.6103 39.9045 40.8257 39.8653 40.9911Z" fill="#6E2F08"/>
<path id="path456" d="M41.382 42.4037C41.3816 42.4045 41.381 42.4045 41.3803 42.4051C41.3461 42.4423 40.8483 42.9692 40.3601 43.2126C39.8537 43.465 39.4561 44.1198 39.4561 44.1198C39.4561 44.1198 40.2975 43.9956 40.6231 43.7076C41.0156 43.3617 41.3714 42.4329 41.382 42.4037Z" fill="#C38359"/>
<path id="path458" d="M40.9863 42.6394C40.6439 42.7842 40.3413 42.8806 39.9739 43.0813C39.7596 43.198 39.4633 43.669 39.4436 43.9339C39.4162 44.0422 39.4567 44.1198 39.4567 44.1198C39.4567 44.1198 39.8544 43.465 40.3608 43.2126C40.849 42.9692 41.3468 42.4423 41.381 42.4051C41.3573 42.422 41.1647 42.5638 40.9863 42.6394Z" fill="#6E2F08"/>
<path id="path460" d="M39.4335 41.9176C39.4339 41.9184 39.4332 41.9187 39.4335 41.9195C39.4368 41.9665 39.475 42.6399 39.2986 43.0948C39.1159 43.5663 39.3292 44.2798 39.3292 44.2798C39.3292 44.2798 39.8642 43.7172 39.8833 43.3199C39.9073 42.8411 39.4484 41.9454 39.4335 41.9176Z" fill="#C38359"/>
<path id="path462" d="M39.3199 42.3155C39.176 42.6148 39.0243 42.8561 38.9054 43.2113C38.8356 43.4185 38.9815 43.9374 39.1737 44.1475C39.2379 44.2442 39.3291 44.2798 39.3291 44.2798C39.3291 44.2798 39.1158 43.5663 39.2985 43.0948C39.475 42.6399 39.4368 41.9665 39.4335 41.9195C39.4289 41.9454 39.395 42.1594 39.3199 42.3155Z" fill="#6E2F08"/>
<path id="path464" d="M40.5572 43.9157C40.5565 43.9162 40.5559 43.9162 40.5552 43.9169C40.5137 43.9483 39.9142 44.3937 39.3832 44.5611C38.8324 44.7348 38.3047 45.3206 38.3047 45.3206C38.3047 45.3206 39.1593 45.3228 39.5393 45.0871C39.9975 44.8045 40.5407 43.9429 40.5572 43.9157Z" fill="#C38359"/>
<path id="path466" d="M40.1175 44.0892C39.7504 44.1809 39.4327 44.2314 39.0295 44.3743C38.7941 44.4576 38.4046 44.8775 38.3302 45.1354C38.2808 45.2383 38.3045 45.3206 38.3045 45.3206C38.3045 45.3206 38.8322 44.7348 39.383 44.5611C39.9141 44.3937 40.5136 43.9483 40.555 43.9169C40.528 43.9301 40.3091 44.0411 40.1175 44.0892Z" fill="#6E2F08"/>
<path id="path468" d="M38.7393 43.1489C38.7393 43.1498 38.7386 43.1501 38.7386 43.1509C38.732 43.1975 38.63 43.8662 38.362 44.2878C38.0841 44.7253 38.146 45.4592 38.146 45.4592C38.146 45.4592 38.7896 44.9845 38.8907 44.596C39.0138 44.1283 38.7478 43.1784 38.7393 43.1489Z" fill="#C38359"/>
<path id="path470" d="M38.545 43.5239C38.3412 43.7973 38.1417 44.0124 37.9508 44.3444C37.8392 44.5384 37.8751 45.0709 38.0209 45.306C38.064 45.4108 38.1463 45.4592 38.1463 45.4592C38.1463 45.4592 38.0845 44.7253 38.3623 44.2878C38.6303 43.8662 38.7323 43.1975 38.7389 43.1509C38.7291 43.1756 38.651 43.3812 38.545 43.5239Z" fill="#6E2F08"/>
<path id="path472" d="M39.208 45.4253C39.207 45.4256 39.2063 45.4256 39.2056 45.4258C39.1563 45.4479 38.4461 45.7563 37.8829 45.8097C37.2985 45.8647 36.6177 46.3244 36.6177 46.3244C36.6177 46.3244 37.4457 46.502 37.8825 46.3518C38.4083 46.1721 39.1839 45.4481 39.208 45.4253Z" fill="#C38359"/>
<path id="path474" d="M38.7316 45.5029C38.349 45.5166 38.0264 45.5002 37.5938 45.5557C37.3416 45.5882 36.8429 45.9153 36.696 46.1502C36.6183 46.2393 36.6177 46.3245 36.6177 46.3245C36.6177 46.3245 37.2985 45.8648 37.8829 45.8098C38.4461 45.7564 39.1563 45.448 39.2056 45.4259C39.1757 45.4332 38.9311 45.4957 38.7316 45.5029Z" fill="#6E2F08"/>
<path id="path476" d="M37.6655 44.3076C37.6651 44.3082 37.6648 44.3085 37.6645 44.3092C37.6447 44.3532 37.3524 44.9807 36.9712 45.3345C36.5751 45.7016 36.4233 46.4263 36.4233 46.4263C36.4233 46.4263 37.1845 46.0981 37.3949 45.7422C37.6493 45.3139 37.6655 44.3379 37.6655 44.3076Z" fill="#C38359"/>
<path id="path478" d="M37.3688 44.6313C37.0919 44.8545 36.8368 45.0221 36.5556 45.305C36.3913 45.4698 36.2725 45.9936 36.3459 46.2519C36.3574 46.3622 36.4233 46.4263 36.4233 46.4263C36.4233 46.4263 36.5751 45.7016 36.9711 45.3345C37.3523 44.9807 37.6447 44.3532 37.6644 44.3092C37.6476 44.3315 37.513 44.5146 37.3688 44.6313Z" fill="#6E2F08"/>
<path id="path480" d="M37.7352 46.5064C37.7346 46.507 37.7339 46.5066 37.7332 46.5072C37.6829 46.5275 36.9599 46.8141 36.3947 46.8499C35.8086 46.8868 35.1084 47.3254 35.1084 47.3254C35.1084 47.3254 35.9281 47.5285 36.3709 47.3918C36.9043 47.2281 37.7105 46.5285 37.7352 46.5064Z" fill="#C38359"/>
<path id="path482" d="M37.2562 46.5695C36.8733 46.5711 36.5514 46.545 36.1171 46.5873C35.8633 46.6119 35.3507 46.9235 35.194 47.1536C35.1127 47.2406 35.1084 47.3254 35.1084 47.3254C35.1084 47.3254 35.8086 46.8868 36.3947 46.8499C36.9599 46.8141 37.6829 46.5275 37.7332 46.5072C37.703 46.5134 37.4557 46.5683 37.2562 46.5695Z" fill="#6E2F08"/>
<path id="path484" d="M36.2428 45.3422C36.2425 45.3428 36.2418 45.343 36.2415 45.3439C36.2198 45.387 35.9008 46.0053 35.5044 46.3472C35.0932 46.7017 34.9102 47.4212 34.9102 47.4212C34.9102 47.4212 35.6848 47.1169 35.9103 46.7676C36.1832 46.3474 36.2415 45.3725 36.2428 45.3422Z" fill="#C38359"/>
<path id="path486" d="M35.9325 45.6565C35.6464 45.871 35.384 46.0308 35.091 46.3049C34.9195 46.4647 34.7782 46.9844 34.8408 47.2445C34.8474 47.3553 34.9106 47.4212 34.9106 47.4212C34.9106 47.4212 35.0936 46.7017 35.5048 46.3472C35.9012 46.0053 36.2202 45.387 36.2419 45.3439C36.2242 45.3653 36.0816 45.5445 35.9325 45.6565Z" fill="#6E2F08"/>
<path id="path488" d="M35.8443 47.5315C35.8437 47.5315 35.843 47.5313 35.842 47.5315C35.7874 47.5397 34.9996 47.6511 34.4438 47.5568C33.8674 47.459 33.0532 47.722 33.0532 47.722C33.0532 47.722 33.7778 48.1041 34.2476 48.0734C34.8135 48.0374 35.8134 47.5472 35.8443 47.5315Z" fill="#C38359"/>
<path id="path490" d="M35.3627 47.4827C34.9936 47.3975 34.6921 47.2989 34.2601 47.2408C34.0083 47.2066 33.415 47.3903 33.1905 47.5762C33.0842 47.6412 33.0532 47.7218 33.0532 47.7218C33.0532 47.7218 33.8674 47.4589 34.4438 47.5567C34.9996 47.6509 35.7874 47.5395 35.842 47.5314C35.8111 47.5306 35.5556 47.5273 35.3627 47.4827Z" fill="#6E2F08"/>
<path id="path492" d="M34.7789 46.0704C34.7785 46.0712 34.7779 46.0712 34.7772 46.0718C34.7426 46.1085 34.238 46.6312 33.7468 46.8702C33.2375 47.118 32.8315 47.7692 32.8315 47.7692C32.8315 47.7692 33.6747 47.6525 34.0036 47.3673C34.4003 47.025 34.768 46.0996 34.7789 46.0704Z" fill="#C38359"/>
<path id="path494" d="M34.3788 46.3025C34.0345 46.4441 33.7309 46.538 33.3612 46.735C33.1453 46.8501 32.843 47.3184 32.82 47.5833C32.7913 47.6913 32.8309 47.7692 32.8309 47.7692C32.8309 47.7692 33.2368 47.118 33.7461 46.8702C34.2373 46.6312 34.742 46.1085 34.7765 46.0718C34.7525 46.0887 34.5582 46.2285 34.3788 46.3025Z" fill="#6E2F08"/>
<path id="path496" d="M33.9245 48.1819C33.9239 48.1819 33.9232 48.1816 33.9222 48.1816C33.8666 48.1816 33.0679 48.1755 32.5402 48.0009C31.9927 47.8201 31.1367 47.959 31.1367 47.959C31.1367 47.959 31.7711 48.442 32.2406 48.4806C32.8052 48.5284 33.891 48.1928 33.9245 48.1819Z" fill="#C38359"/>
<path id="path498" d="M33.4603 48.0635C33.1147 47.9248 32.8381 47.7834 32.4246 47.6628C32.1833 47.5922 31.5614 47.6856 31.302 47.8356C31.1841 47.8842 31.1367 47.959 31.1367 47.959C31.1367 47.959 31.9927 47.8201 32.5402 48.0009C33.0679 48.1755 33.8666 48.1816 33.9222 48.1816C33.8919 48.1764 33.6407 48.1354 33.4603 48.0635Z" fill="#6E2F08"/>
<path id="path500" d="M32.8939 46.759C32.8932 46.7596 32.8929 46.7596 32.8922 46.7601C32.8557 46.787 32.3263 47.1727 31.8595 47.3156C31.3755 47.4638 30.9077 47.9729 30.9077 47.9729C30.9077 47.9729 31.656 47.9806 31.9912 47.7775C32.3951 47.5333 32.8794 46.7826 32.8939 46.759Z" fill="#C38359"/>
<path id="path502" d="M32.5085 46.9076C32.1862 46.9855 31.9077 47.0272 31.5531 47.1497C31.346 47.2208 31.001 47.5858 30.9332 47.8112C30.8887 47.9006 30.9088 47.9729 30.9088 47.9729C30.9088 47.9729 31.3766 47.4638 31.8606 47.3156C32.3274 47.1727 32.8568 46.787 32.8933 46.7601C32.8696 46.7715 32.6767 46.8671 32.5085 46.9076Z" fill="#6E2F08"/>
<path id="path504" d="M32.0679 48.6107C32.0676 48.6104 32.0676 48.6102 32.0669 48.6102C32.0412 48.5993 31.6722 48.4442 31.474 48.2628C31.2682 48.0743 30.834 47.9757 30.834 47.9757C30.834 47.9757 30.9993 48.3206 31.2067 48.4281C31.4559 48.558 32.0495 48.6093 32.0679 48.6107Z" fill="#C38359"/>
<path id="path506" d="M31.8842 48.467C31.7607 48.3369 31.6705 48.2186 31.5109 48.0838C31.4177 48.0048 31.1043 47.9295 30.9436 47.9498C30.8758 47.9498 30.834 47.9757 30.834 47.9757C30.834 47.9757 31.2682 48.0743 31.474 48.2628C31.6722 48.4442 32.0412 48.5993 32.0669 48.6102C32.0544 48.6018 31.9487 48.5348 31.8842 48.467Z" fill="#6E2F08"/>
<path id="path508" d="M25.2554 25.0034C19.2544 26.027 14.7 29.0487 12.1252 32.7134C10.0041 35.729 9.70318 38.154 10.6 41.0295C14.9328 55.5248 21.0855 47.9049 29.3525 54.9681C29.4233 55.0299 29.4121 55.1085 29.3535 55.1551L28.7247 55.6537C28.6671 55.6995 28.5739 55.7027 28.5113 55.6482C23.4137 51.3396 19.4595 52.9794 15.4046 50.5911C11.9623 48.5385 10.4722 44.2518 9.5333 40.6854C8.61808 37.1894 9.86022 34.0676 12.4966 31.1335C12.6543 30.9518 13.1521 30.4526 13.2344 30.3748C16.4686 27.4015 20.2457 25.489 25.2554 25.0034Z" fill="#C38359"/>
<path id="path510" d="M7.53008 29.1039C7.52975 29.1064 7.53074 29.1078 7.53008 29.1101C7.5021 29.2557 7.12515 31.348 7.50111 32.8162C7.89156 34.3386 6.95231 36.5085 6.95231 36.5085C6.95231 36.5085 5.49717 34.6065 5.58968 33.3598C5.69766 31.8586 7.47346 29.1865 7.53008 29.1039Z" fill="#C38359"/>
<path id="path512" d="M7.73288 30.3776C8.06802 31.3517 8.44892 32.1459 8.68497 33.2878C8.82324 33.954 8.16909 35.5341 7.48827 36.1375C7.2509 36.4221 6.95264 36.5085 6.95264 36.5085C6.95264 36.5085 7.89189 34.3386 7.50144 32.8162C7.12547 31.348 7.50243 29.2557 7.53041 29.1101C7.53469 29.1926 7.55905 29.8693 7.73288 30.3776Z" fill="#6E2F08"/>
<path id="path514" d="M11.3231 31.6317C11.3218 31.6339 11.3228 31.6353 11.3214 31.6378C11.2632 31.7768 10.4523 33.7791 10.5135 35.2806C10.5777 36.8372 9.19701 38.8317 9.19701 38.8317C9.19701 38.8317 8.16525 36.7421 8.5185 35.5291C8.94023 34.0679 11.2497 31.7043 11.3231 31.6317Z" fill="#C38359"/>
<path id="path516" d="M11.2536 32.9154C11.3787 33.9242 11.5864 34.7629 11.5785 35.922C11.5746 36.5982 10.5984 38.0555 9.80139 38.5472C9.50806 38.7914 9.19629 38.8317 9.19629 38.8317C9.19629 38.8317 10.577 36.8372 10.5128 35.2806C10.4516 33.7791 11.2625 31.7768 11.3207 31.6378C11.3079 31.7195 11.1894 32.3893 11.2536 32.9154Z" fill="#6E2F08"/>
<path id="path518" d="M3.76221 33.1002C3.76319 33.1021 3.76484 33.1027 3.76583 33.1046C3.82937 33.218 4.76171 34.8374 5.86491 35.713C7.00927 36.6204 7.59231 38.5235 7.59231 38.5235C7.59231 38.5235 5.485 37.784 4.83677 36.8727C4.05389 35.777 3.76978 33.181 3.76221 33.1002Z" fill="#C38359"/>
<path id="path520" d="M4.63245 33.91C5.42422 34.4558 6.14521 34.8571 6.96364 35.561C7.44166 35.9712 7.88709 37.3452 7.75507 38.0452C7.75178 38.3415 7.59211 38.5235 7.59211 38.5235C7.59211 38.5235 7.00907 36.6204 5.86471 35.713C4.76151 34.8374 3.82916 33.218 3.76562 33.1046C3.81567 33.1605 4.21961 33.6248 4.63245 33.91Z" fill="#6E2F08"/>
<path id="path522" d="M3.104 37.7C3.10532 37.7017 3.1073 37.702 3.10894 37.7039C3.20771 37.8065 4.64408 39.2691 6.03502 39.933C7.47732 40.6208 8.63979 42.4481 8.63979 42.4481C8.63979 42.4481 6.26054 42.1357 5.32556 41.3392C4.19766 40.3818 3.13561 37.7815 3.104 37.7Z" fill="#C38359"/>
<path id="path524" d="M4.23645 38.3459C5.21028 38.7377 6.06822 38.9965 7.11611 39.5445C7.7278 39.8641 8.59232 41.1778 8.66508 41.9234C8.74936 42.2274 8.63973 42.4481 8.63973 42.4481C8.63973 42.4481 7.47727 40.6208 6.03497 39.933C4.64403 39.2691 3.20765 37.8065 3.10889 37.7039C3.17671 37.7503 3.7288 38.1411 4.23645 38.3459Z" fill="#6E2F08"/>
<path id="path526" d="M8.19045 35.897C8.19045 35.8995 8.1921 35.9009 8.1921 35.9034C8.20395 36.0557 8.39984 38.2428 9.18469 39.6515C9.99885 41.1122 9.64856 43.488 9.64856 43.488C9.64856 43.488 7.65482 41.8531 7.40429 40.5759C7.09943 39.0388 8.15589 35.9915 8.19045 35.897Z" fill="#C38359"/>
<path id="path528" d="M8.74597 37.1434C9.35305 38.0614 9.9565 38.7886 10.5096 39.8953C10.8332 40.5408 10.6083 42.2652 10.0869 43.0081C9.92588 43.3419 9.64835 43.488 9.64835 43.488C9.64835 43.488 9.99864 41.1122 9.18449 39.6515C8.39964 38.2428 8.20375 36.0557 8.19189 35.9034C8.21889 35.9857 8.42992 36.6643 8.74597 37.1434Z" fill="#6E2F08"/>
<path id="path530" d="M3.32422 44.8773C3.32718 44.8784 3.32916 44.8775 3.33179 44.8787C3.50233 44.9298 5.95862 45.6443 7.8019 45.5945C9.71301 45.5423 12.1584 46.7551 12.1584 46.7551C12.1584 46.7551 9.5902 47.6525 8.10181 47.3407C6.30923 46.9677 3.41344 44.9415 3.32422 44.8773Z" fill="#C38359"/>
<path id="path532" d="M4.89944 44.9407C6.13828 44.8337 7.16841 44.6541 8.59128 44.6639C9.42157 44.6689 11.2082 45.5265 11.8097 46.2248C12.109 46.4822 12.1577 46.7551 12.1577 46.7551C12.1577 46.7551 9.71227 45.5423 7.80116 45.5945C5.95788 45.6443 3.50159 44.9298 3.33105 44.8787C3.43147 44.8901 4.25319 44.9956 4.89944 44.9407Z" fill="#6E2F08"/>
<path id="path534" d="M8.58301 42.5931C8.58432 42.5954 8.58663 42.5959 8.58794 42.5981C8.67947 42.7299 10.0171 44.6102 11.4669 45.5722C12.9705 46.5695 13.9203 48.8255 13.9203 48.8255C13.9203 48.8255 11.2694 48.119 10.367 47.0724C9.27765 45.8143 8.60243 42.6907 8.58301 42.5931Z" fill="#C38359"/>
<path id="path536" d="M9.74164 43.4968C10.7718 44.0872 11.6978 44.5085 12.7803 45.2881C13.4124 45.7427 14.1278 47.369 14.0567 48.2302C14.0899 48.5898 13.9197 48.8255 13.9197 48.8255C13.9197 48.8255 12.9699 46.5695 11.4664 45.5722C10.0165 44.6102 8.67892 42.7299 8.5874 42.5981C8.65522 42.6615 9.20469 43.1881 9.74164 43.4968Z" fill="#6E2F08"/>
<path id="path538" d="M14.3692 42.1219C14.3695 42.1247 14.3708 42.1258 14.3712 42.1283C14.3853 42.2806 14.6158 44.4651 15.4224 45.865C16.2592 47.3165 15.9461 49.696 15.9461 49.696C15.9461 49.696 13.9271 48.0836 13.6568 46.8093C13.3276 45.2759 14.3363 42.2169 14.3692 42.1219Z" fill="#C38359"/>
<path id="path540" d="M14.9441 43.3622C15.5653 44.2731 16.1803 44.9935 16.7508 46.0937C17.0843 46.7357 16.8865 48.4626 16.3769 49.2113C16.2208 49.5471 15.9456 49.696 15.9456 49.696C15.9456 49.696 16.2587 47.3165 15.4218 45.865C14.6152 44.4651 14.3848 42.2806 14.3706 42.1283C14.3989 42.2103 14.6205 42.8867 14.9441 43.3622Z" fill="#6E2F08"/>
<path id="path542" d="M18.3145 44.1707C18.3148 44.1731 18.3162 44.1745 18.3162 44.177C18.3306 44.3294 18.5608 46.5136 19.3677 47.9137C20.2045 49.365 19.8915 51.7447 19.8915 51.7447C19.8915 51.7447 17.8724 50.1319 17.6021 48.8578C17.2729 47.3243 18.2816 44.2654 18.3145 44.1707Z" fill="#C38359"/>
<path id="path544" d="M18.8897 45.4109C19.511 46.3216 20.126 47.042 20.6962 48.1424C21.03 48.7844 20.8321 50.511 20.3225 51.2597C20.1664 51.5954 19.8912 51.7447 19.8912 51.7447C19.8912 51.7447 20.2043 49.365 19.3674 47.9137C18.5605 46.5136 18.3304 44.3294 18.3159 44.177C18.3446 44.259 18.5661 44.9351 18.8897 45.4109Z" fill="#6E2F08"/>
<path id="path546" d="M6.49512 49.8855C6.49808 49.886 6.50006 49.8852 6.50302 49.8857C6.68968 49.9138 9.37379 50.2949 11.2684 49.9753C13.2325 49.6434 16.0069 50.5411 16.0069 50.5411C16.0069 50.5411 13.5364 51.8419 11.9348 51.7361C10.0062 51.6116 6.60014 49.9388 6.49512 49.8855Z" fill="#C38359"/>
<path id="path548" d="M8.13699 49.7214C9.39526 49.431 10.4227 49.0956 11.895 48.8986C12.7543 48.7833 14.7753 49.4096 15.5394 50.0438C15.9012 50.2658 16.0073 50.541 16.0073 50.541C16.0073 50.541 13.2329 49.6434 11.2688 49.9752C9.37419 50.2948 6.69008 49.9138 6.50342 49.8857C6.60943 49.8832 7.4802 49.8723 8.13699 49.7214Z" fill="#6E2F08"/>
<path id="path550" d="M14.3706 55.1276C14.3732 55.127 14.3739 55.1256 14.3765 55.125C14.5273 55.0791 16.6857 54.4034 17.915 53.4945C19.1894 52.5521 21.672 52.2226 21.672 52.2226C21.672 52.2226 20.5102 54.0557 19.2832 54.5484C17.807 55.1434 14.4743 55.1292 14.3706 55.1276Z" fill="#C38359"/>
<path id="path552" d="M15.4932 54.4233C16.2704 53.7624 16.8564 53.1505 17.8375 52.4821C18.4097 52.0916 20.2046 51.8315 21.0813 52.0247C21.4576 52.0588 21.6729 52.2225 21.6729 52.2225C21.6729 52.2225 19.1903 52.5521 17.9159 53.4945C16.6866 54.4033 14.5282 55.0791 14.3774 55.125C14.4538 55.0853 15.0869 54.7676 15.4932 54.4233Z" fill="#6E2F08"/>
<path id="path554" d="M27.6682 21.9473C27.6659 21.9479 27.6649 21.9493 27.6626 21.9501C27.5194 21.9987 25.4743 22.7141 24.3316 23.625C23.1471 24.5696 20.7754 24.962 20.7754 24.962C20.7754 24.962 21.8134 23.1648 22.9716 22.654C24.3648 22.0371 27.5685 21.949 27.6682 21.9473Z" fill="#C38359"/>
<path id="path556" d="M26.6203 22.6585C25.9016 23.3174 25.3647 23.9233 24.4504 24.5955C23.9171 24.9882 22.2035 25.2931 21.3522 25.1344C20.9891 25.113 20.7754 24.9621 20.7754 24.9621C20.7754 24.9621 23.1471 24.5697 24.3316 23.6251C25.4743 22.7141 27.5194 21.9988 27.6626 21.9501C27.5908 21.9904 26.9959 22.3153 26.6203 22.6585Z" fill="#6E2F08"/>
<path id="path558" d="M22.7 20.9587C22.6987 20.9604 22.699 20.962 22.6974 20.9637C22.6141 21.0732 21.4358 22.6556 21.128 23.9565C20.8093 25.3054 19.1435 26.7836 19.1435 26.7836C19.1435 26.7836 18.7586 24.8108 19.3532 23.8287C20.067 22.6448 22.6197 21.0087 22.7 20.9587Z" fill="#C38359"/>
<path id="path560" d="M22.3332 22.0504C22.1985 22.9391 22.1755 23.6953 21.8904 24.6902C21.7244 25.2711 20.5356 26.3563 19.7323 26.6425C19.4216 26.8023 19.144 26.7837 19.144 26.7837C19.144 26.7837 20.8099 25.3055 21.1286 23.9566C21.4364 22.6557 22.6146 21.0733 22.6979 20.9638C22.667 21.0319 22.4043 21.5871 22.3332 22.0504Z" fill="#6E2F08"/>
<path id="path562" d="M18.7186 22.5194C18.7179 22.521 18.7186 22.5221 18.7179 22.5238C18.683 22.6244 18.1958 24.074 18.3067 25.1392C18.422 26.2439 17.5298 27.7059 17.5298 27.7059C17.5298 27.7059 16.7028 26.253 16.8993 25.3796C17.1341 24.3274 18.6702 22.5736 18.7186 22.5194Z" fill="#C38359"/>
<path id="path564" d="M18.7275 23.4342C18.8615 24.1476 19.0468 24.7371 19.0929 25.5613C19.1206 26.0421 18.4918 27.1093 17.9472 27.4842C17.7497 27.6673 17.5298 27.7059 17.5298 27.7059C17.5298 27.7059 18.422 26.2439 18.3067 25.1392C18.1958 24.074 18.683 22.6244 18.7179 22.5238C18.7123 22.5825 18.658 23.0621 18.7275 23.4342Z" fill="#6E2F08"/>
<path id="path566" d="M26.8108 26.0281C26.8085 26.0283 26.8079 26.0295 26.8056 26.03C26.6755 26.0581 24.8118 26.4794 23.7014 27.1561C22.5508 27.8581 20.4487 27.9687 20.4487 27.9687C20.4487 27.9687 21.5882 26.5161 22.6581 26.1862C23.945 25.7874 26.7243 26.0197 26.8108 26.0281Z" fill="#C38359"/>
<path id="path568" d="M25.8097 26.5416C25.0996 27.0416 24.5537 27.5132 23.6731 28.0059C23.1592 28.2938 21.6375 28.3922 20.9238 28.1729C20.613 28.1196 20.4487 27.9687 20.4487 27.9687C20.4487 27.9687 22.5508 27.8581 23.7014 27.1561C24.8118 26.4794 26.6755 26.0581 26.8056 26.03C26.7381 26.0578 26.1804 26.2812 25.8097 26.5416Z" fill="#6E2F08"/>
<path id="path570" d="M21.1221 25.0573C21.1204 25.059 21.1204 25.0604 21.1188 25.0618C21.0293 25.1601 19.7598 26.5839 19.3437 27.7986C18.9127 29.0586 17.1899 30.35 17.1899 30.35C17.1899 30.35 17.0118 28.4497 17.6702 27.5571C18.4604 26.481 21.0408 25.0993 21.1221 25.0573Z" fill="#C38359"/>
<path id="path572" d="M20.6685 26.0694C20.4558 26.9045 20.3623 27.6212 19.9969 28.5472C19.7842 29.0874 18.5516 30.0382 17.7615 30.2555C17.451 30.3864 17.189 30.35 17.189 30.35C17.189 30.35 18.9118 29.0585 19.3427 27.7985C19.7588 26.5838 21.0283 25.1601 21.1178 25.0617C21.0823 25.1242 20.7797 25.6342 20.6685 26.0694Z" fill="#6E2F08"/>
<path id="path574" d="M22.2368 29.2145C22.2345 29.2151 22.2338 29.2164 22.2315 29.2173C22.0972 29.2681 20.1802 30.0135 19.1316 30.9167C18.0445 31.8535 15.8022 32.3012 15.8022 32.3012C15.8022 32.3012 16.7125 30.5568 17.7937 30.034C19.0938 29.4029 22.1416 29.2189 22.2368 29.2145Z" fill="#C38359"/>
<path id="path576" d="M21.2695 29.9246C20.6137 30.5746 20.1288 31.1685 19.287 31.8374C18.7965 32.2281 17.1774 32.5719 16.3596 32.4474C16.0126 32.4382 15.8022 32.3012 15.8022 32.3012C15.8022 32.3012 18.0445 31.8535 19.1316 30.9167C20.1802 30.0135 22.0972 29.2682 22.2315 29.2173C22.165 29.2579 21.6123 29.5858 21.2695 29.9246Z" fill="#6E2F08"/>
<path id="path578" d="M13.6449 25.1765C13.6446 25.1793 13.6459 25.1807 13.6459 25.1832C13.6413 25.3383 13.6047 27.5662 14.2473 29.0519C14.9143 30.5924 14.3046 32.9698 14.3046 32.9698C14.3046 32.9698 12.463 31.1626 12.3468 29.8512C12.2032 28.2724 13.5998 25.2696 13.6449 25.1765Z" fill="#C38359"/>
<path id="path580" d="M14.0732 26.4805C14.5888 27.4556 15.1215 28.2377 15.5626 29.4001C15.8204 30.078 15.4075 31.8057 14.8005 32.5177C14.6013 32.8434 14.3047 32.9698 14.3047 32.9698C14.3047 32.9698 14.9144 30.5924 14.2474 29.0519C13.6047 27.5662 13.6413 25.3383 13.6459 25.1832C13.6643 25.2685 13.8049 25.9716 14.0732 26.4805Z" fill="#6E2F08"/>
<path id="path582" d="M17.4637 28.0485C17.462 28.0507 17.4624 28.0524 17.4607 28.0546C17.3725 28.1908 16.1251 30.1544 15.8854 31.7232C15.6379 33.3498 13.8005 35.2234 13.8005 35.2234C13.8005 35.2234 13.1506 32.9038 13.7623 31.694C14.4958 30.2367 17.3728 28.1135 17.4637 28.0485Z" fill="#C38359"/>
<path id="path584" d="M17.1321 29.3727C17.0584 30.4387 17.1048 31.34 16.8625 32.543C16.7219 33.245 15.4133 34.6187 14.4859 35.0147C14.132 35.2265 13.7998 35.2234 13.7998 35.2234C13.7998 35.2234 15.6372 33.3498 15.8847 31.7232C16.1244 30.1544 17.3718 28.1907 17.46 28.0546C17.4301 28.1377 17.1716 28.8166 17.1321 29.3727Z" fill="#6E2F08"/>
<path id="path586" d="M19.4653 32.9698C19.4633 32.9709 19.463 32.9726 19.4607 32.974C19.3379 33.0607 17.5888 34.321 16.8056 35.5299C15.994 36.7838 13.7998 37.8132 13.7998 37.8132C13.7998 37.8132 14.1428 35.7567 15.0933 34.9385C16.2357 33.9519 19.3672 32.9982 19.4653 32.9698Z" fill="#C38359"/>
<path id="path588" d="M18.7002 33.9558C18.2399 34.8012 17.9394 35.5452 17.2915 36.4567C16.9139 36.9889 15.3363 37.7537 14.4352 37.8271C14.0681 37.9043 13.7998 37.8132 13.7998 37.8132C13.7998 37.8132 15.994 36.7838 16.8056 35.5299C17.5888 34.321 19.3379 33.0607 19.4607 32.974C19.4054 33.0332 18.9409 33.5151 18.7002 33.9558Z" fill="#6E2F08"/>
<path id="path590" d="M11.6984 32.3012C11.6987 32.3031 11.7 32.304 11.7004 32.3056C11.7323 32.4176 12.211 34.0203 13.0077 34.9813C13.8347 35.9776 13.9361 37.7798 13.9361 37.7798C13.9361 37.7798 12.207 36.7819 11.8264 35.8609C11.3662 34.7523 11.6872 32.3751 11.6984 32.3012Z" fill="#C38359"/>
<path id="path592" d="M12.3004 33.1666C12.891 33.7822 13.4497 34.2568 14.0287 35.0186C14.3672 35.4629 14.4627 36.7677 14.1884 37.3758C14.1196 37.6412 13.9359 37.7798 13.9359 37.7798C13.9359 37.7798 13.8345 35.9776 13.0075 34.9813C12.2108 34.0203 11.7321 32.4176 11.7002 32.3056C11.7331 32.364 11.9929 32.8451 12.3004 33.1666Z" fill="#6E2F08"/>
<path id="path594" d="M17.4295 37.1968C17.4279 37.1979 17.4276 37.1993 17.4259 37.2004C17.3235 37.2766 15.8671 38.381 15.231 39.4242C14.5726 40.5061 12.731 41.4218 12.731 41.4218C12.731 41.4218 12.9706 39.6654 13.7588 38.9521C14.7059 38.0914 17.3469 37.2229 17.4295 37.1968Z" fill="#C38359"/>
<path id="path596" d="M16.8034 38.05C16.4333 38.7778 16.1966 39.4164 15.6682 40.204C15.3604 40.664 14.0373 41.3435 13.2722 41.4224C12.9621 41.4946 12.731 41.4218 12.731 41.4218C12.731 41.4218 14.5726 40.5061 15.231 39.4242C15.8671 38.381 17.3235 37.2766 17.4259 37.2004C17.3802 37.2521 16.9969 37.6706 16.8034 38.05Z" fill="#6E2F08"/>
<path id="path598" d="M12.9389 36.716C12.9379 36.7185 12.9389 36.7202 12.9382 36.7227C12.8961 36.8772 12.317 39.0991 12.5978 40.6965C12.8895 42.3528 11.701 44.6247 11.701 44.6247C11.701 44.6247 10.2992 42.4976 10.502 41.1659C10.7433 39.5621 12.871 36.8014 12.9389 36.716Z" fill="#C38359"/>
<path id="path600" d="M13.049 38.0945C13.3272 39.1594 13.6692 40.0337 13.8273 41.2726C13.9201 41.9954 13.0865 43.652 12.306 44.2584C12.0274 44.5494 11.7002 44.6247 11.7002 44.6247C11.7002 44.6247 12.8887 42.3528 12.597 40.6965C12.3162 39.0991 12.8953 36.8772 12.9374 36.7227C12.9351 36.8114 12.9045 37.5389 13.049 38.0945Z" fill="#6E2F08"/>
<path id="path896" d="M32.3944 43.7112C30.9014 44.0834 28.0237 44.0133 26.1172 43.315V41.172H26.4201C28.4329 42.1989 32.2117 42.5796 32.2117 40.6082C32.2117 39.2967 30.3957 39.494 28.8191 39.494V37.7507C30.0793 37.7507 31.3695 37.8224 31.8548 37.2363C32.0454 37.0059 32.45 35.881 30.6824 35.7128C29.277 35.5778 27.9394 35.8985 26.7384 36.499H26.451V34.3819C28.8517 33.5668 33.4064 33.3356 34.6264 35.1359C35.4571 36.3643 34.6488 38.1373 32.7631 38.4783V38.57C36.1827 38.9666 36.153 42.7747 32.3944 43.7112Z" fill="#FFAE67"/>
</g>
</svg>
