<svg width="46" height="45" viewBox="0 0 46 45" fill="none" xmlns="http://www.w3.org/2000/svg">
<ellipse cx="22.9819" cy="22.5" rx="22.9819" ry="22.5" fill="#21B573"/>
<path d="M18.53 16.47V23.64C18.53 24.75 18.215 25.605 17.585 26.205C16.965 26.805 16.125 27.105 15.065 27.105C13.955 27.105 13.065 26.79 12.395 26.16C11.725 25.53 11.39 24.635 11.39 23.475H13.94C13.94 23.915 14.03 24.25 14.21 24.48C14.39 24.7 14.65 24.81 14.99 24.81C15.3 24.81 15.54 24.71 15.71 24.51C15.88 24.31 15.965 24.02 15.965 23.64V16.47H18.53ZM27.1569 25.14H23.2269L22.5969 27H19.9119L23.7219 16.47H26.6919L30.5019 27H27.7869L27.1569 25.14ZM26.4969 23.16L25.1919 19.305L23.9019 23.16H26.4969Z" fill="#0D0D0D"/>
</svg>
