<svg width="45" height="46" viewBox="0 0 45 46" fill="none" xmlns="http://www.w3.org/2000/svg">
<circle cx="22.5" cy="23.4528" r="22.5" fill="#1A85FF"/>
<path d="M16.91 29.0578C15.92 29.0578 15.01 28.8278 14.18 28.3678C13.36 27.9078 12.705 27.2678 12.215 26.4478C11.735 25.6178 11.495 24.6878 11.495 23.6578C11.495 22.6278 11.735 21.7028 12.215 20.8828C12.705 20.0628 13.36 19.4228 14.18 18.9628C15.01 18.5028 15.92 18.2728 16.91 18.2728C17.9 18.2728 18.805 18.5028 19.625 18.9628C20.455 19.4228 21.105 20.0628 21.575 20.8828C22.055 21.7028 22.295 22.6278 22.295 23.6578C22.295 24.6878 22.055 25.6178 21.575 26.4478C21.095 27.2678 20.445 27.9078 19.625 28.3678C18.805 28.8278 17.9 29.0578 16.91 29.0578ZM16.91 26.7178C17.75 26.7178 18.42 26.4378 18.92 25.8778C19.43 25.3178 19.685 24.5778 19.685 23.6578C19.685 22.7278 19.43 21.9878 18.92 21.4378C18.42 20.8778 17.75 20.5978 16.91 20.5978C16.06 20.5978 15.38 20.8728 14.87 21.4228C14.37 21.9728 14.12 22.7178 14.12 23.6578C14.12 24.5878 14.37 25.3328 14.87 25.8928C15.38 26.4428 16.06 26.7178 16.91 26.7178ZM31.297 18.4228V20.4778H28.507V28.9528H25.942V20.4778H23.152V18.4228H31.297Z" fill="#0D0D0D"/>
</svg>
