<svg width="85" height="121" viewBox="0 0 85 121" fill="none" xmlns="http://www.w3.org/2000/svg">
<g id="Group">
<g id="Group_2">
<path id="Vector" d="M37.6201 81.5898L20.8201 119.6" stroke="#0E0E0E" stroke-width="1.66" stroke-miterlimit="10" stroke-linecap="round"/>
<path id="Vector_2" d="M50.5898 81.5898L67.3799 119.6" stroke="#0E0E0E" stroke-width="1.66" stroke-miterlimit="10" stroke-linecap="round"/>
<path id="Vector_3" d="M44.55 76.9799V115.76" stroke="#0E0E0E" stroke-width="1.66" stroke-miterlimit="10" stroke-linecap="round"/>
<g id="Group_3">
<path id="Vector_4" d="M4.21997 81.5899C4.21997 85.2899 22.28 88.2899 44.55 88.2899C66.82 88.2899 84.88 85.2899 84.88 81.5899C84.88 77.8899 66.82 74.8899 44.55 74.8899C22.28 74.8899 4.21997 77.8899 4.21997 81.5899Z" fill="#71626B"/>
<path id="Vector_5" d="M84.88 76.9799H4.21997V81.5899H84.88V76.9799Z" fill="#71626B"/>
<path id="Vector_6" d="M4.21997 76.9799C4.21997 80.6799 22.28 83.6799 44.55 83.6799C66.82 83.6799 84.88 80.6799 84.88 76.9799C84.88 73.2799 66.82 70.2799 44.55 70.2799C22.28 70.2799 4.21997 73.2799 4.21997 76.9799Z" fill="#E4CBC7"/>
</g>
</g>
<g id="Group_4">
<g id="Group_5">
<g id="Group_6">
<path id="Vector_7" d="M53.2101 30.26C46.9401 38.86 43.88 50.38 41.05 60.43" stroke="#2B6C71" stroke-width="0.83" stroke-miterlimit="10"/>
<g id="Group_7">
<path id="Vector_8" d="M80.33 50.3699C80.33 50.3699 78.59 40.3799 65.59 30.4999C52.59 20.6199 52.31 31.2099 52.31 31.2099C52.31 31.2099 46.76 33.9 59.02 49.58L60.47 42.47L62.92 51.1399L69.89 53.86V48.8L73.23 53.96C73.23 53.96 80.1 51.98 80.33 50.35V50.3699Z" fill="#124847"/>
<path id="Vector_9" d="M80.3301 50.3699C80.3301 50.3699 60.9401 25.1199 52.3101 31.2099" stroke="#2B6C71" stroke-width="0.83" stroke-miterlimit="10" stroke-linecap="round"/>
</g>
</g>
<g id="Group_8">
<path id="Vector_10" d="M32.53 18.1799C37.77 32.7099 36.44 43.3399 37.43 62.4399" stroke="#2B6C71" stroke-width="0.83" stroke-miterlimit="10"/>
<g id="Group_9">
<path id="Vector_11" d="M1.40005 1.38994C1.40005 1.38994 11.0201 -3.03005 26.3201 4.60995C41.6301 12.2599 32.5201 19.2199 32.5201 19.2199C32.5201 19.2199 33.0201 26.8399 13.0301 23.6199L18.5001 17.5999L9.66006 20.4399L3.70005 14.7199L8.12006 11.5599L1.89005 11.2299C1.89005 11.2299 0.0900522 2.65994 1.39005 1.38994H1.40005Z" fill="#124847"/>
<path id="Vector_12" d="M1.40015 1.38989C1.40015 1.38989 33.4101 6.17989 32.5301 19.2199" stroke="#2B6C71" stroke-width="0.83" stroke-miterlimit="10" stroke-linecap="round"/>
</g>
</g>
</g>
<path id="Vector_13" d="M29.48 51.5199H48.71L43.41 76.4099H33.57L29.48 51.5199Z" fill="#8D95B9"/>
</g>
</g>
</svg>
